<svg width="19" height="22" viewBox="0 0 19 22" fill="none" xmlns="http://www.w3.org/2000/svg">
<path d="M13.5827 13.011C13.4844 13.0107 13.386 13.0104 13.2877 13.01C13.0216 13.0091 12.7555 13.0089 12.4894 13.0088C12.3227 13.0087 12.1561 13.0085 11.9894 13.0082C11.4069 13.0073 10.8244 13.0069 10.2419 13.007C9.70082 13.007 9.15972 13.006 8.61862 13.0044C8.15259 13.003 7.68656 13.0025 7.22052 13.0025C6.94285 13.0026 6.66517 13.0023 6.3875 13.0012C6.12595 13.0002 5.86442 13.0002 5.60287 13.001C5.50756 13.0011 5.41224 13.0008 5.31692 13.0002C4.56433 12.9956 3.8193 13.0657 3.12461 13.4166C3.08907 13.434 3.05352 13.4514 3.01689 13.4693C1.74751 14.1108 0.786282 15.2804 0.281914 16.7234C0.105494 17.2722 0.0109787 17.8387 0.00632477 18.4206C0.00595665 18.465 0.00559044 18.5093 0.00521088 18.5551C0.00458336 18.6488 0.00409317 18.7425 0.00373268 18.8363C0.00321007 18.9311 0.00227928 19.0259 0.000928879 19.1207C-0.0118809 20.0221 0.102398 20.6757 0.675127 21.3525C1.16662 21.8691 1.73883 22.0029 2.39923 21.9978C2.46322 21.998 2.52721 21.9983 2.59121 21.9987C2.76558 21.9996 2.93994 21.9992 3.11432 21.9985C3.30294 21.9981 3.49157 21.9988 3.68019 21.9994C4.04913 22.0003 4.41807 22.0001 4.78701 21.9995C5.08698 21.999 5.38695 21.999 5.68692 21.9992C5.72969 21.9992 5.77246 21.9992 5.81653 21.9993C5.90343 21.9993 5.99033 21.9994 6.07723 21.9995C6.89119 22 7.70515 21.9994 8.51911 21.9983C9.2168 21.9974 9.91449 21.9975 10.6122 21.9985C11.4233 21.9996 12.2345 22 13.0456 21.9994C13.1322 21.9993 13.2188 21.9992 13.3053 21.9992C13.3692 21.9991 13.3692 21.9991 13.4344 21.9991C13.7338 21.9989 14.0333 21.9992 14.3327 21.9997C14.6979 22.0002 15.063 22.0001 15.4282 21.999C15.6143 21.9985 15.8005 21.9983 15.9866 21.9989C16.1573 21.9995 16.328 21.9992 16.4987 21.9981C16.589 21.9978 16.6794 21.9985 16.7698 21.9992C17.4377 21.9927 17.9363 21.7471 18.4197 21.2381C18.926 20.6388 19.0056 19.9485 18.9988 19.157C18.9979 19.0221 18.9988 18.8872 19 18.7523C19.0012 17.9779 18.9137 17.2037 18.6247 16.4918C18.6013 16.4323 18.6013 16.4323 18.5774 16.3717C18.0171 14.9922 17 13.9128 15.7347 13.3667C15.5114 13.2739 15.2873 13.1909 15.0559 13.1275C15.026 13.119 14.9962 13.1104 14.9655 13.1017C14.5099 12.99 14.0465 13.0108 13.5827 13.011ZM16.1952 15.6182C16.2255 15.6446 16.2558 15.6711 16.287 15.6984C16.9953 16.3391 17.3618 17.2834 17.4922 18.2673C17.5058 18.4182 17.5127 18.5673 17.5168 18.7188C17.5191 18.7856 17.5215 18.8524 17.5239 18.9211C17.5468 19.5318 17.5468 19.5318 17.3213 20.0698C17.0049 20.3982 16.6013 20.36 16.1984 20.3586C16.1389 20.3588 16.0793 20.359 16.018 20.3592C15.8532 20.3598 15.6885 20.3596 15.5237 20.3594C15.3458 20.3593 15.168 20.3598 14.9901 20.3601C14.6418 20.3608 14.2935 20.3609 13.9452 20.3608C13.662 20.3607 13.3789 20.3608 13.0958 20.361C13.0554 20.361 13.0151 20.361 12.9736 20.3611C12.8917 20.3611 12.8098 20.3612 12.7279 20.3612C11.96 20.3618 11.1922 20.3617 10.4243 20.3614C9.72202 20.3611 9.01978 20.3617 8.31753 20.3627C7.5962 20.3636 6.87488 20.3641 6.15355 20.3639C5.74869 20.3638 5.34382 20.3639 4.93896 20.3646C4.59428 20.3652 4.24962 20.3653 3.90494 20.3647C3.72916 20.3644 3.55338 20.3643 3.37759 20.3649C3.18687 20.3656 2.99616 20.3651 2.80543 20.3644C2.7501 20.3648 2.69478 20.3652 2.63777 20.3655C2.32214 20.3633 1.97991 20.3597 1.72243 20.1281C1.4258 19.7683 1.45591 19.2869 1.4705 18.8309C1.52658 17.5695 1.90771 16.5395 2.72087 15.6553C3.65866 14.7534 4.74815 14.6446 5.93257 14.645C6.01856 14.6448 6.10455 14.6447 6.19054 14.6445C6.42293 14.644 6.65532 14.6439 6.88771 14.6439C7.03326 14.6438 7.17881 14.6437 7.32435 14.6436C7.83313 14.6431 8.3419 14.6429 8.85068 14.643C9.32328 14.643 9.79589 14.6425 10.2685 14.6417C10.6756 14.641 11.0827 14.6407 11.4899 14.6408C11.7324 14.6408 11.975 14.6406 12.2175 14.6401C12.4459 14.6396 12.6742 14.6396 12.9026 14.64C12.9859 14.64 13.0691 14.6399 13.1523 14.6396C14.2697 14.6357 15.3118 14.781 16.1952 15.6182Z" fill="#D91374"/>
<path d="M6.35334 1.23013C6.19124 1.36216 6.03612 1.5006 5.88178 1.6416C5.8223 1.69489 5.8223 1.69489 5.76162 1.74926C5.1996 2.27889 4.80409 2.9241 4.4925 3.6244C4.45662 3.70367 4.45662 3.70367 4.42002 3.78454C3.83376 5.1849 3.88452 6.84532 4.42738 8.24681C4.72085 8.95987 5.11437 9.5507 5.6337 10.1181C5.66926 10.1577 5.70482 10.1973 5.74146 10.2381C6.27184 10.7999 6.91747 11.194 7.61838 11.506C7.6707 11.5299 7.72302 11.5538 7.77692 11.5785C9.17473 12.1678 10.8483 12.1149 12.2483 11.5711C12.9602 11.2772 13.5514 10.8838 14.1182 10.3659C14.1579 10.3304 14.1975 10.2949 14.2384 10.2583C14.8004 9.72864 15.1959 9.08343 15.5075 8.38312C15.5314 8.33028 15.5553 8.27744 15.58 8.22299C16.1662 6.82263 16.1155 5.1622 15.5726 3.76072C15.2791 3.04765 14.8856 2.45683 14.3663 1.88945C14.3307 1.84983 14.2952 1.81022 14.2585 1.7694C13.7282 1.20765 13.0825 0.813488 12.3816 0.50149C12.3293 0.477592 12.277 0.453694 12.2231 0.429071C10.3382 -0.365598 7.95685 -0.0325237 6.35334 1.23013ZM12.977 2.83128C13.0084 2.85857 13.0397 2.88585 13.072 2.91396C13.8169 3.60209 14.2823 4.66145 14.3372 5.66297C14.3789 6.93693 14.0488 8.03087 13.1755 8.97796C13.1346 9.02474 13.1346 9.02474 13.0929 9.07246C12.3511 9.87567 11.2068 10.3186 10.1301 10.3675C8.95495 10.3573 7.89559 9.96838 7.02297 9.17624C6.99163 9.14896 6.96029 9.12167 6.928 9.09356C6.1831 8.40543 5.71775 7.34608 5.66277 6.34456C5.62112 5.0706 5.95119 3.97665 6.82451 3.02956C6.85175 2.99838 6.879 2.9672 6.90707 2.93507C7.64892 2.13186 8.7932 1.68889 9.86995 1.64005C11.0451 1.65018 12.1044 2.03914 12.977 2.83128Z" fill="#D91374"/>
</svg>
