<svg width="24" height="24" viewBox="0 0 24 24" fill="none" xmlns="http://www.w3.org/2000/svg">
<g clip-path="url(#clip0_10_32)">
<path d="M1.63172 0.993165C1.66644 1.00941 1.70115 1.02566 1.73692 1.0424C1.81588 1.07939 1.89468 1.11672 1.97335 1.15432C2.12753 1.22741 2.28256 1.2985 2.43775 1.36945C2.55386 1.42268 2.66994 1.47599 2.78602 1.5293C2.84096 1.55451 2.89591 1.57971 2.95252 1.60569C3.67479 1.94058 4.28554 2.25062 4.64051 3C4.84686 3.57095 4.97769 4.16195 5.11127 4.75305C5.13387 4.852 5.15649 4.95095 5.17913 5.04989C5.22756 5.26175 5.2758 5.47366 5.3239 5.6856C5.40015 6.02159 5.47689 6.35746 5.55368 6.69333C5.79091 7.73167 6.0268 8.77031 6.26163 9.80919C6.33248 10.1227 6.40337 10.4361 6.47442 10.7495C6.48132 10.78 6.48823 10.8105 6.49534 10.8418C6.52983 10.994 6.56433 11.1461 6.59883 11.2983C6.6797 11.655 6.76017 12.0118 6.84034 12.3687C6.89029 12.5907 6.94059 12.8126 6.99098 13.0345C7.01434 13.1377 7.03755 13.241 7.06061 13.3443C7.09211 13.4853 7.12412 13.6262 7.15626 13.7671C7.16531 13.8082 7.17437 13.8493 7.18369 13.8916C7.24675 14.1646 7.30339 14.369 7.54676 14.5313C7.64456 14.5453 7.64456 14.5453 7.75374 14.543C7.79633 14.5433 7.83892 14.5435 7.8828 14.5438C7.92965 14.5436 7.9765 14.5434 8.02478 14.5432C8.09936 14.5434 8.09936 14.5434 8.17545 14.5436C8.3429 14.544 8.51033 14.5437 8.67778 14.5434C8.79749 14.5435 8.9172 14.5437 9.03692 14.5439C9.32884 14.5443 9.62076 14.5442 9.91268 14.5439C10.1499 14.5437 10.3872 14.5437 10.6244 14.5438C10.6582 14.5438 10.6919 14.5438 10.7267 14.5438C10.7952 14.5439 10.8637 14.5439 10.9323 14.5439C11.5754 14.5442 12.2185 14.5439 12.8616 14.5434C13.4135 14.543 13.9654 14.543 14.5172 14.5435C15.1579 14.544 15.7985 14.5442 16.4391 14.5439C16.5074 14.5439 16.5757 14.5438 16.644 14.5438C16.6776 14.5438 16.7113 14.5438 16.7459 14.5438C16.9828 14.5437 17.2198 14.5438 17.4567 14.544C17.7757 14.5443 18.0946 14.5441 18.4136 14.5436C18.5308 14.5434 18.648 14.5435 18.7652 14.5437C18.9249 14.5439 19.0846 14.5436 19.2443 14.5432C19.3143 14.5435 19.3143 14.5435 19.3857 14.5438C19.6914 14.5489 19.6914 14.5489 19.9686 14.4375C20.023 14.3335 20.023 14.3335 20.0456 14.2075C20.0564 14.161 20.0672 14.1145 20.0783 14.0666C20.0936 13.995 20.0936 13.995 20.1093 13.9219C20.1302 13.835 20.1513 13.7482 20.1725 13.6615C20.1943 13.5686 20.216 13.4756 20.2375 13.3827C20.2495 13.3314 20.2615 13.28 20.2739 13.2272C20.3133 13.0582 20.3527 12.8892 20.392 12.7202C20.42 12.6002 20.4479 12.4802 20.4759 12.3602C20.5348 12.1079 20.5936 11.8556 20.6523 11.6033C20.7114 11.3494 20.7706 11.0955 20.8298 10.8415C20.837 10.8107 20.8442 10.7799 20.8516 10.7482C20.8588 10.7174 20.866 10.6866 20.8734 10.6549C21.0159 10.044 21.1581 9.43297 21.2998 8.82184C21.3798 8.47706 21.4602 8.13239 21.5409 7.78779C21.5901 7.57765 21.6389 7.36745 21.6877 7.15724C21.7103 7.06011 21.7331 6.96301 21.7559 6.86594C21.7871 6.73351 21.8179 6.60098 21.8485 6.46842C21.8576 6.43018 21.8667 6.39194 21.8761 6.35254C21.9356 6.09215 21.9911 5.83951 21.8788 5.58692C21.7901 5.47605 21.7396 5.44232 21.6093 5.39063C21.4929 5.37663 21.4929 5.37663 21.3654 5.37875C21.3158 5.37849 21.2662 5.37822 21.2151 5.37795C21.1334 5.37823 21.1334 5.37823 21.05 5.37852C20.9921 5.37835 20.9342 5.37817 20.8746 5.378C20.7138 5.37761 20.553 5.37764 20.3922 5.37784C20.2188 5.37796 20.0455 5.37753 19.8721 5.37717C19.5716 5.3766 19.271 5.37637 18.9705 5.37633C18.5356 5.37627 18.1007 5.37556 17.6658 5.37467C16.9597 5.37322 16.2536 5.37209 15.5475 5.37125C15.4841 5.37118 15.4841 5.37118 15.4194 5.3711C14.9479 5.37054 14.4764 5.37007 14.005 5.36967C13.8341 5.36953 13.6632 5.36938 13.4924 5.36924C13.4291 5.36918 13.4291 5.36918 13.3646 5.36913C12.6614 5.36852 11.9581 5.36736 11.2549 5.36578C10.8212 5.36483 10.3874 5.36435 9.9537 5.36447C9.65639 5.36452 9.35909 5.36406 9.06178 5.36322C8.89028 5.36275 8.71879 5.36251 8.54728 5.36288C8.36124 5.36328 8.17521 5.3626 7.98917 5.36181C7.93513 5.3621 7.88109 5.36239 7.8254 5.36269C7.48882 5.3601 7.19509 5.33966 6.92603 5.1156C6.70351 4.84197 6.5842 4.64422 6.59498 4.28449C6.62607 4.03934 6.70799 3.83519 6.88776 3.66266C7.10884 3.49207 7.27337 3.41612 7.55566 3.41558C7.60634 3.41538 7.65703 3.41517 7.70925 3.41495C7.76515 3.41496 7.82104 3.41497 7.87863 3.41498C7.93786 3.4148 7.99708 3.41463 8.05809 3.41445C8.22281 3.41399 8.38753 3.41381 8.55225 3.41369C8.72979 3.4135 8.90733 3.41305 9.08487 3.41265C9.51391 3.41172 9.94295 3.41125 10.372 3.41083C10.5741 3.41062 10.7762 3.41037 10.9783 3.41013C11.6504 3.40933 12.3225 3.40865 12.9946 3.40831C13.1691 3.40822 13.3435 3.40813 13.518 3.40804C13.5613 3.40802 13.6047 3.40799 13.6494 3.40797C14.3511 3.40758 15.0529 3.4064 15.7546 3.40487C16.4754 3.40332 17.1961 3.40248 17.9169 3.40233C18.3215 3.40223 18.726 3.40182 19.1306 3.40062C19.4753 3.3996 19.82 3.39922 20.1647 3.39968C20.3404 3.39989 20.5161 3.39981 20.6918 3.39889C20.8828 3.39791 21.0737 3.3984 21.2647 3.39901C21.347 3.39824 21.347 3.39824 21.4309 3.39745C22.1422 3.40297 22.7257 3.65266 23.2411 4.13965C23.74 4.66797 23.9478 5.29092 23.9288 6.01403C23.8943 6.57072 23.7347 7.11786 23.604 7.65852C23.5596 7.84296 23.5163 8.02764 23.473 8.2123C23.416 8.45431 23.359 8.69628 23.3014 8.93815C23.1487 9.58047 22.9991 10.2235 22.8506 10.8668C22.7745 11.1965 22.6983 11.5261 22.622 11.8557C22.5592 12.1271 22.4965 12.3985 22.4338 12.67C22.3743 12.928 22.3144 13.1859 22.2544 13.4438C22.2322 13.5392 22.2101 13.6346 22.1882 13.7301C21.9665 14.6927 21.7618 15.5666 20.9003 16.1572C20.2203 16.5575 19.5578 16.5269 18.7899 16.5243C18.6656 16.5245 18.5414 16.5248 18.4171 16.5253C18.1158 16.5261 17.8145 16.5259 17.5132 16.5254C17.2681 16.5249 17.023 16.5249 16.7779 16.5251C16.7254 16.5251 16.7254 16.5251 16.6719 16.5252C16.6008 16.5252 16.5296 16.5253 16.4585 16.5254C15.793 16.5259 15.1275 16.5253 14.4621 16.5243C13.8921 16.5234 13.3222 16.5236 12.7522 16.5244C12.089 16.5255 11.4257 16.5258 10.7625 16.5253C10.6917 16.5252 10.6208 16.5251 10.55 16.5251C10.5151 16.5251 10.4803 16.525 10.4444 16.525C10.1998 16.5248 9.95529 16.5251 9.71075 16.5256C9.41238 16.5261 9.11402 16.5259 8.81566 16.5249C8.66368 16.5245 8.51171 16.5244 8.35973 16.5249C7.41248 16.5278 6.7029 16.4584 5.96766 15.7998C5.37664 15.1516 5.2426 14.286 5.05991 13.4582C5.01893 13.2736 4.9768 13.0893 4.9348 12.9049C4.8607 12.579 4.78727 12.253 4.71418 11.9269C4.58549 11.3529 4.45458 10.7795 4.32355 10.2061C4.27687 10.0017 4.2302 9.79733 4.18353 9.59294C4.17192 9.5421 4.16032 9.49126 4.14835 9.43888C4.0211 8.88146 3.8942 8.32396 3.76746 7.76642C3.75646 7.71804 3.74546 7.66967 3.73413 7.61983C3.60167 7.03707 3.46984 6.45419 3.33895 5.87108C3.28958 5.65132 3.23998 5.43161 3.19042 5.21189C3.15344 5.04741 3.11687 4.88284 3.08031 4.71826C3.05865 4.62213 3.03697 4.526 3.01526 4.42987C3.0015 4.36695 3.0015 4.36695 2.98745 4.30276C2.91603 3.93152 2.91603 3.93152 2.68808 3.6489C2.58784 3.59433 2.48629 3.54712 2.3819 3.50098C2.3439 3.48331 2.30589 3.46565 2.26674 3.44745C2.14528 3.39121 2.0233 3.33621 1.90125 3.28125C1.8208 3.24435 1.74038 3.20736 1.66001 3.17029C1.54264 3.1162 1.42526 3.06215 1.30776 3.00834C0.304497 2.54867 0.304497 2.54867 0.136113 2.18665C0.0422098 1.91222 0.0491514 1.60673 0.169804 1.3418C0.299235 1.1194 0.45952 0.985503 0.694218 0.875977C1.04325 0.800697 1.31399 0.837128 1.63172 0.993165Z" fill="#D91374"/>
<path d="M10.9502 18.7972C11.4668 19.2452 11.8175 19.7437 11.9063 20.4375C11.954 21.1434 11.8001 21.7807 11.3321 22.3213C10.8639 22.8126 10.3473 23.1191 9.65597 23.1658C8.92549 23.1768 8.32802 22.9774 7.79635 22.4707C7.29575 21.9583 7.06544 21.3821 7.06666 20.6657C7.07688 20.0861 7.30556 19.4814 7.7059 19.0552C8.5948 18.2203 9.95042 18.0257 10.9502 18.7972ZM8.73843 20.2998C8.60358 20.4841 8.59719 20.6862 8.62509 20.9063C8.72835 21.2273 8.91266 21.4181 9.2081 21.5772C9.487 21.652 9.69591 21.6176 9.94418 21.4814C10.1497 21.3411 10.2946 21.148 10.3595 20.9063C10.3911 20.6272 10.3299 20.4299 10.172 20.2031C10.0067 20.0296 9.85435 19.89 9.60708 19.8655C9.1975 19.857 9.00076 19.994 8.73843 20.2998Z" fill="#D91374"/>
<path d="M19.2188 18.75C19.7109 19.109 20.0338 19.6276 20.1836 20.2167C20.3038 20.9966 20.1273 21.6565 19.6775 22.3002C19.3408 22.739 18.7586 23.0606 18.2167 23.1447C17.4902 23.2129 16.8654 23.0872 16.2798 22.6371C15.7373 22.1725 15.4251 21.5896 15.3646 20.8771C15.3431 20.2327 15.5423 19.6318 15.9529 19.1331C16.8256 18.2165 18.1556 18.0465 19.2188 18.75ZM17.1153 20.1973C16.9428 20.4509 16.9002 20.6451 16.9435 20.9449C17.0076 21.2036 17.1766 21.3695 17.3907 21.5156C17.5816 21.6161 17.7389 21.6279 17.9532 21.6094C18.2541 21.5108 18.4274 21.3683 18.6006 21.1055C18.6986 20.8374 18.6983 20.5952 18.5831 20.332C18.4509 20.0956 18.2537 19.9596 18 19.875C17.6414 19.8446 17.3616 19.9227 17.1153 20.1973Z" fill="#D91374"/>
</g>
<defs>
<clipPath id="clip0_10_32">
<rect width="24" height="24" fill="white"/>
</clipPath>
</defs>
</svg>
