<svg width="24" height="24" viewBox="0 0 24 24" fill="none" xmlns="http://www.w3.org/2000/svg">
<g clip-path="url(#clip0_148_134)">
<path d="M12.5609 0.134769C12.5923 0.152172 12.6238 0.169574 12.6563 0.187504C12.7302 0.228109 12.7302 0.228109 12.8057 0.269535C13.3599 0.712919 13.5205 1.35523 13.749 2.00391C13.7705 2.06458 13.792 2.12525 13.8136 2.18592C13.8654 2.33223 13.9172 2.47859 13.9688 2.625C14.0253 2.62538 14.0818 2.62576 14.14 2.62615C14.6738 2.62979 15.2076 2.63391 15.7413 2.63848C16.0157 2.64082 16.2901 2.64299 16.5645 2.64478C16.8295 2.64651 17.0945 2.64869 17.3596 2.65116C17.4604 2.65203 17.5613 2.65274 17.6622 2.65329C17.804 2.65408 17.9458 2.65544 18.0876 2.65693C18.1289 2.65703 18.1701 2.65714 18.2127 2.65724C18.717 2.66396 19.2206 2.74756 19.6062 3.09595C19.8819 3.39208 20.1108 3.73098 20.119 4.1471C20.1199 4.18932 20.1209 4.23154 20.1218 4.27504C20.123 4.34316 20.123 4.34316 20.1242 4.41266C20.1257 4.48259 20.1257 4.48259 20.1272 4.55394C20.1302 4.70295 20.133 4.85196 20.1357 5.00098C20.1378 5.10196 20.1398 5.20295 20.1419 5.30393C20.1469 5.55157 20.1517 5.79922 20.1563 6.04688C20.207 6.05567 20.2577 6.06446 20.31 6.07352C20.3777 6.08562 20.4453 6.09774 20.5129 6.10987C20.5629 6.11845 20.5629 6.11845 20.6139 6.12722C21.2709 6.2464 21.8085 6.65237 22.1924 7.19239C22.4389 7.59647 22.5999 8.0101 22.5991 8.48305C22.5991 8.51554 22.5991 8.54803 22.5991 8.5815C22.5991 8.68853 22.5987 8.79556 22.5983 8.90259C22.5982 8.97694 22.5982 9.05129 22.5981 9.12564C22.598 9.32107 22.5975 9.51649 22.597 9.71192C22.5965 9.91144 22.5963 10.111 22.596 10.3105C22.5955 10.7018 22.5947 11.0931 22.5938 11.4844C22.6454 11.4912 22.697 11.498 22.7501 11.505C23.1419 11.5648 23.4806 11.7781 23.7188 12.0938C23.924 12.444 24.0071 12.7231 24.0083 13.129C24.0088 13.1945 24.0088 13.1945 24.0092 13.2612C24.0102 13.4058 24.0107 13.5504 24.0112 13.695C24.0114 13.7445 24.0116 13.7939 24.0118 13.8449C24.0127 14.1068 24.0134 14.3687 24.0138 14.6306C24.0144 14.9005 24.016 15.1704 24.0178 15.4403C24.0191 15.6483 24.0195 15.8563 24.0196 16.0644C24.0198 16.1638 24.0204 16.2632 24.0213 16.3627C24.0224 16.5023 24.0224 16.642 24.022 16.7816C24.0226 16.8222 24.0232 16.8629 24.0239 16.9047C24.0198 17.384 23.8224 17.8033 23.4844 18.1406C23.2674 18.3084 23.0645 18.4149 22.7964 18.4722C22.7585 18.4804 22.7205 18.4886 22.6814 18.4971C22.6525 18.5032 22.6236 18.5093 22.5938 18.5156C22.5942 18.5566 22.5946 18.5975 22.595 18.6397C22.5988 19.0278 22.6016 19.416 22.6035 19.8042C22.6044 20.0037 22.6058 20.2032 22.6079 20.4027C22.61 20.5957 22.6111 20.7887 22.6115 20.9817C22.6119 21.0549 22.6126 21.128 22.6136 21.2012C22.6249 22.0466 22.4033 22.7055 21.8194 23.3286C21.4875 23.6395 21.104 23.8228 20.6719 23.9531C20.645 23.9614 20.6181 23.9697 20.5903 23.9783C20.4507 24.0069 20.3186 24.0061 20.176 24.0063C20.1295 24.0065 20.1295 24.0065 20.0819 24.0066C19.9774 24.0069 19.8729 24.0069 19.7683 24.0069C19.6928 24.0071 19.6173 24.0072 19.5418 24.0074C19.3339 24.0079 19.126 24.0081 18.9181 24.0082C18.694 24.0084 18.4699 24.0088 18.2458 24.0092C17.7044 24.0102 17.1629 24.0106 16.6215 24.0111C16.3665 24.0113 16.1115 24.0115 15.8565 24.0118C15.0087 24.0125 14.1609 24.0132 13.3131 24.0136C13.0931 24.0137 12.8731 24.0137 12.6531 24.0138C12.5984 24.0139 12.5437 24.0139 12.4873 24.0139C11.6018 24.0143 10.7162 24.0155 9.83057 24.017C8.92124 24.0186 8.01191 24.0194 7.10257 24.0196C6.59207 24.0197 6.08156 24.0201 5.57106 24.0213C5.13621 24.0223 4.70137 24.0227 4.26652 24.0222C4.04477 24.022 3.82302 24.0221 3.60127 24.023C3.39796 24.0238 3.19466 24.0238 2.99134 24.023C2.91809 24.0229 2.84484 24.0231 2.77159 24.0237C1.9334 24.0297 1.28602 23.8008 0.671455 23.2258C0.294558 22.823 -0.00514982 22.2619 -0.00628376 21.7008C-0.00649272 21.6527 -0.00670218 21.6047 -0.00691748 21.5552C-0.00690883 21.5025 -0.0068992 21.4498 -0.0068903 21.3956C-0.00706264 21.3395 -0.0072363 21.2835 -0.00741386 21.2257C-0.00784133 21.0701 -0.00805762 20.9145 -0.00818205 20.7589C-0.00836518 20.5911 -0.00881291 20.4232 -0.00922203 20.2554C-0.0101481 19.85 -0.0106217 19.4446 -0.0110388 19.0393C-0.0112443 18.8483 -0.0114957 18.6572 -0.0117412 18.4662C-0.0125386 17.8311 -0.013217 17.1959 -0.0135565 16.5607C-0.013646 16.3959 -0.0137366 16.2311 -0.0138283 16.0663C-0.013851 16.0253 -0.0138736 15.9844 -0.0138969 15.9421C-0.0142858 15.279 -0.0154724 14.6159 -0.0169954 13.9527C-0.0185471 13.2716 -0.0193907 12.5904 -0.0195403 11.9092C-0.0196417 11.5268 -0.0200502 11.1445 -0.0212498 10.7622C-0.0222694 10.4365 -0.022643 10.1109 -0.0221882 9.78516C-0.0219757 9.61914 -0.0220602 9.45313 -0.0229735 9.28711C-0.0239575 9.10668 -0.0234707 8.92626 -0.0228548 8.74582C-0.023369 8.69397 -0.0238843 8.64211 -0.0244141 8.58869C-0.0181844 7.82963 0.312888 7.22685 0.843758 6.70313C1.28559 6.30944 1.7675 6.14901 2.34376 6.04688C2.3324 6.01599 2.32104 5.9851 2.30933 5.95328C1.81421 4.59014 1.81421 4.59014 2.09437 3.91718C2.4 3.3231 2.88135 3.08244 3.4922 2.87036C3.57898 2.83941 3.66577 2.80845 3.75256 2.77749C3.84448 2.74482 3.9365 2.71243 4.02856 2.68013C4.22192 2.61227 4.41499 2.5436 4.60801 2.47478C4.67357 2.4514 4.73914 2.42803 4.80471 2.40466C4.83722 2.39308 4.86973 2.38149 4.90323 2.36955C5.00209 2.33435 5.10098 2.29922 5.19988 2.26411C5.7758 2.05961 6.34959 1.84953 6.92286 1.6377C7.78896 1.31827 8.65638 1.00258 9.52442 0.68848C9.58343 0.667125 9.64243 0.64577 9.70143 0.624415C10.1626 0.457548 10.1626 0.457548 10.3606 0.386298C10.5714 0.310472 10.7821 0.234555 10.9915 0.155037C11.5172 -0.0420785 12.0351 -0.118024 12.5609 0.134769ZM11.2019 1.61499C11.1552 1.63219 11.1086 1.6494 11.0605 1.66712C10.9057 1.72428 10.7512 1.78207 10.5967 1.83985C10.4871 1.88043 10.3775 1.92097 10.2679 1.96145C10.0966 2.02473 9.92527 2.08805 9.75404 2.15153C9.20975 2.35333 8.66417 2.5515 8.11839 2.74922C7.17035 3.09284 6.22338 3.43934 5.27708 3.78771C5.18941 3.81997 5.10174 3.85221 5.01407 3.88445C4.85069 3.94454 4.68733 4.00473 4.52399 4.06495C4.47616 4.08253 4.42833 4.10012 4.37904 4.11824C4.15949 4.19931 3.94035 4.28144 3.72214 4.36606C3.68459 4.38057 3.64704 4.39507 3.60836 4.41001C3.50765 4.45039 3.50765 4.45039 3.42188 4.54688C3.43243 4.86763 3.56567 5.1589 3.6797 5.45508C3.69921 5.50687 3.71873 5.55865 3.73884 5.612C3.81075 5.84559 3.81075 5.84559 3.93751 6.04688C4.02233 6.0514 4.10734 6.05259 4.19228 6.05252C4.27521 6.05261 4.27521 6.05261 4.3598 6.05271C4.421 6.05254 4.4822 6.05237 4.54525 6.0522C4.60991 6.05219 4.67457 6.05219 4.73923 6.05222C4.91529 6.05223 5.09136 6.05196 5.26742 6.05163C5.45122 6.05134 5.63503 6.05131 5.81883 6.05126C6.16712 6.05111 6.51541 6.05072 6.86371 6.05025C7.26013 6.04973 7.65654 6.04947 8.05296 6.04924C8.86864 6.04875 9.68433 6.04792 10.5 6.04688C10.5007 5.95434 10.5007 5.95434 10.5013 5.85994C10.5032 5.62955 10.5063 5.3992 10.5097 5.16883C10.5111 5.06941 10.512 4.96998 10.5127 4.87055C10.5137 4.72705 10.5159 4.58361 10.5183 4.44013C10.5184 4.39617 10.5184 4.3522 10.5185 4.30691C10.5284 3.85413 10.7027 3.46881 11.0156 3.14063C11.3468 2.8725 11.6664 2.76272 12.0879 2.71289C12.1202 2.70885 12.1524 2.7048 12.1857 2.70063C12.2644 2.69079 12.3431 2.6813 12.4219 2.67188C12.3617 2.49501 12.301 2.31829 12.2402 2.14161C12.2146 2.06624 12.2146 2.06624 12.1884 1.98935C12.1718 1.94116 12.1552 1.89298 12.1381 1.84333C12.1228 1.7989 12.1076 1.75446 12.0919 1.70869C12.048 1.58465 12.048 1.58465 11.9531 1.45313C11.6851 1.40986 11.4482 1.52191 11.2019 1.61499ZM11.9531 4.21875C11.7604 4.79705 11.9063 5.4373 11.9063 6.04688C14.1492 6.04688 16.3922 6.04688 18.7031 6.04688C18.7962 5.07635 18.7962 5.07635 18.6094 4.17188C18.4873 4.11084 18.3983 4.11896 18.2615 4.11874C18.1806 4.11844 18.1806 4.11844 18.098 4.11813C18.0385 4.11815 17.979 4.11817 17.9177 4.11819C17.8547 4.11805 17.7916 4.1179 17.7285 4.11772C17.557 4.1173 17.3855 4.11719 17.214 4.11716C17.0709 4.11712 16.9279 4.11695 16.7848 4.11678C16.4474 4.1164 16.11 4.11628 15.7726 4.11632C15.4242 4.11635 15.0758 4.11585 14.7274 4.11511C14.4286 4.1145 14.1297 4.11425 13.8309 4.11428C13.6523 4.11429 13.4737 4.11415 13.2951 4.11366C13.1271 4.11321 12.9592 4.1132 12.7912 4.11354C12.7001 4.11362 12.6089 4.11322 12.5178 4.11282C12.4366 4.11311 12.4366 4.11311 12.3538 4.11341C12.3067 4.11339 12.2596 4.11336 12.2111 4.11334C12.0821 4.11689 12.0821 4.11689 11.9531 4.21875ZM1.64063 7.96875C1.38549 8.34518 1.39933 8.75345 1.39999 9.19254C1.39988 9.24459 1.39978 9.29663 1.39967 9.35026C1.39937 9.52445 1.39941 9.69865 1.39945 9.87284C1.39931 9.99782 1.39915 10.1228 1.39897 10.2478C1.39858 10.5519 1.39845 10.856 1.39843 11.1601C1.3984 11.4074 1.39831 11.6546 1.39816 11.9019C1.39775 12.6034 1.39753 13.3049 1.39757 14.0063C1.39757 14.0441 1.39757 14.0819 1.39757 14.1208C1.39757 14.1587 1.39758 14.1965 1.39758 14.2355C1.3976 14.8487 1.39715 15.4619 1.39649 16.0751C1.39581 16.7052 1.39549 17.3353 1.39553 17.9654C1.39555 18.3189 1.39542 18.6725 1.39491 19.0261C1.39449 19.3271 1.39438 19.6281 1.3947 19.9291C1.39485 20.0825 1.39481 20.236 1.39445 20.3895C1.39409 20.5561 1.39431 20.7227 1.39467 20.8893C1.39443 20.9375 1.39419 20.9856 1.39394 21.0352C1.3962 21.5088 1.4591 21.9019 1.78126 22.2656C2.04101 22.4719 2.26173 22.5526 2.59399 22.5533C2.6244 22.5534 2.65481 22.5536 2.68615 22.5537C2.78876 22.554 2.89137 22.5541 2.99399 22.5541C3.06802 22.5543 3.14206 22.5545 3.21609 22.5547C3.4201 22.5553 3.6241 22.5555 3.82811 22.5558C4.04792 22.556 4.26773 22.5566 4.48755 22.5571C5.01871 22.5582 5.54987 22.5589 6.08104 22.5595C6.23104 22.5597 6.38104 22.5599 6.53104 22.5601C7.46232 22.5613 8.39359 22.5623 9.32487 22.5629C9.54064 22.563 9.7564 22.5631 9.97217 22.5633C10.0526 22.5633 10.0526 22.5633 10.1347 22.5634C11.0034 22.564 11.8721 22.5655 12.7408 22.5675C13.6325 22.5695 14.5242 22.5706 15.4159 22.5708C15.9166 22.571 16.4174 22.5715 16.9181 22.5731C17.3446 22.5744 17.771 22.5749 18.1975 22.5744C18.415 22.5742 18.6326 22.5743 18.8501 22.5754C19.0495 22.5765 19.2488 22.5765 19.4481 22.5756C19.52 22.5754 19.592 22.5757 19.664 22.5764C20.0711 22.5802 20.4266 22.5636 20.7656 22.3125C21.0971 21.9619 21.1938 21.6002 21.1928 21.1232C21.1928 21.0359 21.1928 21.0359 21.1928 20.9469C21.1926 20.8842 21.1923 20.8214 21.1921 20.7587C21.192 20.6939 21.1919 20.6292 21.1919 20.5644C21.1917 20.3947 21.1912 20.225 21.1907 20.0553C21.1902 19.8819 21.19 19.7084 21.1898 19.535C21.1893 19.1952 21.1885 18.8554 21.1875 18.5156C21.1497 18.5155 21.1119 18.5153 21.073 18.5151C20.7138 18.5133 20.3547 18.5106 19.9955 18.507C19.8109 18.5052 19.6263 18.5037 19.4417 18.5029C19.263 18.5022 19.0843 18.5006 18.9056 18.4984C18.838 18.4977 18.7704 18.4973 18.7029 18.4973C17.7581 18.4961 16.9283 18.2182 16.2188 17.5781C16.1861 17.5499 16.1535 17.5216 16.1199 17.4924C15.5633 16.979 15.1892 16.1858 15.1303 15.4295C15.0895 14.3558 15.2891 13.4075 16.0159 12.5806C16.8621 11.7131 17.8918 11.4853 19.0681 11.4695C19.1289 11.4686 19.1896 11.4676 19.2523 11.4666C19.4125 11.464 19.5727 11.4617 19.7329 11.4594C19.8969 11.4571 20.061 11.4545 20.225 11.4519C20.5458 11.4469 20.8667 11.4421 21.1875 11.4375C21.1897 11.0842 21.1914 10.7309 21.1924 10.3776C21.1929 10.2135 21.1935 10.0494 21.1946 9.88531C21.1958 9.69622 21.1963 9.50714 21.1967 9.31806C21.1971 9.25974 21.1976 9.20142 21.1981 9.14134C21.1982 8.65844 21.1683 8.21883 20.8376 7.84406C20.4358 7.45925 19.9102 7.4796 19.3871 7.48215C19.3143 7.48198 19.2415 7.48176 19.1687 7.48148C18.9698 7.4809 18.7708 7.48118 18.5718 7.48162C18.3568 7.48194 18.1418 7.48145 17.9268 7.48106C17.5061 7.48044 17.0853 7.48057 16.6645 7.48098C16.3225 7.4813 15.9805 7.48134 15.6385 7.48119C15.5897 7.48116 15.541 7.48114 15.4908 7.48112C15.3919 7.48108 15.2929 7.48103 15.1939 7.48098C14.2663 7.48058 13.3386 7.48104 12.411 7.4818C11.6154 7.48243 10.8198 7.48232 10.0242 7.48167C9.09985 7.48092 8.17549 7.48062 7.25113 7.48105C7.15252 7.4811 7.05392 7.48114 6.95531 7.48119C6.9068 7.48121 6.85829 7.48123 6.8083 7.48125C6.46677 7.48137 6.12523 7.48117 5.78369 7.48084C5.36736 7.48044 4.95103 7.48055 4.5347 7.4813C4.32236 7.48167 4.11003 7.48181 3.89769 7.48135C3.70316 7.48093 3.50863 7.48116 3.3141 7.48191C3.24389 7.48206 3.17367 7.48199 3.10346 7.48164C2.52963 7.47906 2.03528 7.51213 1.64063 7.96875ZM17.0144 13.6091C16.6036 14.1655 16.4804 14.7406 16.5469 15.4219C16.6707 15.9561 16.9843 16.4226 17.4375 16.7344C17.8245 16.9562 18.1629 17.0766 18.6088 17.0761C18.6709 17.0766 18.6709 17.0766 18.7343 17.0771C18.8706 17.078 19.0068 17.0781 19.1431 17.0783C19.238 17.0786 19.3329 17.0789 19.4278 17.0792C19.6264 17.0798 19.8249 17.0799 20.0235 17.0799C20.2782 17.0799 20.5329 17.0812 20.7876 17.0828C20.9834 17.0838 21.1792 17.084 21.375 17.0839C21.469 17.0841 21.5629 17.0845 21.6569 17.0852C21.788 17.0861 21.919 17.0858 22.0501 17.0853C22.089 17.0858 22.1279 17.0863 22.1681 17.0869C22.3723 17.0847 22.3723 17.0847 22.5475 16.99C22.6116 16.8307 22.613 16.6815 22.6112 16.5125C22.6115 16.458 22.6115 16.458 22.6117 16.4024C22.6121 16.2826 22.6115 16.1628 22.6108 16.043C22.6108 15.9596 22.6108 15.8763 22.6109 15.7929C22.6109 15.6183 22.6104 15.4436 22.6095 15.269C22.6085 15.0452 22.6084 14.8213 22.6087 14.5975C22.6089 14.4254 22.6086 14.2533 22.6081 14.0812C22.6079 13.9986 22.6079 13.9161 22.608 13.8336C22.608 13.7182 22.6074 13.6029 22.6066 13.4876C22.6067 13.4535 22.6069 13.4194 22.607 13.3842C22.6052 13.2135 22.5999 13.0798 22.5 12.9375C22.3547 12.8649 22.2011 12.8837 22.0416 12.8838C22.0039 12.8837 21.9663 12.8835 21.9275 12.8833C21.8024 12.8829 21.6773 12.8828 21.5523 12.8828C21.4652 12.8826 21.3782 12.8824 21.2912 12.8823C21.1083 12.882 20.9255 12.8819 20.7427 12.8819C20.5093 12.8819 20.2759 12.8813 20.0426 12.8805C19.8626 12.88 19.6826 12.8799 19.5025 12.8799C19.4166 12.8799 19.3306 12.8796 19.2447 12.8793C18.4045 12.8761 17.6215 12.9509 17.0144 13.6091Z" fill="#D91374"/>
<path d="M19.046 14.3789C19.211 14.5171 19.2972 14.6382 19.3378 14.8515C19.3456 15.1201 19.3361 15.2915 19.1573 15.501C18.9889 15.6714 18.852 15.7105 18.6153 15.7148C18.3346 15.7108 18.2186 15.63 18.0088 15.4482C17.8672 15.2684 17.8735 15.0766 17.884 14.8554C17.9173 14.6518 17.9816 14.5228 18.1407 14.3906C18.4435 14.2053 18.7329 14.2135 19.046 14.3789Z" fill="#D91374"/>
</g>
<defs>
<clipPath id="clip0_148_134">
<rect width="24" height="24" fill="white"/>
</clipPath>
</defs>
</svg>
