<svg width="24" height="24" viewBox="0 0 24 24" fill="none" xmlns="http://www.w3.org/2000/svg">
<g clip-path="url(#clip0_39_124)">
<path d="M14.6948 -0.00787135C14.7458 -0.00806349 14.7969 -0.00825562 14.8495 -0.00845357C15.0139 -0.00889959 15.1783 -0.00890054 15.3428 -0.00878688C15.4264 -0.0088145 15.4264 -0.0088145 15.5117 -0.00884267C17.3419 -0.00811575 17.3419 -0.00811574 18.2344 0.140627C18.2344 1.40906 18.2344 2.6775 18.2344 3.98438C17.1504 4.00489 17.1504 4.00489 16.8125 4.01101C15.4483 3.97837 15.4483 3.97837 14.291 4.59375C13.9766 4.97671 13.9187 5.51497 13.9123 5.99312C13.9118 6.02383 13.9113 6.05453 13.9108 6.08617C13.9094 6.18434 13.9082 6.28251 13.907 6.38068C13.9057 6.47141 13.9057 6.47141 13.9044 6.56397C13.9012 6.78906 13.8984 7.01416 13.8955 7.23926C13.8887 7.74296 13.882 8.24666 13.875 8.76563C15.2672 8.76563 16.6594 8.76563 18.0938 8.76563C18.0399 9.51952 18.0399 9.51952 17.9985 9.83201C17.9939 9.86833 17.9892 9.90465 17.9844 9.94207C17.9697 10.0567 17.9547 10.1712 17.9398 10.2858C17.9305 10.3577 17.9212 10.4296 17.912 10.5016C17.878 10.7647 17.8438 11.0279 17.8096 11.291C17.7332 11.8808 17.6568 12.4705 17.5781 13.0781C16.3561 13.0781 15.1341 13.0781 13.875 13.0781C13.875 16.6823 13.875 20.2866 13.875 24C12.4055 24 10.9359 24 9.42188 24C9.42188 20.3958 9.42188 16.7916 9.42188 13.0781C8.21531 13.0781 7.00875 13.0781 5.76562 13.0781C5.76562 11.655 5.76562 10.2319 5.76562 8.76563C6.97219 8.76563 8.17875 8.76563 9.42188 8.76563C9.41818 7.65086 9.41818 7.65086 9.41343 6.53609C9.40839 4.78352 9.50543 3.01324 10.7344 1.64063C10.7718 1.59875 10.8093 1.55688 10.8479 1.51374C11.8483 0.455611 13.2626 -0.00619541 14.6948 -0.00787135Z" fill="#E94D8B"/>
</g>
<defs>
<clipPath id="clip0_39_124">
<rect width="24" height="24" fill="white"/>
</clipPath>
</defs>
</svg>
