<svg width="24" height="24" viewBox="0 0 24 24" fill="none" xmlns="http://www.w3.org/2000/svg">
<g clip-path="url(#clip0_39_120)">
<path d="M9.54134 -0.0125777C9.77567 -0.0123349 10.01 -0.0125619 10.2443 -0.0127076C10.6373 -0.0128767 11.0303 -0.0126575 11.4233 -0.012207C11.8732 -0.0116971 12.3231 -0.0118624 12.773 -0.0123782C13.1641 -0.012808 13.5552 -0.0128615 13.9463 -0.0126183C14.1777 -0.0124746 14.4092 -0.0124459 14.6407 -0.0127624C18.8423 -0.0177092 18.8423 -0.0177092 20.5782 0.89064C20.6063 0.905263 20.6344 0.919886 20.6634 0.934952C21.0607 1.14366 21.4192 1.38239 21.75 1.68752C21.7787 1.71387 21.8074 1.74022 21.8369 1.76737C23.1043 2.94847 23.7332 4.43171 23.9532 6.14064C23.9597 6.19086 23.9597 6.19086 23.9663 6.2421C24.0177 6.71429 24.0074 7.18933 24.0076 7.66363C24.0078 7.76564 24.008 7.86765 24.0083 7.96965C24.0089 8.24581 24.0092 8.52197 24.0094 8.79813C24.0096 8.97124 24.0098 9.14435 24.01 9.31746C24.0106 9.86073 24.0111 10.404 24.0112 10.9473C24.0113 11.0399 24.0113 11.0399 24.0113 11.1343C24.0113 11.1653 24.0113 11.1962 24.0113 11.2281C24.0115 11.7584 24.0125 12.2888 24.0136 12.8192C24.0146 13.3035 24.0151 13.7877 24.0152 14.272C24.0152 14.5603 24.0155 14.8485 24.0163 15.1368C24.0234 17.7028 23.8877 20.1461 22.002 22.084C20.7281 23.3446 18.9966 23.8474 17.2469 23.9575C17.2152 23.9595 17.1835 23.9615 17.1509 23.9635C16.2822 24.0166 15.413 24.0138 14.543 24.0126C14.3074 24.0124 14.0717 24.0126 13.8361 24.0127C13.4409 24.0129 13.0457 24.0127 12.6505 24.0122C12.198 24.0117 11.7456 24.0119 11.2931 24.0124C10.8999 24.0128 10.5066 24.0129 10.1133 24.0126C9.88052 24.0125 9.64774 24.0125 9.41496 24.0128C8.55787 24.0138 7.70258 24.0113 6.8469 23.9575C6.75801 23.9519 6.75801 23.9519 6.66733 23.9462C5.0876 23.835 3.47543 23.3747 2.30295 22.266C2.21678 22.1847 2.12869 22.1109 2.03617 22.0371C0.742957 20.9282 0.229601 19.0668 0.0937869 17.4375C0.0841104 17.293 0.076578 17.1484 0.069617 17.0037C0.0676402 16.963 0.0656634 16.9222 0.0636267 16.8803C0.0427356 16.4333 0.029736 15.9864 0.0205447 15.5391C0.0195675 15.4921 0.0185904 15.4452 0.0175836 15.3968C-0.0338584 12.8002 -0.053904 10.1893 0.0469119 7.59377C0.0489668 7.54077 0.0489668 7.54077 0.0510632 7.48671C0.145057 5.14603 0.70225 3.23997 2.43754 1.60255C2.71336 1.35399 3.00411 1.16421 3.32816 0.98439C3.35575 0.968808 3.38333 0.953226 3.41175 0.937172C5.2709 -0.101267 7.47737 -0.0153999 9.54134 -0.0125777ZM3.53269 3.63429C2.01941 5.21015 2.24251 7.71815 2.2422 9.73439C2.24216 9.85902 2.24206 9.98364 2.24194 10.1083C2.24151 10.5464 2.24131 10.9844 2.24135 11.4225C2.24138 11.8255 2.24089 12.2284 2.24014 12.6313C2.23952 12.9817 2.23928 13.332 2.23931 13.6823C2.23932 13.8896 2.2392 14.0968 2.23869 14.3041C2.23678 15.1423 2.2465 15.9778 2.29264 16.8148C2.29547 16.8673 2.29547 16.8673 2.29836 16.9209C2.37252 18.2628 2.65973 19.4447 3.60941 20.4375C3.65337 20.4867 3.65337 20.4867 3.69822 20.5369C4.67177 21.5884 6.27382 21.7396 7.61782 21.7917C8.23479 21.8112 8.85231 21.8149 9.46952 21.8218C9.63169 21.8237 9.79385 21.8258 9.95601 21.8279C11.3421 21.8455 12.7274 21.8465 14.1135 21.8303C14.3128 21.828 14.512 21.8258 14.7113 21.824C15.5081 21.8168 16.3034 21.8057 17.0988 21.7533C17.1545 21.7496 17.2102 21.746 17.2676 21.7422C18.5024 21.652 19.5792 21.3154 20.4844 20.4375C20.5131 20.4123 20.5418 20.387 20.5714 20.361C21.5856 19.4373 21.7654 17.9195 21.8283 16.6296C21.859 15.9024 21.8515 15.1738 21.8516 14.4461C21.8517 14.3123 21.8518 14.1784 21.8519 14.0446C21.8523 13.5748 21.8525 13.105 21.8525 12.6352C21.8524 12.202 21.8529 11.7688 21.8537 11.3355C21.8543 10.9598 21.8545 10.584 21.8545 10.2082C21.8545 9.98552 21.8546 9.7628 21.8551 9.54007C21.8569 8.70428 21.8536 7.87067 21.8012 7.03627C21.7955 6.94641 21.7955 6.94641 21.7898 6.85473C21.6975 5.53801 21.3268 4.41854 20.3907 3.46877C20.3444 3.42163 20.3444 3.42163 20.2973 3.37355C18.7353 1.89873 16.0522 2.1952 14.0793 2.19684C13.8871 2.19697 13.6948 2.19685 13.5026 2.19678C13.1804 2.19669 12.8581 2.1968 12.5358 2.19703C12.167 2.19728 11.7982 2.1972 11.4294 2.19694C11.1086 2.19673 10.7878 2.1967 10.467 2.19682C10.2772 2.1969 10.0874 2.19691 9.89763 2.19675C6.4685 2.09855 6.4685 2.09855 3.53269 3.63429Z" fill="#E94D8B"/>
<path d="M16.0182 7.23173C16.1347 7.33417 16.2472 7.43962 16.3593 7.54685C16.3967 7.58069 16.434 7.61453 16.4725 7.64939C17.5744 8.68488 18.1895 10.2294 18.2444 11.7255C18.2843 13.3947 17.7567 14.9728 16.606 16.2019C16.571 16.2384 16.536 16.2749 16.4999 16.3125C16.4645 16.3509 16.429 16.3893 16.3925 16.4289C15.7611 17.0922 14.9649 17.5492 14.1093 17.8594C14.0602 17.8772 14.0111 17.8951 13.9605 17.9136C12.4034 18.4359 10.6728 18.2569 9.21088 17.5371C8.57824 17.2115 8.04241 16.7746 7.54682 16.2656C7.52307 16.244 7.49932 16.2223 7.47486 16.2001C6.49177 15.2819 5.91567 13.7643 5.85348 12.438C5.80466 10.6959 6.28089 9.087 7.48768 7.79807C7.52266 7.76158 7.55765 7.72508 7.59369 7.68748C7.62916 7.64905 7.66463 7.61062 7.70118 7.57102C9.86712 5.29554 13.6618 5.26071 16.0182 7.23173ZM9.37494 9.04685C9.33923 9.07809 9.30352 9.10933 9.26673 9.14152C8.53107 9.82873 8.10338 10.8291 8.05494 11.8264C8.02828 12.9438 8.41069 13.9466 9.17646 14.7546C9.21102 14.7892 9.24558 14.8237 9.28119 14.8594C9.31382 14.892 9.34645 14.9246 9.38007 14.9582C10.1571 15.6899 11.1736 16.0233 12.2303 15.9961C13.1582 15.952 14.0271 15.5615 14.7187 14.9531C14.7544 14.9219 14.7901 14.8906 14.8269 14.8584C15.5655 14.1685 15.9773 13.1604 16.0385 12.1618C16.0726 11.1114 15.6913 10.114 14.9999 9.3281C14.9687 9.29239 14.9375 9.25668 14.9053 9.21989C14.2153 8.48126 13.2073 8.06954 12.2087 8.00828C11.1583 7.97421 10.1608 8.35553 9.37494 9.04685Z" fill="#E94D8B"/>
<path d="M19.3367 4.39195C19.6406 4.64087 19.8455 4.95488 19.9217 5.34373C19.9657 5.826 19.8633 6.23238 19.5517 6.60716C19.2082 6.94107 18.8526 7.04441 18.3875 7.04629C18.0082 7.03997 17.6609 6.9341 17.3905 6.65623C17.1011 6.27695 16.9422 5.89913 16.9769 5.41643C17.0402 5.00862 17.2269 4.67533 17.5428 4.40916C18.0929 4.01849 18.7776 4.01571 19.3367 4.39195Z" fill="#E94D8B"/>
</g>
<defs>
<clipPath id="clip0_39_120">
<rect width="24" height="24" fill="white"/>
</clipPath>
</defs>
</svg>
