<svg width="21" height="20" viewBox="0 0 21 20" fill="none" xmlns="http://www.w3.org/2000/svg">
<g clip-path="url(#clip0_39_105)">
<path d="M1.74777 2.9587C1.79391 2.95849 1.7939 2.95849 1.84097 2.95828C1.94413 2.95792 2.04727 2.95811 2.15042 2.9583C2.22509 2.95816 2.29976 2.95798 2.37443 2.95777C2.5797 2.95729 2.78497 2.9573 2.99024 2.95739C3.2116 2.95741 3.43296 2.95698 3.65431 2.95661C4.08804 2.95596 4.52177 2.95574 4.9555 2.9557C5.30806 2.95566 5.66063 2.9555 6.01319 2.95525C7.01266 2.95456 8.01213 2.9542 9.0116 2.95426C9.06549 2.95427 9.11938 2.95427 9.17491 2.95427C9.25585 2.95428 9.25585 2.95428 9.33842 2.95428C10.2128 2.95431 11.0872 2.95357 11.9616 2.95246C12.8594 2.95134 13.7571 2.9508 14.6548 2.95087C15.1589 2.9509 15.6629 2.95068 16.1669 2.94984C16.5961 2.94913 17.0253 2.94896 17.4545 2.94949C17.6734 2.94975 17.8924 2.94975 18.1113 2.94907C18.3119 2.94846 18.5124 2.94857 18.713 2.94925C18.7854 2.94937 18.8579 2.94923 18.9303 2.94879C19.5424 2.94536 19.9954 3.04296 20.4669 3.4375C20.6606 3.6336 20.8112 3.85219 20.918 4.10156C20.9321 4.13247 20.9461 4.16338 20.9605 4.19522C21.0166 4.39466 21.0117 4.58567 21.011 4.79129C21.0112 4.83745 21.0114 4.8836 21.0116 4.93116C21.012 5.05896 21.0121 5.18675 21.012 5.31455C21.012 5.45252 21.0124 5.59048 21.0128 5.72844C21.0135 5.99864 21.0137 6.26884 21.0138 6.53904C21.0138 6.75876 21.014 6.97847 21.0142 7.19819C21.015 7.8215 21.0153 8.44481 21.0153 9.06812C21.0153 9.11851 21.0153 9.11851 21.0153 9.16991C21.0153 9.20354 21.0153 9.23718 21.0153 9.27183C21.0152 9.81663 21.016 10.3614 21.0172 10.9062C21.0184 11.466 21.0189 12.0258 21.0188 12.5855C21.0188 12.8996 21.019 13.2138 21.0199 13.5279C21.0207 13.7954 21.0209 14.0629 21.0203 14.3304C21.02 14.4668 21.02 14.6031 21.0207 14.7395C21.0214 14.8876 21.021 15.0358 21.0204 15.1839C21.0208 15.2266 21.0212 15.2692 21.0216 15.3132C21.0171 15.7922 20.8381 16.1655 20.5079 16.5234C20.1564 16.8383 19.7399 17.0441 19.2524 17.0413C19.2216 17.0414 19.1909 17.0416 19.1592 17.0417C19.056 17.0421 18.9529 17.0419 18.8497 17.0417C18.7751 17.0418 18.7004 17.042 18.6257 17.0422C18.4204 17.0427 18.2152 17.0427 18.0099 17.0426C17.7885 17.0426 17.5672 17.043 17.3458 17.0434C16.9121 17.044 16.4784 17.0443 16.0446 17.0443C15.6921 17.0443 15.3395 17.0445 14.987 17.0447C13.9875 17.0454 12.988 17.0458 11.9886 17.0457C11.9347 17.0457 11.8808 17.0457 11.8252 17.0457C11.7713 17.0457 11.7173 17.0457 11.6617 17.0457C10.7873 17.0457 9.91292 17.0464 9.03852 17.0475C8.14079 17.0487 7.24307 17.0492 6.34534 17.0491C5.84129 17.0491 5.33725 17.0493 4.8332 17.0502C4.40402 17.0509 3.97483 17.051 3.54565 17.0505C3.3267 17.0503 3.10777 17.0502 2.88882 17.0509C2.68826 17.0515 2.48772 17.0514 2.28715 17.0507C2.21473 17.0506 2.1423 17.0508 2.06987 17.0512C1.45777 17.0546 1.00474 16.957 0.533279 16.5625C0.339595 16.3664 0.188968 16.1478 0.0821067 15.8984C0.0681006 15.8675 0.0540945 15.8366 0.0396639 15.8048C-0.0164449 15.6053 -0.0114992 15.4143 -0.0108931 15.2087C-0.011079 15.1626 -0.0112648 15.1164 -0.0114562 15.0688C-0.0118852 14.941 -0.0119473 14.8132 -0.0118505 14.6854C-0.0118338 14.5475 -0.0122867 14.4095 -0.0126756 14.2716C-0.0133565 14.0014 -0.0135823 13.7312 -0.0136281 13.461C-0.0136671 13.2412 -0.0138358 13.0215 -0.0140958 12.8018C-0.0148181 12.1785 -0.0151965 11.5552 -0.015135 10.9319C-0.0151317 10.8983 -0.0151285 10.8647 -0.0151251 10.8301C-0.0151218 10.7965 -0.0151184 10.7628 -0.015115 10.7282C-0.0150816 10.1834 -0.0158662 9.63856 -0.0170232 9.09376C-0.0182025 8.534 -0.018768 7.97424 -0.0186972 7.41447C-0.01867 7.10036 -0.0188939 6.78624 -0.0197782 6.47213C-0.0205264 6.20462 -0.0207023 5.93712 -0.0201465 5.66962C-0.0198793 5.53325 -0.0198716 5.39689 -0.0205857 5.26052C-0.0212199 5.11237 -0.0208373 4.96425 -0.0202058 4.81609C-0.0206277 4.77343 -0.0210497 4.73076 -0.0214844 4.6868C-0.0169862 4.20781 0.162046 3.83447 0.492263 3.47656C0.843722 3.1617 1.26023 2.95593 1.74777 2.9587ZM2.1739 4.14062C2.33393 4.31843 2.49191 4.48822 2.66538 4.65272C2.70052 4.68628 2.70052 4.68628 2.73637 4.72051C2.8141 4.7947 2.89197 4.86874 2.96984 4.94278C3.02593 4.99625 3.082 5.04972 3.13807 5.1032C3.28984 5.24792 3.44173 5.39252 3.59366 5.53708C3.75297 5.68871 3.91218 5.84043 4.07141 5.99214C4.33882 6.24688 4.60632 6.50155 4.87387 6.75617C5.18269 7.05008 5.49137 7.34413 5.79997 7.63825C6.0654 7.89122 6.33091 8.14411 6.59648 8.39693C6.75489 8.54774 6.91327 8.69857 7.07158 8.84947C7.2205 8.9914 7.36951 9.13324 7.5186 9.275C7.57313 9.32688 7.62762 9.3788 7.68208 9.43075C8.04475 9.77787 8.04475 9.77787 8.4274 10.1047C8.52466 10.1844 8.61171 10.2724 8.69955 10.3613C9.24188 10.9011 9.70382 11.345 10.5411 11.3672C11.2603 11.3462 11.7309 10.9371 12.1971 10.4687C12.2716 10.3952 12.3463 10.3219 12.4211 10.2487C12.4671 10.2035 12.5129 10.1582 12.5584 10.1126C12.6656 10.006 12.7745 9.90557 12.8931 9.81049C13.1572 9.59138 13.4011 9.35197 13.6484 9.116C13.705 9.06214 13.7617 9.00828 13.8183 8.95443C13.9712 8.80895 14.1241 8.66334 14.2768 8.5177C14.4368 8.36522 14.5969 8.21284 14.757 8.06044C15.0255 7.80485 15.2938 7.54917 15.5621 7.29345C15.8727 6.99744 16.1835 6.70157 16.4943 6.40577C16.7612 6.15176 17.028 5.89767 17.2948 5.64352C17.4541 5.49172 17.6134 5.33995 17.7728 5.18825C17.9224 5.04592 18.0719 4.90349 18.2213 4.76099C18.2763 4.70856 18.3313 4.65617 18.3864 4.60381C18.4612 4.53268 18.5358 4.46144 18.6105 4.39016C18.6326 4.36918 18.6547 4.3482 18.6775 4.32659C18.7804 4.2471 18.7804 4.2471 18.8262 4.14062C13.331 4.14062 7.8357 4.14062 2.1739 4.14062ZM1.23054 5.03906C1.23054 8.32617 1.23054 11.6133 1.23054 15C1.40889 14.8544 1.57585 14.7151 1.74059 14.558C1.7611 14.5385 1.78161 14.519 1.80275 14.4989C1.87054 14.4344 1.93818 14.3698 2.00583 14.3051C2.05475 14.2585 2.10369 14.2119 2.15264 14.1653C2.28482 14.0395 2.41688 13.9135 2.54892 13.7874C2.68717 13.6555 2.82554 13.5237 2.9639 13.3919C3.22559 13.1425 3.48717 12.8931 3.74872 12.6436C4.04661 12.3595 4.34461 12.0754 4.64263 11.7914C5.2554 11.2074 5.86802 10.6233 6.48054 10.0391C6.41672 9.89384 6.32334 9.80139 6.20712 9.69061C6.18751 9.67182 6.16791 9.65303 6.14772 9.63367C6.08205 9.57081 6.01609 9.50824 5.95012 9.44567C5.90295 9.40063 5.85578 9.35557 5.80864 9.3105C5.68052 9.18812 5.55213 9.066 5.4237 8.94392C5.28917 8.816 5.15485 8.68789 5.0205 8.55982C4.79466 8.34459 4.56865 8.12953 4.34254 7.91456C4.08159 7.66646 3.82094 7.41808 3.56043 7.16955C3.33653 6.95596 3.11248 6.74252 2.88828 6.52921C2.7545 6.40191 2.62076 6.27456 2.48717 6.14708C2.36138 6.02705 2.23539 5.90722 2.10925 5.78753C2.06315 5.74373 2.01712 5.69986 1.97116 5.65592C1.90807 5.59562 1.84473 5.53556 1.78131 5.47556C1.72839 5.4252 1.72839 5.4252 1.6744 5.37383C1.53487 5.25279 1.38153 5.14691 1.23054 5.03906ZM19.4642 5.26917C19.4353 5.29497 19.4065 5.32077 19.3768 5.34735C18.9381 5.7431 18.5132 6.15255 18.0865 6.55996C17.9607 6.67999 17.8348 6.7999 17.7089 6.91983C17.4717 7.14593 17.2345 7.37212 16.9974 7.59835C16.7269 7.85633 16.4564 8.1142 16.1859 8.37207C15.6303 8.90157 15.0749 9.4312 14.5196 9.96094C14.5847 10.1116 14.6857 10.2069 14.8059 10.3213C14.8373 10.3515 14.8373 10.3515 14.8694 10.3822C14.9397 10.4494 15.0103 10.5163 15.0809 10.5832C15.1314 10.6313 15.1819 10.6794 15.2323 10.7275C15.3693 10.8582 15.5066 10.9886 15.6439 11.119C15.7874 11.2553 15.9306 11.3918 16.0739 11.5283C16.3145 11.7574 16.5552 11.9863 16.796 12.2151C17.0749 12.4801 17.3535 12.7452 17.632 13.0105C17.8996 13.2653 18.1672 13.5201 18.435 13.7747C18.5491 13.8833 18.6632 13.9919 18.7773 14.1005C18.9114 14.2282 19.0456 14.3558 19.1799 14.4833C19.2294 14.5303 19.2788 14.5773 19.3281 14.6243C19.3952 14.6882 19.4624 14.7519 19.5296 14.8157C19.5672 14.8515 19.6049 14.8873 19.6437 14.9242C19.7142 15.0045 19.7142 15.0045 19.7696 15C19.7696 11.7129 19.7696 8.42578 19.7696 5.03906C19.6677 5.03906 19.5389 5.20217 19.4642 5.26917ZM7.31464 10.9572C7.28809 10.9837 7.26155 11.0103 7.23421 11.0376C7.1315 11.14 7.02595 11.2351 6.91284 11.3268C6.68921 11.5126 6.48095 11.7129 6.27146 11.9128C6.22657 11.9555 6.18166 11.9982 6.13675 12.0409C6.01575 12.156 5.89488 12.2712 5.77404 12.3864C5.64738 12.5071 5.52062 12.6277 5.39387 12.7484C5.18142 12.9506 4.96906 13.153 4.75675 13.3554C4.51102 13.5896 4.26514 13.8237 4.01919 14.0577C3.80785 14.2588 3.59659 14.46 3.38539 14.6612C3.25931 14.7814 3.1332 14.9015 3.00702 15.0215C2.8887 15.1341 2.77047 15.2468 2.65232 15.3595C2.60883 15.401 2.56531 15.4424 2.52176 15.4838C2.46259 15.5401 2.40356 15.5965 2.34454 15.6528C2.29481 15.7002 2.29481 15.7002 2.24409 15.7486C2.16924 15.8087 2.16924 15.8087 2.1739 15.8594C7.66918 15.8594 13.1644 15.8594 18.8262 15.8594C18.6788 15.6956 18.5387 15.5416 18.3799 15.3903C18.3418 15.3538 18.3036 15.3174 18.2643 15.2798C18.2227 15.2403 18.1811 15.2007 18.1395 15.1612C18.0951 15.1189 18.0508 15.0766 18.0064 15.0343C17.8866 14.92 17.7667 14.8058 17.6467 14.6917C17.5207 14.5718 17.3948 14.4518 17.2689 14.3319C17.0575 14.1304 16.846 13.9291 16.6345 13.7278C16.3905 13.4957 16.1467 13.2634 15.903 13.0311C15.6931 12.831 15.4831 12.631 15.2731 12.4311C15.1479 12.312 15.0228 12.1928 14.8977 12.0736C14.7801 11.9614 14.6623 11.8493 14.5444 11.7373C14.5014 11.6964 14.4584 11.6554 14.4155 11.6144C14.016 11.2051 14.016 11.2051 13.5352 10.8984C13.5119 10.9212 13.4886 10.944 13.4646 10.9675C12.5908 11.8196 11.7834 12.5234 10.4605 12.5401C9.31678 12.5255 8.54478 11.9362 7.78279 11.2012C7.75246 11.1713 7.72212 11.1415 7.69087 11.1108C7.66262 11.0832 7.63437 11.0556 7.60527 11.0272C7.58014 11.0024 7.55502 10.9775 7.52913 10.952C7.43677 10.875 7.40509 10.8793 7.31464 10.9572Z" fill="#D91374"/>
</g>
<defs>
<clipPath id="clip0_39_105">
<rect width="21" height="20" fill="white"/>
</clipPath>
</defs>
</svg>
