<svg width="21" height="20" viewBox="0 0 21 20" fill="none" xmlns="http://www.w3.org/2000/svg">
<g clip-path="url(#clip0_39_98)">
<path d="M5.24982 1.52345C5.61799 1.82186 5.95819 2.15211 6.30037 2.47697C6.33852 2.51314 6.33852 2.51314 6.37745 2.55004C6.51166 2.67728 6.64575 2.80463 6.77975 2.93207C6.91699 3.06256 7.05461 3.19269 7.19233 3.32274C7.2994 3.42398 7.4062 3.5255 7.51292 3.62708C7.56353 3.67515 7.61423 3.72313 7.66504 3.77101C8.2357 4.30908 8.65986 4.82881 8.69514 5.62501C8.64805 6.54423 7.91146 7.16011 7.26984 7.76856C7.2133 7.82264 7.2133 7.82264 7.15561 7.87782C7.11907 7.91256 7.08254 7.9473 7.0449 7.9831C7.01224 8.01416 6.97957 8.04523 6.94592 8.07723C6.84943 8.16407 6.74916 8.24279 6.64435 8.32032C6.66831 8.51673 6.76218 8.66846 6.86225 8.8379C6.8803 8.86861 6.89835 8.89933 6.91694 8.93098C7.20285 9.4076 7.54526 9.85347 7.91584 10.2734C7.94146 10.3027 7.94146 10.3027 7.96761 10.3326C8.46601 10.9012 8.99147 11.4697 9.5829 11.9524C9.656 12.0121 9.72841 12.0725 9.80048 12.1333C10.3478 12.5926 10.9324 13.0142 11.5662 13.3594C11.5898 13.3725 11.6134 13.3857 11.6377 13.3992C11.7101 13.4395 11.7829 13.4789 11.8559 13.5181C11.8987 13.5411 11.9414 13.5641 11.9855 13.5878C12.1122 13.6379 12.1394 13.6384 12.2635 13.5938C12.3378 13.5391 12.3378 13.5391 12.4074 13.4682C12.4348 13.4417 12.4622 13.4152 12.4904 13.3879C12.5343 13.3446 12.5343 13.3446 12.5791 13.3005C12.6098 13.2708 12.6404 13.2412 12.672 13.2107C12.8031 13.0839 12.9334 12.9565 13.0638 12.8292C13.1592 12.7362 13.2549 12.6436 13.3507 12.551C13.3939 12.5084 13.3939 12.5084 13.4379 12.465C13.7081 12.204 14.0069 11.9758 14.3681 11.8408C14.4077 11.8256 14.4473 11.8104 14.4881 11.7947C15.0085 11.6251 15.5599 11.7042 16.0472 11.9263C16.2293 12.0292 16.3832 12.1493 16.5363 12.2875C16.5621 12.3105 16.5879 12.3336 16.6144 12.3574C17.0356 12.738 17.4449 13.1305 17.8554 13.5215C17.979 13.6392 18.1028 13.7566 18.2267 13.874C18.3235 13.9657 18.4201 14.0577 18.5167 14.1496C18.5623 14.193 18.6079 14.2363 18.6536 14.2795C19.222 14.8173 19.7201 15.3504 19.7412 16.145C19.7262 16.9883 19.1928 17.5521 18.5959 18.1242C18.5595 18.1593 18.523 18.1944 18.4855 18.2305C18.4089 18.304 18.3323 18.3773 18.2555 18.4506C18.1778 18.5248 18.1004 18.5993 18.0233 18.6741C17.1981 19.4741 17.1981 19.4741 16.7342 19.6875C16.6919 19.707 16.6496 19.7265 16.606 19.7466C15.3878 20.2826 13.8971 19.9903 12.6737 19.6094C12.6381 19.5983 12.6025 19.5873 12.5658 19.5759C10.138 18.8064 7.85612 17.3936 5.9881 15.7422C5.94245 15.7023 5.89678 15.6624 5.85112 15.6226C4.80615 14.7061 4.80615 14.7061 4.39234 14.2029C4.29543 14.0885 4.19149 13.9816 4.086 13.8745C3.84132 13.6239 3.62178 13.358 3.40412 13.0859C3.38085 13.0571 3.35758 13.0283 3.3336 12.9986C2.38685 11.8254 1.57657 10.5713 0.943182 9.21876C0.923725 9.17822 0.904269 9.13769 0.884222 9.09592C0.196903 7.62488 -0.373066 5.85208 0.215155 4.26759C0.468424 3.68108 0.91447 3.26617 1.37921 2.82765C1.50499 2.70865 1.62864 2.59016 1.74299 2.46095C2.65615 1.43884 3.90219 0.627157 5.24982 1.52345ZM3.28107 2.69532C3.03992 2.91317 2.80468 3.13684 2.56889 3.35992C2.49346 3.43111 2.41781 3.50209 2.34194 3.57285C2.23139 3.67598 2.12155 3.77975 2.01183 3.88368C1.97824 3.91478 1.94466 3.94588 1.91005 3.97792C1.40687 4.45891 1.21911 5.03182 1.22018 5.70012C1.23039 6.3342 1.39714 6.93863 1.59943 7.53907C1.61157 7.57559 1.6237 7.61211 1.6362 7.64973C2.07919 8.96009 2.7867 10.2005 3.6092 11.3281C3.62663 11.3521 3.64405 11.3761 3.66201 11.4008C4.05621 11.941 4.47725 12.4653 4.9217 12.9688C4.94852 12.9993 4.94852 12.9993 4.97589 13.0304C5.54046 13.6714 6.13778 14.314 6.80938 14.8557C6.91131 14.9389 7.00957 15.0257 7.10834 15.1123C7.33019 15.3043 7.5574 15.4874 7.79279 15.6641C7.82142 15.6857 7.85004 15.7073 7.87953 15.7296C9.92978 17.2726 12.8072 19.0452 15.5447 18.8281C16.0942 18.752 16.5831 18.4338 16.9333 18.0331C17.0735 17.879 17.223 17.7358 17.3754 17.5928C17.4001 17.5695 17.4249 17.5463 17.4504 17.5223C17.5539 17.4252 17.6574 17.3282 17.7614 17.2315C17.8381 17.1602 17.9144 17.0884 17.9906 17.0166C18.0138 16.9953 18.0369 16.9739 18.0608 16.952C18.2902 16.7349 18.4827 16.4987 18.5107 16.1841C18.4955 15.6147 17.7565 15.1069 17.3595 14.7255C17.3356 14.7025 17.3116 14.6794 17.2869 14.6557C17.1605 14.5343 17.034 14.413 16.9073 14.2918C16.8035 14.1924 16.7 14.0928 16.5967 13.9928C16.4706 13.8708 16.344 13.7492 16.217 13.628C16.1692 13.5822 16.1216 13.5363 16.0741 13.4902C15.6628 13.0708 15.6628 13.0708 15.1141 12.8845C14.7083 12.9013 14.4531 13.1734 14.1879 13.4348C14.1159 13.5044 14.0439 13.574 13.972 13.6437C13.8598 13.7529 13.7478 13.8623 13.6359 13.9718C13.5271 14.0779 13.4179 14.1836 13.3086 14.2893C13.2593 14.338 13.2593 14.338 13.209 14.3877C12.9698 14.6184 12.7124 14.8309 12.3774 14.9167C11.9566 14.9178 11.6396 14.7584 11.2791 14.5703C11.232 14.5462 11.232 14.5462 11.1839 14.5215C10.3139 14.0728 9.52057 13.4971 8.79383 12.8592C8.71083 12.7871 8.62658 12.7171 8.54149 12.6473C8.35871 12.4953 8.18686 12.3342 8.01581 12.1704C7.98644 12.1426 7.95707 12.1148 7.92681 12.0861C7.73694 11.905 7.55771 11.7176 7.38264 11.5234C7.34467 11.4825 7.30665 11.4416 7.26856 11.4008C5.32493 9.29442 5.32493 9.29442 5.31006 8.15629C5.36696 7.87064 5.53577 7.67336 5.75226 7.47804C5.78518 7.44726 5.78518 7.44726 5.81875 7.41586C5.93771 7.30566 6.06012 7.20035 6.18581 7.09718C6.38286 6.93419 6.56746 6.76011 6.75202 6.58448C6.78565 6.55293 6.81927 6.52139 6.85392 6.48888C7.2943 6.08546 7.2943 6.08546 7.46467 5.54688C7.40616 5.03643 6.76832 4.60335 6.40675 4.25797C6.38025 4.23262 6.35374 4.20727 6.32644 4.18115C6.18664 4.04743 6.04673 3.91382 5.90672 3.78031C5.76261 3.64284 5.61888 3.50501 5.47523 3.36709C5.36407 3.2605 5.25263 3.15417 5.14112 3.04791C5.08799 2.99719 5.03496 2.94637 4.98203 2.89545C4.90815 2.82442 4.83389 2.75377 4.75953 2.6832C4.73798 2.66232 4.71643 2.64144 4.69423 2.61992C4.19826 2.15283 3.73612 2.29159 3.28107 2.69532Z" fill="#D91374"/>
<path d="M12.3895 0.102545C12.4341 0.113232 12.4788 0.12392 12.5248 0.134931C14.2543 0.556116 15.832 1.30649 17.1858 2.42188C17.2204 2.44988 17.2551 2.47787 17.2909 2.50672C17.8007 2.92993 18.293 3.39361 18.7033 3.90626C18.7354 3.94437 18.7674 3.98249 18.8004 4.02176C19.4499 4.79829 19.9565 5.66757 20.3456 6.58681C20.3805 6.66923 20.4164 6.75122 20.4524 6.8332C20.7208 7.47118 21.1125 8.40499 21.0002 9.10157C20.9033 9.28973 20.7876 9.39989 20.5901 9.49219C20.3585 9.52743 20.172 9.50164 19.9748 9.37501C19.8412 9.23708 19.7845 9.12849 19.7435 8.94578C19.7328 8.90011 19.722 8.85445 19.711 8.80741C19.6999 8.75866 19.6889 8.7099 19.6775 8.65967C19.3533 7.30402 18.796 6.01867 17.8986 4.91349C17.8411 4.84262 17.7844 4.7712 17.7278 4.69971C17.4981 4.41257 17.2553 4.15574 16.9807 3.90626C16.8842 3.81523 16.7885 3.72388 16.695 3.63007C15.4606 2.40554 13.6296 1.58273 11.8983 1.24924C11.8651 1.24276 11.8319 1.23627 11.7977 1.22959C11.7346 1.21756 11.6714 1.20618 11.6081 1.19558C11.391 1.15471 11.2733 1.08644 11.1154 0.937505C11.0065 0.760031 10.9722 0.625734 11.0099 0.426641C11.061 0.26365 11.1476 0.151301 11.2915 0.0528963C11.6216 -0.104325 12.0506 0.0190955 12.3895 0.102545Z" fill="#D91374"/>
<path d="M14.6141 4.86907C14.8872 5.07648 15.1342 5.31194 15.3809 5.54687C15.4059 5.56893 15.431 5.59098 15.4568 5.6137C16.3697 6.42953 17.1569 7.87936 17.2035 9.07959C17.1976 9.27225 17.1648 9.38741 17.0215 9.53125C16.866 9.64733 16.7256 9.67766 16.5293 9.6875C16.3306 9.64887 16.1643 9.56663 16.0371 9.41406C15.9781 9.28797 15.9471 9.15754 15.9141 9.02343C15.6294 7.94972 15.1598 7.08546 14.3555 6.28906C14.3301 6.26197 14.3047 6.23488 14.2786 6.20697C13.5652 5.46991 12.5 5.03121 11.4901 4.82234C11.2343 4.76931 11.0572 4.72968 10.9039 4.51889C10.8217 4.36328 10.8159 4.23447 10.8281 4.0625C10.9058 3.85714 11.0138 3.75513 11.1973 3.63281C12.2389 3.34936 13.826 4.29556 14.6141 4.86907Z" fill="#D91374"/>
</g>
<defs>
<clipPath id="clip0_39_98">
<rect width="21" height="20" fill="white"/>
</clipPath>
</defs>
</svg>
