<svg width="21" height="20" viewBox="0 0 21 20" fill="none" xmlns="http://www.w3.org/2000/svg">
<g clip-path="url(#clip0_39_102)">
<path d="M17.1035 2.96874C17.127 2.9886 17.1504 3.00847 17.1746 3.02893C19.0708 4.64219 20.1894 6.96659 20.3438 9.37499C20.4377 11.9375 19.5656 14.381 17.7264 16.272C16.9196 17.0875 16.011 17.7215 14.9707 18.2422C14.944 18.2558 14.9173 18.2693 14.8898 18.2833C14.0031 18.7293 13.0034 18.9916 12.0176 19.1406C11.9868 19.1456 11.9561 19.1506 11.9244 19.1558C10.4069 19.3979 8.75792 19.1876 7.3136 18.7231C7.2554 18.7045 7.2554 18.7045 7.19602 18.6856C6.99254 18.6165 6.81364 18.5379 6.63155 18.4268C6.29073 18.2242 6.00861 18.0846 5.60084 18.1707C5.48629 18.1996 5.37304 18.232 5.25961 18.2646C5.197 18.2814 5.13434 18.2981 5.07164 18.3147C4.93909 18.3498 4.80676 18.3855 4.67453 18.4217C4.37065 18.5042 4.06437 18.578 3.75825 18.6526C3.5867 18.6945 3.41531 18.737 3.24392 18.7794C3.17523 18.7964 3.10655 18.8134 3.03786 18.8304C2.98665 18.8431 2.98665 18.8431 2.93441 18.856C2.79311 18.891 2.65181 18.9259 2.51051 18.9608C2.37229 18.995 2.23407 19.0292 2.09585 19.0634C2.03097 19.0794 1.96609 19.0954 1.90121 19.1115C1.81108 19.1337 1.72097 19.156 1.63085 19.1784C1.60296 19.1852 1.57506 19.1921 1.54632 19.1992C1.34738 19.2486 1.14941 19.3007 0.951981 19.3553C0.861328 19.375 0.861328 19.375 0.697266 19.375C0.804159 18.962 0.91607 18.5506 1.0334 18.1402C1.04955 18.0836 1.06569 18.027 1.08183 17.9703C1.11567 17.8516 1.14955 17.7329 1.18346 17.6142C1.22726 17.4609 1.27092 17.3075 1.31454 17.1542C1.62708 16.0554 1.62708 16.0554 1.78594 15.5302C1.7961 15.4965 1.80625 15.4627 1.81671 15.4279C1.86091 15.2809 1.90566 15.1342 1.95171 14.9877C1.96648 14.939 1.98125 14.8902 1.99647 14.8399C2.01545 14.7792 2.01545 14.7792 2.03481 14.7172C2.054 14.5876 2.03016 14.5298 1.96875 14.414C1.94589 14.3681 1.94589 14.3681 1.92258 14.3212C1.90593 14.2893 1.88929 14.2574 1.87214 14.2245C0.642261 11.8424 0.453325 9.2333 1.35207 6.71519C1.45706 6.43418 1.58294 6.16517 1.72266 5.89842C1.74018 5.86483 1.7577 5.83124 1.77575 5.79663C1.9928 5.384 2.21644 4.98319 2.50195 4.60936C2.53045 4.5716 2.55895 4.53383 2.58831 4.49492C3.18826 3.71623 3.8906 2.98663 4.7168 2.42186C4.75941 2.39215 4.80203 2.36244 4.84593 2.33184C6.23323 1.38903 7.85793 0.785648 9.55664 0.624987C9.60158 0.620656 9.64652 0.616326 9.69283 0.611864C12.4058 0.390055 15.0791 1.24597 17.1035 2.96874ZM4.50659 4.77538C3.12348 6.26768 2.33889 8.28998 2.46671 10.2853C2.55879 11.5667 2.91273 12.9597 3.70849 14.0229C3.72765 14.0488 3.74681 14.0746 3.76655 14.1012C3.79342 14.1351 3.79342 14.1351 3.82083 14.1697C3.93288 14.4546 3.73993 14.8484 3.65792 15.1265C3.64232 15.18 3.62675 15.2336 3.6112 15.2872C3.57046 15.4274 3.52948 15.5675 3.48841 15.7076C3.4225 15.9325 3.35682 16.1574 3.29143 16.3825C3.26857 16.4609 3.24551 16.5393 3.22244 16.6177C3.20862 16.6651 3.19479 16.7126 3.18054 16.7615C3.16828 16.8033 3.15602 16.8452 3.14338 16.8882C3.1124 16.9934 3.1124 16.9934 3.11719 17.1094C3.46919 17.0554 3.81004 16.9743 4.15395 16.8855C4.209 16.8715 4.26406 16.8575 4.31912 16.8435C4.55078 16.7847 4.78233 16.7256 5.01377 16.666C5.15621 16.6294 5.29876 16.5931 5.44137 16.5571C5.49542 16.5434 5.54943 16.5295 5.6034 16.5155C5.67856 16.4959 5.75387 16.4769 5.82918 16.4579C5.8719 16.447 5.91462 16.436 5.95863 16.4247C6.13782 16.3951 6.24555 16.4452 6.39812 16.5307C8.32962 17.5907 10.518 17.8937 12.6847 17.3648C14.0197 17.0183 15.2061 16.3359 16.2012 15.4297C16.2392 15.3955 16.2772 15.3614 16.3164 15.3262C16.6097 15.056 16.8628 14.766 17.1035 14.4531C17.1206 14.431 17.1376 14.4089 17.1552 14.3861C18.4223 12.7186 18.8734 10.6645 18.5614 8.64413C18.3648 7.51065 17.9001 6.39763 17.1855 5.46874C17.1545 5.4281 17.1235 5.38747 17.0915 5.3456C16.8602 5.04849 16.6063 4.77479 16.3379 4.50768C16.2913 4.46115 16.2452 4.41408 16.1992 4.3669C14.802 2.97081 12.7289 2.27102 10.7461 2.18749C8.33447 2.1377 6.14729 3.12978 4.50659 4.77538Z" fill="#D91374"/>
<path d="M7.29325 5.57861C7.33548 5.57789 7.33548 5.57789 7.37857 5.57716C7.57042 5.57664 7.73646 5.59337 7.91617 5.66406C8.11492 5.8538 8.20701 6.0651 8.31031 6.31164C8.32722 6.35101 8.34413 6.39038 8.36155 6.43093C8.41517 6.55601 8.46818 6.68131 8.52115 6.80664C8.55738 6.89149 8.59364 6.97633 8.62994 7.06115C8.70949 7.24705 8.78863 7.43309 8.86741 7.61927C8.89016 7.67148 8.91502 7.72288 8.94157 7.77343C8.985 7.96584 8.97017 8.11309 8.87219 8.28766C8.6902 8.54025 8.48858 8.77278 8.27106 8.99871C8.18047 9.13618 8.18061 9.21499 8.20328 9.375C8.26627 9.50593 8.26627 9.50593 8.35966 9.63134C8.3761 9.65467 8.39254 9.678 8.40948 9.70203C9.20206 10.8082 10.2716 11.7197 11.6076 12.1875C11.7717 12.2018 11.8292 12.2025 11.969 12.1167C12.2012 11.9117 12.3895 11.662 12.5809 11.423C12.5994 11.3999 12.6179 11.3768 12.637 11.353C12.6731 11.3078 12.709 11.2624 12.7448 11.2169C12.8702 11.0589 12.8702 11.0589 12.9611 11.0156C13.3535 10.9858 13.695 11.187 14.0326 11.3501C14.0904 11.3774 14.1482 11.4047 14.206 11.432C14.35 11.4999 14.4935 11.5687 14.637 11.6376C14.7278 11.6811 14.8188 11.7242 14.9099 11.7673C14.9399 11.7814 14.9698 11.7956 15.0007 11.8102C15.0578 11.8372 15.1149 11.8641 15.1721 11.891C15.2879 11.9459 15.3962 12.0018 15.5041 12.0703C15.6405 12.4602 15.5063 12.9747 15.3323 13.3374C15.0287 13.8557 14.4185 14.1687 13.8404 14.3402C13.1766 14.4897 12.4469 14.3918 11.8127 14.1797C11.7791 14.1688 11.7456 14.1579 11.7111 14.1467C10.84 13.8599 10.0143 13.4882 9.26969 12.9687C9.24419 12.951 9.2187 12.9333 9.19243 12.9151C8.79476 12.6356 8.43531 12.3189 8.08024 11.9922C8.0588 11.9726 8.03737 11.9531 8.01529 11.9329C7.74067 11.6817 7.49666 11.4165 7.25992 11.1328C7.20183 11.0669 7.14372 11.001 7.08561 10.9351C6.26875 9.97923 5.48562 8.86428 5.57828 7.57812C5.65373 6.88309 5.95997 6.31184 6.48063 5.82031C6.74332 5.61941 6.9643 5.5789 7.29325 5.57861Z" fill="#D91374"/>
</g>
<defs>
<clipPath id="clip0_39_102">
<rect width="21" height="20" fill="white"/>
</clipPath>
</defs>
</svg>
