<svg width="21" height="20" viewBox="0 0 21 20" fill="none" xmlns="http://www.w3.org/2000/svg">
<path d="M13.073 3.43842C13.7978 4.04168 14.2548 4.83367 14.3963 5.7422C14.4415 6.43359 14.401 7.10574 14.1677 7.76442C14.1567 7.79554 14.1457 7.82665 14.1344 7.8587C14.1261 7.88213 14.1177 7.90556 14.1092 7.9297C14.1316 7.92935 14.1539 7.929 14.177 7.92865C14.4112 7.92517 14.6455 7.92283 14.8797 7.92111C14.967 7.92033 15.0543 7.91927 15.1415 7.91791C15.2674 7.916 15.3932 7.91512 15.5191 7.91444C15.5771 7.91323 15.5771 7.91323 15.6363 7.91199C15.9189 7.9119 16.1334 7.96506 16.3517 8.14144C16.7105 8.49751 16.7785 9.08778 16.8985 9.5511C16.9184 9.62681 16.9382 9.70253 16.958 9.77824C17.0111 9.981 17.0639 10.1838 17.1166 10.3867C17.1716 10.5979 17.2269 10.8091 17.2821 11.0204C17.4143 11.5265 17.546 12.0328 17.6775 12.5391C17.6873 12.5768 17.6971 12.6146 17.7072 12.6534C17.8657 13.2637 18.024 13.874 18.1816 14.4844C18.1886 14.5117 18.1957 14.539 18.2029 14.5671C18.2368 14.6981 18.2705 14.829 18.3041 14.96C18.3644 15.1946 18.4259 15.4288 18.4904 15.6624C18.5078 15.7262 18.5078 15.7262 18.5256 15.7912C18.5469 15.869 18.5686 15.9467 18.5909 16.0242C18.6806 16.3532 18.7224 16.6722 18.5578 16.9853C18.4051 17.2018 18.2057 17.3765 17.938 17.4451C17.712 17.4822 17.4805 17.4718 17.2518 17.4711C17.1912 17.4712 17.1307 17.4714 17.0701 17.4716C16.9039 17.472 16.7378 17.4719 16.5717 17.4717C16.3924 17.4716 16.2131 17.472 16.0338 17.4723C15.6826 17.4728 15.3315 17.4728 14.9804 17.4728C14.695 17.4727 14.4096 17.4728 14.1242 17.4729C14.0633 17.473 14.0633 17.473 14.0011 17.473C13.9186 17.473 13.8361 17.4731 13.7535 17.4731C12.9797 17.4736 12.2059 17.4735 11.4321 17.4732C10.7242 17.473 10.0163 17.4735 9.30836 17.4742C8.58142 17.475 7.85449 17.4753 7.12755 17.4752C6.71945 17.4751 6.31135 17.4752 5.90325 17.4757C5.55585 17.4762 5.20846 17.4762 4.86106 17.4758C4.68384 17.4755 4.50661 17.4755 4.32939 17.476C4.16709 17.4764 4.0048 17.4763 3.8425 17.4757C3.78385 17.4756 3.7252 17.4757 3.66655 17.476C3.22633 17.4782 2.90528 17.445 2.57416 17.1489C2.38376 16.9423 2.31946 16.7238 2.32449 16.4532C2.35493 16.1645 2.44215 15.8844 2.51808 15.6041C2.53726 15.5319 2.5564 15.4596 2.57549 15.3874C2.61629 15.2334 2.65737 15.0794 2.6987 14.9255C2.76378 14.6832 2.82822 14.4407 2.89253 14.1982C2.91429 14.1161 2.93605 14.0341 2.95782 13.952C2.96862 13.9113 2.97943 13.8705 2.99056 13.8286C3.02351 13.7045 3.05653 13.5803 3.08956 13.4562C3.22656 12.9414 3.36192 12.4262 3.49509 11.9104C3.50334 11.8784 3.5116 11.8464 3.52011 11.8135C3.59013 11.5422 3.65996 11.271 3.72973 10.9996C3.81141 10.6821 3.8935 10.3647 3.97637 10.0474C4.0067 9.93132 4.03685 9.81516 4.06691 9.69898C4.10766 9.54163 4.1489 9.38439 4.19044 9.22722C4.20625 9.16713 4.22191 9.107 4.23741 9.04683C4.259 8.96318 4.28114 8.87967 4.3034 8.79618C4.31589 8.74852 4.32837 8.70086 4.34123 8.65176C4.41337 8.44383 4.51254 8.25411 4.69351 8.1128C4.7163 8.09442 4.73909 8.07604 4.76256 8.05711C4.99034 7.91143 5.20299 7.91934 5.46848 7.92207C5.5295 7.92223 5.5295 7.92223 5.59175 7.9224C5.72129 7.92284 5.85083 7.92382 5.98038 7.92481C6.06836 7.92521 6.15635 7.92556 6.24433 7.92588C6.4597 7.92674 6.67505 7.92805 6.89041 7.9297C6.87389 7.87955 6.87389 7.87955 6.85704 7.8284C6.4931 6.71454 6.45818 5.58335 7.01538 4.52392C7.49751 3.65098 8.33559 2.99387 9.32059 2.69776C10.6491 2.32547 12.0127 2.59607 13.073 3.43842ZM7.89457 4.18969C7.2966 4.85973 7.06181 5.69139 7.1027 6.5593C7.14987 7.00451 7.28024 7.42687 7.42361 7.85157C7.43269 7.87854 7.44177 7.9055 7.45113 7.93328C7.84477 9.07127 8.51202 10.1471 9.30008 11.0767C9.32135 11.1018 9.34262 11.1269 9.36453 11.1527C9.5141 11.3259 9.67524 11.4841 9.84353 11.6406C9.87483 11.6712 9.90613 11.7019 9.93838 11.7334C10.1068 11.8901 10.283 12.0384 10.4588 12.1875C10.6874 12.0912 10.8531 11.9192 11.033 11.7578C11.0639 11.7304 11.0639 11.7304 11.0954 11.7024C11.8823 10.9991 12.4634 10.1247 12.9607 9.21876C12.9778 9.18777 12.9949 9.15679 13.0125 9.12486C13.6537 7.94543 14.158 6.57055 13.7349 5.25147C13.5391 4.73212 13.2481 4.33171 12.8377 3.94532C12.7928 3.90197 12.7928 3.90197 12.747 3.85774C12.1216 3.28867 11.2652 3.03034 10.4136 3.03523C9.42032 3.05788 8.55285 3.49231 7.89457 4.18969ZM4.96268 8.5547C4.90125 8.65452 4.86997 8.75561 4.83963 8.8672C4.83111 8.89596 4.8226 8.92473 4.81383 8.95437C4.78701 9.04773 4.76222 9.14141 4.73789 9.23539C4.7245 9.28633 4.7245 9.28633 4.71083 9.3383C4.69216 9.40948 4.67359 9.48068 4.65511 9.55191C4.62675 9.66108 4.59803 9.77016 4.56926 9.87924C4.55111 9.94863 4.53298 10.018 4.51487 10.0874C4.50628 10.12 4.4977 10.1526 4.48885 10.1862C4.45714 10.309 4.42947 10.4199 4.42947 10.5469C5.68824 10.5469 6.94701 10.5469 8.24393 10.5469C8.02121 10.1756 8.02121 10.1756 7.79804 9.80454C7.52711 9.34884 7.3041 8.8826 7.09549 8.39845C6.83789 8.39447 6.58031 8.39174 6.32269 8.38986C6.23513 8.38908 6.14757 8.38801 6.06001 8.38666C5.93386 8.38476 5.80774 8.38388 5.68157 8.38319C5.64268 8.38238 5.60379 8.38157 5.56372 8.38074C5.31493 8.38066 5.15832 8.40244 4.96268 8.5547ZM13.9041 8.39845C13.8881 8.43515 13.8881 8.43515 13.8718 8.47259C13.5534 9.19718 13.18 9.87334 12.7556 10.5469C14.0144 10.5469 15.2732 10.5469 16.5701 10.5469C16.5203 10.2862 16.4703 10.0309 16.4036 9.77448C16.392 9.72927 16.392 9.72927 16.38 9.68314C16.3637 9.62031 16.3474 9.55749 16.3309 9.49469C16.3059 9.39888 16.2814 9.30295 16.257 9.20701C16.2409 9.14551 16.2249 9.08402 16.2088 9.02253C16.2016 8.99413 16.1944 8.96572 16.187 8.93646C16.1311 8.72614 16.0816 8.57343 15.8919 8.44555C15.6986 8.38148 15.5251 8.38386 15.322 8.387C15.2814 8.38717 15.2408 8.38733 15.1989 8.3875C15.0698 8.38816 14.9407 8.38963 14.8116 8.39112C14.7238 8.39171 14.636 8.39224 14.5482 8.39272C14.3335 8.39401 14.1188 8.39597 13.9041 8.39845ZM4.30643 11.0156C4.23168 11.2292 4.16252 11.4319 4.1054 11.6485C4.09858 11.6742 4.09177 11.6999 4.08474 11.7264C4.06263 11.8099 4.04072 11.8935 4.01884 11.9771C4.00339 12.0358 3.98793 12.0944 3.97246 12.1531C3.94028 12.2754 3.9082 12.3977 3.87619 12.52C3.83519 12.6767 3.79387 12.8333 3.75247 12.9898C3.72057 13.1107 3.68884 13.2316 3.65716 13.3525C3.64199 13.4102 3.62677 13.468 3.61148 13.5257C3.59019 13.6063 3.56915 13.6869 3.54817 13.7675C3.53014 13.8361 3.53014 13.8361 3.51176 13.9062C3.48054 14.029 3.48054 14.029 3.48611 14.1797C6.91051 14.1797 10.3349 14.1797 13.8631 14.1797C13.7548 13.1356 13.6465 12.0914 13.5349 11.0156C12.4644 10.89 12.4644 10.89 12.1225 11.2549C12.0719 11.3435 12.0232 11.433 11.9763 11.5234C11.9117 11.6056 11.8428 11.6809 11.7713 11.7578C11.9064 11.8264 12.0451 11.8747 12.1891 11.9238C12.4775 12.0294 12.7677 12.1427 12.9428 12.3975C13.0161 12.5734 13.0268 12.6636 13.0017 12.8516C12.9197 12.9834 12.9197 12.9834 12.8377 13.0859C12.8377 13.1117 12.8377 13.1375 12.8377 13.1641C12.8154 13.1746 12.7932 13.1852 12.7702 13.1961C12.7017 13.2288 12.6335 13.262 12.5655 13.2956C11.47 13.8113 10.0314 13.8191 8.8771 13.4815C8.69396 13.4187 8.52708 13.3397 8.3604 13.2442C8.27991 13.1973 8.27991 13.1973 8.16189 13.1641C8.11831 13.0933 8.11831 13.0933 8.07986 13.0078C8.06464 12.9853 8.04941 12.9627 8.03372 12.9395C7.95409 12.7445 7.97848 12.5855 8.05679 12.3975C8.30165 12.0383 8.81579 11.8994 9.2283 11.7969C9.11356 11.6267 8.9894 11.4719 8.85147 11.3184C8.65926 11.1036 8.65926 11.1036 8.61307 11.0156C7.19187 11.0156 5.77068 11.0156 4.30643 11.0156ZM14.0681 11.0156C14.0596 11.3604 14.0929 11.6987 14.1295 12.0412C14.1359 12.1018 14.1422 12.1625 14.1485 12.2231C14.1617 12.3494 14.1751 12.4756 14.1886 12.6018C14.2058 12.7639 14.2228 12.926 14.2396 13.0881C14.2526 13.2129 14.2657 13.3378 14.279 13.4626C14.2853 13.5224 14.2915 13.5822 14.2977 13.642C14.3064 13.7252 14.3153 13.8083 14.3242 13.8914C14.3293 13.9387 14.3343 13.986 14.3394 14.0348C14.3434 14.1371 14.3434 14.1371 14.3963 14.1797C14.4936 14.1834 14.5897 14.1846 14.6871 14.1841C14.7175 14.1841 14.7479 14.1841 14.7792 14.1841C14.8802 14.1841 14.9812 14.1838 15.0822 14.1835C15.152 14.1834 15.2218 14.1834 15.2916 14.1833C15.4758 14.1832 15.6599 14.1828 15.8441 14.1824C16.0319 14.182 16.2196 14.1818 16.4074 14.1816C16.7761 14.1812 17.1448 14.1805 17.5135 14.1797C17.4894 13.9728 17.4538 13.7765 17.4007 13.5742C17.3935 13.5467 17.3864 13.5193 17.379 13.4911C17.3557 13.4016 17.332 13.3122 17.3084 13.2228C17.292 13.1603 17.2756 13.0978 17.2592 13.0353C17.225 12.9049 17.1906 12.7745 17.1562 12.6441C17.1119 12.4768 17.068 12.3093 17.0242 12.1418C16.9904 12.013 16.9566 11.8843 16.9226 11.7555C16.9064 11.6937 16.8902 11.6319 16.874 11.5701C16.8514 11.4842 16.8287 11.3983 16.8059 11.3124C16.793 11.2634 16.7801 11.2145 16.7668 11.1641C16.7456 11.0592 16.7456 11.0592 16.6931 11.0156C16.6113 11.012 16.5294 11.011 16.4475 11.0112C16.3687 11.0112 16.3687 11.0112 16.2883 11.0112C16.2305 11.0114 16.1727 11.0116 16.1149 11.0118C16.0561 11.0119 15.9973 11.0119 15.9385 11.012C15.7835 11.0121 15.6285 11.0125 15.4735 11.013C15.3154 11.0134 15.1573 11.0135 14.9992 11.0137C14.6889 11.0141 14.3785 11.0148 14.0681 11.0156ZM9.14627 12.3145C9.11814 12.3225 9.09001 12.3305 9.06103 12.3387C8.84902 12.4023 8.63621 12.4781 8.51565 12.666C8.50719 12.6886 8.49873 12.7111 8.49002 12.7344C9.2218 13.3258 10.3683 13.2635 11.2718 13.1943C11.7205 13.1446 12.1621 13.0152 12.5096 12.7344C12.4222 12.5419 12.2946 12.4708 12.0994 12.3828C11.6982 12.2418 11.6982 12.2418 11.2791 12.2266C11.1705 12.287 11.0772 12.3613 10.9817 12.439C10.6284 12.7174 10.6284 12.7174 10.3767 12.6953C10.2612 12.6325 10.2612 12.6325 10.1486 12.5488C10.0927 12.508 10.0927 12.508 10.0356 12.4664C9.96321 12.4114 9.89268 12.354 9.82447 12.2943C9.60589 12.1519 9.38067 12.2427 9.14627 12.3145ZM3.32205 14.6484C2.9648 15.4768 2.9648 15.4768 2.94266 16.77C3.04913 16.8912 3.12378 16.9452 3.28965 16.9627C3.32277 16.9627 3.35589 16.9626 3.39002 16.9625C3.4282 16.9626 3.46639 16.9627 3.50574 16.9629C3.56813 16.9624 3.56813 16.9624 3.63179 16.962C3.67582 16.962 3.71985 16.962 3.76521 16.962C3.9108 16.962 4.05638 16.9614 4.20196 16.9608C4.30288 16.9606 4.4038 16.9605 4.50472 16.9604C4.77039 16.9601 5.03606 16.9594 5.30173 16.9585C5.57281 16.9577 5.84388 16.9573 6.11496 16.9569C6.64688 16.9561 7.1788 16.9548 7.71072 16.9531C7.80012 16.1869 7.85672 15.4174 7.9158 14.6484C6.39986 14.6484 4.88393 14.6484 3.32205 14.6484ZM8.449 14.6484C8.40014 14.7415 8.39677 14.8108 8.38827 14.9146C8.38499 14.9537 8.38171 14.9928 8.37833 15.0332C8.37495 15.0756 8.37157 15.118 8.36809 15.1618C8.36451 15.2053 8.36093 15.2489 8.35723 15.2937C8.34967 15.3861 8.3422 15.4784 8.3348 15.5707C8.32348 15.7118 8.31188 15.8528 8.30024 15.9938C8.29293 16.0835 8.28564 16.1732 8.27837 16.2628C8.27491 16.3049 8.27145 16.3471 8.26789 16.3905C8.26473 16.4301 8.26158 16.4697 8.25833 16.5105C8.25554 16.5451 8.25275 16.5798 8.24988 16.6155C8.24338 16.7282 8.24355 16.8402 8.24393 16.9531C9.45719 16.9567 10.6705 16.9595 11.8837 16.9611C12.027 16.9613 12.1702 16.9615 12.3134 16.9617C12.3562 16.9618 12.3562 16.9618 12.3999 16.9618C12.8616 16.9625 13.3233 16.9638 13.785 16.9652C14.2588 16.9667 14.7326 16.9675 15.2064 16.9678C15.4725 16.968 15.7386 16.9685 16.0047 16.9697C16.2551 16.9707 16.5055 16.971 16.7559 16.9708C16.8479 16.9708 16.9398 16.9712 17.0318 16.9718C17.1573 16.9725 17.2827 16.9724 17.4082 16.9719C17.4446 16.9724 17.4811 16.9728 17.5187 16.9733C17.7477 16.9712 17.8699 16.9379 18.0467 16.7969C18.1627 16.6512 18.1287 16.5711 18.1287 16.3672C17.9798 15.8 17.8309 15.2328 17.6775 14.6484C14.6321 14.6484 11.5867 14.6484 8.449 14.6484Z" fill="#D91374"/>
<path d="M11.6717 4.7255C12.0866 5.05889 12.3109 5.44346 12.3589 5.95994C12.3779 6.52929 12.2175 6.97464 11.81 7.39136C11.4418 7.72758 11.008 7.8638 10.5079 7.90284C9.90284 7.88417 9.43105 7.64029 9.02366 7.22657C8.68533 6.80754 8.60493 6.33925 8.65452 5.82032C8.7547 5.31202 9.03377 4.91019 9.47483 4.60938C10.187 4.21908 11.0154 4.24428 11.6717 4.7255ZM9.38767 5.40284C9.15863 5.7155 9.14983 6.0338 9.18772 6.40626C9.22435 6.53699 9.27722 6.64312 9.35178 6.75782C9.36617 6.78214 9.38055 6.80646 9.39536 6.83152C9.58632 7.12263 9.89572 7.28022 10.2376 7.36451C10.5856 7.42917 10.9027 7.35824 11.2103 7.19239C11.4874 6.98372 11.7375 6.74468 11.8127 6.40626C11.8458 6.06251 11.8423 5.76658 11.6487 5.46876C11.6343 5.44443 11.6199 5.42011 11.6051 5.39506C11.4141 5.10395 11.1047 4.94636 10.7628 4.86207C10.191 4.7558 9.76452 5.01226 9.38767 5.40284Z" fill="#D91374"/>
</svg>
