<svg width="24" height="24" viewBox="0 0 24 24" fill="none" xmlns="http://www.w3.org/2000/svg">
<g clip-path="url(#clip0_39_118)">
<path d="M23.7656 -1.42008e-05C22.8517 -0.0175637 21.9378 -0.0307739 21.0237 -0.0388733C20.5993 -0.0427347 20.1749 -0.0479948 19.7505 -0.0565938C19.3804 -0.0640886 19.0104 -0.0689122 18.6403 -0.0705806C18.4444 -0.0715555 18.2487 -0.0738313 18.0529 -0.0793117C16.8622 -0.111373 16.8622 -0.111373 16.5725 0.0732845C16.3975 0.243998 16.2944 0.434549 16.2078 0.66131C16.1579 0.784337 16.0852 0.885528 16.0063 0.991685C15.96 1.05955 15.9136 1.12742 15.8672 1.1953C15.6153 1.56365 15.3628 1.93152 15.1098 2.29913C15.0029 2.45459 14.896 2.6101 14.7891 2.76561C14.7461 2.82811 14.7031 2.89061 14.6602 2.95311C11.8242 7.07811 11.8242 7.07811 11.7597 7.17196C11.717 7.23412 11.6742 7.29628 11.6315 7.35843C11.5205 7.51987 11.4095 7.68137 11.2987 7.84294C11.2758 7.87627 11.253 7.90959 11.2294 7.94392C11.1861 8.00702 11.1428 8.07013 11.0996 8.13326C10.9645 8.33007 10.8268 8.52483 10.6875 8.71874C10.5043 8.54029 10.3355 8.35315 10.1689 8.15917C10.1424 8.12841 10.1159 8.09766 10.0886 8.06598C10.0069 7.97116 9.92528 7.87622 9.84375 7.78124C9.81934 7.75282 9.79493 7.72441 9.76978 7.69513C9.60671 7.50527 9.44394 7.31517 9.28125 7.12499C8.9677 6.75846 8.65324 6.39277 8.33709 6.02848C8.07234 5.72326 7.80952 5.41639 7.54688 5.10936C7.23333 4.74283 6.91887 4.37714 6.60271 4.01286C6.33797 3.70763 6.07515 3.40077 5.8125 3.09374C5.49895 2.72721 5.18449 2.36152 4.86834 1.99723C4.55415 1.63501 4.24253 1.27058 3.93109 0.905992C3.90665 0.877414 3.88222 0.848837 3.85704 0.819394C3.81131 0.76592 3.76561 0.712418 3.71996 0.658879C3.67616 0.607669 3.63144 0.557231 3.58594 0.50752C3.51093 0.421549 3.51093 0.421549 3.4541 0.309377C3.36053 0.162149 3.29203 0.0897024 3.14062 -1.42008e-05C2.78079 -0.0722411 2.40345 -0.0394659 2.03906 -0.0263814C1.93689 -0.0242636 1.83472 -0.022339 1.73254 -0.0206136C1.48306 -0.015981 1.23374 -0.00893705 0.984375 -1.42008e-05C1.02856 0.0595955 1.07284 0.119133 1.11716 0.17864C1.15413 0.228383 1.15413 0.228383 1.19185 0.279132C1.29246 0.409846 1.40137 0.527458 1.51465 0.647447C1.71899 0.866252 1.91006 1.09255 2.09784 1.32585C2.20726 1.45811 2.32125 1.58464 2.4375 1.71092C2.63033 1.92045 2.81113 2.13704 2.98993 2.35857C3.12491 2.52212 3.26751 2.67795 3.41034 2.83464C3.51853 2.95637 3.62136 3.08127 3.72363 3.20799C3.90455 3.4317 4.09556 3.64363 4.29034 3.85527C4.44127 4.02336 4.58245 4.19844 4.7243 4.37419C4.85929 4.53774 5.00189 4.69358 5.14471 4.85027C5.2529 4.972 5.35573 5.09689 5.45801 5.22362C5.63893 5.44733 5.82994 5.65926 6.02472 5.8709C6.17565 6.03899 6.31683 6.21406 6.45868 6.38982C6.56045 6.51313 6.66574 6.63183 6.77344 6.74999C6.91943 6.91018 7.05899 7.07367 7.19531 7.24217C7.3646 7.45143 7.54156 7.65139 7.72284 7.85027C7.83103 7.972 7.93385 8.09689 8.03613 8.22362C8.21705 8.44733 8.40806 8.65926 8.60284 8.8709C8.75341 9.03859 8.89434 9.21312 9.03552 9.38872C9.17562 9.55786 9.32481 9.71772 9.47589 9.87706C9.56936 9.99286 9.62486 10.0728 9.65625 10.2187C9.60331 10.3449 9.60331 10.3449 9.50684 10.4678C9.45409 10.5418 9.45409 10.5418 9.40027 10.6174C9.38095 10.6438 9.36163 10.6703 9.34172 10.6976C9.25777 10.8137 9.1772 10.9321 9.09644 11.0504C9.03107 11.1462 8.96533 11.2417 8.89948 11.3371C8.76872 11.5267 8.63824 11.7164 8.50781 11.9062C8.46484 11.9687 8.42188 12.0312 8.37891 12.0937C7.43359 13.4687 6.48828 14.8437 5.54297 16.2187C5.52171 16.2497 5.50044 16.2806 5.47854 16.3125C5.43549 16.3751 5.39245 16.4377 5.3494 16.5003C5.24318 16.6548 5.13693 16.8093 5.03064 16.9638C4.77257 17.3389 4.51517 17.7144 4.25816 18.0903C4.03217 18.4207 3.80548 18.7506 3.57857 19.0804C3.47161 19.2358 3.36471 19.3914 3.25781 19.5469C3.21484 19.6094 3.17188 19.6719 3.12891 19.7344C2.52734 20.6094 1.92578 21.4844 1.32422 22.3594C1.30292 22.3903 1.28163 22.4213 1.25969 22.4532C1.21697 22.5154 1.17426 22.5775 1.13158 22.6397C1.02047 22.8015 0.909025 22.963 0.797058 23.1242C0.773975 23.1575 0.750893 23.1908 0.727112 23.2252C0.683336 23.2884 0.63946 23.3515 0.595459 23.4145C0.575459 23.4434 0.555458 23.4723 0.534851 23.5021C0.517513 23.5271 0.500175 23.552 0.482311 23.5777C0.394028 23.7153 0.315207 23.8579 0.234375 24C1.14668 24.0208 2.05893 24.0365 2.97142 24.0461C3.39517 24.0507 3.81877 24.057 4.24243 24.0672C4.61193 24.0761 4.98131 24.0818 5.35092 24.0838C5.54649 24.0849 5.74176 24.0876 5.93723 24.0942C7.12223 24.1322 7.12223 24.1322 7.43556 23.9145C7.63411 23.7105 7.75759 23.482 7.86939 23.2224C7.95325 23.0418 8.0688 22.8861 8.18555 22.7256C8.22782 22.6645 8.26995 22.6033 8.31189 22.5419C8.33257 22.5119 8.35325 22.4818 8.37456 22.4508C8.48152 22.2954 8.58841 22.1399 8.69531 21.9844C8.73828 21.9219 8.78125 21.8594 8.82422 21.7969C9.76953 20.4219 10.7148 19.0469 11.6602 17.6719C11.6814 17.6409 11.7027 17.61 11.7246 17.5781C11.7676 17.5155 11.8107 17.4529 11.8537 17.3903C11.9599 17.2358 12.0662 17.0813 12.1725 16.9268C12.3026 16.7377 12.4326 16.5486 12.5625 16.3594C12.5871 16.3236 12.6116 16.2879 12.6369 16.2511C12.9753 15.7584 13.3106 15.2639 13.6406 14.7656C13.9467 15.0914 14.2444 15.4194 14.5245 15.7681C14.6249 15.8905 14.7292 16.008 14.8359 16.125C14.981 16.2842 15.1196 16.4466 15.2549 16.6142C15.4358 16.838 15.6268 17.0499 15.8216 17.2615C15.9725 17.4296 16.1137 17.6047 16.2556 17.7804C16.3905 17.944 16.5331 18.0998 16.676 18.2565C16.7842 18.3783 16.887 18.5031 16.9893 18.6299C17.1702 18.8536 17.3612 19.0655 17.556 19.2771C17.7069 19.4452 17.8481 19.6203 17.9899 19.7961C18.1249 19.9596 18.2675 20.1155 18.4103 20.2721C18.5185 20.3939 18.6214 20.5188 18.7236 20.6455C18.9046 20.8692 19.0956 21.0811 19.2903 21.2928C19.4413 21.4609 19.5825 21.6359 19.7243 21.8117C19.8593 21.9752 20.0019 22.1311 20.1447 22.2878C20.2529 22.4095 20.3557 22.5344 20.458 22.6611C20.6385 22.8843 20.8289 23.0957 21.0233 23.3067C21.1826 23.4842 21.3325 23.6682 21.4821 23.8539C21.5625 23.9531 21.5625 23.9531 21.6094 24C21.677 24.0043 21.7449 24.0055 21.8126 24.0053C21.8774 24.0053 21.8774 24.0053 21.9434 24.0053C21.9904 24.0051 22.0373 24.0048 22.0856 24.0046C22.1334 24.0045 22.1812 24.0044 22.2305 24.0044C22.3838 24.0041 22.5371 24.0035 22.6904 24.0029C22.7941 24.0027 22.8978 24.0025 23.0014 24.0023C23.2562 24.0018 23.5109 24.001 23.7656 24C23.721 23.94 23.6763 23.88 23.6316 23.82C23.6067 23.7866 23.5818 23.7533 23.5561 23.7188C23.4704 23.6067 23.3783 23.5028 23.2822 23.3994C23.1331 23.2363 22.9904 23.0703 22.8516 22.8984C22.6823 22.6892 22.5053 22.4892 22.324 22.2903C22.2158 22.1686 22.113 22.0437 22.0107 21.917C21.8298 21.6933 21.6388 21.4813 21.444 21.2697C21.2931 21.1016 21.1519 20.9265 21.0101 20.7508C20.8751 20.5872 20.7325 20.4314 20.5897 20.2747C20.4815 20.153 20.3786 20.0281 20.2764 19.9014C20.0954 19.6776 19.9044 19.4657 19.7097 19.2541C19.5587 19.086 19.4175 18.9109 19.2757 18.7352C19.1407 18.5716 18.9981 18.4158 18.8553 18.2591C18.7471 18.1373 18.6443 18.0125 18.542 17.8857C18.3611 17.662 18.1701 17.4501 17.9753 17.2384C17.8244 17.0704 17.6832 16.8953 17.5413 16.7195C17.4063 16.556 17.2637 16.4001 17.1209 16.2435C17.0127 16.1217 16.9099 15.9968 16.8076 15.8701C16.6267 15.6464 16.4357 15.4345 16.2409 15.2228C16.09 15.0547 15.9488 14.8797 15.8069 14.7039C15.6723 14.5408 15.5301 14.3853 15.3876 14.2291C15.2376 14.0602 15.0963 13.8847 14.9551 13.7084C14.8594 13.5937 14.8594 13.5937 14.7504 13.4967C14.7245 13.4668 14.6986 13.437 14.6719 13.4062C14.7005 13.1981 14.8287 13.046 14.9473 12.8789C14.9945 12.8113 15.0418 12.7436 15.089 12.676C15.1132 12.6415 15.1374 12.6071 15.1624 12.5715C15.2734 12.413 15.3828 12.2534 15.4922 12.0937C15.5351 12.0312 15.5781 11.9687 15.6211 11.9062C16.0508 11.2812 16.4805 10.6562 16.9102 10.0312C16.9314 10.0003 16.9527 9.96938 16.9746 9.93752C17.0176 9.87491 17.0607 9.81229 17.1037 9.74968C17.2099 9.59516 17.3162 9.44065 17.4225 9.28618C17.6806 8.91108 17.938 8.53552 18.195 8.15969C18.421 7.82929 18.6476 7.49936 18.8746 7.16959C18.9815 7.01413 19.0884 6.85862 19.1953 6.70311C19.2383 6.64061 19.2812 6.57811 19.3242 6.51561C20.2695 5.14061 21.2148 3.76561 22.1602 2.39061C22.192 2.34422 22.192 2.34422 22.2246 2.2969C22.2676 2.23428 22.3107 2.17167 22.3537 2.10905C22.4599 1.95453 22.5662 1.80003 22.6725 1.64555C22.757 1.52279 22.8414 1.39999 22.9257 1.27715C23.026 1.13114 23.1265 0.985311 23.2271 0.839524C23.2826 0.7589 23.3381 0.678273 23.3936 0.597642C23.4198 0.559646 23.4461 0.52165 23.4732 0.482503C23.51 0.428919 23.51 0.428919 23.5475 0.374253C23.5693 0.342697 23.5911 0.31114 23.6135 0.278627C23.6714 0.188262 23.7184 0.0962397 23.7656 -1.42008e-05ZM20.8594 1.59374C20.8075 1.67571 20.7555 1.75764 20.7036 1.83957C20.6746 1.8852 20.6457 1.93083 20.6159 1.97785C20.5055 2.14928 20.3892 2.31573 20.2705 2.48143C20.2215 2.55039 20.1725 2.61936 20.1235 2.68834C20.0982 2.72389 20.0729 2.75943 20.0469 2.79605C19.9126 2.9855 19.7795 3.17586 19.6465 3.3662C19.6054 3.42497 19.6054 3.42497 19.5634 3.48493C19.5076 3.56471 19.4518 3.64449 19.396 3.72428C19.2589 3.9204 19.1216 4.11644 18.9844 4.31249C18.9297 4.39061 18.875 4.46874 18.8203 4.54686C18.7797 4.60487 18.7797 4.60487 18.7383 4.66405C18.6562 4.78124 18.5742 4.89842 18.4922 5.01561C18.4651 5.05427 18.4381 5.09293 18.4102 5.13276C18.3554 5.211 18.3006 5.28924 18.2459 5.36748C18.1104 5.56108 17.9748 5.75465 17.8392 5.94817C17.5164 6.40897 17.1945 6.87047 16.8734 7.33247C16.5892 7.74125 16.3038 8.1492 16.018 8.55694C15.8817 8.75145 15.7456 8.94603 15.6094 9.14061C15.5547 9.21874 15.5 9.29686 15.4453 9.37499C15.3359 9.53124 15.2266 9.68749 15.1172 9.84374C15.0901 9.8824 15.0631 9.92106 15.0352 9.96089C14.9804 10.0391 14.9256 10.1174 14.8709 10.1956C14.7354 10.3892 14.5998 10.5828 14.4642 10.7763C14.1414 11.2371 13.8195 11.6986 13.4984 12.1606C13.2142 12.5694 12.9288 12.9773 12.643 13.3851C12.5067 13.5796 12.3706 13.7742 12.2344 13.9687C12.1797 14.0469 12.125 14.125 12.0703 14.2031C11.9609 14.3594 11.8516 14.5156 11.7422 14.6719C11.7151 14.7105 11.6881 14.7492 11.6602 14.789C11.6054 14.8673 11.5506 14.9455 11.4959 15.0237C11.3604 15.2173 11.2248 15.4109 11.0892 15.6044C10.7664 16.0652 10.4445 16.5267 10.1234 16.9887C9.83916 17.3975 9.55375 17.8055 9.26802 18.2132C9.13174 18.4077 8.99556 18.6023 8.85938 18.7969C8.80469 18.875 8.75 18.9531 8.69531 19.0312C8.36719 19.5 8.03906 19.9687 7.71094 20.4375C7.68384 20.4762 7.65674 20.5149 7.62881 20.5548C7.57443 20.6325 7.52004 20.7102 7.46567 20.7879C7.32442 20.9897 7.18306 21.1915 7.0415 21.3931C6.99773 21.4555 6.99773 21.4555 6.95306 21.5192C6.89781 21.5979 6.84251 21.6767 6.78717 21.7554C6.76185 21.7915 6.73653 21.8276 6.71045 21.8648C6.67768 21.9114 6.67768 21.9114 6.64426 21.959C6.5625 22.0781 6.5625 22.0781 6.51578 22.1839C6.44936 22.3155 6.39237 22.4023 6.28125 22.5C6.04343 22.5599 5.80973 22.5492 5.56677 22.5412C5.49676 22.5404 5.42675 22.5398 5.35674 22.5394C5.17311 22.5378 4.98963 22.5336 4.80606 22.529C4.61849 22.5246 4.43089 22.5227 4.24329 22.5206C3.87567 22.5161 3.50816 22.5089 3.14062 22.5C3.19302 22.4173 3.24546 22.3346 3.29792 22.2519C3.32712 22.2059 3.35632 22.1598 3.3864 22.1124C3.47906 21.9683 3.5759 21.8298 3.67676 21.6914C3.8882 21.3988 4.09495 21.1032 4.30078 20.8066C4.54045 20.4615 4.78041 20.1166 5.02148 19.7724C5.06152 19.7153 5.06152 19.7153 5.10237 19.657C5.15599 19.5805 5.20961 19.5039 5.26323 19.4274C5.39951 19.2329 5.53569 19.0383 5.67188 18.8437C5.72656 18.7656 5.78125 18.6875 5.83594 18.6094C5.94531 18.4531 6.05469 18.2969 6.16406 18.1406C6.19113 18.1019 6.21819 18.0633 6.24607 18.0235C6.30084 17.9452 6.3556 17.867 6.41036 17.7887C6.54587 17.5951 6.6814 17.4016 6.81702 17.2081C7.13987 16.7473 7.4617 16.2857 7.78285 15.8238C8.06709 15.415 8.3525 15.007 8.63823 14.5993C8.77451 14.4048 8.91069 14.2102 9.04688 14.0156C9.10156 13.9375 9.15625 13.8594 9.21094 13.7812C9.32031 13.625 9.42969 13.4687 9.53906 13.3125C9.56612 13.2738 9.59319 13.2352 9.62107 13.1953C9.67584 13.1171 9.7306 13.0389 9.78536 12.9606C9.92087 12.767 10.0564 12.5734 10.192 12.3799C10.5149 11.9191 10.8367 11.4576 11.1579 10.9956C11.4421 10.5869 11.7275 10.1789 12.0132 9.77116C12.1495 9.57665 12.2857 9.38206 12.4219 9.18749C12.4766 9.10936 12.5312 9.03124 12.5859 8.95311C12.9141 8.48436 13.2422 8.01561 13.5703 7.54686C13.6109 7.48887 13.6109 7.48887 13.6523 7.42971C13.7071 7.35147 13.7619 7.27323 13.8166 7.19499C13.9521 7.00139 14.0877 6.80782 14.2233 6.6143C14.5461 6.1535 14.868 5.692 15.1891 5.23C15.4733 4.82123 15.7587 4.41327 16.0445 4.00553C16.2079 3.77234 16.3711 3.53906 16.5344 3.30577C16.6756 3.10395 16.8169 2.90221 16.9585 2.70061C17.0023 2.6382 17.0023 2.6382 17.0469 2.57454C17.1022 2.49578 17.1575 2.41704 17.2128 2.33833C17.2508 2.28418 17.2508 2.28418 17.2896 2.22893C17.3114 2.19783 17.3332 2.16673 17.3557 2.13469C17.4375 2.01561 17.4375 2.01561 17.4842 1.90983C17.5506 1.77821 17.6076 1.69146 17.7188 1.59374C17.9566 1.53386 18.1903 1.54451 18.4332 1.55254C18.5032 1.55332 18.5732 1.55392 18.6433 1.55435C18.8269 1.55595 19.0104 1.56009 19.1939 1.56477C19.3815 1.5691 19.5691 1.57101 19.7567 1.57314C20.1243 1.57765 20.4918 1.58484 20.8594 1.59374Z" fill="#E94D8B"/>
</g>
<defs>
<clipPath id="clip0_39_118">
<rect width="24" height="24" fill="white" transform="matrix(-1 0 0 1 24 0)"/>
</clipPath>
</defs>
</svg>
