<svg width="18" height="18" viewBox="0 0 18 18" fill="none" xmlns="http://www.w3.org/2000/svg">
<path d="M9.28784 1.42386C9.55856 1.58036 9.67541 1.9386 9.80887 2.20732C9.83872 2.26705 9.83872 2.26705 9.86918 2.32799C9.91126 2.41226 9.95329 2.49656 9.99522 2.5809C10.058 2.70712 10.121 2.83319 10.1841 2.95927C10.3908 3.37348 10.5945 3.78892 10.7932 4.20709C10.9817 4.60284 11.1798 4.99372 11.3777 5.38485C11.4266 5.48156 11.4753 5.57835 11.524 5.67516C11.5464 5.71925 11.5464 5.71925 11.5692 5.76424C11.5828 5.79119 11.5963 5.81814 11.6102 5.8459C11.6222 5.86953 11.6341 5.89317 11.6465 5.91752C11.6719 5.97659 11.6719 5.97659 11.6719 6.04691C11.71 6.05197 11.7481 6.05703 11.7874 6.06224C12.7889 6.19576 13.7895 6.33712 14.7894 6.48224C14.9653 6.50777 15.1412 6.53313 15.3172 6.55809C15.4856 6.58199 15.6539 6.60638 15.8222 6.63111C15.885 6.64025 15.9477 6.64922 16.0105 6.65802C16.0975 6.67023 16.1843 6.68305 16.2711 6.69602C16.2962 6.6994 16.3213 6.70278 16.3472 6.70627C16.5777 6.7419 16.7778 6.81268 16.9255 6.99832C17.0107 7.15833 17.0304 7.27249 17.0156 7.45316C16.9111 7.72064 16.7365 7.89063 16.5322 8.08817C16.5017 8.11837 16.4711 8.14857 16.4397 8.1797C16.3084 8.30866 16.176 8.43448 16.0367 8.55473C15.8939 8.67904 15.7599 8.81039 15.627 8.9451C15.5911 8.98116 15.5911 8.98116 15.5545 9.01794C15.479 9.09392 15.4035 9.17001 15.3281 9.24612C15.2286 9.34657 15.129 9.4469 15.0293 9.54715C15.007 9.56972 14.9847 9.59228 14.9618 9.61553C14.8305 9.74749 14.6951 9.87214 14.5543 9.99379C14.3621 10.1613 14.1787 10.3384 13.9956 10.5157C13.9448 10.5645 13.8937 10.6128 13.8421 10.6606C13.7668 10.7305 13.6931 10.8019 13.6196 10.8736C13.5965 10.8945 13.5733 10.9154 13.5495 10.9369C13.4556 11.0312 13.3964 11.099 13.3908 11.2356C13.3944 11.2692 13.3981 11.3027 13.4019 11.3373C13.406 11.3747 13.41 11.4122 13.4142 11.4507C13.4389 11.6353 13.4687 11.8186 13.5015 12.0019C13.5087 12.0432 13.5159 12.0845 13.5233 12.127C13.5428 12.2389 13.5626 12.3507 13.5823 12.4626C13.6031 12.5804 13.6236 12.6983 13.6441 12.8162C13.7095 13.1912 13.7752 13.5663 13.8411 13.9412C13.8846 14.1882 13.9279 14.4353 13.9708 14.6824C13.9911 14.7993 14.0116 14.9163 14.0323 15.0332C14.0554 15.1636 14.0781 15.2941 14.1008 15.4246C14.1076 15.4626 14.1145 15.5007 14.1215 15.5399C14.2267 16.1545 14.2267 16.1545 14.1108 16.3806C13.9918 16.5341 13.887 16.609 13.7 16.6619C13.4235 16.6666 13.1724 16.526 12.9309 16.4026C12.9004 16.3872 12.8699 16.3718 12.8385 16.3559C12.5906 16.2297 12.3467 16.0964 12.1032 15.9619C11.7926 15.7913 11.4776 15.63 11.1621 15.4688C10.8157 15.2917 10.4703 15.1136 10.1294 14.9261C10.0996 14.9097 10.0698 14.8934 10.0391 14.8766C9.91673 14.8095 9.79446 14.7422 9.67259 14.6742C9.57102 14.6177 9.46903 14.562 9.36694 14.5064C9.33616 14.489 9.30537 14.4715 9.27365 14.4536C9.24493 14.4381 9.21622 14.4226 9.18663 14.4067C9.16154 14.3928 9.13646 14.3789 9.11061 14.3646C9.00307 14.3349 8.95878 14.3645 8.85938 14.4141C8.83948 14.4238 8.81958 14.4336 8.79907 14.4437C8.7273 14.4792 8.65606 14.5156 8.58486 14.5522C8.55835 14.5658 8.53184 14.5794 8.50453 14.5934C8.41841 14.6375 8.33237 14.6818 8.24634 14.7261C8.21679 14.7413 8.18725 14.7565 8.15681 14.7721C7.79708 14.957 7.43935 15.1446 7.08564 15.3408C6.74426 15.5289 6.39639 15.7044 6.04926 15.8816C5.67272 16.0738 5.29853 16.269 4.92909 16.4746C4.90124 16.4901 4.87339 16.5056 4.8447 16.5215C4.82113 16.5348 4.79755 16.548 4.77327 16.5617C4.58734 16.6575 4.38735 16.6521 4.18359 16.6289C4.04001 16.5708 3.9602 16.4839 3.86939 16.3609C3.77185 16.0511 3.84685 15.7148 3.90247 15.4024C3.90996 15.3589 3.91745 15.3153 3.92516 15.2704C3.94556 15.1522 3.96624 15.0339 3.98705 14.9157C4.00886 14.7914 4.03029 14.6671 4.05175 14.5428C4.09242 14.3076 4.13341 14.0724 4.17452 13.8373C4.23031 13.5182 4.28564 13.199 4.34098 12.8798C4.35431 12.8029 4.36764 12.726 4.38098 12.6491C4.3853 12.6242 4.38963 12.5993 4.39408 12.5736C4.41969 12.4259 4.44538 12.2783 4.47114 12.1307C4.48331 12.061 4.49545 11.9913 4.5076 11.9216C4.52238 11.8369 4.53718 11.7521 4.55201 11.6674C4.58435 11.4817 4.6155 11.2962 4.64063 11.1094C4.61999 11.1002 4.59935 11.091 4.57809 11.0816C4.49537 11.0366 4.44157 10.9889 4.37555 10.9221C4.35183 10.8982 4.32811 10.8744 4.30368 10.8498C4.27837 10.8241 4.25306 10.7983 4.22699 10.7717C4.20054 10.7451 4.1741 10.7185 4.14685 10.691C4.06225 10.6058 3.97789 10.5203 3.89355 10.4348C3.8097 10.35 3.72578 10.2652 3.64176 10.1806C3.58954 10.1279 3.53741 10.0752 3.48539 10.0223C3.3472 9.8828 3.20526 9.75098 3.05652 9.62282C2.94355 9.52301 2.83814 9.41602 2.7323 9.30875C2.70917 9.28549 2.68605 9.26223 2.66222 9.23827C2.56463 9.1401 2.46724 9.04172 2.36984 8.94337C2.29811 8.87099 2.22626 8.79873 2.15442 8.72647C2.12216 8.69378 2.12216 8.69378 2.08925 8.66042C1.95742 8.52785 1.821 8.40284 1.67952 8.28063C1.56266 8.17933 1.45268 8.07139 1.34253 7.96292C1.31953 7.94094 1.29653 7.91896 1.27283 7.89632C1.09907 7.72485 1.00056 7.58029 0.968994 7.33231C0.988033 7.17727 1.029 7.0503 1.125 6.92581C1.27147 6.8151 1.38701 6.76319 1.56749 6.73296C1.59124 6.7289 1.61499 6.72483 1.63946 6.72065C1.72568 6.70625 1.81202 6.6929 1.89844 6.67972C1.9331 6.67438 1.96777 6.66905 2.00349 6.66355C2.27993 6.62134 2.55665 6.58111 2.83344 6.54124C2.95391 6.52387 3.07436 6.50636 3.19481 6.48888C3.39637 6.45964 3.59795 6.43049 3.79954 6.40139C4.03257 6.36776 4.26559 6.33401 4.4986 6.3002C4.74757 6.26407 4.99656 6.22801 5.24554 6.19199C5.31711 6.18163 5.38867 6.17125 5.46023 6.16088C5.59301 6.14163 5.72579 6.12247 5.85858 6.10332C5.89821 6.09757 5.93783 6.09182 5.97866 6.08589C6.01463 6.08072 6.05059 6.07555 6.08764 6.07022C6.119 6.06569 6.15035 6.06116 6.18265 6.05649C6.25781 6.04691 6.25781 6.04691 6.32813 6.04691C6.33763 6.01646 6.34713 5.98601 6.35691 5.95464C6.39738 5.839 6.44525 5.73411 6.50033 5.62476C6.52089 5.58375 6.54146 5.54274 6.56265 5.50048C6.58514 5.45598 6.60762 5.41149 6.63011 5.36699C6.65353 5.32037 6.67694 5.27374 6.70034 5.2271C6.76208 5.10407 6.82399 4.98112 6.88593 4.8582C6.99566 4.64043 7.10519 4.42257 7.21458 4.20464C7.22647 4.18097 7.23835 4.15731 7.25059 4.13294C7.44927 3.737 7.64195 3.33845 7.83187 2.93824C7.941 2.70913 8.05237 2.48113 8.16489 2.25368C8.1919 2.19886 8.21875 2.14396 8.24543 2.08899C8.28515 2.00719 8.32542 1.92569 8.36582 1.84422C8.37754 1.8198 8.38926 1.79538 8.40133 1.77022C8.49085 1.59196 8.59078 1.49161 8.76489 1.39749C8.95207 1.34526 9.11026 1.34813 9.28784 1.42386Z" fill="white"/>
</svg>
