<svg width="387" height="382" viewBox="0 0 387 382" fill="none" xmlns="http://www.w3.org/2000/svg">
<path d="M107.415 79.7034C108.954 80.8826 109.251 82.008 109.884 83.8072C110.131 84.4993 110.378 85.1914 110.632 85.9045C110.762 86.2814 110.892 86.6582 111.026 87.0464C111.457 88.2894 111.898 89.5281 112.342 90.7666C113.141 93.008 113.918 95.2559 114.685 97.5076C115.005 98.4408 115.329 99.3725 115.658 100.303C116.138 101.666 116.605 103.033 117.07 104.402C117.219 104.816 117.367 105.23 117.521 105.657C118.162 107.593 118.445 108.638 117.71 110.56C117.451 110.915 117.192 111.27 116.924 111.636C115.087 111.421 115.087 111.421 113.212 111.202C111.79 108.084 110.567 104.951 109.578 101.68C109.406 101.124 109.234 100.568 109.057 99.9943C108.713 98.867 108.381 97.7362 108.061 96.6022C107.605 95.1231 107.169 93.7837 106.413 92.4237C104.641 91.5312 104.641 91.5312 102.864 91.4129C102.528 91.1113 102.192 90.8097 101.846 90.499C101.463 90.8683 101.081 91.2377 100.687 91.6182C99.2594 92.9943 97.8287 94.3675 96.3961 95.7388C95.7781 96.3315 95.1612 96.9253 94.5455 97.5203C93.6574 98.3782 92.7653 99.2319 91.8722 100.085C91.3374 100.599 90.8026 101.113 90.2515 101.643C88.7759 102.909 87.4814 103.843 85.6788 104.607C84.0935 104 84.0935 104 82.8861 103.188C82.9161 100.967 83.0599 99.831 84.478 98.0762C85.0087 97.6009 85.5394 97.1256 86.0862 96.636C86.9662 95.8354 86.9662 95.8354 87.864 95.0186C88.4987 94.4574 89.1336 93.8963 89.7686 93.3356C90.4078 92.7601 91.0462 92.1839 91.6838 91.6068C92.9386 90.473 94.1974 89.3437 95.4598 88.2179C96.9179 86.9105 98.3595 85.5903 99.7887 84.2528C100.148 83.9172 100.507 83.5816 100.877 83.2358C101.201 82.9322 101.525 82.6286 101.859 82.3157C105.438 78.9721 105.438 78.9721 107.415 79.7034Z" fill="#615555"/>
<path d="M280.661 260.849C283.706 262.267 284.607 264.828 286.018 267.716C286.532 268.692 286.532 268.692 287.055 269.688C287.65 271.551 287.567 272.414 286.74 274.16C286.242 274.429 285.743 274.699 285.229 274.977C282.959 274.274 282.033 273.678 280.74 271.693C280.298 270.726 280.298 270.726 279.847 269.74C279.546 269.096 279.245 268.451 278.935 267.787C278.681 267.231 278.427 266.676 278.166 266.103C277.884 265.611 277.602 265.119 277.312 264.613C277.704 262.814 277.704 262.814 278.298 261.151C279.054 260.742 279.054 260.742 280.661 260.849Z" fill="#615555"/>
<path d="M269.749 245.375C272.439 246.475 273.559 248.114 275.205 250.406C275.504 250.793 275.804 251.179 276.112 251.577C278.203 254.42 278.203 254.42 278.036 256.546C277.345 257.761 277.345 257.761 275.834 258.578C272.64 257.564 271.077 255.677 269.155 253.127C268.873 252.784 268.592 252.44 268.302 252.086C266.892 250.242 266.358 249.372 266.679 247.069C267.619 245.089 267.619 245.089 269.749 245.375Z" fill="#615555"/>
<path d="M223.082 215.939C223.607 216.087 224.132 216.235 224.673 216.387C225.494 216.629 225.494 216.629 226.332 216.875C226.883 217.027 227.433 217.179 228 217.335C228.786 217.561 228.786 217.561 229.588 217.792C230.069 217.931 230.551 218.069 231.047 218.212C232.205 218.704 232.205 218.704 233.059 220.194C232.796 221.679 232.796 221.679 232.238 223.079C230.386 224.08 230.012 223.853 228.021 223.291C227.496 223.144 226.971 222.996 226.431 222.843C225.609 222.602 225.609 222.602 224.771 222.356C224.221 222.204 223.671 222.052 223.104 221.896C222.318 221.669 222.318 221.669 221.516 221.438C221.034 221.3 220.553 221.161 220.057 221.019C218.898 220.527 218.898 220.527 218.044 219.036C218.307 217.552 218.307 217.552 218.866 216.151C220.717 215.151 221.092 215.378 223.082 215.939Z" fill="#615555"/>
<path d="M103.557 152.39C105.091 153.177 105.091 153.177 105.619 154.244C106.076 155.7 106.423 157.144 106.734 158.635C106.847 159.153 106.961 159.671 107.078 160.205C107.799 164.027 107.799 164.027 106.969 166.227C106.592 166.717 106.592 166.717 106.207 167.218C104.726 167.225 104.726 167.225 103.086 166.953C101.517 164.983 101.201 162.504 100.717 160.118C100.576 159.505 100.576 159.505 100.432 158.88C100.037 156.953 99.8801 155.686 100.578 153.836C101.63 152.401 101.731 152.32 103.557 152.39Z" fill="#615555"/>
<path d="M288.95 278.31C290.485 278.969 290.485 278.969 291.416 280.489C291.66 281.11 291.903 281.73 292.154 282.369C292.528 283.289 292.528 283.289 292.909 284.228C294.661 289.129 294.661 289.129 293.926 291.021C293.112 292.193 293.112 292.193 292.357 292.602C290.92 292.392 290.92 292.392 289.4 291.759C288.577 290.429 288.577 290.429 287.971 288.779C287.757 288.206 287.544 287.632 287.325 287.041C287.131 286.495 286.938 285.95 286.739 285.388C286.567 284.977 286.394 284.566 286.217 284.142C285.5 282.357 285.276 281.482 285.933 279.661C287.117 278.074 287.117 278.074 288.95 278.31Z" fill="#615555"/>
<path d="M114.287 188.233C117.869 189.254 119.145 190.917 121.017 194.024C121.818 195.406 121.818 195.406 122.896 196.653C123.716 197.78 123.716 197.78 123.516 199.322C122.894 200.665 122.894 200.665 121.382 201.482C118.532 200.526 117.232 199.202 115.567 196.785C114.995 195.968 114.995 195.968 114.412 195.135C114.077 194.627 113.743 194.118 113.399 193.594C113.131 193.19 112.863 192.785 112.587 192.369C112.432 192.035 112.278 191.702 112.118 191.358C113.094 188.878 113.094 188.878 114.287 188.233Z" fill="#615555"/>
<path d="M107.811 171.171C110.071 172.174 110.357 173.498 111.26 175.714C111.697 176.761 111.697 176.761 112.143 177.829C113.787 182.078 113.787 182.078 112.743 184.674C111.232 185.491 111.232 185.491 109.577 185.049C107.16 183.448 106.642 181.729 105.741 179.093C105.572 178.657 105.404 178.222 105.23 177.773C104.513 175.775 104.103 174.524 104.8 172.499C106.005 170.973 106.005 170.973 107.811 171.171Z" fill="#615555"/>
<path d="M105.016 96.6262C105.433 96.8737 105.851 97.1213 106.281 97.3763C106.196 101.998 105.863 106.163 104.439 110.575C103.683 110.983 103.683 110.983 101.905 110.633C101.321 110.415 100.737 110.197 100.135 109.973C99.3703 107.68 99.5101 106.431 99.8174 104.073C99.9007 103.405 99.984 102.736 100.07 102.047C100.385 100.149 100.691 98.4019 101.385 96.6056C103.488 95.9571 103.488 95.9571 105.016 96.6262Z" fill="#615555"/>
<path d="M175.693 215.081C176.12 215.827 176.12 215.827 175.951 217.26C175.736 217.739 175.52 218.218 175.298 218.711C172.864 219.539 170.502 219.773 167.93 219.887C166.946 219.94 166.946 219.94 165.941 219.994C163.989 219.88 162.934 219.511 161.301 218.467C160.874 217.722 160.874 217.722 161.043 216.288C161.258 215.809 161.474 215.33 161.696 214.837C164.13 214.009 166.492 213.775 169.064 213.661C169.72 213.626 170.376 213.591 171.052 213.555C173.005 213.668 174.06 214.038 175.693 215.081Z" fill="#615555"/>
<path d="M254.645 231.957C259.431 233.42 262.345 236.638 265.749 240.111C265.433 241.502 265.433 241.502 264.927 242.995C264.429 243.265 263.93 243.535 263.416 243.812C260.319 242.756 258.257 241.217 255.919 238.987C255.347 238.453 254.776 237.92 254.187 237.37C252.903 235.827 252.903 235.827 252.643 234.479C252.969 233.351 252.969 233.351 254.645 231.957Z" fill="#615555"/>
<path d="M102.812 115.024C104.143 116.104 104.143 116.104 104.566 118.408C104.598 119.347 104.609 120.286 104.602 121.225C104.603 121.711 104.604 122.196 104.605 122.696C104.544 125.264 104.425 127.308 102.893 129.471C102.137 129.88 102.137 129.88 100.665 129.577C99.1799 129.038 99.1799 129.038 98.3258 127.547C98.1028 123.391 98.3237 119.383 99.8386 115.502C101.35 114.685 101.35 114.685 102.812 115.024Z" fill="#615555"/>
<path d="M126.869 202.421C131.238 203.896 134.736 206.189 138.467 208.844C138.344 211.782 138.344 211.782 137.374 212.821C135.071 213.316 133.373 212.304 131.402 211.198C125.92 207.675 125.92 207.675 124.7 205.546C125.778 203.011 125.778 203.011 126.869 202.421Z" fill="#615555"/>
<path d="M194.113 213.238C195.078 214.365 195.078 214.365 195.176 216.265C194.818 216.78 194.461 217.296 194.092 217.827C192.362 218.092 190.727 218.261 188.985 218.361C188.516 218.397 188.047 218.434 187.564 218.472C185.127 218.633 182.981 218.764 180.686 217.751C180.405 217.259 180.123 216.767 179.832 216.26C180.568 214.521 180.568 214.521 181.41 212.967C183.195 212.813 184.978 212.674 186.765 212.543C187.27 212.498 187.775 212.453 188.294 212.406C192.032 212.151 192.032 212.151 194.113 213.238Z" fill="#615555"/>
<path d="M244.131 223.972C249.924 227.172 249.924 227.172 250.571 228.302C250.281 229.74 250.281 229.74 249.749 231.186C248.237 232.003 248.237 232.003 247.044 231.715C243.289 230.194 239.891 228.32 236.476 226.158C236.449 224.708 236.449 224.708 236.706 223.105C239.24 220.953 241.5 222.637 244.131 223.972Z" fill="#615555"/>
<path d="M214.134 214.804C214.562 215.549 214.562 215.549 214.393 216.983C213.74 218.434 213.74 218.434 212.391 219.102C208.324 219.529 203.743 219.132 199.907 217.613C199.053 216.122 199.053 216.122 199.279 214.627C199.476 214.168 199.672 213.709 199.875 213.237C204.449 211.826 209.709 213.128 214.134 214.804Z" fill="#615555"/>
<path d="M100.395 133.75C102.274 134.168 102.274 134.168 103.943 134.761C105.172 145.142 105.172 145.142 104.04 147.888C102.529 148.705 102.529 148.705 100.956 148.335C100.499 148.179 100.043 148.023 99.572 147.862C98.7934 143.702 98.1246 139.346 98.7192 135.144C99.2722 134.684 99.8252 134.224 100.395 133.75Z" fill="#615555"/>
<path d="M156.209 213.898C157.063 215.389 157.063 215.389 156.837 216.884C156.64 217.342 156.444 217.801 156.241 218.273C153.429 219.141 151.521 218.501 148.692 217.839C148.198 217.732 147.704 217.626 147.196 217.517C146.485 217.354 146.485 217.354 145.761 217.189C145.329 217.09 144.897 216.992 144.452 216.891C143.329 216.467 143.329 216.467 141.883 214.807C142.286 212.973 142.286 212.973 142.869 211.346C146.849 210.636 152.379 212.533 156.209 213.898Z" fill="#615555"/>
<path d="M295.03 296.404C296.876 297.709 297.034 298.049 297.529 300.118C297.884 302.559 297.531 304.061 296.166 306.162C294.686 306.169 294.686 306.169 293.045 305.897C291.502 304.157 291.264 301.913 290.976 299.694C291.243 298.054 291.243 298.054 291.798 296.809C293.309 295.992 293.309 295.992 295.03 296.404Z" fill="#615555"/>
</svg>
