<svg width="40" height="40" viewBox="0 0 40 40" fill="none" xmlns="http://www.w3.org/2000/svg">
<path d="M24.5619 1.93127C24.7665 2.08803 24.9615 2.25272 25.1561 2.42179C25.2154 2.47315 25.2746 2.52451 25.3356 2.57743C26.1541 3.34196 26.8044 4.44245 26.8887 5.57654C26.9281 7.16068 26.9281 7.16068 26.6308 7.94028C26.5488 8.12873 26.5488 8.12873 26.5624 8.35929C26.6259 8.39353 26.6895 8.42777 26.755 8.46305C27.8297 9.05784 28.8298 9.7361 29.7176 10.588C29.8646 10.7271 30.0104 10.8565 30.1665 10.9844C30.4605 11.2304 30.694 11.5017 30.9374 11.7968C31.0029 11.8758 31.0683 11.9549 31.1358 12.0363C33.2862 14.6779 34.3976 17.8478 34.4091 21.245C34.4096 21.3053 34.41 21.3656 34.4105 21.4276C34.4168 22.639 34.2333 23.7668 33.8769 24.9267C33.8535 25.0059 33.8301 25.0851 33.806 25.1667C33.6985 25.5276 33.5865 25.8856 33.4603 26.2404C33.4308 26.3256 33.4308 26.3256 33.4007 26.4124C33.3486 26.5609 33.2938 26.7085 33.2387 26.856C33.1756 27.1189 33.1756 27.1189 33.3419 27.3568C33.3992 27.4298 33.4565 27.5028 33.5155 27.578C33.8874 28.3259 33.863 29.3391 33.684 30.1378C33.337 31.1273 32.683 31.8162 31.7562 32.2875C31.3586 32.4544 31.0633 32.5019 30.6314 32.473C30.3489 32.4604 30.1038 32.4558 29.8436 32.578C29.4928 32.9411 29.2951 33.427 29.0787 33.877C28.7141 34.593 28.1267 35.2024 27.578 35.7812C27.5091 35.8551 27.4403 35.929 27.3693 36.0052C25.5569 37.9114 22.9451 39.3422 20.2869 39.4115C17.3888 39.436 14.8879 38.138 12.8124 36.1718C12.7377 36.1021 12.6629 36.0324 12.586 35.9606C11.6046 35.0267 10.631 33.8125 10.2343 32.4999C10.1502 32.5044 10.0661 32.509 9.97945 32.5136C8.92904 32.5533 8.09991 32.3667 7.28261 31.6582C6.55468 30.9277 6.22323 30.128 6.21084 29.1064C6.21623 28.451 6.28813 27.7866 6.69385 27.2469C6.83594 26.949 6.76836 26.82 6.65975 26.5127C6.63447 26.4385 6.63447 26.4385 6.60869 26.3628C6.57258 26.2572 6.53577 26.1519 6.49833 26.0468C6.40145 25.7744 6.30995 25.5002 6.21816 25.226C6.20007 25.1724 6.18199 25.1187 6.16335 25.0634C6.02304 24.6431 5.90667 24.2225 5.81533 23.789C5.80414 23.7359 5.79296 23.6829 5.78143 23.6282C5.67527 23.0978 5.61216 22.5772 5.60628 22.0363C5.60552 21.978 5.60475 21.9197 5.60396 21.8596C5.58993 20.5101 5.6159 19.2095 5.9374 17.8905C5.95373 17.8235 5.97005 17.7565 5.98687 17.6875C6.58813 15.3212 7.77541 13.1743 9.45302 11.4062C9.53512 11.3091 9.6166 11.2115 9.69716 11.1132C9.95354 10.8129 10.2422 10.5628 10.5468 10.3124C10.6257 10.2471 10.7047 10.1817 10.786 10.1144C11.4062 9.60966 12.0547 9.1755 12.7394 8.76342C12.9999 8.6055 13.2576 8.44322 13.5155 8.28116C13.4939 8.2293 13.4722 8.17743 13.4499 8.124C13.4075 8.02052 13.4075 8.02052 13.3642 7.91495C13.322 7.81298 13.322 7.81298 13.279 7.70896C12.9104 6.69482 13.0135 5.35201 13.4374 4.37491C13.4657 4.30653 13.494 4.23815 13.5232 4.1677C14.2051 2.66736 15.5626 1.72602 17.0311 1.09366C17.3658 0.969391 17.6999 0.865185 18.0468 0.781161C18.101 0.767534 18.1552 0.753907 18.2111 0.739867C20.3264 0.255922 22.7973 0.644297 24.5619 1.93127ZM17.7343 2.26554C17.6506 2.29383 17.5669 2.32213 17.4807 2.35129C16.8957 2.57112 16.424 2.89331 15.9374 3.28116C15.8859 3.31973 15.8345 3.3583 15.7815 3.39804C15.1163 3.92097 14.6356 4.72197 14.453 5.54679C14.4042 6.35489 14.3992 7.06987 14.7655 7.81241C14.913 7.76649 14.913 7.76649 15.0634 7.71964C15.7154 7.52586 16.3697 7.34609 17.0311 7.18741C17.0855 7.17405 17.1399 7.1607 17.1959 7.14694C19.6526 6.57187 22.4111 6.90275 24.7726 7.68735C24.9253 7.7354 25.0786 7.7751 25.2343 7.81241C25.6458 6.97829 25.7166 5.95984 25.4198 5.07315C25.248 4.67815 25.0248 4.32719 24.7655 3.98429C24.7312 3.93705 24.6968 3.88982 24.6615 3.84116C23.7963 2.73662 22.3556 2.18887 21.0155 1.95304C19.893 1.87946 18.8019 1.89168 17.7343 2.26554ZM10.5761 12.1337C7.99858 14.7784 6.88814 18.1961 6.93197 21.8288C6.95895 23.3068 7.39451 24.6331 7.89052 26.0155C8.01753 25.9783 8.14447 25.9408 8.27138 25.9032C8.34208 25.8824 8.41278 25.8615 8.48562 25.8401C8.67043 25.7869 8.67043 25.7869 8.82802 25.703C8.83031 25.454 8.83169 25.205 8.83291 24.956C8.83356 24.886 8.83422 24.8161 8.83489 24.744C8.83633 24.3515 8.81729 23.9805 8.7499 23.5937C8.63756 23.6047 8.52526 23.6162 8.41298 23.6278C8.31917 23.6374 8.31917 23.6374 8.22347 23.6471C8.03421 23.6681 8.0342 23.6681 7.8124 23.7499C7.80857 23.6999 7.80474 23.6498 7.8008 23.5982C7.76521 23.1865 7.70617 22.8148 7.57802 22.4218C7.6743 22.4131 7.77058 22.4045 7.86977 22.3955C9.71741 22.1886 11.575 21.5939 13.203 20.703C13.2942 20.655 13.3853 20.607 13.4792 20.5575C14.5961 19.9493 15.5715 19.1618 16.4843 18.2812C16.5752 18.1963 16.5752 18.1963 16.668 18.1097C17.8392 16.9881 18.7493 15.5657 19.4292 14.1009C19.5311 13.9062 19.5311 13.9062 19.6874 13.828C20.2692 13.7911 20.2692 13.7911 20.429 13.9278C20.5521 14.0685 20.6281 14.1986 20.7103 14.3661C20.7404 14.4259 20.7704 14.4857 20.8014 14.5473C20.8334 14.6112 20.8654 14.6752 20.8983 14.7411C21.4977 15.9052 22.2391 16.9282 23.1249 17.8905C23.1838 17.9547 23.1838 17.9547 23.2438 18.0202C24.2261 19.0775 25.3753 19.9344 26.6405 20.6249C26.6895 20.6518 26.7385 20.6786 26.789 20.7063C28.1305 21.4317 29.5278 21.8719 31.0155 22.1874C31.0757 22.2003 31.1359 22.2132 31.1979 22.2265C31.8047 22.3672 31.8047 22.3672 32.4218 22.4218C32.3964 22.5165 32.3964 22.5165 32.3705 22.6131C32.3487 22.6966 32.327 22.7801 32.3046 22.8661C32.272 22.9898 32.272 22.9898 32.2387 23.1161C32.1922 23.3367 32.1774 23.5256 32.1874 23.7499C32.0348 23.7092 31.8822 23.6685 31.7296 23.6278C31.5398 23.5832 31.5398 23.5832 31.2499 23.5937C31.1703 24.0506 31.1626 24.4928 31.1669 24.956C31.1674 25.064 31.1674 25.064 31.168 25.1743C31.1689 25.3506 31.1702 25.5268 31.1718 25.703C31.2838 25.7557 31.3962 25.8076 31.5087 25.8593C31.5712 25.8883 31.6338 25.9173 31.6982 25.9472C31.8798 26.0296 31.8798 26.0296 32.1093 26.0155C32.9413 23.5569 33.4725 21.0197 32.8124 18.4374C32.7965 18.3728 32.7805 18.3082 32.7641 18.2416C32.5281 17.3026 32.2241 16.4155 31.7968 15.5468C31.7608 15.4728 31.7608 15.4728 31.7242 15.3974C30.2269 12.3516 27.5101 10.0029 24.3219 8.86849C19.3965 7.19476 14.2639 8.5662 10.5761 12.1337ZM19.9218 15.9374C19.7968 16.1257 19.6801 16.3143 19.5653 16.5087C19.0857 17.2978 18.5115 17.9743 17.8896 18.6553C17.7658 18.7929 17.6488 18.932 17.5341 19.0771C17.2849 19.3645 17.0111 19.6011 16.7186 19.8437C16.6579 19.8948 16.6579 19.8948 16.5959 19.9469C15.8687 20.5565 15.1186 21.0883 14.2968 21.5624C14.2412 21.5948 14.1857 21.6272 14.1285 21.6606C12.856 22.3947 11.4852 22.8725 10.078 23.2812C10.1921 27.8668 10.4236 31.9835 13.8949 35.3741C14.3402 35.7899 14.7988 36.1569 15.3124 36.4843C15.3577 36.5137 15.4029 36.5431 15.4495 36.5734C16.1042 36.9947 16.7672 37.3387 17.495 37.6171C17.5948 37.6553 17.5948 37.6553 17.6965 37.6943C19.1204 38.2151 20.7556 38.244 22.1874 37.7343C22.241 37.7154 22.2946 37.6966 22.3498 37.6771C25.1583 36.6618 27.4678 34.4632 28.7354 31.7734C29.9162 29.0842 29.8501 26.1626 29.9218 23.2812C29.8594 23.2616 29.797 23.242 29.7327 23.2218C27.2282 22.4296 25.0121 21.4088 23.0629 19.6108C22.9128 19.4734 22.7595 19.343 22.6024 19.2138C22.3007 18.9553 22.0495 18.6652 21.7968 18.3593C21.7446 18.2968 21.7446 18.2968 21.6913 18.2331C21.1437 17.5755 20.6658 16.9108 20.2343 16.1718C20.1569 16.0558 20.1569 16.0558 20.078 15.9374C20.0265 15.9374 19.9749 15.9374 19.9218 15.9374ZM8.1249 27.578C7.60497 28.2327 7.50131 28.7762 7.57802 29.6093C7.76147 30.2453 8.17486 30.6911 8.73891 31.0229C9.03741 31.1655 9.28415 31.1795 9.60927 31.1718C9.58943 31.0913 9.56959 31.0109 9.54915 30.9279C9.28489 29.8411 9.05588 28.7644 9.00075 27.6449C8.98674 27.4552 8.95981 27.2909 8.90615 27.1093C8.594 27.1093 8.34585 27.3763 8.1249 27.578ZM31.0936 27.1093C31.0343 27.325 31.0019 27.5277 30.9874 27.7508C30.9146 28.7282 30.7498 29.6548 30.5109 30.6051C30.4658 30.7931 30.4274 30.9819 30.3905 31.1718C30.9802 31.1531 31.3499 31.0147 31.7968 30.6249C32.3173 30.0554 32.4645 29.5648 32.4508 28.7951C32.3821 28.1333 32.0576 27.7063 31.5597 27.2872C31.4025 27.185 31.277 27.1424 31.0936 27.1093Z" fill="#D91374"/>
<path d="M22.3438 25.8594C22.597 26.0903 22.7818 26.3153 22.9639 26.6064C23.2173 26.999 23.4573 27.1941 23.9062 27.3438C24.5428 27.3915 24.9957 27.3761 25.498 26.9531C25.8006 26.6073 26.0634 26.2345 26.3281 25.8594C26.7188 26.0671 27.0863 26.2702 27.4219 26.5625C27.1076 27.4419 26.4271 28.1777 25.5957 28.5889C24.8324 28.8797 23.9305 28.8821 23.1641 28.5986C22.3143 28.1785 21.8081 27.511 21.3281 26.7188C21.4458 26.3984 21.6376 26.2863 21.9238 26.1133C22.0022 26.0653 22.0805 26.0174 22.1613 25.968C22.2516 25.9142 22.2516 25.9142 22.3438 25.8594Z" fill="#D91374"/>
<path d="M13.5938 25.8594C13.847 26.0903 14.0318 26.3153 14.2139 26.6064C14.4673 26.999 14.7073 27.1941 15.1562 27.3438C15.7928 27.3915 16.2457 27.3761 16.748 26.9531C17.0506 26.6073 17.3134 26.2345 17.5781 25.8594C17.9688 26.0671 18.3363 26.2702 18.6719 26.5625C18.3576 27.4419 17.6771 28.1777 16.8457 28.5889C16.0824 28.8797 15.1805 28.8821 14.4141 28.5986C13.5643 28.1785 13.0581 27.511 12.5781 26.7188C12.6958 26.3984 12.8876 26.2863 13.1738 26.1133C13.2522 26.0653 13.3305 26.0174 13.4113 25.968C13.5016 25.9142 13.5016 25.9142 13.5938 25.8594Z" fill="#D91374"/>
<path d="M17.5 33.75C19.15 33.75 20.8 33.75 22.5 33.75C22.5 34.1625 22.5 34.575 22.5 35C20.85 35 19.2 35 17.5 35C17.5 34.5875 17.5 34.175 17.5 33.75Z" fill="#D91374"/>
<path d="M19.1406 30.7812C19.3354 30.8753 19.5064 30.973 19.6875 31.0938C20.1469 31.1404 20.1469 31.1404 20.5469 30.9375C20.5984 30.8859 20.65 30.8344 20.7031 30.7812C20.9907 30.9013 21.1709 31.0767 21.3867 31.2988C21.4492 31.3627 21.5116 31.4265 21.5759 31.4923C21.6231 31.5413 21.6702 31.5902 21.7188 31.6406C21.6058 31.9222 21.4694 32.0402 21.2158 32.2021C21.1547 32.2419 21.0936 32.2817 21.0306 32.3227C20.5407 32.6065 19.9231 32.5389 19.375 32.5C18.9371 32.3799 18.6137 32.0961 18.2812 31.7969C18.4013 31.5093 18.5767 31.3291 18.7988 31.1133C18.8627 31.0508 18.9265 30.9884 18.9923 30.9241C19.0657 30.8534 19.0657 30.8534 19.1406 30.7812Z" fill="#D91374"/>
<path d="M16.875 35.625C17.2875 35.625 17.7 35.625 18.125 35.625C18.125 36.0375 18.125 36.45 18.125 36.875C17.7125 36.875 17.3 36.875 16.875 36.875C16.875 36.4625 16.875 36.05 16.875 35.625Z" fill="#D91374"/>
<path d="M25 32.5C25.4125 32.5 25.825 32.5 26.25 32.5C26.25 32.9125 26.25 33.325 26.25 33.75C25.8375 33.75 25.425 33.75 25 33.75C25 33.3375 25 32.925 25 32.5Z" fill="#D91374"/>
<path d="M15 31.25C15.4125 31.25 15.825 31.25 16.25 31.25C16.25 31.6625 16.25 32.075 16.25 32.5C15.8375 32.5 15.425 32.5 15 32.5C15 32.0875 15 31.675 15 31.25Z" fill="#D91374"/>
<path d="M12.5 30C12.9125 30 13.325 30 13.75 30C13.75 30.4125 13.75 30.825 13.75 31.25C13.3375 31.25 12.925 31.25 12.5 31.25C12.5 30.8375 12.5 30.425 12.5 30Z" fill="#D91374"/>
<path d="M26.25 29.375C26.6625 29.375 27.075 29.375 27.5 29.375C27.5 29.7875 27.5 30.2 27.5 30.625C27.0875 30.625 26.675 30.625 26.25 30.625C26.25 30.2125 26.25 29.8 26.25 29.375Z" fill="#D91374"/>
<path d="M21.25 28.75C21.6625 28.75 22.075 28.75 22.5 28.75C22.5 29.1625 22.5 29.575 22.5 30C22.0875 30 21.675 30 21.25 30C21.25 29.5875 21.25 29.175 21.25 28.75Z" fill="#D91374"/>
<path d="M28.125 24.375C28.5375 24.375 28.95 24.375 29.375 24.375C29.375 24.7875 29.375 25.2 29.375 25.625C28.9625 25.625 28.55 25.625 28.125 25.625C28.125 25.2125 28.125 24.8 28.125 24.375Z" fill="#D91374"/>
<path d="M11.25 24.375C11.6625 24.375 12.075 24.375 12.5 24.375C12.5 24.7875 12.5 25.2 12.5 25.625C12.0875 25.625 11.675 25.625 11.25 25.625C11.25 25.2125 11.25 24.8 11.25 24.375Z" fill="#D91374"/>
<path d="M24.375 22.5C24.7875 22.5 25.2 22.5 25.625 22.5C25.625 22.9125 25.625 23.325 25.625 23.75C25.2125 23.75 24.8 23.75 24.375 23.75C24.375 23.3375 24.375 22.925 24.375 22.5Z" fill="#D91374"/>
<path d="M18.125 22.5C18.5375 22.5 18.95 22.5 19.375 22.5C19.375 22.9125 19.375 23.325 19.375 23.75C18.9625 23.75 18.55 23.75 18.125 23.75C18.125 23.3375 18.125 22.925 18.125 22.5Z" fill="#D91374"/>
<path d="M18.75 18.75C19.1625 18.75 19.575 18.75 20 18.75C20 19.1625 20 19.575 20 20C19.5875 20 19.175 20 18.75 20C18.75 19.5875 18.75 19.175 18.75 18.75Z" fill="#D91374"/>
</svg>
