<svg width="40" height="40" viewBox="0 0 40 40" fill="none" xmlns="http://www.w3.org/2000/svg">
<g clip-path="url(#clip0_127_134)">
<path d="M23.2813 7.49995C23.5001 7.65976 23.6445 7.79238 23.7188 8.05888C23.7494 8.26136 23.7705 8.46302 23.7891 8.66694C23.9783 10.2521 24.6247 11.5418 25.8594 12.5781C27.1356 13.5179 28.6493 13.9172 30.2191 13.7109C31.6579 13.452 32.9822 12.7585 33.8467 11.553C34.2187 11.0015 34.5243 10.4283 34.8041 9.82539C34.9219 9.60933 34.9219 9.60933 35.1563 9.45308C35.4097 9.42612 35.5731 9.42922 35.8057 9.53608C36.0005 9.75974 35.9974 9.94101 36.0156 10.2343C35.7173 11.3362 35.0777 12.2325 34.2969 13.0468C34.2511 13.0967 34.2052 13.1465 34.158 13.1979C33.9693 13.3972 33.801 13.5655 33.559 13.6995C33.2291 13.8838 33.0123 14.0236 32.8773 14.386C32.8248 14.6757 32.7924 14.9604 32.7686 15.2539C32.7474 15.4512 32.7261 15.6486 32.7048 15.8459C32.6971 15.9328 32.6894 16.0198 32.6814 16.1093C32.6563 16.3281 32.6563 16.3281 32.5781 16.5625C32.6676 16.5915 32.6676 16.5915 32.7588 16.621C33.0365 16.7502 33.1502 16.9153 33.2763 17.1915C33.3073 17.2773 33.3073 17.2773 33.339 17.3648C33.3752 17.4636 33.3752 17.4636 33.4122 17.5645C33.4377 17.6359 33.4633 17.7074 33.4897 17.781C33.5172 17.8565 33.5447 17.932 33.5731 18.0098C33.6635 18.2579 33.7532 18.5064 33.8428 18.7548C33.9687 19.1023 34.0949 19.4497 34.2212 19.797C34.2532 19.8853 34.2852 19.9735 34.3182 20.0644C34.5345 20.6587 34.7567 21.2505 34.9829 21.8411C35.0415 21.9949 35.1001 22.1488 35.1586 22.3026C35.2422 22.522 35.326 22.7413 35.4113 22.96C35.4896 23.1613 35.5665 23.3631 35.643 23.565C35.6663 23.6235 35.6896 23.682 35.7136 23.7423C35.8518 24.1125 35.8767 24.3705 35.7813 24.7656C35.6502 24.9724 35.5585 24.9964 35.3223 25.0683C34.9414 25.0835 34.7478 24.896 34.4662 24.6521C34.3883 24.5795 34.3107 24.5067 34.2334 24.4335C34.1512 24.3569 34.0689 24.2803 33.9865 24.2037C33.9465 24.1665 33.9065 24.1292 33.8653 24.0908C33.6234 23.8675 33.374 23.6528 33.125 23.4375C33.4795 25.6542 34.3505 27.7613 35.1563 29.8437C37.482 35.8654 37.482 35.8654 37.5342 38.999C37.5368 39.0965 37.5368 39.0965 37.5395 39.1959C37.5384 39.4768 37.5253 39.6516 37.3611 39.884C37.1799 40.005 37.0905 40.0443 36.875 40.0439C36.7977 40.0465 36.7977 40.0465 36.7188 40.0491C36.4732 39.9719 36.3908 39.8198 36.25 39.6093C36.2074 39.3713 36.2074 39.3713 36.2024 39.1098C36.1999 39.0158 36.1974 38.9219 36.1948 38.8252C36.1937 38.7278 36.1925 38.6305 36.1914 38.5302C36.1891 38.4314 36.1868 38.3325 36.1844 38.2307C36.1789 37.9871 36.1748 37.7436 36.1719 37.5C35.0255 37.5047 33.8791 37.5108 32.7327 37.5184C32.2003 37.5219 31.668 37.525 31.1356 37.527C30.6215 37.529 30.1073 37.5322 29.5932 37.5361C29.3974 37.5374 29.2016 37.5383 29.0059 37.5388C28.7308 37.5396 28.4558 37.5418 28.1808 37.5443C28.0605 37.5441 28.0605 37.5441 27.9378 37.544C27.0054 37.556 26.1509 37.7924 25.4565 38.4378C25.1067 38.8139 24.8314 39.2264 24.566 39.6652C24.4531 39.8437 24.4531 39.8437 24.2969 40C24.136 40.0234 24.136 40.0234 23.9502 40.0244C23.8891 40.0257 23.8279 40.027 23.765 40.0283C23.5501 39.9927 23.494 39.934 23.3594 39.7656C23.2801 39.4108 23.3228 39.0797 23.5028 38.7649C23.567 38.6691 23.6332 38.5746 23.7012 38.4814C23.7364 38.4312 23.7717 38.381 23.808 38.3293C24.5869 37.2484 25.5447 36.5235 26.8749 36.2863C27.2639 36.2331 27.6536 36.2361 28.0456 36.2339C28.1303 36.2331 28.215 36.2324 28.3022 36.2316C28.5807 36.2291 28.8593 36.2272 29.1379 36.2252C29.3315 36.2236 29.5252 36.222 29.7188 36.2203C30.2275 36.216 30.7363 36.2121 31.245 36.2084C31.7645 36.2045 32.284 36.2001 32.8035 36.1958C33.8221 36.1874 34.8407 36.1794 35.8594 36.1718C35.8425 36.1011 35.8425 36.1011 35.8252 36.029C35.8107 35.9666 35.7962 35.9041 35.7813 35.8398C35.7667 35.7782 35.7522 35.7165 35.7373 35.653C35.7031 35.4687 35.7031 35.4687 35.7031 35.1562C35.6081 35.1578 35.5132 35.1595 35.4153 35.1612C35.0622 35.1668 34.7092 35.1704 34.3561 35.1734C34.2034 35.1749 34.0507 35.1771 33.898 35.1798C33.6783 35.1836 33.4586 35.1853 33.2388 35.1867C33.1708 35.1883 33.1027 35.1899 33.0326 35.1916C32.7085 35.1917 32.5429 35.1829 32.2616 35.0078C32.0976 34.831 32.0576 34.7681 32.0654 34.5312C32.0653 34.4796 32.0652 34.4281 32.0651 34.375C32.1316 34.1402 32.2279 34.0547 32.4219 33.9062C32.6476 33.8789 32.8427 33.8696 33.0676 33.8757C33.1296 33.8761 33.1916 33.8766 33.2555 33.877C33.4529 33.8788 33.6502 33.8827 33.8477 33.8867C33.9817 33.8882 34.1158 33.8897 34.2499 33.8909C34.5781 33.8944 34.9062 33.8998 35.2344 33.9062C34.7933 32.6252 34.3297 31.3561 33.8307 30.0964C33.0036 28.0066 32.2785 25.9218 31.7691 23.7307C31.7034 23.4498 31.6333 23.1702 31.5625 22.8906C31.4735 22.988 31.4735 22.988 31.3828 23.0874C31.3043 23.1732 31.2259 23.2589 31.1475 23.3447C31.0889 23.4088 31.0889 23.4088 31.0292 23.4742C30.9209 23.5926 30.812 23.7103 30.7031 23.8281C30.6607 23.8751 30.6183 23.9221 30.5746 23.9706C30.3732 24.1454 30.1794 24.1406 29.9219 24.1406C29.4729 23.8148 29.3467 23.3386 29.165 22.832C29.1298 22.7365 29.0945 22.6409 29.0582 22.5425C28.9764 22.321 28.8954 22.0992 28.8148 21.8772C28.6502 21.4239 28.4835 20.9714 28.317 20.5187C28.1297 20.01 27.9427 19.5012 27.7564 18.992C27.7272 18.912 27.6979 18.832 27.6677 18.7496C27.6107 18.5939 27.5538 18.4381 27.4969 18.2823C27.3192 17.7974 27.1352 17.3157 26.9406 16.8373C26.8342 16.5181 26.832 16.2708 26.875 15.9375C27.0248 15.7504 27.0993 15.7061 27.334 15.6347C27.6955 15.6203 27.8851 15.7889 28.1558 16.0168C28.2182 16.0744 28.2805 16.132 28.3447 16.1914C28.582 16.4087 28.8195 16.6249 29.0625 16.8359C29.3026 17.0449 29.5393 17.2572 29.7754 17.4707C30.0535 17.7217 30.3347 17.9663 30.625 18.2031C30.8886 18.094 31.0247 17.9796 31.1719 17.7343C31.2492 17.4197 31.277 17.1035 31.3062 16.7813C31.3162 16.6729 31.3263 16.5645 31.3364 16.4561C31.3519 16.2864 31.3673 16.1166 31.3826 15.9469C31.3976 15.7823 31.4129 15.6177 31.4282 15.4531C31.4371 15.355 31.446 15.2568 31.4552 15.1557C31.4844 14.9218 31.4844 14.9218 31.5625 14.7656C31.5021 14.7816 31.4417 14.7976 31.3794 14.8141C29.4065 15.3244 27.553 15.0934 25.7666 14.1259C25.24 13.8046 24.8095 13.4026 24.375 12.9687C24.3113 12.9059 24.2475 12.843 24.1818 12.7783C23.0347 11.582 22.4489 9.94376 22.3926 8.30073C22.4026 8.0055 22.4619 7.80979 22.6563 7.57808C22.8819 7.46524 23.031 7.47051 23.2813 7.49995ZM32.2656 18.4375C32.1418 18.5724 32.0181 18.7075 31.8945 18.8427C31.8256 18.918 31.7568 18.9932 31.6858 19.0707C31.557 19.2153 31.432 19.3634 31.3123 19.5156C31.1719 19.6875 31.1719 19.6875 31.0156 19.7656C30.7428 19.7927 30.5928 19.793 30.3549 19.6508C30.2638 19.5723 30.2638 19.5723 30.1709 19.4921C30.1045 19.4357 30.0382 19.3793 29.9698 19.3212C29.8687 19.2318 29.8687 19.2318 29.7656 19.1406C29.6974 19.081 29.6293 19.0213 29.559 18.9599C29.3924 18.813 29.227 18.6649 29.0625 18.5156C28.965 18.6676 28.965 18.6676 29.0254 18.827C29.0492 18.8905 29.0729 18.954 29.0974 19.0195C29.124 19.0914 29.1506 19.1633 29.178 19.2375C29.2222 19.3542 29.2222 19.3542 29.2673 19.4732C29.2969 19.5528 29.3265 19.6323 29.3569 19.7143C29.4519 19.9692 29.5477 20.2238 29.6436 20.4785C29.708 20.6509 29.7723 20.8233 29.8366 20.9957C29.9946 21.4193 30.1533 21.8425 30.3125 22.2656C30.4004 22.1912 30.4881 22.1167 30.5758 22.0421C30.6247 22.0006 30.6736 21.9591 30.7239 21.9164C30.8803 21.7783 31.0148 21.6306 31.1475 21.4697C31.3216 21.259 31.4877 21.0859 31.7188 20.9375C32.0503 20.9109 32.1895 20.9561 32.4527 21.1618C32.5869 21.284 32.7196 21.4081 32.8506 21.5338C33.1077 21.776 33.3846 21.9828 33.6719 22.1875C33.6205 21.7636 33.4852 21.3915 33.3353 20.9948C33.3097 20.9265 33.2842 20.8582 33.2579 20.7878C33.2041 20.644 33.15 20.5004 33.0958 20.3568C33.0127 20.1365 32.9305 19.916 32.8484 19.6954C32.7959 19.5556 32.7433 19.4158 32.6907 19.2761C32.6662 19.21 32.6416 19.1439 32.6162 19.0758C32.593 19.0148 32.5698 18.9538 32.5459 18.8909C32.5257 18.8371 32.5055 18.7834 32.4846 18.728C32.4237 18.5778 32.4237 18.5778 32.2656 18.4375Z" fill="#D91374"/>
<path d="M3.59395 -0.0490723C3.85504 0.0330255 3.92007 0.155998 4.0627 0.390686C4.16957 0.703417 4.24761 1.02204 4.32638 1.34283C4.54229 2.1854 4.78909 3.00814 5.07833 3.82819C5.7301 3.17989 6.28746 2.57136 6.73543 1.76978C6.87781 1.5587 6.94773 1.48051 7.1877 1.40631C7.44958 1.42009 7.65442 1.44048 7.88595 1.56744C8.0212 1.81408 8.00341 2.07188 7.96895 2.34381C7.877 2.54271 7.79409 2.69491 7.6711 2.87115C7.63984 2.91791 7.60858 2.96467 7.57636 3.01285C7.32115 3.3834 7.03022 3.71106 6.72124 4.03702C5.57281 5.25067 4.96137 6.71777 4.98434 8.39209C5.07158 9.93052 5.78528 11.3032 6.89474 12.3633C8.12422 13.4332 9.5607 13.8519 11.1721 13.7501C12.7354 13.5589 14.0641 12.8482 15.0783 11.6407C15.8114 10.654 16.1982 9.55939 16.2584 8.33369C16.2798 8.03406 16.3233 7.897 16.5136 7.65967C16.719 7.50006 16.719 7.50006 16.9582 7.461C17.2095 7.50377 17.3211 7.55534 17.5002 7.73444C17.8975 8.92646 17.2757 10.4331 16.7534 11.4985C16.4125 12.1281 15.971 12.6223 15.469 13.1251C15.4061 13.1888 15.3433 13.2526 15.2785 13.3182C13.9457 14.5962 12.1302 15.136 10.3136 15.1017C9.6784 15.0648 9.05302 14.9212 8.4377 14.7657C8.46198 14.8614 8.48625 14.957 8.51125 15.0556C8.63277 15.6017 8.65048 16.1567 8.68169 16.7139C8.71736 17.2447 8.75385 17.7039 9.11642 18.1202C9.15025 18.1476 9.18409 18.175 9.21895 18.2032C9.51108 18.0796 9.71087 17.896 9.94161 17.6807C10.1946 17.4466 10.4478 17.2133 10.7082 16.9874C11.0128 16.7229 11.3116 16.4522 11.61 16.1808C12.2296 15.634 12.2296 15.634 12.6565 15.6251C12.8383 15.714 12.9821 15.7945 13.1252 15.9376C13.1731 16.5363 13.0338 16.9813 12.8191 17.5361C12.7872 17.6214 12.7552 17.7067 12.7223 17.7947C12.6184 18.0712 12.5129 18.3472 12.4074 18.6231C12.3356 18.8132 12.2639 19.0034 12.1923 19.1936C12.0496 19.5724 11.9064 19.9509 11.7628 20.3293C11.5866 20.7948 11.414 21.2615 11.2438 21.7292C11.1975 21.856 11.1512 21.9828 11.1048 22.1096C11.0415 22.2832 10.9783 22.4568 10.9156 22.6307C10.8592 22.7867 10.8021 22.9425 10.7448 23.0982C10.7139 23.1835 10.6829 23.2687 10.651 23.3565C10.5365 23.618 10.4092 23.8366 10.2346 24.0626C9.97059 24.138 9.79162 24.1804 9.53115 24.0809C9.35282 23.9706 9.24129 23.8519 9.10665 23.6915C9.06324 23.6403 9.01984 23.5891 8.97512 23.5364C8.92668 23.478 8.87824 23.4196 8.82833 23.3594C8.76019 23.2776 8.69202 23.1958 8.62384 23.114C8.56242 23.0403 8.50099 22.9666 8.4377 22.8907C8.41927 22.9673 8.40083 23.0439 8.38184 23.1228C7.76277 25.6863 7.76277 25.6863 7.44161 26.6797C7.42156 26.7444 7.40152 26.809 7.38086 26.8756C7.25822 27.2382 7.14207 27.456 6.79708 27.6563C6.52617 27.6516 6.33706 27.6258 6.09884 27.4952C5.92272 27.174 5.99448 26.757 6.08631 26.4139C6.11802 26.3086 6.15061 26.2035 6.18398 26.0987C6.20114 26.0421 6.21829 25.9855 6.23597 25.9272C6.29036 25.7481 6.34587 25.5694 6.40157 25.3907C6.45687 25.212 6.5119 25.0332 6.56634 24.8542C6.60007 24.7434 6.63429 24.6328 6.66911 24.5223C6.77963 24.161 6.83687 23.8136 6.8752 23.4376C6.84257 23.4682 6.80993 23.4989 6.77631 23.5305C6.62547 23.6722 6.47446 23.8137 6.32345 23.9551C6.27214 24.0034 6.22083 24.0516 6.16796 24.1013C5.91744 24.3358 5.66555 24.5688 5.40914 24.7968C5.36732 24.8342 5.3255 24.8716 5.28242 24.9101C5.06663 25.0642 4.86866 25.0782 4.60958 25.0782C4.40551 25.0175 4.32719 24.9592 4.19454 24.795C4.0369 24.2504 4.31736 23.6649 4.51009 23.1617C4.55462 23.0429 4.55462 23.0429 4.60004 22.9218C4.69694 22.6637 4.79482 22.4061 4.89278 22.1485C4.96014 21.9702 5.02744 21.792 5.09469 21.6137C5.1972 21.342 5.29975 21.0703 5.4026 20.7987C5.62215 20.2183 5.83708 19.6364 6.04879 19.0531C6.127 18.8391 6.20531 18.6251 6.28367 18.4111C6.3327 18.2765 6.38134 18.1417 6.42956 18.0068C6.49625 17.8205 6.56439 17.6348 6.63289 17.4491C6.6518 17.395 6.67071 17.3409 6.69019 17.2852C6.81773 16.9452 6.95856 16.7573 7.26583 16.5626C7.31739 16.5626 7.36895 16.5626 7.42208 16.5626C7.41352 16.5121 7.40496 16.4617 7.39614 16.4097C7.38375 16.3361 7.37137 16.2624 7.3586 16.1866C7.3433 16.1017 7.32799 16.0168 7.31222 15.9293C7.27773 15.7031 7.2545 15.4872 7.23897 15.2598C7.19445 14.5137 7.19445 14.5137 6.81783 13.8993C6.60518 13.7298 6.3767 13.5864 6.1453 13.444C4.853 12.5995 4.11785 10.949 3.7911 9.50171C3.54598 8.27429 3.59697 6.86894 4.10543 5.70746C4.1995 5.28092 4.01913 4.83467 3.88082 4.43488C3.84386 4.32674 3.80692 4.2186 3.76998 4.11045C3.75076 4.05472 3.73153 3.99899 3.71173 3.94158C3.44039 3.15303 3.16945 2.36372 2.95431 1.55768C2.93138 1.47441 2.93138 1.47441 2.908 1.38945C2.81338 1.0191 2.79126 0.691606 2.81271 0.312561C3.01135 -0.0185218 3.235 -0.0371538 3.59395 -0.0490723ZM7.65645 18.4376C7.59928 18.5881 7.54211 18.7387 7.48495 18.8892C7.44851 18.9852 7.41208 19.0811 7.37455 19.1799C7.29542 19.3884 7.21644 19.5969 7.13758 19.8055C6.80237 20.6916 6.80237 20.6916 6.63289 21.1237C6.61055 21.1813 6.58821 21.2388 6.56518 21.2981C6.50827 21.4444 6.45068 21.5905 6.39303 21.7365C6.30463 21.9569 6.30463 21.9569 6.40645 22.1876C6.51809 22.0817 6.51809 22.0817 6.63198 21.9736C6.73094 21.8805 6.82992 21.7875 6.92892 21.6944C7.00226 21.6247 7.00226 21.6247 7.07708 21.5536C7.72431 20.947 7.72431 20.947 8.14962 20.9229C8.56577 21.0569 8.77908 21.3177 9.0627 21.6407C9.11588 21.7002 9.16905 21.7597 9.22384 21.821C9.35385 21.9681 9.48236 22.1162 9.60958 22.2657C9.74081 22.0688 9.81759 21.9165 9.89955 21.6988C9.92482 21.6321 9.95009 21.5653 9.97612 21.4966C10.0029 21.4248 10.0297 21.353 10.0573 21.2791C10.085 21.2052 10.1127 21.1313 10.1412 21.0552C10.1996 20.8992 10.2579 20.7431 10.316 20.5869C10.4053 20.3472 10.4956 20.1078 10.586 19.8684C10.6426 19.7169 10.6991 19.5654 10.7555 19.4138C10.7828 19.3419 10.81 19.2699 10.8381 19.1958C10.8749 19.0961 10.8749 19.0961 10.9124 18.9943C10.9343 18.9357 10.9562 18.8771 10.9788 18.8167C11.0342 18.666 11.0342 18.666 10.9377 18.5157C10.8764 18.5732 10.815 18.6307 10.7519 18.6899C9.63213 19.7335 9.63213 19.7335 9.20919 19.8096C8.758 19.7214 8.50489 19.3608 8.23263 19.0137C8.04532 18.7753 7.90955 18.6063 7.65645 18.4376Z" fill="#D91374"/>
<path d="M5.93739 28.9845C6.12782 29.1017 6.12782 29.1017 6.24989 29.297C6.29072 29.7971 6.19209 30.1564 6.00453 30.6165C5.97926 30.6811 5.95399 30.7456 5.92795 30.8121C5.84745 31.0171 5.76554 31.2215 5.68348 31.4259C5.60284 31.6293 5.5225 31.8328 5.44236 32.0363C5.39263 32.1624 5.34257 32.2883 5.29209 32.4141C5.0958 32.9075 4.93435 33.3998 4.76552 33.9063C8.51669 33.8677 8.51669 33.8677 12.3436 33.8282C11.6588 32.8197 11.6588 32.8197 11.1669 32.3097C10.8156 31.9297 10.8156 31.9297 10.7567 31.6554C10.7874 31.3425 10.8603 31.2245 11.0936 31.0157C11.2792 30.9376 11.2792 30.9376 11.4843 30.9376C12.5902 31.4017 13.3186 32.8094 13.828 33.8282C17.9015 33.8282 21.9749 33.8282 26.1718 33.8282C26.3522 33.4931 26.5327 33.1579 26.7186 32.8126C26.9349 32.4846 27.1744 32.1802 27.4218 31.8751C27.4818 31.8003 27.5418 31.7254 27.6036 31.6483C28.093 31.0683 28.093 31.0683 28.4179 30.9522C28.7195 30.9348 28.8316 30.9808 29.0624 31.172C29.2186 31.4063 29.2186 31.4063 29.2141 31.6667C29.1253 32.0127 28.9978 32.1482 28.745 32.3976C28.3089 32.8299 27.9873 33.3119 27.6561 33.8282C27.7708 33.8299 27.7708 33.8299 27.8878 33.8317C28.1721 33.8362 28.4563 33.8422 28.7405 33.8487C28.8634 33.8513 28.9863 33.8535 29.1092 33.8553C29.2861 33.8579 29.4629 33.862 29.6398 33.8664C29.6946 33.8669 29.7493 33.8674 29.8058 33.8679C30.0432 33.875 30.2132 33.8949 30.4234 34.0092C30.6181 34.2168 30.6152 34.4103 30.6249 34.6876C30.5632 34.895 30.516 34.9702 30.3336 35.0853C30.1161 35.1724 29.9482 35.1757 29.7138 35.1756C29.6231 35.1759 29.5324 35.1762 29.439 35.1765C29.3393 35.1761 29.2396 35.1756 29.1368 35.1751C29.0299 35.1752 28.923 35.1753 28.816 35.1755C28.5219 35.1759 28.2278 35.1753 27.9336 35.1745C27.6166 35.1738 27.2995 35.174 26.9824 35.1742C26.433 35.1742 25.8835 35.1737 25.334 35.1729C24.5396 35.1716 23.7452 35.1712 22.9508 35.171C21.6619 35.1706 20.3731 35.1696 19.0842 35.1681C17.8321 35.1667 16.58 35.1656 15.3279 35.1649C15.2508 35.1649 15.1736 35.1648 15.0941 35.1648C14.707 35.1646 14.3199 35.1644 13.9329 35.1642C10.7208 35.1626 7.50879 35.1598 4.29676 35.1563C4.28478 35.2546 4.2728 35.3529 4.26045 35.4542C4.23093 35.6963 4.19267 35.9335 4.14051 36.172C4.1842 36.1722 4.22788 36.1723 4.27289 36.1725C5.34056 36.1772 6.40821 36.1831 7.47586 36.1904C7.99219 36.1939 8.50852 36.1969 9.02485 36.199C9.52382 36.2011 10.0228 36.2042 10.5217 36.2082C10.7114 36.2095 10.9011 36.2104 11.0908 36.2108C12.7452 36.2155 14.1939 36.2746 15.4549 37.4833C15.6826 37.7151 15.8988 37.9428 16.0936 38.2032C16.1678 38.3023 16.1678 38.3023 16.2435 38.4034C16.5265 38.8102 16.7029 39.1172 16.6826 39.6192C16.6282 39.8084 16.5643 39.8835 16.4061 40.0001C16.2404 40.0367 16.2404 40.0367 16.0595 40.0392C15.9702 40.0428 15.9702 40.0428 15.8791 40.0465C15.49 39.944 15.3037 39.4773 15.1024 39.1554C14.5586 38.3351 13.8986 37.8149 12.9351 37.6102C12.57 37.5521 12.2058 37.5541 11.8369 37.5533C11.7499 37.5525 11.6629 37.5517 11.5733 37.5509C11.288 37.5485 11.0027 37.5472 10.7174 37.5459C10.5187 37.5444 10.32 37.5429 10.1213 37.5413C9.6532 37.5377 9.18507 37.5348 8.71694 37.5322C8.18356 37.5292 7.65019 37.5253 7.11682 37.5214C6.02056 37.5133 4.92429 37.5064 3.82801 37.5001C3.82728 37.5619 3.82655 37.6238 3.8258 37.6875C3.8216 37.9685 3.81507 38.2494 3.80848 38.5304C3.80682 38.6764 3.80682 38.6764 3.80513 38.8253C3.80261 38.9192 3.80009 39.0131 3.7975 39.1099C3.79504 39.2394 3.79504 39.2394 3.79254 39.3715C3.74094 39.6594 3.63982 39.7925 3.43739 40.0001C3.28114 40.0492 3.28114 40.0492 3.12489 40.044C3.07333 40.0441 3.02176 40.0442 2.96864 40.0443C2.72932 39.9766 2.6439 39.8914 2.49989 39.6876C2.4697 39.4468 2.45922 39.2394 2.46571 38.9991C2.46691 38.9302 2.46811 38.8612 2.46935 38.7902C2.54858 35.9766 3.48811 33.3038 4.48233 30.6998C4.53087 30.5726 4.57915 30.4453 4.62716 30.3178C4.69474 30.1391 4.76364 29.9609 4.83296 29.7828C4.85304 29.7292 4.87312 29.6756 4.89381 29.6204C5.10901 29.077 5.34932 28.911 5.93739 28.9845Z" fill="#D91374"/>
<path d="M36.5625 -0.0439529C36.7833 -0.0278874 36.8756 0.000332355 37.0703 0.11718C37.2731 0.45523 37.2165 0.796652 37.1398 1.16924C37.071 1.44347 36.9962 1.71534 36.9189 1.9873C36.8915 2.08631 36.864 2.18533 36.8357 2.28734C36.6214 3.04732 36.365 3.7886 36.0709 4.52176C35.8002 5.22194 35.8863 5.64294 36.0986 6.3623C36.2225 6.80734 36.3106 7.19421 36.25 7.65624C36.1328 7.85644 36.1328 7.85644 35.9375 7.96874C35.718 8.01551 35.5278 8.03644 35.3125 7.96874C35.0052 7.67487 34.9357 7.37178 34.8633 6.96777C34.6206 5.8063 34.0565 4.87535 33.2465 4.01611C32.0173 2.70805 32.0173 2.70805 31.9678 1.9873C32.0312 1.71874 32.0312 1.71874 32.1924 1.51855C32.4942 1.37083 32.6485 1.3912 32.9688 1.48437C33.2094 1.6925 33.3614 1.914 33.5205 2.18749C33.9045 2.80717 34.4075 3.31562 34.9219 3.82812C35.2509 2.88884 35.5464 1.95106 35.7711 0.980808C36.0242 -0.0618255 36.0242 -0.0618255 36.5625 -0.0439529Z" fill="#D91374"/>
<path d="M35.6251 15.703C35.7341 15.7069 35.8432 15.7101 35.9523 15.7128C36.3957 15.7563 36.6697 15.9967 36.9532 16.328C37.0317 16.5635 37.0394 16.7219 37.0362 16.9677C37.0355 17.0381 37.0348 17.1084 37.0341 17.181C37.0332 17.2347 37.0323 17.2883 37.0314 17.3436C37.0974 17.3275 37.1635 17.3114 37.2316 17.2948C37.6562 17.2485 37.9351 17.3384 38.2765 17.5927C38.4376 17.8124 38.4376 17.8124 38.4816 18.0907C38.4376 18.3593 38.4376 18.3593 38.3058 18.5448C38.0982 18.6907 37.988 18.7381 37.7345 18.7499C37.5508 18.7031 37.3686 18.65 37.1876 18.5936C37.0543 18.5701 36.9208 18.5473 36.7872 18.5253C36.3486 18.4388 36.1263 18.2888 35.8741 17.9149C35.756 17.5853 35.7606 17.2992 35.7814 16.953C35.7314 16.9707 35.6815 16.9885 35.63 17.0067C35.2868 17.0417 34.9977 16.9431 34.6876 16.7968C34.5017 16.6421 34.4572 16.5753 34.3849 16.3378C34.3731 16.0428 34.4258 15.931 34.6095 15.703C34.9371 15.4544 35.2625 15.5821 35.6251 15.703Z" fill="#D91374"/>
<path d="M37.6709 12.9005C37.94 13.0799 38.0918 13.2538 38.2812 13.5157C38.2812 13.5673 38.2812 13.6189 38.2812 13.672C38.3295 13.6429 38.3777 13.6138 38.4274 13.5838C38.846 13.35 39.1381 13.2363 39.6164 13.3058C39.8004 13.372 39.8837 13.4365 40 13.5939C40.0311 13.7623 40.0311 13.7623 40.0293 13.9454C40.0302 14.0361 40.0302 14.0361 40.0311 14.1285C39.9923 14.3385 39.9356 14.4047 39.7656 14.5314C39.6197 14.5802 39.6197 14.5802 39.4629 14.6095C39.2492 14.6551 39.1424 14.6864 38.9599 14.8146C38.6167 14.9902 38.2677 14.9724 37.8906 14.922C37.5796 14.7665 37.3671 14.5964 37.1875 14.297C37.1875 14.2454 37.1875 14.1939 37.1875 14.1407C37.0989 14.1923 37.0102 14.2439 36.9189 14.297C36.5668 14.4734 36.2483 14.5161 35.8594 14.4532C35.6687 14.3734 35.5689 14.3264 35.4443 14.1603C35.3694 13.915 35.3972 13.7609 35.4687 13.5157C35.701 13.1942 35.9544 13.1436 36.3281 13.047C36.4038 13.0051 36.4796 12.9632 36.5576 12.92C36.9497 12.744 37.2687 12.7585 37.6709 12.9005Z" fill="#D91374"/>
<path d="M3.20319 12.8126C3.34101 12.8864 3.47908 12.9607 3.60968 13.0466C3.76767 13.1349 3.90481 13.165 4.08209 13.1983C4.37506 13.2813 4.37506 13.2813 4.53619 13.4571C4.6265 13.722 4.60695 13.873 4.53131 14.1407C4.37506 14.3751 4.37506 14.3751 4.14069 14.4532C3.60945 14.5171 3.27109 14.4075 2.81256 14.1407C2.79484 14.1987 2.77711 14.2567 2.75885 14.3165C2.61561 14.6166 2.40399 14.7747 2.10944 14.9219C1.53208 14.9803 1.18443 14.9241 0.703186 14.6094C0.521351 14.5558 0.339134 14.5034 0.156311 14.4532C-0.0323506 14.2645 -0.023079 14.2089 -0.024353 13.9503C-0.0256622 13.8891 -0.0269714 13.828 -0.0283203 13.765C0.00711357 13.5513 0.0612873 13.487 0.234436 13.3594C0.555455 13.2439 0.838567 13.244 1.15729 13.364C1.34917 13.4602 1.53505 13.5611 1.71881 13.6719C1.73986 13.6119 1.76091 13.5519 1.78259 13.49C1.91585 13.1892 2.07993 13.0846 2.34381 12.8907C2.63522 12.7935 2.90052 12.7705 3.20319 12.8126Z" fill="#D91374"/>
<path d="M5.3125 15.6249C5.51499 15.7576 5.54407 15.85 5.61523 16.0839C5.62715 16.3816 5.57703 16.4887 5.39062 16.7186C5.06983 16.9753 4.77407 17.005 4.375 17.0311C4.32344 17.0054 4.27187 16.9796 4.21875 16.953C4.22238 16.9974 4.226 17.0418 4.22974 17.0876C4.25191 17.5619 4.1917 17.8199 3.90625 18.203C3.56534 18.5115 3.27918 18.5501 2.83813 18.5765C2.64525 18.586 2.64525 18.586 2.43652 18.6815C2.21222 18.7713 2.10108 18.7529 1.875 18.6718C1.62456 18.4958 1.57033 18.3977 1.50879 18.0956C1.5737 17.7533 1.67084 17.6414 1.94153 17.4343C2.21869 17.2846 2.50002 17.2509 2.8125 17.2655C2.86406 17.2913 2.91562 17.3171 2.96875 17.3436C2.96467 17.2658 2.96467 17.2658 2.96051 17.1865C2.94323 16.6227 3.01515 16.3785 3.39844 15.9569C3.68099 15.729 3.97697 15.731 4.32922 15.7216C4.73076 15.6846 4.88349 15.5062 5.3125 15.6249Z" fill="#D91374"/>
<path d="M20.0002 26.2013C20.0518 26.2003 20.1033 26.1993 20.1565 26.1982C20.4148 26.284 20.4896 26.4064 20.6252 26.6407C20.672 26.9022 20.6724 27.157 20.6691 27.422C20.671 27.4915 20.6729 27.561 20.6748 27.6326C20.674 27.9894 20.6634 28.153 20.4418 28.4443C20.2346 28.5939 20.2346 28.5939 20.0002 28.6427C19.6748 28.5749 19.5763 28.4676 19.3752 28.2032C19.3199 27.9414 19.3241 27.6886 19.3313 27.422C19.3304 27.3525 19.3295 27.283 19.3287 27.2114C19.3323 26.8841 19.3483 26.6872 19.5147 26.3997C19.6961 26.2429 19.7645 26.1967 20.0002 26.2013Z" fill="#D91374"/>
</g>
<defs>
<clipPath id="clip0_127_134">
<rect width="40" height="40" fill="white"/>
</clipPath>
</defs>
</svg>
