<svg width="40" height="40" viewBox="0 0 40 40" fill="none" xmlns="http://www.w3.org/2000/svg">
<g clip-path="url(#clip0_127_155)">
<path d="M33.4374 14.1405C33.6863 14.3287 33.7606 14.5655 33.8662 14.8528C33.9197 14.9978 33.9197 14.9978 33.9742 15.1456C34.0118 15.25 34.0494 15.3544 34.0868 15.4589C34.1154 15.5378 34.1154 15.5378 34.1446 15.6183C35.2799 18.7558 35.4966 21.5303 34.1064 24.6386C34.0777 24.6984 34.0491 24.7583 34.0196 24.82C33.8437 25.2031 33.7874 25.439 33.9062 25.8593C34.0251 26.1635 34.1616 26.4578 34.3017 26.7528C34.3632 26.8847 34.3632 26.8847 34.426 27.0192C34.7123 27.6275 35.0126 28.228 35.317 28.8274C36.7152 31.5806 37.5451 34.0785 37.5348 37.1869C37.5343 37.3945 37.5346 37.6019 37.5364 37.8094C37.5387 38.1122 37.539 38.415 37.5387 38.7179C37.5396 38.8107 37.5404 38.9035 37.5413 38.9992C37.5406 39.0851 37.5399 39.171 37.5391 39.2595C37.5391 39.3725 37.5391 39.3725 37.5391 39.4878C37.4887 39.7445 37.3881 39.8376 37.1874 39.9999C37.0312 40.0441 37.0312 40.0441 36.8749 40.0438C36.8234 40.0456 36.7718 40.0473 36.7187 40.049C36.4561 39.9665 36.3905 39.8466 36.2499 39.6093C36.2035 39.2943 36.2083 38.9814 36.2105 38.6635C36.2094 38.5237 36.2094 38.5237 36.2083 38.3811C36.2061 38.0824 36.2058 37.7839 36.206 37.4853C36.2044 35.8842 36.181 34.4006 35.6444 32.8759C35.6176 32.7971 35.5907 32.7182 35.563 32.637C35.3645 32.0684 35.1329 31.5251 34.8632 30.9868C34.7655 30.7812 34.7655 30.7812 34.7655 30.6249C34.7186 30.6543 34.6716 30.6836 34.6232 30.7139C30.5468 33.2616 30.5468 33.2616 30.3121 33.4083C30.1568 33.5054 30.0014 33.6025 29.8461 33.6997C29.4422 33.9523 29.038 34.2043 28.6333 34.4555C28.5499 34.5074 28.4664 34.5593 28.3803 34.6128C28.2222 34.7111 28.0639 34.8093 27.9055 34.9073C27.7969 34.9749 27.7969 34.9749 27.6861 35.0438C27.6235 35.0826 27.561 35.1214 27.4966 35.1613C26.8798 35.5646 26.3358 35.9749 25.823 36.5059C25.7637 36.5661 25.7044 36.6263 25.6433 36.6883C25.3931 36.9423 25.1443 37.1977 24.8953 37.453C23.255 39.1316 23.255 39.1316 22.3046 39.5556C22.2281 39.5907 22.1515 39.6259 22.0727 39.6621C21.3819 39.9211 20.7529 40.0416 20.0146 40.0341C19.8915 40.0332 19.8915 40.0332 19.7659 40.0323C19.1194 40.0186 18.5708 39.9359 17.9687 39.6874C17.89 39.6561 17.8114 39.6248 17.7303 39.5925C16.6653 39.1159 15.8724 38.2254 15.0771 37.3987C14.033 36.3141 13.048 35.3765 11.7136 34.6578C11.2787 34.4176 10.8603 34.1503 10.4394 33.8866C10.3584 33.8371 10.2775 33.7876 10.1941 33.7366C10.1198 33.6906 10.0454 33.6447 9.96879 33.5973C9.90299 33.5569 9.83719 33.5165 9.76939 33.4749C9.60929 33.3593 9.60929 33.3593 9.45304 33.1249C9.42034 32.8251 9.41035 32.6474 9.57023 32.3876C9.84671 32.2148 10.078 32.2041 10.3905 32.2655C10.704 32.4128 10.9865 32.6011 11.2743 32.7929C11.441 32.9007 11.6076 33.0085 11.7742 33.1164C11.8568 33.1705 11.9393 33.2246 12.0244 33.2804C12.2458 33.4246 12.4688 33.5655 12.6934 33.7047C12.7591 33.7455 12.8249 33.7864 12.8926 33.8284C13.0135 33.9034 13.1344 33.9782 13.2555 34.0529C13.9302 34.4761 14.5182 34.9634 15.0725 35.5343C15.1874 35.6507 15.3022 35.7671 15.4171 35.8835C15.5943 36.0642 15.7714 36.245 15.9482 36.426C17.0714 37.6177 17.0714 37.6177 18.4716 38.4325C18.5472 38.4622 18.6229 38.4919 18.7008 38.5225C19.6399 38.8477 20.8279 38.7878 21.7187 38.3593C21.7828 38.3289 21.847 38.2984 21.9131 38.2671C22.3082 38.0541 22.6371 37.7795 22.9644 37.4749C23.0084 37.4341 23.0523 37.3934 23.0976 37.3514C23.425 37.045 23.7394 36.7277 24.0499 36.4043C25.0641 35.3498 26.0178 34.4214 27.3057 33.7037C27.6221 33.5244 27.9263 33.3263 28.2323 33.1298C28.3538 33.0529 28.4754 32.9762 28.597 32.8997C28.6904 32.8409 28.6904 32.8409 28.7857 32.7809C29.395 32.3981 30.0055 32.0173 30.6159 31.6363C30.9425 31.4323 31.269 31.2283 31.5954 31.0242C31.754 30.9251 31.9126 30.826 32.0712 30.727C32.4229 30.5075 32.7743 30.2874 33.1243 30.0652C33.212 30.0097 33.212 30.0097 33.3015 29.9532C33.4084 29.8855 33.5151 29.8175 33.6216 29.7493C33.9668 29.5312 33.9668 29.5312 34.1405 29.5312C34.117 29.482 34.0934 29.4329 34.0691 29.3823C33.2035 27.5783 33.2035 27.5783 32.8124 26.7187C32.5658 26.9269 32.3213 27.1344 32.0873 27.3568C28.6178 30.6389 23.8275 31.9297 19.1514 31.8146C15.4216 31.7004 11.7691 30.4261 8.82804 28.1249C8.74929 28.0637 8.67053 28.0024 8.58939 27.9394C8.11628 27.5619 7.68398 27.1557 7.26554 26.7187C7.08551 26.9445 6.95486 27.1693 6.83127 27.43C6.79467 27.5069 6.75806 27.5838 6.72034 27.663C6.68273 27.7429 6.64511 27.8228 6.60636 27.9052C6.56905 27.9836 6.53173 28.062 6.49329 28.1428C6.27517 28.6026 6.06325 29.0648 5.85929 29.5312C5.94235 29.5617 5.94235 29.5617 6.0271 29.5928C6.26438 29.6935 6.47129 29.8144 6.68998 29.9508C6.77226 30.0021 6.85453 30.0534 6.93931 30.1063C7.0244 30.1598 7.1095 30.2133 7.19718 30.2685C7.28288 30.3217 7.36858 30.3749 7.45688 30.4297C7.53896 30.4812 7.62104 30.5326 7.7056 30.5855C7.81786 30.6558 7.81786 30.6558 7.93239 30.7276C8.09848 30.8412 8.23381 30.9371 8.35929 31.0937C8.41034 31.4382 8.39938 31.5851 8.19327 31.87C7.92327 32.0637 7.82565 32.066 7.49991 32.0312C7.26396 31.9189 7.26396 31.9189 7.01804 31.7632C6.97417 31.7358 6.93031 31.7085 6.88511 31.6803C6.74598 31.5931 6.60782 31.5045 6.46964 31.4159C6.37596 31.3569 6.28222 31.298 6.18842 31.2392C5.86809 31.0379 5.54912 30.8348 5.23429 30.6249C5.21465 30.6879 5.19501 30.751 5.17478 30.8159C5.08158 31.0835 4.97493 31.3395 4.86188 31.599C3.96261 33.6682 3.793 35.5436 3.79399 37.7879C3.79372 38.0798 3.79159 38.3716 3.78928 38.6635C3.78992 38.7528 3.79056 38.8421 3.79122 38.9341C3.78541 39.5494 3.78541 39.5494 3.60097 39.8606C3.42433 40.011 3.35385 40.0514 3.12491 40.0438C3.07335 40.0439 3.02179 40.044 2.96866 40.0441C2.74229 39.98 2.64873 39.8675 2.49991 39.6874C2.46076 39.4878 2.46076 39.4878 2.46072 39.2595C2.45999 39.1736 2.45925 39.0877 2.4585 38.9992C2.45937 38.9064 2.46025 38.8135 2.46116 38.7179C2.46104 38.6212 2.46093 38.5246 2.46081 38.4251C2.46098 38.1674 2.46262 37.9097 2.4648 37.6519C2.46633 37.3953 2.46491 37.1387 2.46406 36.8821C2.46515 35.5315 2.52249 34.2118 2.93448 32.9149C2.95456 32.8508 2.97464 32.7867 2.99533 32.7206C3.49982 31.1618 4.23032 29.7099 4.97584 28.2557C5.30511 27.6114 5.62277 26.9635 5.91239 26.3003C5.93988 26.2393 5.96738 26.1784 5.99571 26.1156C6.17573 25.6922 6.18934 25.4297 6.03486 24.988C6.01207 24.9365 5.98928 24.8849 5.9658 24.8317C5.94023 24.772 5.91466 24.7122 5.88832 24.6507C5.86101 24.5871 5.83371 24.5234 5.80558 24.4579C4.83868 22.1216 4.55851 19.7886 5.26359 17.3534C5.27801 17.3009 5.29243 17.2484 5.30728 17.1942C5.386 16.9414 5.45191 16.81 5.66154 16.6442C5.91979 16.5374 6.06281 16.5598 6.32804 16.6405C6.54061 16.7725 6.56024 16.8658 6.61887 17.1111C6.64582 17.4975 6.56422 17.7962 6.45499 18.164C5.82013 20.372 6.35452 22.8321 7.40817 24.8454C7.65909 25.268 8.00678 25.6001 8.35929 25.9374C8.40783 25.9903 8.45637 26.0431 8.50638 26.0976C10.7086 28.4826 14.1462 29.7794 17.2655 30.3124C17.3526 30.3278 17.3526 30.3278 17.4413 30.3435C21.599 31.0453 26.2298 29.9974 29.6682 27.5857C32.0077 25.8983 33.2329 24.13 33.7499 21.2499C34.0591 19.0846 33.3282 17.0397 32.4855 15.0709C32.4108 14.8044 32.4269 14.6403 32.4999 14.3749C32.7976 14.0334 33.0098 14.0217 33.4374 14.1405Z" fill="#D91374"/>
<path d="M5.78125 0.000111558C6.0746 0.231049 6.22655 0.52966 6.38672 0.859487C6.41345 0.914064 6.44018 0.968641 6.46772 1.02487C7.42359 3.01326 7.97598 5.11571 8.4375 7.26574C8.45538 7.34799 8.47325 7.43024 8.49167 7.51499C8.95278 9.68648 8.75275 11.5391 8.04688 13.6183C8.03008 13.668 8.01328 13.7177 7.99597 13.769C7.94708 13.9124 7.8969 14.0554 7.84668 14.1984C7.81757 14.2814 7.78847 14.3644 7.75848 14.45C7.63593 14.7348 7.48709 15.013 7.26562 15.2345C6.71309 15.2798 6.71309 15.2798 6.44531 15.1124C6.2896 14.8594 6.28744 14.6616 6.32812 14.3751C6.42043 14.0643 6.53817 13.7642 6.65527 13.462C8.06686 9.65154 7.09654 5.65904 5.45383 2.0239C5.3113 1.71578 5.15709 1.41673 4.99512 1.11828C4.86454 0.863271 4.84375 0.774536 4.84375 0.473744C4.99925 -0.0024697 5.28301 -0.12134 5.78125 0.000111558Z" fill="#D91374"/>
<path d="M34.8436 -3.90634e-05C35.0438 0.161094 35.0438 0.161094 35.1561 0.390586C35.1366 0.886455 34.9383 1.26223 34.7167 1.69918C33.63 3.9228 33.0691 6.32099 32.6561 8.74996C32.6438 8.82131 32.6315 8.89266 32.6188 8.96618C32.4661 9.88431 32.5085 10.7052 32.744 11.6064C32.84 11.9835 32.8782 12.2176 32.6952 12.5683C32.4585 12.7695 32.3318 12.7803 32.0311 12.7862C31.7804 12.703 31.7018 12.5651 31.5624 12.3437C31.4848 12.1244 31.4368 11.9027 31.3915 11.6748C31.3785 11.6119 31.3656 11.549 31.3522 11.4842C30.682 8.11866 32.147 3.1311 33.9144 0.281638C34.1574 -0.0525062 34.4495 -0.0676648 34.8436 -3.90634e-05Z" fill="#D91374"/>
<path d="M20.0002 18.2324C20.3255 18.3002 20.4239 18.4077 20.6252 18.6719C20.6823 18.9336 20.6798 19.1861 20.674 19.4531C20.6763 19.5574 20.6763 19.5574 20.6786 19.6637C20.6759 20.02 20.6629 20.1849 20.4415 20.4755C20.2346 20.625 20.2346 20.625 20.0002 20.6738C19.6748 20.606 19.5765 20.4986 19.3752 20.2344C19.318 19.9726 19.3206 19.7201 19.3264 19.4531C19.3248 19.3836 19.3233 19.3141 19.3218 19.2426C19.3244 18.8862 19.3375 18.7213 19.5589 18.4308C19.7658 18.2812 19.7658 18.2812 20.0002 18.2324Z" fill="#D91374"/>
</g>
<defs>
<clipPath id="clip0_127_155">
<rect width="40" height="40" fill="white"/>
</clipPath>
</defs>
</svg>
