<svg width="40" height="40" viewBox="0 0 40 40" fill="none" xmlns="http://www.w3.org/2000/svg">
<g clip-path="url(#clip0_127_185)">
<path d="M7.55128 21.8438C7.66838 21.8436 7.78548 21.8434 7.90258 21.8431C8.14657 21.8427 8.39054 21.8432 8.63452 21.8443C8.94656 21.8457 9.25855 21.8449 9.57058 21.8435C9.81181 21.8426 10.053 21.8429 10.2943 21.8435C10.4093 21.8437 10.5244 21.8435 10.6394 21.8429C10.8001 21.8423 10.9608 21.8434 11.1215 21.8446C11.2584 21.8448 11.2584 21.8448 11.398 21.8451C11.6797 21.879 11.8385 21.9562 12.0674 22.1093C12.2839 22.3765 12.273 22.6442 12.2361 22.9686C12.0846 23.1837 11.9785 23.3223 11.7298 23.4374C11.5679 23.4464 11.4057 23.4504 11.2435 23.4522C11.1415 23.4535 11.0396 23.4548 10.9345 23.4561C10.8238 23.4572 10.7132 23.4583 10.5991 23.4594C10.4848 23.4608 10.3704 23.4622 10.2561 23.4637C9.89288 23.4684 9.52971 23.4725 9.16652 23.4765C8.74626 23.4811 8.326 23.486 7.90574 23.4914C7.73746 23.4935 7.56918 23.4951 7.40089 23.4968C7.2984 23.4981 7.19591 23.4994 7.09032 23.5007C7.00013 23.5017 6.90994 23.5027 6.81702 23.5037C6.61258 23.514 6.43984 23.5393 6.24458 23.5936C6.15816 24.0063 6.15816 24.0063 6.22876 24.4091C6.32331 24.5429 6.32331 24.5429 6.49775 24.6093C6.6911 24.6177 6.88469 24.6214 7.07824 24.623C7.1973 24.6248 7.31636 24.6267 7.43541 24.6286C7.62242 24.6314 7.80937 24.6337 7.9964 24.6347C8.86016 24.6406 9.49656 24.7208 10.2319 25.1659C10.722 25.6403 10.9438 26.1701 10.9756 26.8233C10.9594 27.4602 10.7562 27.9575 10.2952 28.4374C9.74477 28.8522 9.31662 28.9957 8.6098 28.9966C8.5413 28.997 8.4728 28.9974 8.40223 28.9978C8.25346 28.9986 8.10468 28.9993 7.9559 28.9998C7.72039 29.0007 7.48488 29.0023 7.24937 29.004C6.57973 29.0088 5.9101 29.013 5.24045 29.0156C4.83087 29.0173 4.42131 29.02 4.01174 29.0235C3.8557 29.0246 3.69965 29.0253 3.5436 29.0255C3.32523 29.0259 3.10691 29.0277 2.88854 29.0298C2.82418 29.0296 2.75981 29.0294 2.69349 29.0291C2.31942 29.0346 2.06153 29.0693 1.77201 29.2968C1.73049 29.5355 1.71661 29.7233 1.72454 29.9608C1.72361 30.0211 1.72269 30.0815 1.72174 30.1436C1.72114 30.4841 1.72114 30.4841 1.91278 30.7593C2.15965 30.8847 2.32428 30.8885 2.60544 30.8883C2.70684 30.8888 2.80823 30.8894 2.91269 30.8899C3.02366 30.8893 3.13462 30.8887 3.24895 30.8881C3.3672 30.8883 3.48546 30.8886 3.60371 30.889C3.85822 30.8896 4.1127 30.8896 4.36721 30.889C4.7697 30.8881 5.17216 30.889 5.57465 30.8903C6.57434 30.8931 7.57404 30.8936 8.57374 30.8934C9.35068 30.8932 10.1276 30.8938 10.9045 30.8965C11.3046 30.8978 11.7046 30.8977 12.1046 30.8964C12.3536 30.896 12.6026 30.8968 12.8515 30.898C13.0218 30.8984 13.1922 30.8973 13.3625 30.8962C13.4641 30.8969 13.5658 30.8976 13.6705 30.8984C13.8027 30.8984 13.8027 30.8984 13.9376 30.8984C14.2387 30.9474 14.3804 31.0561 14.599 31.2499C14.7377 31.5067 14.699 31.7918 14.7005 32.0742C14.701 32.1406 14.7015 32.2071 14.702 32.2756C14.7028 32.4165 14.7033 32.5574 14.7037 32.6982C14.7045 32.9133 14.7071 33.1282 14.7098 33.3432C14.7103 33.4801 14.7108 33.617 14.7111 33.7539C14.7121 33.818 14.7132 33.8821 14.7142 33.9482C14.7127 34.3091 14.691 34.5553 14.4302 34.8436C14.1797 35.0037 13.9687 35.0201 13.6684 35.024C13.5877 35.026 13.5069 35.0279 13.4237 35.0299C13.2547 35.0327 13.0857 35.0351 12.9167 35.0373C12.4768 35.0485 12.1773 35.0577 11.8142 35.3124C11.7585 35.3124 11.7028 35.3124 11.6454 35.3124C11.4339 35.6824 11.2663 36.0746 11.3359 36.4989C11.4721 36.8883 11.703 37.112 12.0674 37.3436C12.3461 37.4466 12.3461 37.4466 12.6489 37.5075C12.704 37.52 12.7592 37.5325 12.8161 37.5454C12.9952 37.5854 13.1746 37.6233 13.3543 37.661C13.479 37.6881 13.6037 37.7152 13.7284 37.7424C15.3858 38.0972 17.0801 38.3676 18.7845 38.3751C18.8675 38.3757 18.9505 38.3762 19.0361 38.3768C21.5548 38.4008 21.5548 38.4008 24.0505 38.1249C24.1492 38.1077 24.2479 38.0905 24.3496 38.0728C26.4217 37.773 26.4217 37.773 28.1011 36.7186C28.4204 36.2666 28.5355 35.8452 28.5442 35.3075C28.5463 35.226 28.5485 35.1446 28.5508 35.0606C28.5386 34.8484 28.5386 34.8484 28.4377 34.6999C28.1713 34.556 27.8899 34.5745 27.5895 34.5702C26.7017 34.5364 26.0537 34.442 25.3938 33.8451C24.9086 33.3255 24.838 32.8155 24.8624 32.1383C24.9316 31.5682 25.1813 31.1333 25.6446 30.7509C26.2926 30.2922 27.0096 30.267 27.7963 30.271C27.9064 30.2703 28.0164 30.2696 28.1297 30.2689C28.4289 30.2671 28.728 30.2671 29.0272 30.2675C29.3411 30.2675 29.6549 30.2658 29.9688 30.2642C30.5623 30.2614 31.1558 30.2602 31.7494 30.2595C32.6217 30.2585 33.494 30.2555 34.3663 30.2522C34.4622 30.2518 34.4622 30.2518 34.5602 30.2514C34.6877 30.2509 34.8153 30.2504 34.9428 30.2499C35.3162 30.2485 35.6896 30.2476 36.063 30.2472C36.239 30.247 36.415 30.2466 36.5909 30.2462C36.8055 30.2456 37.0202 30.2454 37.2348 30.2455C37.3291 30.2452 37.4233 30.2448 37.5205 30.2445C37.6436 30.2444 37.6436 30.2444 37.7691 30.2442C37.9864 30.2421 37.9864 30.2421 38.2277 30.1561C38.2277 29.6921 38.2277 29.228 38.2277 28.7499C37.891 28.646 37.5677 28.6605 37.2166 28.6607C37.139 28.6604 37.0615 28.6601 36.9816 28.6599C36.813 28.6593 36.6445 28.6589 36.476 28.6586C36.2093 28.658 35.9426 28.6568 35.6759 28.6554C34.9175 28.6513 34.1591 28.6475 33.4008 28.6463C32.937 28.6455 32.4733 28.6432 32.0095 28.6399C31.8328 28.639 31.656 28.6386 31.4792 28.6388C31.2319 28.6389 30.9847 28.6372 30.7375 28.635C30.6644 28.6356 30.5914 28.6361 30.5161 28.6366C30.1728 28.6317 30 28.6184 29.7032 28.4446C29.397 28.1458 29.4351 27.8665 29.4312 27.4739C29.4305 27.4092 29.4299 27.3445 29.4292 27.2777C29.428 27.1406 29.4271 27.0034 29.4264 26.8662C29.425 26.6568 29.4213 26.4475 29.4175 26.2381C29.4167 26.1048 29.416 25.9715 29.4154 25.8382C29.4139 25.7758 29.4124 25.7133 29.4109 25.649C29.4122 25.339 29.4271 25.1913 29.6118 24.9231C29.8975 24.6689 30.0749 24.6766 30.4637 24.6709C30.5648 24.6687 30.6659 24.6665 30.7701 24.6642C30.9841 24.6601 31.1981 24.6567 31.4122 24.6538C31.564 24.6502 31.564 24.6502 31.7189 24.6465C31.8585 24.6442 31.8585 24.6442 32.0009 24.6418C32.237 24.627 32.237 24.627 32.3928 24.4992C32.5128 24.3447 32.5258 24.2517 32.5262 24.0624C32.5279 24.0092 32.5295 23.956 32.5312 23.9013C32.4703 23.6813 32.3592 23.6313 32.1518 23.5155C31.9233 23.4809 31.9233 23.4809 31.6708 23.4867C31.5259 23.4859 31.5259 23.4859 31.3781 23.4851C31.2221 23.4858 31.2221 23.4858 31.063 23.4865C30.8429 23.4852 30.6229 23.4838 30.4028 23.4824C30.0558 23.4814 29.7087 23.4813 29.3617 23.4815C29.0269 23.4815 28.6921 23.4791 28.3573 23.4768C28.2534 23.4774 28.1496 23.478 28.0426 23.4787C27.9458 23.4779 27.8489 23.4771 27.7491 23.4763C27.6216 23.4763 27.6216 23.4763 27.4915 23.4764C27.194 23.4269 27.052 23.3159 26.8353 23.1249C26.706 22.8855 26.7316 22.6861 26.7509 22.4218C26.8942 22.1233 27.0158 21.9927 27.3416 21.8749C27.5693 21.8545 27.5693 21.8545 27.8327 21.8534C27.9316 21.8527 28.0305 21.8519 28.1324 21.8512C28.239 21.8512 28.3456 21.8513 28.4555 21.8514C28.5656 21.8511 28.6757 21.8507 28.7891 21.8504C29.0223 21.8498 29.2555 21.8498 29.4886 21.8502C29.7856 21.8507 30.0826 21.8494 30.3795 21.8475C30.6647 21.8461 30.9498 21.8464 31.235 21.8465C31.3408 21.8458 31.4466 21.8451 31.5556 21.8443C32.4591 21.8487 33.0996 21.9695 33.7591 22.5618C34.2976 23.1252 34.3263 23.7307 34.2934 24.4551C34.254 24.8381 34.1841 25.0918 33.9239 25.3905C33.8829 25.4391 33.8419 25.4876 33.7996 25.5376C33.4022 25.9534 32.9258 26.218 32.3194 26.2623C31.9252 26.2756 31.533 26.2662 31.1391 26.2499C31.1391 26.5077 31.1391 26.7655 31.1391 27.0311C31.226 27.0304 31.313 27.0298 31.4025 27.029C32.2244 27.0227 33.0462 27.018 33.8681 27.0149C34.2906 27.0133 34.713 27.0111 35.1355 27.0076C35.5437 27.0042 35.9518 27.0023 36.36 27.0015C36.5153 27.0009 36.6705 26.9998 36.8257 26.9981C38.5285 26.9803 38.5285 26.9803 39.2928 27.4916C39.3687 27.5658 39.3687 27.5658 39.4461 27.6415C39.4982 27.6903 39.5503 27.7392 39.604 27.7895C40.0287 28.3225 40.0415 28.8034 40.0368 29.4481C40.0385 29.5299 40.0401 29.6116 40.0419 29.6958C40.0415 30.3406 39.8974 30.8398 39.3986 31.3085C38.7248 31.8715 37.972 31.9207 37.0979 31.9163C36.9329 31.9173 36.9329 31.9173 36.7645 31.9184C36.4654 31.9202 36.1662 31.9202 35.8671 31.9198C35.5532 31.9197 35.2393 31.9215 34.9254 31.9231C34.3319 31.9259 33.7384 31.9271 33.1448 31.9278C32.2726 31.9288 31.4003 31.9318 30.528 31.9351C30.464 31.9354 30.4 31.9356 30.3341 31.9359C30.2065 31.9364 30.079 31.9369 29.9514 31.9374C29.578 31.9388 29.2046 31.9396 28.8312 31.94C28.6552 31.9403 28.4793 31.9407 28.3033 31.9411C28.0887 31.9416 27.8741 31.9419 27.6594 31.9418C27.5652 31.9421 27.4709 31.9424 27.3737 31.9428C27.2507 31.9429 27.2507 31.9429 27.1251 31.9431C26.9078 31.9451 26.9078 31.9451 26.6665 32.0311C26.6596 32.1294 26.6526 32.2277 26.6454 32.329C26.6415 32.3843 26.6376 32.4396 26.6336 32.4965C26.6538 32.6642 26.6538 32.6642 26.7885 32.7919C27.1115 32.9397 27.4187 32.9183 27.7741 32.9198C28.6143 32.9438 29.1876 33.0792 29.7836 33.6571C30.2262 34.1293 30.3412 34.6794 30.3321 35.288C30.3311 35.3798 30.3311 35.3798 30.33 35.4735C30.2968 36.5446 29.8363 37.4199 29.0769 38.2177C27.2032 39.8211 23.574 40.0063 21.1414 40.0158C21.0502 40.0162 20.959 40.0166 20.865 40.0171C20.6723 40.0178 20.4796 40.0184 20.287 40.0187C19.9998 40.0194 19.7126 40.0218 19.4255 40.0243C17.7828 40.0317 16.1602 39.9034 14.5515 39.5849C14.4666 39.5685 14.3817 39.5521 14.2943 39.5353C14.0298 39.4834 13.7658 39.4296 13.502 39.3749C13.4105 39.356 13.319 39.3371 13.2248 39.3177C12.951 39.2603 12.6779 39.2009 12.4049 39.1405C12.3228 39.123 12.2408 39.1054 12.1562 39.0873C11.2705 38.8842 10.4975 38.518 10.0022 37.7846C9.53873 36.9778 9.43758 36.2339 9.67483 35.3408C9.9391 34.6259 10.5219 34.029 11.2334 33.6635C11.8209 33.4051 12.3567 33.4241 12.9956 33.4374C12.9956 33.128 12.9956 32.8186 12.9956 32.4999C12.8578 32.5004 12.7199 32.5009 12.5779 32.5015C11.2779 32.5062 9.97786 32.5097 8.67786 32.512C8.00953 32.5132 7.34121 32.5149 6.67289 32.5176C6.09015 32.5199 5.50742 32.5214 4.92468 32.5219C4.61632 32.5222 4.30799 32.523 3.99964 32.5247C3.65481 32.5266 3.31 32.5266 2.96517 32.5265C2.86374 32.5273 2.76231 32.5282 2.6578 32.529C1.91634 32.5265 1.25702 32.4569 0.690784 31.9774C0.631063 31.9288 0.571342 31.8801 0.509811 31.83C-0.0076345 31.2612 -0.0552751 30.7399 -0.0476126 30.0097C-0.049625 29.9221 -0.0516375 29.8346 -0.0537109 29.7445C-0.0522846 28.99 0.153239 28.4339 0.732978 27.8954C1.43058 27.3126 2.44474 27.39 3.31942 27.3945C3.55035 27.3955 3.78121 27.395 4.01214 27.3941C4.66801 27.3917 5.32386 27.392 5.97974 27.3936C6.38234 27.3945 6.7849 27.3934 7.18751 27.3913C7.34063 27.3909 7.49376 27.3912 7.64688 27.3922C7.8602 27.3937 8.07337 27.3928 8.28669 27.3914C8.38158 27.393 8.38158 27.393 8.47838 27.3946C8.67468 27.3961 8.67468 27.3961 8.945 27.3436C9.12839 27.1733 9.12839 27.1733 9.19817 26.953C9.15134 26.6612 9.15134 26.6612 9.02939 26.4061C8.7863 26.2936 8.57297 26.3166 8.30154 26.3143C8.18672 26.3125 8.07189 26.3106 7.95707 26.3086C7.77693 26.3059 7.59683 26.3036 7.41666 26.3026C6.5538 26.2965 5.85794 26.2169 5.12116 25.7665C4.55681 25.2197 4.35467 24.6335 4.36431 23.8875C4.41811 23.3985 4.59239 22.961 4.93129 22.5829C5.03833 22.5031 5.03833 22.5031 5.14754 22.4218C5.21019 22.367 5.27285 22.3122 5.33741 22.2557C6.01845 21.8259 6.75128 21.8403 7.55128 21.8438Z" fill="#D91374"/>
<path d="M19.731 9.02826C19.8389 9.02358 19.8389 9.02358 19.9489 9.0188C20.4814 9.12449 20.7745 9.68043 21.0548 10.0781C21.1205 10.1704 21.1205 10.1704 21.1874 10.2645C27.1976 18.768 27.1976 18.768 26.4165 22.3919C26.0242 24.0296 24.8953 25.4301 23.3755 26.3281C21.7533 27.1859 19.8444 27.4823 18.0116 27.0703C16.9569 26.7799 16.003 26.3137 15.1899 25.6249C15.1035 25.5558 15.1035 25.5558 15.0155 25.4852C13.819 24.4664 13.0866 22.9037 12.9727 21.4175C12.8717 18.6191 14.7301 15.8473 16.2025 13.5156C16.2474 13.4438 16.2924 13.372 16.3387 13.298C19.0005 9.0455 19.0005 9.0455 19.731 9.02826ZM19.7468 11.2499C17.6298 13.8767 14.4286 18.2184 14.6835 21.5624C14.9445 22.929 15.6696 24.0178 16.8776 24.8388C18.1233 25.5881 19.4633 25.7986 20.9217 25.574C22.3227 25.2382 23.4832 24.4333 24.2194 23.2812C24.8625 22.2219 25.0539 21.0586 24.7135 19.8858C24.3164 18.6379 23.6694 17.4847 23.038 16.3281C23.0007 16.2586 22.9633 16.1891 22.9249 16.1175C22.3558 15.0585 21.6892 14.0539 21.0196 13.0477C20.8329 12.7672 20.6477 12.4858 20.4638 12.2036C20.4205 12.1373 20.3772 12.071 20.3326 12.0027C20.2535 11.8815 20.1745 11.7601 20.0958 11.6387C20.0099 11.5078 19.9209 11.3786 19.8312 11.2499C19.8034 11.2499 19.7755 11.2499 19.7468 11.2499Z" fill="#D91374"/>
<path d="M28.1013 2.0312C28.5527 2.44553 28.8838 2.99149 29.2141 3.49116C29.2608 3.56146 29.3075 3.63177 29.3556 3.70421C32.2084 8.04438 32.2084 8.04438 31.7583 10.1889C31.4364 11.1904 30.758 12.0506 29.7679 12.564C29.497 12.6842 29.2257 12.7912 28.9452 12.8906C28.8883 12.9114 28.8314 12.9323 28.7728 12.9537C27.742 13.2592 26.5297 13.0615 25.5881 12.6257C24.539 12.0698 23.8249 11.3152 23.4599 10.2343C22.8779 8.06419 24.4216 5.8898 25.5773 4.11251C25.8978 3.62381 26.2197 3.13581 26.5559 2.6562C26.6032 2.58748 26.6032 2.58748 26.6514 2.51738C27.0262 1.99827 27.4641 1.81781 28.1013 2.0312ZM27.5106 4.2187C26.8564 5.23444 26.2226 6.25239 25.6698 7.31928C25.6279 7.39984 25.586 7.4804 25.5428 7.5634C25.1671 8.30172 24.8937 8.99636 25.1213 9.81898C25.4002 10.5257 25.8576 10.9913 26.5823 11.3281C27.2166 11.5607 27.8966 11.5754 28.539 11.3623C29.2707 11.052 29.7039 10.6129 30.0359 9.93494C30.4053 8.92648 29.8883 7.97612 29.4093 7.07514C28.9513 6.23685 28.4416 5.42169 27.9325 4.60932C27.8892 4.53688 27.846 4.46444 27.8014 4.3898C27.7611 4.33334 27.7208 4.27687 27.6793 4.2187C27.6236 4.2187 27.5679 4.2187 27.5106 4.2187Z" fill="#D91374"/>
<path d="M15.3428 -0.0294189C15.4147 -0.0332458 15.4866 -0.0370728 15.5607 -0.0410156C15.9407 0.0296601 16.1135 0.272558 16.3249 0.552513C16.4623 0.747013 16.5942 0.943914 16.7247 1.14246C16.7724 1.21472 16.8202 1.28698 16.8694 1.36144C18.9138 4.48797 18.9138 4.48797 18.5601 6.02527C18.3275 6.7673 17.9138 7.37788 17.2152 7.81238C16.2522 8.28842 15.3082 8.45745 14.2352 8.15906C13.4069 7.86803 12.7687 7.33864 12.3866 6.59717C11.9301 5.57992 12.037 4.74712 12.4793 3.73656C14.2067 0.0115822 14.2067 0.0115822 15.3428 -0.0294189ZM15.2743 2.2655C14.871 2.90753 14.4821 3.55364 14.135 4.22351C14.1065 4.27733 14.078 4.33115 14.0487 4.38661C13.856 4.76588 13.7083 5.13791 13.7876 5.56415C13.9942 6.03825 14.2141 6.3709 14.7099 6.63074C15.2058 6.7708 15.5797 6.78711 16.0496 6.59167C16.4959 6.35869 16.775 6.0634 16.9198 5.60535C17.0417 4.91558 16.6292 4.25875 16.2975 3.66199C16.2619 3.59623 16.2263 3.53046 16.1897 3.46271C15.8582 2.84033 15.8582 2.84033 15.443 2.2655C15.3873 2.2655 15.3317 2.2655 15.2743 2.2655Z" fill="#D91374"/>
</g>
<defs>
<clipPath id="clip0_127_185">
<rect width="40" height="40" fill="white"/>
</clipPath>
</defs>
</svg>
