<svg width="40" height="40" viewBox="0 0 40 40" fill="none" xmlns="http://www.w3.org/2000/svg">
<path d="M22.8127 4.84366C23.8844 5.64908 24.488 6.8106 24.6877 8.12491C24.7525 8.85738 24.632 9.5249 24.4534 10.2343C24.5242 10.2929 24.5949 10.3515 24.6679 10.4119C26.1767 11.6737 27.8031 13.5018 28.0471 15.5468C28.1819 17.2135 27.9065 18.7119 26.8557 20.0634C26.2231 20.7911 25.4823 21.319 24.6096 21.7187C24.558 21.7187 24.5065 21.7187 24.4534 21.7187C24.4536 21.7803 24.4538 21.842 24.454 21.9056C24.4592 23.4087 24.4631 24.9117 24.4655 26.4148C24.4667 27.1417 24.4683 27.8685 24.471 28.5954C24.4734 29.2292 24.4749 29.8629 24.4754 30.4967C24.4757 30.8321 24.4764 31.1674 24.4781 31.5028C24.4797 31.819 24.4802 32.1351 24.4799 32.4512C24.4799 32.5668 24.4804 32.6824 24.4813 32.7979C24.4886 33.7773 24.4031 34.5432 23.716 35.2831C23.65 35.3443 23.5839 35.4056 23.5159 35.4687C23.4578 35.5234 23.3998 35.5782 23.3401 35.6347C22.7228 36.0556 22.0583 36.0773 21.3284 36.0155C20.935 35.9408 20.6464 35.8076 20.3323 35.5614C20.1006 35.363 20.1006 35.363 19.8782 35.4247C19.7368 35.5153 19.597 35.6085 19.4582 35.703C18.8726 36.0855 18.2575 36.0726 17.5784 36.0155C17.2942 35.946 17.0524 35.8447 16.7971 35.703C16.7467 35.6756 16.6964 35.6482 16.6445 35.62C16.0736 35.2626 15.7815 34.6982 15.5973 34.0681C15.4979 33.593 15.5167 33.111 15.5205 32.6277C15.5206 32.5083 15.5205 32.3889 15.5204 32.2695C15.5203 31.9475 15.5217 31.6256 15.5233 31.3036C15.5248 30.9663 15.5249 30.629 15.5252 30.2917C15.5259 29.6539 15.5279 29.0162 15.5302 28.3785C15.5328 27.652 15.5341 26.9255 15.5353 26.1991C15.5378 24.7056 15.5419 23.2121 15.5471 21.7187C15.4379 21.6833 15.4379 21.6833 15.3265 21.6472C14.0288 21.2036 13.1179 20.1837 12.4856 19.0087C11.8528 17.6686 11.7016 16.0825 12.1526 14.6566C12.851 12.9191 14.0285 11.3381 15.5471 10.2343C15.5302 10.1671 15.5133 10.0999 15.4958 10.0307C15.1638 8.62092 15.2887 7.34317 16.0238 6.08542C16.7312 5.00683 17.7684 4.34324 19.0069 4.0151C20.3913 3.81392 21.6545 4.03914 22.8127 4.84366ZM17.51 6.46963C16.9308 7.18914 16.6219 8.05913 16.719 8.98428C16.8888 9.89969 17.3137 10.7423 18.0721 11.3067C18.9163 11.8439 19.7679 11.9987 20.7604 11.841C21.6418 11.6154 22.3802 11.0526 22.849 10.2801C23.3117 9.41377 23.4052 8.57349 23.1231 7.63266C22.7926 6.71549 22.2052 6.04945 21.3284 5.62491C19.9965 5.04346 18.4882 5.42145 17.51 6.46963ZM15.469 12.2655C15.4161 12.3124 15.3632 12.3592 15.3088 12.4074C14.3323 13.3111 13.4118 14.7397 13.3334 16.0943C13.3052 17.381 13.6356 18.4983 14.5283 19.4544C15.0826 19.9928 15.7831 20.3388 16.4659 20.6852C16.6173 20.7621 16.7684 20.8397 16.9193 20.9176C17.6869 21.3649 17.6869 21.3649 18.5256 21.5624C18.818 21.4607 18.9513 21.3374 19.1409 21.0937C19.237 20.8112 19.2371 20.6759 19.1372 20.3945C18.9467 20.0969 18.7308 19.9916 18.4182 19.8534C18.3049 19.7998 18.1917 19.7461 18.0785 19.6923C18.0211 19.6655 17.9637 19.6387 17.9045 19.6111C15.7079 18.5776 15.7079 18.5776 15.3127 17.7343C15.3178 17.4421 15.3275 17.2629 15.5178 17.036C15.7794 16.919 15.9651 16.9265 16.2502 16.953C16.4873 17.102 16.4873 17.102 16.7239 17.3046C17.4036 17.8618 18.1313 18.2746 18.9455 18.6083C19.3352 18.7681 19.6247 18.9212 19.9221 19.2187C19.9822 19.1884 19.9822 19.1884 20.0436 19.1576C20.1918 19.0838 20.3404 19.0107 20.4891 18.9379C22.1249 18.1628 22.1249 18.1628 23.5583 17.0794C23.8176 16.9087 23.9927 16.92 24.2971 16.953C24.5315 17.1093 24.5315 17.1093 24.6877 17.3437C24.722 17.6921 24.7026 17.8541 24.482 18.1258C23.603 18.9513 22.4576 19.453 21.3811 19.9679C21.1255 20.1026 21.0067 20.2197 20.8596 20.4687C20.8257 20.7903 20.8104 21.0665 21.0159 21.328C21.2595 21.4886 21.4081 21.5688 21.702 21.5443C21.9858 21.4765 22.2177 21.3724 22.4789 21.2423C22.528 21.2179 22.5771 21.1934 22.6278 21.1683C22.7315 21.1165 22.8351 21.0644 22.9386 21.012C23.0934 20.9338 23.2489 20.8569 23.4045 20.7801C24.8059 20.0811 25.8815 19.3058 26.4846 17.8124C26.833 16.7461 26.7399 15.5339 26.2502 14.5312C25.687 13.4393 24.828 12.1962 23.7502 11.5624C23.6987 11.5624 23.6471 11.5624 23.594 11.5624C23.514 11.6522 23.4382 11.7457 23.3645 11.8407C22.7249 12.5921 21.6569 13.1353 20.6694 13.2192C19.2473 13.2715 17.9615 13.0551 16.8557 12.0898C16.6733 11.9183 16.5464 11.7723 16.4065 11.5624C16.0519 11.5624 15.7164 12.0342 15.469 12.2655ZM19.6389 22.4901C19.1765 22.8447 18.7093 22.9409 18.1252 22.8905C17.7214 22.7921 17.3384 22.6551 16.9534 22.4999C16.9479 23.9484 16.9437 25.397 16.9412 26.8455C16.94 27.5181 16.9384 28.1907 16.9357 28.8633C16.9333 29.4495 16.9318 30.0358 16.9313 30.6221C16.931 30.9325 16.9303 31.2428 16.9286 31.5532C16.927 31.8455 16.9265 32.1378 16.9268 32.4301C16.9267 32.5882 16.9255 32.7463 16.9242 32.9045C16.9245 32.9991 16.9248 33.0938 16.9252 33.1913C16.925 33.2732 16.9247 33.3552 16.9245 33.4396C16.9649 33.765 17.0831 34.0285 17.3077 34.269C17.6953 34.5654 17.9454 34.6716 18.4377 34.6093C18.8289 34.4786 19.0273 34.2805 19.2295 33.9172C19.3576 33.6002 19.3388 33.2771 19.3348 32.9398C19.3351 32.8602 19.3354 32.7806 19.3357 32.6986C19.3362 32.5265 19.3359 32.3545 19.3351 32.1825C19.3337 31.9102 19.3343 31.6381 19.3354 31.3659C19.3374 30.7885 19.3369 30.2111 19.3362 29.6337C19.3353 28.9637 19.3353 28.2938 19.338 27.6238C19.3386 27.3555 19.3373 27.0872 19.3359 26.8189C19.3364 26.6548 19.3369 26.4907 19.3375 26.3266C19.3367 26.2519 19.3358 26.1772 19.3349 26.1002C19.3395 25.5953 19.3395 25.5953 19.5241 25.3444C19.7007 25.2255 19.7892 25.1919 20.0002 25.1952C20.0518 25.1944 20.1034 25.1936 20.1565 25.1928C20.3985 25.2571 20.4757 25.3435 20.6252 25.5468C20.6721 25.8063 20.666 26.0635 20.6629 26.3266C20.6632 26.4058 20.6635 26.485 20.6638 26.5665C20.6643 26.7385 20.6641 26.9104 20.6632 27.0823C20.6618 27.3545 20.6624 27.6267 20.6635 27.899C20.6658 28.5753 20.6648 29.2516 20.6639 29.9279C20.6633 30.4991 20.6639 31.0703 20.6662 31.6415C20.6667 31.9094 20.6654 32.1773 20.6641 32.4453C20.6645 32.6101 20.665 32.7749 20.6657 32.9398C20.6648 33.014 20.6639 33.0883 20.663 33.1648C20.6673 33.6353 20.744 33.9099 21.0159 34.2968C21.2593 34.5281 21.5423 34.6283 21.8752 34.6483C22.2218 34.6269 22.471 34.5209 22.7346 34.2968C23.1048 33.7387 23.0898 33.2311 23.0826 32.5753C23.0825 32.4651 23.0825 32.355 23.0827 32.2448C23.0828 31.9474 23.081 31.6499 23.0788 31.3525C23.0768 31.041 23.0767 30.7296 23.0763 30.4181C23.0753 29.8291 23.0727 29.2401 23.0696 28.651C23.0661 27.9801 23.0644 27.3092 23.0628 26.6383C23.0596 25.2588 23.0541 23.8794 23.0471 22.4999C22.9693 22.5324 22.9693 22.5324 22.8899 22.5655C22.821 22.5938 22.752 22.6221 22.6809 22.6513C22.6129 22.6794 22.5449 22.7075 22.4749 22.7364C21.8141 22.9766 21.1901 22.9273 20.5471 22.6562C20.3748 22.5373 20.2326 22.4082 20.0784 22.2655C19.8645 22.2655 19.8018 22.3545 19.6389 22.4901Z" fill="#D91374"/>
<path d="M10.2638 22.627C10.5137 22.6334 10.6062 22.6439 10.8204 22.7832C10.9704 23.0207 11.0157 23.1545 11.0157 23.4375C10.7936 23.9433 10.4973 24.3767 10.1759 24.8242C10.0779 24.9619 9.98007 25.0996 9.88232 25.2374C9.83536 25.3036 9.78841 25.3698 9.74003 25.438C9.52125 25.7514 9.31608 26.0731 9.11327 26.3971C8.97434 26.5755 8.88434 26.6455 8.67199 26.7188C8.35883 26.7239 8.15823 26.7229 7.90417 26.535C7.761 26.3938 7.63017 26.2471 7.50011 26.0938C7.44875 26.0359 7.39739 25.9781 7.34447 25.9186C7.21263 25.7698 7.08238 25.6199 6.95324 25.4688C6.61872 25.5944 6.41387 25.849 6.18175 26.1084C6.14017 26.1541 6.09858 26.1998 6.05574 26.2469C5.84114 26.4836 5.63061 26.7232 5.42492 26.9678C5.1815 27.2486 5.07015 27.3358 4.69738 27.3779C4.43633 27.3697 4.37057 27.3407 4.14074 27.1875C3.94816 26.8986 3.92718 26.6634 3.98449 26.3281C4.12853 26.1087 4.12853 26.1087 4.33605 25.9033C4.41452 25.8235 4.49294 25.7436 4.57134 25.6638C4.61458 25.6207 4.65782 25.5777 4.70238 25.5334C4.97245 25.2609 5.23158 24.9778 5.49328 24.6973C5.64598 24.5344 5.79903 24.372 5.95303 24.2103C6.04433 24.1145 6.13501 24.0181 6.22494 23.9209C6.44635 23.6876 6.54131 23.5982 6.86535 23.5303C7.47405 23.5801 7.89496 24.2166 8.26183 24.6481C8.29406 24.6869 8.32629 24.7257 8.35949 24.7656C8.63968 24.3821 8.91948 23.9984 9.19445 23.6111C9.22936 23.562 9.26427 23.5129 9.30023 23.4623C9.3689 23.3655 9.43744 23.2686 9.50584 23.1717C9.88802 22.6332 9.88802 22.6332 10.2638 22.627Z" fill="#D91374"/>
<path d="M29.707 22.6124C29.7654 22.6074 29.8239 22.6025 29.884 22.5974C30.4846 22.7796 30.8851 23.6926 31.2106 24.1866C31.2538 24.2511 31.297 24.3156 31.3416 24.3821C31.3803 24.4408 31.419 24.4995 31.459 24.56C31.4931 24.6021 31.5273 24.6442 31.5625 24.6876C31.6141 24.6876 31.6656 24.6876 31.7188 24.6876C31.8247 24.5843 31.8247 24.5843 31.9315 24.4483C31.9736 24.399 32.0158 24.3496 32.0592 24.2988C32.1471 24.1944 32.2338 24.089 32.3192 23.9826C32.5505 23.7162 32.7216 23.5557 33.0826 23.5255C33.5239 23.5628 33.7501 23.8245 34.0332 24.1407C34.0841 24.1946 34.135 24.2485 34.1875 24.304C34.3303 24.4561 34.4703 24.6102 34.6094 24.7657C34.6671 24.83 34.7248 24.8944 34.7842 24.9607C34.8687 25.0572 34.9524 25.1544 35.0351 25.2524C35.2256 25.4699 35.4333 25.6694 35.6409 25.8704C35.8941 26.1324 36.0076 26.2651 36.0547 26.6358C36.0431 26.893 36.0104 26.9611 35.8594 27.1876C35.6161 27.3497 35.4617 27.3936 35.1703 27.3856C34.8203 27.2997 34.6056 27.0155 34.3701 26.7579C34.3179 26.7035 34.2657 26.6491 34.2119 26.5931C33.8644 26.2283 33.5322 25.8502 33.2031 25.4688C32.9759 25.5698 32.8326 25.6686 32.6743 25.8597C32.6354 25.9047 32.5966 25.9497 32.5566 25.996C32.4768 26.0902 32.3976 26.185 32.3192 26.2804C32.1072 26.5235 31.9903 26.6293 31.6739 26.7258C31.3669 26.7178 31.252 26.6773 31.0156 26.4844C30.8456 26.2894 30.8456 26.2894 30.6787 26.0596C30.6336 25.9978 30.6336 25.9978 30.5875 25.9347C30.3296 25.5783 30.0838 25.2139 29.8431 24.8456C29.7352 24.6818 29.6247 24.5195 29.5123 24.3586C29.4557 24.277 29.3991 24.1954 29.3408 24.1114C29.2894 24.0383 29.2379 23.9652 29.1849 23.8898C29.0515 23.6523 29.0031 23.4741 28.9844 23.2032C29.1553 22.845 29.2998 22.6338 29.707 22.6124Z" fill="#D91374"/>
<path d="M4.82967 12.6144C5.17968 12.7003 5.39439 12.9845 5.62988 13.2422C5.6821 13.2965 5.73432 13.3509 5.78812 13.407C6.13562 13.7717 6.46781 14.1499 6.79688 14.5312C7.02408 14.4302 7.16741 14.3314 7.32574 14.1403C7.36457 14.0953 7.40339 14.0504 7.44339 14.004C7.52322 13.9098 7.60237 13.815 7.68082 13.7196C7.89277 13.4766 8.00966 13.3707 8.32611 13.2742C8.63315 13.2823 8.74798 13.3228 8.98438 13.5156C9.15436 13.7106 9.15436 13.7106 9.32129 13.9404C9.35139 13.9816 9.3815 14.0229 9.41252 14.0654C9.67039 14.4217 9.91603 14.7861 10.1569 15.1541C10.2652 15.3187 10.3757 15.482 10.4877 15.6442C10.5443 15.7265 10.6009 15.8088 10.6592 15.8935C10.7106 15.9676 10.7621 16.0416 10.8151 16.1178C10.9373 16.3278 10.9917 16.4784 11.0156 16.7187C10.938 16.9905 10.843 17.1645 10.625 17.3437C10.4648 17.3858 10.4648 17.3858 10.2881 17.3926C10.2304 17.3968 10.1727 17.401 10.1132 17.4054C9.5138 17.2123 9.11677 16.3104 8.78937 15.8134C8.72456 15.7167 8.72456 15.7167 8.65845 15.618C8.6197 15.5593 8.58095 15.5005 8.54103 15.4401C8.50687 15.398 8.4727 15.3559 8.4375 15.3125C8.38594 15.3125 8.33437 15.3125 8.28125 15.3125C8.1753 15.4157 8.1753 15.4157 8.06854 15.5517C8.0264 15.6011 7.98425 15.6504 7.94083 15.7013C7.8529 15.8056 7.76619 15.911 7.68082 16.0174C7.44952 16.2838 7.27837 16.4443 6.91742 16.4746C6.47614 16.4372 6.24992 16.1755 5.9668 15.8594C5.89034 15.7784 5.89034 15.7784 5.81234 15.6959C5.66961 15.5439 5.52959 15.3898 5.39062 15.2344C5.33383 15.1709 5.27703 15.1075 5.21851 15.0421C5.13498 14.9465 5.0522 14.8502 4.9704 14.7531C4.75628 14.5101 4.52256 14.2867 4.29047 14.061C4.06208 13.8251 3.98761 13.7005 3.9502 13.3691C3.95838 13.1081 3.98741 13.0423 4.14062 12.8125C4.38385 12.6503 4.53832 12.6064 4.82967 12.6144Z" fill="#D91374"/>
<path d="M35.7031 12.6562C35.9033 12.7734 35.9033 12.7734 36.0156 12.9687C36.0771 13.2384 36.0921 13.3376 36.0156 13.5937C35.652 14.1678 35.1374 14.6389 34.6539 15.1116C34.4803 15.2853 34.3189 15.4622 34.1602 15.6493C33.5422 16.363 33.5422 16.363 33.0908 16.4697C32.4589 16.3255 32.0393 15.714 31.6406 15.2343C31.5087 15.4133 31.3768 15.5923 31.2451 15.7714C31.206 15.8246 31.1669 15.8777 31.1266 15.9324C30.8588 16.2973 30.5986 16.6664 30.3467 17.0425C30.2344 17.1874 30.2344 17.1874 30 17.3437C29.4531 17.3958 29.4531 17.3958 29.1846 17.2167C29.0286 16.9796 28.9844 16.8482 28.9844 16.5624C29.2065 16.0566 29.5029 15.6232 29.8242 15.1757C29.9222 15.038 30.02 14.9003 30.1178 14.7625C30.1648 14.6963 30.2117 14.6301 30.2601 14.5619C30.4789 14.2485 30.684 13.9268 30.8868 13.6028C31.0258 13.4244 31.1158 13.3544 31.3281 13.2812C31.6413 13.276 31.8419 13.2771 32.0959 13.4649C32.2391 13.6061 32.3699 13.7528 32.5 13.9062C32.5514 13.964 32.6027 14.0218 32.6556 14.0813C32.7875 14.2301 32.9177 14.3801 33.0469 14.5312C33.3814 14.4055 33.5862 14.1509 33.8184 13.8915C33.8599 13.8458 33.9015 13.8001 33.9444 13.753C34.159 13.5163 34.3695 13.2767 34.5752 13.0322C34.9207 12.6334 35.1996 12.5853 35.7031 12.6562Z" fill="#D91374"/>
</svg>
