<svg width="40" height="40" viewBox="0 0 40 40" fill="none" xmlns="http://www.w3.org/2000/svg">
<path d="M19.7399 2.56344C19.9177 2.67958 19.9177 2.67958 20.1095 2.60678C20.1765 2.57153 20.2435 2.53628 20.3125 2.49997C22.0494 1.72553 23.8822 1.43316 25.7229 2.0364C26.7291 2.43387 27.5233 2.99306 28.2812 3.74997C28.3768 3.84423 28.3768 3.84423 28.4744 3.9404C30.3843 5.93222 30.4474 8.78905 30.5825 11.3821C30.7185 14.2731 30.7185 14.2731 31.4575 17.0584C31.5625 17.3437 31.5625 17.3437 31.5625 17.5781C31.6624 17.5716 31.7623 17.5652 31.8652 17.5586C32.8086 17.5599 33.7846 17.8331 34.6093 18.2812C34.7219 18.3388 34.7219 18.3388 34.8367 18.3975C36.3993 19.2423 37.4706 20.6763 38.0029 22.3535C38.506 24.0906 38.2444 25.991 37.3782 27.565C37.0589 28.0923 36.6816 28.5455 36.25 28.9843C36.1905 29.0448 36.1311 29.1052 36.0699 29.1674C35.1718 30.0273 33.914 30.7058 32.6562 30.7812C32.6902 30.8645 32.7241 30.9479 32.7591 31.0337C32.9215 31.4679 33.0184 31.9142 33.1185 32.366C33.139 32.4577 33.1595 32.5494 33.1806 32.6439C33.2236 32.8375 33.2663 33.0311 33.3088 33.2248C33.3734 33.5179 33.4398 33.8105 33.5063 34.1032C34.0715 36.6408 34.0715 36.6408 33.6248 37.3663C33.2801 37.7881 32.9479 38.0518 32.4218 38.2031C32.2051 38.2229 32.2051 38.2229 31.9781 38.2232C31.8911 38.2237 31.804 38.2242 31.7144 38.2247C31.6195 38.2245 31.5247 38.2242 31.427 38.224C31.3257 38.2243 31.2243 38.2247 31.1199 38.2251C30.8391 38.226 30.5582 38.226 30.2774 38.2258C29.9743 38.2258 29.6712 38.2266 29.3681 38.2274C28.7745 38.2287 28.1809 38.2291 27.5873 38.2292C27.1047 38.2293 26.6222 38.2296 26.1396 38.2301C24.7711 38.2315 23.4027 38.2322 22.0342 38.2321C21.9605 38.2321 21.8867 38.2321 21.8107 38.232C21.6999 38.232 21.6999 38.232 21.5869 38.232C20.3901 38.232 19.1933 38.2335 17.9965 38.2357C16.7673 38.2379 15.5381 38.239 14.309 38.2388C13.619 38.2388 12.929 38.2392 12.2391 38.2409C11.6516 38.2423 11.0642 38.2427 10.4767 38.2416C10.1771 38.2411 9.8775 38.2411 9.57789 38.2424C9.25279 38.2439 8.92774 38.2429 8.60265 38.2417C8.50835 38.2425 8.41405 38.2433 8.3169 38.2442C7.68901 38.239 7.18253 38.1489 6.69216 37.7371C6.65097 37.6862 6.60978 37.6354 6.56734 37.583C6.52474 37.5323 6.48214 37.4817 6.43825 37.4295C5.99511 36.7703 6.11804 35.9636 6.25404 35.2227C6.34571 34.7598 6.44688 34.2992 6.55092 33.8389C6.61602 33.5504 6.67902 33.2616 6.74175 32.9725C7.23259 30.7407 7.97006 28.7164 9.967 27.3867C10.5704 27.0028 11.1891 26.6948 11.875 26.4843C11.9546 26.4595 12.0343 26.4346 12.1164 26.409C13.1738 26.1412 14.308 26.2295 15.3906 26.25C15.4241 26.1613 15.4241 26.1613 15.4583 26.0708C15.563 25.8206 15.7045 25.6126 15.8593 25.3906C15.8021 25.3749 15.7448 25.3593 15.6858 25.3431C12.4412 24.4504 9.17777 23.2026 6.40621 21.25C6.2929 21.0234 6.29932 20.8769 6.32808 20.625C6.45174 20.4512 6.56858 20.3093 6.71382 20.1562C7.95866 18.7605 8.6182 17.112 9.06246 15.3125C8.98582 15.3152 8.90918 15.3179 8.83022 15.3207C6.90279 15.3682 5.22259 14.7181 3.79848 13.425C2.61175 12.2864 1.83568 10.6955 1.77822 9.0411C1.74177 7.04058 2.23974 5.31646 3.63729 3.82203C4.8755 2.55136 6.49478 1.82087 8.27396 1.76537C9.61267 1.74904 11.2221 1.96719 12.2784 2.88052C12.3494 2.92418 12.3494 2.92418 12.4218 2.96872C12.7018 2.89639 12.927 2.74787 13.1689 2.59274C15.0235 1.47291 17.8732 1.29713 19.7399 2.56344ZM13.3593 3.67184C13.4729 3.92584 13.617 4.11162 13.7988 4.32126C14.7506 5.50279 15.2503 6.96071 15.249 8.47653C15.249 8.53709 15.2491 8.59765 15.2491 8.66005C15.2439 9.24575 15.1735 9.81308 15.0781 10.3906C16.1163 10.027 16.9902 9.47379 17.8125 8.74997C17.8773 8.69548 17.9422 8.641 18.009 8.58487C18.4756 8.18359 18.8663 7.74164 19.2544 7.26681C19.32 7.18906 19.3855 7.11132 19.4531 7.03122C19.5478 6.91701 19.5478 6.91701 19.6444 6.8005C19.8437 6.64059 19.8437 6.64059 20.0717 6.61862C20.4222 6.76436 20.583 7.00525 20.8056 7.30465C20.8956 7.41991 20.9858 7.53496 21.0763 7.64981C21.1197 7.70523 21.1631 7.76066 21.2078 7.81777C22.6277 9.59978 24.8551 10.508 26.9758 11.1361C27.3367 11.2429 27.3367 11.2429 27.4218 11.3281C27.4297 11.5431 27.4325 11.7562 27.4319 11.9712C27.4321 12.0724 27.4321 12.0724 27.4324 12.1757C27.4327 12.4001 27.4325 12.6246 27.4322 12.8491C27.4323 13.0049 27.4323 13.1608 27.4324 13.3166C27.4326 13.6442 27.4324 13.9718 27.432 14.2994C27.4316 14.7181 27.4318 15.1367 27.4323 15.5554C27.4326 15.8777 27.4325 16.2001 27.4323 16.5225C27.4322 16.6768 27.4323 16.831 27.4325 16.9852C27.4327 17.2019 27.4324 17.4186 27.4319 17.6353C27.4321 17.6984 27.4323 17.7615 27.4324 17.8265C27.4309 18.2438 27.3957 18.6483 27.3437 19.0625C27.394 19.0284 27.4442 18.9944 27.496 18.9593C28.4148 18.3538 29.3262 17.9846 30.3906 17.7343C30.4697 17.4902 30.4669 17.3512 30.3848 17.1093C30.365 17.0478 30.3452 16.9863 30.3248 16.9229C30.303 16.8555 30.2812 16.7881 30.2587 16.7187C29.6997 14.8405 29.6295 12.9112 29.5411 10.9655C29.4725 9.50823 29.3926 8.02801 28.9062 6.64059C28.8782 6.55992 28.8502 6.47926 28.8214 6.39615C28.3043 5.03753 27.1637 3.84677 25.8593 3.20309C24.4938 2.62455 23.0428 2.54505 21.6406 3.04684C21.2101 3.22874 20.7996 3.44645 20.3906 3.67184C20.1658 3.78425 20.0166 3.77223 19.7656 3.74997C19.5602 3.65887 19.3705 3.56511 19.1748 3.457C17.2635 2.45045 15.1753 2.46123 13.3593 3.67184ZM4.09694 4.83151C3.03271 6.16673 2.67547 7.69049 2.81246 9.37497C2.98306 10.701 3.6634 11.826 4.60933 12.7343C4.66241 12.7871 4.71548 12.8399 4.77016 12.8943C5.86734 13.9253 7.33319 14.3369 8.80977 14.3136C10.4438 14.2539 11.8599 13.4313 12.9608 12.2647C13.9687 11.0675 14.4003 9.51275 14.2968 7.96872C14.0914 6.35732 13.3434 5.03348 12.1093 3.98434C9.56044 2.12511 6.19692 2.49749 4.09694 4.83151ZM19.821 8.14078C19.783 8.1844 19.745 8.22803 19.7058 8.27298C19.6626 8.32145 19.6194 8.36993 19.5749 8.41988C19.5282 8.47241 19.4816 8.52494 19.4336 8.57907C18.4179 9.69144 17.2272 10.4793 15.8691 11.1181C15.8125 11.1448 15.7559 11.1714 15.6976 11.1989C15.474 11.3024 15.256 11.3991 15.0216 11.4761C14.3866 11.6855 14.0986 12.2788 13.75 12.8125C13.7085 12.8593 13.6669 12.906 13.6242 12.9543C13.4785 13.1833 13.4853 13.3447 13.484 13.6152C13.483 13.7146 13.482 13.814 13.481 13.9165C13.4812 14.025 13.4814 14.1336 13.4817 14.2422C13.4814 14.3546 13.4809 14.4669 13.4805 14.5793C13.4798 14.8152 13.48 15.0512 13.4807 15.2872C13.4816 15.5862 13.4801 15.8852 13.4778 16.1843C13.4763 16.4168 13.4764 16.6493 13.4768 16.8819C13.4768 16.9919 13.4764 17.1019 13.4754 17.2119C13.4636 18.7446 13.9175 20.129 14.9897 21.2441C15.0962 21.3513 15.2043 21.4569 15.3125 21.5625C15.3695 21.6202 15.4265 21.6779 15.4852 21.7373C16.8361 23.0305 18.6514 23.414 20.4635 23.3838C22.2537 23.3167 23.882 22.483 25.0994 21.1853C26.2327 19.9106 26.5097 18.4844 26.4996 16.8454C26.4993 16.7062 26.4991 16.5671 26.4989 16.428C26.4983 16.0639 26.4968 15.6998 26.4951 15.3357C26.4935 14.9633 26.4927 14.5909 26.492 14.2186C26.4903 13.4894 26.4876 12.7603 26.4843 12.0312C26.3843 11.9936 26.2843 11.9561 26.1842 11.9185C26.1285 11.8976 26.0728 11.8767 26.0154 11.8551C25.8413 11.7901 25.6666 11.7271 25.4916 11.6647C23.4487 10.9223 21.5575 9.86978 20.1773 8.1506C20.1445 8.11636 20.1118 8.08212 20.0781 8.04684C19.9179 8.02909 19.9179 8.02909 19.821 8.14078ZM11.7968 14.4406C11.5358 14.5936 11.3117 14.7028 11.0113 14.75C10.6773 14.8052 10.4357 14.8731 10.1562 15.0781C9.90424 15.5858 9.83401 16.1685 9.73404 16.7213C9.48117 17.9796 8.78517 19.1422 8.04531 20.1715C7.90512 20.37 7.77817 20.5711 7.65621 20.7812C10.0361 22.2979 13.5345 24.375 16.4062 24.375C16.509 24.0922 16.5625 23.8987 16.5625 23.5937C16.4926 23.5559 16.4227 23.518 16.3507 23.479C14.5257 22.4741 13.3014 21.0786 12.713 19.05C12.6213 18.6918 12.5679 18.3619 12.562 17.9915C12.5597 17.8602 12.5597 17.8602 12.5573 17.7262C12.556 17.6325 12.5547 17.5388 12.5534 17.4423C12.5517 17.3457 12.5501 17.2492 12.5484 17.1497C12.5442 16.894 12.5403 16.6383 12.5365 16.3826C12.5326 16.1212 12.5282 15.8599 12.5239 15.5986C12.5156 15.0865 12.5076 14.5745 12.5 14.0625C12.2848 14.0625 11.9834 14.3259 11.7968 14.4406ZM27.3535 20.4248C26.7521 21.15 26.3553 21.9047 26.0937 22.8125C26.0746 22.8779 26.0554 22.9434 26.0357 23.0108C25.7049 24.3659 25.9981 25.8176 26.6406 27.0312C27.5435 28.4374 28.7782 29.3718 30.4107 29.7741C31.9506 30.1006 33.4583 29.7464 34.7656 28.9062C35.9756 28.0615 36.8458 26.7905 37.1389 25.3369C37.4002 23.7481 37.0646 22.3002 36.1904 20.961C36.0613 20.7884 35.9261 20.6282 35.7812 20.4687C35.7301 20.4105 35.6791 20.3523 35.6265 20.2923C34.6585 19.252 33.304 18.6588 31.8945 18.5766C30.1534 18.5207 28.5549 19.1527 27.3535 20.4248ZM24.6533 22.8613C24.274 23.1547 23.8622 23.3735 23.4375 23.5937C23.4733 23.8648 23.5071 24.1151 23.5937 24.375C23.7126 24.3659 23.8314 24.3559 23.9502 24.3457C24.0163 24.3402 24.0825 24.3348 24.1507 24.3292C24.4325 24.2937 24.4325 24.2937 24.9218 24.1406C24.9734 23.6507 25.025 23.1609 25.0781 22.6562C24.8699 22.6562 24.814 22.731 24.6533 22.8613ZM17.5 24.0625C17.4781 24.1353 17.4563 24.2081 17.4337 24.2831C17.2397 24.9076 17.01 25.462 16.6836 26.0309C16.5732 26.2306 16.4856 26.4269 16.4062 26.6406C16.9311 26.9824 17.4474 27.2447 18.0371 27.4511C18.0928 27.4707 18.1484 27.4902 18.2058 27.5104C19.4065 27.9155 20.8547 27.8879 22.0312 27.4218C22.0786 27.4034 22.126 27.385 22.1749 27.3661C22.6805 27.168 23.1478 26.9522 23.5937 26.6406C23.4914 26.3622 23.3626 26.1087 23.2173 25.8504C22.8913 25.2688 22.6662 24.7108 22.5 24.0625C22.2495 24.0966 22.0007 24.1316 21.7523 24.1787C21.1549 24.2898 20.5777 24.324 19.9707 24.3213C19.8323 24.3211 19.8323 24.3211 19.6911 24.321C19.1058 24.3145 18.5738 24.2698 18.0081 24.1137C17.7958 24.0493 17.7958 24.0493 17.5 24.0625ZM24.4824 25.2343C24.4185 25.2488 24.3547 25.2633 24.2889 25.2783C24.24 25.2896 24.191 25.3008 24.1406 25.3125C24.2171 25.6701 24.3506 25.9862 24.6093 26.25C24.84 26.3064 24.9941 26.2825 25.2343 26.25C25.157 25.889 25.0796 25.5281 25 25.1562C24.8173 25.1562 24.6605 25.1936 24.4824 25.2343ZM11.4746 27.7441C11.4228 27.7674 11.3709 27.7906 11.3176 27.8146C9.9176 28.472 8.86276 29.6729 8.28121 31.0937C8.21118 31.3147 8.1526 31.538 8.09536 31.7627C8.07045 31.859 8.07045 31.859 8.04505 31.9573C7.86811 32.6511 7.71109 33.3491 7.56071 34.0491C7.51407 34.2652 7.46621 34.481 7.41832 34.6968C7.38798 34.837 7.35772 34.9772 7.32753 35.1175C7.3063 35.2121 7.3063 35.2121 7.28464 35.3086C7.11427 36.0632 7.11427 36.0632 7.26869 36.7905C7.40605 36.9596 7.53854 37.0896 7.73433 37.1875C7.87875 37.1946 8.02343 37.1966 8.16803 37.1963C8.25873 37.1963 8.34944 37.1963 8.4429 37.1963C8.59036 37.1957 8.59036 37.1957 8.7408 37.1951C8.84116 37.195 8.94151 37.1949 9.04491 37.1948C9.3118 37.1945 9.57869 37.1937 9.84558 37.1928C10.1179 37.192 10.3902 37.1917 10.6625 37.1913C11.1969 37.1904 11.7312 37.1891 12.2656 37.1875C12.2662 37.1369 12.2668 37.0864 12.2675 37.0343C12.2742 36.5096 12.282 35.985 12.2904 35.4604C12.2934 35.2644 12.2961 35.0684 12.2985 34.8724C12.3021 34.5912 12.3066 34.3101 12.3114 34.0289C12.3123 33.9408 12.3132 33.8528 12.3141 33.7621C12.3156 33.6807 12.3172 33.5994 12.3188 33.5156C12.3198 33.4438 12.3209 33.372 12.322 33.298C12.3437 33.125 12.3437 33.125 12.5 32.9687C12.7734 32.9492 12.7734 32.9492 13.0468 32.9687C13.2453 33.1671 13.224 33.2404 13.228 33.5156C13.2296 33.5981 13.2311 33.6806 13.2327 33.7655C13.2336 33.8524 13.2345 33.9393 13.2354 34.0289C13.2368 34.1086 13.2382 34.1883 13.2396 34.2704C13.2445 34.5689 13.2481 34.8675 13.2519 35.166C13.2616 35.8331 13.2712 36.5002 13.2812 37.1875C15.3437 37.1875 17.4062 37.1875 19.5312 37.1875C19.5312 34.4031 19.5312 31.6187 19.5312 28.75C18.7578 28.5953 18.7578 28.5953 17.9687 28.4375C16.8423 28.0733 16.8423 28.0733 16.4633 27.7823C15.1446 26.7866 12.9122 27.0862 11.4746 27.7441ZM23.7216 27.6848C22.7263 28.3468 21.6501 28.5137 20.4687 28.75C20.4687 31.5343 20.4687 34.3187 20.4687 37.1875C22.5312 37.1875 24.5937 37.1875 26.7187 37.1875C26.7382 35.8575 26.7382 35.8575 26.7561 34.5276C26.7588 34.3614 26.7616 34.1951 26.7645 34.0289C26.7654 33.942 26.7663 33.8551 26.7672 33.7655C26.7687 33.6831 26.7703 33.6006 26.7719 33.5156C26.773 33.4438 26.774 33.372 26.7751 33.298C26.7968 33.125 26.7968 33.125 26.9531 32.9687C27.2265 32.9492 27.2265 32.9492 27.5 32.9687C27.6984 33.1671 27.6771 33.2404 27.6811 33.5156C27.6827 33.597 27.6842 33.6783 27.6858 33.7621C27.6867 33.8501 27.6876 33.9382 27.6886 34.0289C27.6901 34.1188 27.6916 34.2088 27.6931 34.3015C27.6978 34.5896 27.7014 34.8778 27.705 35.166C27.708 35.361 27.7111 35.556 27.7142 35.751C27.7217 36.2298 27.7283 36.7086 27.7343 37.1875C28.317 37.1965 28.8997 37.2035 29.4825 37.2077C29.7531 37.2097 30.0237 37.2125 30.2943 37.2169C30.6057 37.222 30.9171 37.2239 31.2286 37.2256C31.3253 37.2276 31.422 37.2296 31.5216 37.2317C32.0789 37.2436 32.0789 37.2436 32.5599 36.9995C32.8759 36.6324 32.8424 36.3285 32.8125 35.8593C32.7626 35.5254 32.6917 35.1973 32.6184 34.8678C32.5983 34.7752 32.5782 34.6826 32.5576 34.5872C32.5151 34.3925 32.4723 34.1978 32.4291 34.0032C32.3634 33.7069 32.2995 33.4102 32.2357 33.1135C32.1941 32.9235 32.1524 32.7336 32.1106 32.5436C32.0917 32.4557 32.0728 32.3678 32.0533 32.2772C31.8949 31.5346 31.8949 31.5346 31.5625 30.8593C31.3222 30.7813 31.1899 30.7585 30.9472 30.7568C30.8272 30.7492 30.7073 30.7408 30.5874 30.7318C30.5278 30.7277 30.4681 30.7237 30.4066 30.7195C28.9847 30.5841 27.466 29.6874 26.5625 28.5937C25.9037 27.7019 25.9037 27.7019 25.7031 27.2656C24.9076 27.1809 24.3921 27.2382 23.7216 27.6848Z" fill="#D91374"/>
<path d="M5.7814 9.9219C5.99482 10.0903 6.07718 10.2757 6.18179 10.5225C6.49326 11.1613 7.00141 11.5654 7.65762 11.8222C8.34376 12.0559 9.02266 11.9959 9.68765 11.7188C10.402 11.3489 10.7675 10.7939 11.1736 10.1224C11.2502 10 11.2502 10 11.3283 9.9219C11.7445 9.8857 11.7445 9.8857 11.9386 10.0196C12.0448 10.176 12.0803 10.2819 12.1095 10.4688C11.9415 11.2674 11.3515 11.9412 10.713 12.417C9.86441 12.9682 8.88631 13.1716 7.88864 13.0081C6.91198 12.7857 6.06899 12.3442 5.47745 11.5106C5.36305 11.3224 5.25666 11.1336 5.1564 10.9375C5.12629 10.8842 5.09618 10.831 5.06516 10.7761C4.95912 10.5297 5.0171 10.3323 5.07828 10.0781C5.34931 9.89746 5.46281 9.88871 5.7814 9.9219Z" fill="#D91374"/>
<path d="M34.0697 25.6765C34.5519 26.1238 34.9873 26.7613 35.078 27.4218C34.995 27.6464 34.995 27.6464 34.8436 27.8124C34.6102 27.9107 34.4977 27.9051 34.2576 27.827C34.0529 27.6479 33.9899 27.5279 33.8768 27.2851C33.5599 26.6132 33.148 26.3036 32.4724 26.0112C31.7813 25.7646 31.1394 25.818 30.4686 26.0936C29.8825 26.3966 29.5217 26.7976 29.1951 27.3635C28.9469 27.793 28.9469 27.793 28.7108 27.9052C28.446 27.8853 28.3218 27.8362 28.1248 27.6561C28.0214 27.1494 28.2526 26.7466 28.5155 26.328C29.1216 25.4873 29.9382 25.0226 30.9325 24.7899C32.112 24.6696 33.1316 24.9327 34.0697 25.6765Z" fill="#D91374"/>
<path d="M6.64924 5.9286C6.98071 6.12379 7.18717 6.42324 7.37312 6.75288C7.45316 7.08106 7.50309 7.42533 7.33894 7.73433C7.09912 7.8581 6.90501 7.84077 6.64069 7.81245C6.41186 7.67831 6.40104 7.55927 6.32819 7.29976C6.27574 7.01198 6.27574 7.01198 6.01569 6.87495C5.77883 6.83726 5.77883 6.83726 5.54694 6.95308C5.44177 7.1505 5.37047 7.34585 5.30158 7.55855C5.23444 7.73433 5.23444 7.73433 5.07819 7.81245C4.76168 7.83266 4.64512 7.83624 4.37507 7.6562C4.30284 7.25798 4.32678 6.89712 4.50202 6.53316C5.1095 5.86173 5.77302 5.56466 6.64924 5.9286Z" fill="#D91374"/>
<path d="M11.9619 5.92843C12.3192 6.13957 12.5771 6.49535 12.7346 6.87509C12.7581 7.05117 12.7581 7.05117 12.759 7.23153C12.7603 7.29125 12.7616 7.35097 12.763 7.4125C12.7273 7.62096 12.6692 7.68824 12.5002 7.81259C12.2268 7.84677 12.2268 7.84677 11.9533 7.81259C11.7158 7.59962 11.6596 7.32842 11.5627 7.03134C11.5111 6.97978 11.4596 6.92821 11.4065 6.87509C11.1255 6.90034 11.1255 6.90034 10.8596 6.95321C10.8445 7.00216 10.8294 7.0511 10.8138 7.10153C10.7935 7.16538 10.7731 7.22923 10.7522 7.29501C10.7322 7.35846 10.7123 7.4219 10.6917 7.48727C10.6252 7.65634 10.6252 7.65634 10.469 7.81259C9.98195 7.85686 9.98195 7.85686 9.78964 7.71463C9.62914 7.49983 9.65083 7.3185 9.66055 7.05819C9.72046 6.65433 9.92916 6.37486 10.2297 6.10849C10.7806 5.715 11.3391 5.67096 11.9619 5.92843Z" fill="#D91374"/>
<path d="M35.2293 21.8507C35.561 22.1738 35.7111 22.527 35.7322 22.9884C35.7029 23.2813 35.7029 23.2813 35.6199 23.4376C35.3773 23.5628 35.1889 23.5491 34.9217 23.5157C34.7239 23.3392 34.672 23.164 34.575 22.9151C34.4825 22.6533 34.4825 22.6533 34.3016 22.5733C34.0836 22.5799 34.0007 22.5952 33.8279 22.7345C33.7559 22.8915 33.7006 23.0481 33.6491 23.213C33.5936 23.3595 33.5936 23.3595 33.4373 23.5157C33.1688 23.545 33.1688 23.545 32.8904 23.5157C32.7292 23.3537 32.6621 23.2518 32.6338 23.0238C32.6809 22.5045 32.8257 22.1628 33.2029 21.797C33.8326 21.3903 34.6286 21.3747 35.2293 21.8507Z" fill="#D91374"/>
<path d="M29.9952 21.8505C30.3269 22.1736 30.477 22.5268 30.4981 22.9882C30.4688 23.2812 30.4688 23.2812 30.3858 23.4374C30.1432 23.5627 29.9548 23.5489 29.6876 23.5155C29.4957 23.3435 29.4544 23.2074 29.3849 22.9589C29.3176 22.7217 29.3176 22.7217 29.1114 22.6171C28.913 22.5667 28.913 22.5667 28.7403 22.6073C28.5412 22.7799 28.4925 22.965 28.415 23.2128C28.3595 23.3593 28.3595 23.3593 28.2032 23.5155C27.7284 23.5673 27.7284 23.5673 27.5001 23.4032C27.3607 23.0459 27.4292 22.7024 27.5538 22.3464C27.7471 21.9521 28.0464 21.7466 28.4376 21.5624C28.9621 21.3914 29.5641 21.5089 29.9952 21.8505Z" fill="#D91374"/>
<path d="M18.9012 19.1357C19.1405 19.2188 19.1405 19.2188 19.3553 19.3799C19.7043 19.5879 19.9932 19.6063 20.3905 19.5312C20.5629 19.4405 20.715 19.3364 20.8736 19.2236C21.0155 19.1406 21.0155 19.1406 21.2743 19.1357C21.5209 19.2332 21.6078 19.29 21.7186 19.5312C21.7186 19.8225 21.685 19.9527 21.4843 20.166C20.81 20.5874 20.2582 20.7181 19.453 20.625C19.0434 20.5098 18.6527 20.3118 18.3593 20C18.2714 19.7705 18.2714 19.7705 18.2811 19.5312C18.4695 19.2629 18.5662 19.1429 18.9012 19.1357Z" fill="#D91374"/>
<path d="M23.1248 13.828C23.3178 14.0169 23.3574 14.1257 23.3904 14.3966C23.3897 14.4909 23.3891 14.5853 23.3885 14.6825C23.3891 14.7767 23.3897 14.8709 23.3904 14.9679C23.3571 15.2525 23.3047 15.4032 23.1248 15.6249C22.8514 15.664 22.8514 15.664 22.578 15.6249C22.4186 15.5049 22.3529 15.4354 22.312 15.2386C22.3095 15.0548 22.3078 14.8712 22.3094 14.6874C22.3079 14.6234 22.3063 14.5593 22.3047 14.4933C22.3051 14.0277 22.3051 14.0277 22.487 13.8229C22.731 13.7176 22.8744 13.7481 23.1248 13.828Z" fill="#D91374"/>
<path d="M17.2805 13.7549C17.5002 13.8282 17.5002 13.8282 17.6564 13.9844C17.6911 14.2155 17.6818 14.4492 17.6808 14.6826C17.6821 14.747 17.6834 14.8114 17.6847 14.8778C17.6847 14.9398 17.6848 15.0018 17.6848 15.0656C17.6852 15.1507 17.6852 15.1507 17.6855 15.2374C17.6477 15.4365 17.5829 15.5045 17.4221 15.625C17.1486 15.6641 17.1486 15.6641 16.8752 15.625C16.5696 15.2458 16.5977 14.864 16.6085 14.3967C16.6381 14.1619 16.6534 14.0468 16.8068 13.8721C17.0314 13.75 17.0314 13.75 17.2805 13.7549Z" fill="#D91374"/>
</svg>
