<svg width="43" height="43" viewBox="0 0 43 43" fill="none" xmlns="http://www.w3.org/2000/svg">
<path d="M17.6124 3.50702C18.9386 3.44657 20.0668 3.90321 21.0485 4.77663C21.1716 4.89141 21.2944 5.00665 21.4159 5.12306C21.6922 5.0022 21.873 4.85006 22.0878 4.64015C22.9903 3.82759 24.1603 3.46453 25.3668 3.50407C26.5976 3.6195 27.6809 4.13917 28.5202 5.04269C29.4748 6.21391 29.6969 7.42858 29.5624 8.90236C29.4624 9.43929 29.3006 9.88505 29.0094 10.3454C28.9525 10.4356 28.9525 10.4356 28.8944 10.5277C28.8654 10.5733 28.8364 10.619 28.8066 10.666C28.8756 10.6662 28.8756 10.6662 28.9461 10.6664C30.0692 10.6695 31.1922 10.6745 32.3153 10.6815C32.8584 10.6848 33.4015 10.6875 33.9446 10.6888C34.469 10.6901 34.9934 10.693 35.5178 10.697C35.7176 10.6982 35.9174 10.6989 36.1172 10.6989C36.3976 10.6991 36.678 10.7014 36.9584 10.7042C37.0405 10.7037 37.1226 10.7033 37.2072 10.7029C37.9947 10.7148 38.58 10.9778 39.1544 11.5121C39.8175 12.2259 39.9189 12.95 39.9207 13.8952C39.9213 13.9967 39.9218 14.0981 39.9224 14.2027C39.9233 14.4172 39.9237 14.6318 39.9236 14.8463C39.924 15.1723 39.927 15.4983 39.9302 15.8243C39.9307 16.0334 39.9311 16.2424 39.9312 16.4514C39.9324 16.548 39.9336 16.6445 39.9349 16.7439C39.9297 17.6721 39.7083 18.3991 39.0609 19.0743C38.7984 19.3099 38.4969 19.5684 38.1288 19.5684C38.1291 19.6581 38.1293 19.7478 38.1295 19.8402C38.1351 22.0236 38.1393 24.2071 38.1419 26.3906C38.1432 27.4466 38.145 28.5025 38.1478 29.5584C38.1504 30.4789 38.152 31.3994 38.1525 32.3198C38.1529 32.8071 38.1536 33.2944 38.1555 33.7816C38.1572 34.2406 38.1577 34.6995 38.1573 35.1585C38.1574 35.3266 38.1579 35.4947 38.1589 35.6628C38.1656 36.8958 38.1395 37.8557 37.2303 38.7775C36.6614 39.2978 36.0483 39.4828 35.282 39.4837C35.1822 39.484 35.0824 39.4844 34.9796 39.4847C34.8703 39.4846 34.761 39.4845 34.6484 39.4845C34.5308 39.4847 34.4133 39.4849 34.2957 39.4852C33.9727 39.4859 33.6497 39.486 33.3267 39.4861C32.9784 39.4863 32.63 39.4869 32.2816 39.4875C31.5199 39.4886 30.7581 39.4891 29.9963 39.4895C29.5206 39.4897 29.0449 39.4901 28.5692 39.4905C27.2518 39.4915 25.9344 39.4923 24.6171 39.4926C24.5328 39.4926 24.4485 39.4927 24.3616 39.4927C24.2771 39.4927 24.1926 39.4927 24.1056 39.4927C23.9343 39.4928 23.7631 39.4928 23.5919 39.4928C23.5069 39.4929 23.422 39.4929 23.3345 39.4929C21.9583 39.4932 20.5822 39.4947 19.2061 39.4967C17.7929 39.4986 16.3798 39.4997 14.9667 39.4998C14.1734 39.4999 13.3801 39.5004 12.5868 39.5019C11.9112 39.5032 11.2357 39.5036 10.5601 39.5029C10.2156 39.5026 9.87103 39.5027 9.52648 39.5038C9.21071 39.5049 8.89497 39.5048 8.5792 39.5038C8.4116 39.5035 8.244 39.5045 8.0764 39.5056C7.04666 39.4999 6.30736 39.3052 5.56619 38.5741C4.9787 37.9318 4.85781 37.2573 4.86093 36.4042C4.86085 36.3322 4.86078 36.2602 4.86071 36.186C4.86057 35.9447 4.86103 35.7034 4.86149 35.4622C4.86151 35.2892 4.8615 35.1162 4.86145 34.9432C4.86143 34.4735 4.86192 34.0038 4.86251 33.5341C4.86303 33.0433 4.86308 32.5525 4.86318 32.0616C4.86344 31.1321 4.86413 30.2027 4.86498 29.2732C4.86591 28.215 4.86638 27.1568 4.8668 26.0987C4.86768 23.9219 4.86915 21.7451 4.87103 19.5684C4.792 19.5434 4.71298 19.5185 4.63156 19.4928C4.04625 19.2883 3.63664 18.831 3.35931 18.2876C3.17331 17.882 3.09709 17.5427 3.09249 17.0962C3.09087 16.9591 3.09087 16.9591 3.08922 16.8192C3.0886 16.7207 3.08798 16.6222 3.08734 16.5207C3.08666 16.4187 3.08599 16.3168 3.08529 16.2118C3.08413 15.9959 3.08322 15.78 3.08256 15.5641C3.08112 15.2357 3.07744 14.9073 3.07373 14.5788C3.07288 14.3688 3.07216 14.1587 3.07159 13.9486C3.07012 13.8512 3.06865 13.7537 3.06714 13.6532C3.06943 12.7858 3.27461 12.1203 3.87502 11.4852C4.53152 10.8659 5.12215 10.7252 6.01281 10.7232C6.10135 10.7224 6.18989 10.7215 6.28112 10.7207C6.57285 10.7181 6.86458 10.7167 7.15632 10.7152C7.35896 10.7137 7.5616 10.712 7.76423 10.7103C8.2969 10.706 8.82956 10.7027 9.36223 10.6995C9.90605 10.6962 10.4499 10.6919 10.9937 10.6877C12.0602 10.6796 13.1267 10.6724 14.1933 10.666C14.1643 10.6203 14.1353 10.5747 14.1055 10.5276C14.0675 10.4674 14.0296 10.4072 13.9905 10.3452C13.9528 10.2857 13.9152 10.2262 13.8764 10.1648C13.2933 9.19914 13.2963 7.91455 13.4929 6.83391C13.8408 5.67861 14.6345 4.65112 15.6969 4.07824C16.3307 3.75798 16.9039 3.57031 17.6124 3.50702ZM16.02 6.19386C15.4267 6.81855 15.2518 7.45399 15.2621 8.30069C15.3317 9.1054 15.7593 9.694 16.3598 10.2071C17.0117 10.7018 17.7337 10.7614 18.5339 10.7582C18.5927 10.7581 18.6515 10.758 18.7121 10.7579C18.8978 10.7574 19.0834 10.7563 19.2691 10.7553C19.3959 10.7548 19.5227 10.7545 19.6495 10.7541C19.9584 10.7532 20.2672 10.7517 20.5761 10.75C20.5824 10.3348 20.5869 9.91964 20.5899 9.5044C20.5912 9.36349 20.5929 9.22258 20.5951 9.08169C20.6116 7.9991 20.6123 7.04433 19.8202 6.21486C18.6644 5.17881 17.1648 5.1166 16.02 6.19386ZM23.2439 6.13776C22.5886 6.83969 22.4091 7.47669 22.4156 8.42896C22.4157 8.49548 22.4158 8.56199 22.4159 8.63052C22.4164 8.84186 22.4174 9.0532 22.4185 9.26454C22.4189 9.40829 22.4193 9.55203 22.4197 9.69578C22.4206 10.0472 22.422 10.3986 22.4238 10.75C22.7911 10.7542 23.1585 10.7572 23.5259 10.7592C23.6505 10.7601 23.7751 10.7612 23.8997 10.7627C25.0489 10.7759 26.1017 10.7575 26.9799 9.93117C27.5731 9.30648 27.748 8.67104 27.7377 7.82434C27.6682 7.01963 27.2406 6.43103 26.64 5.91796C25.5923 5.12289 24.1929 5.25345 23.2439 6.13776ZM5.03899 13.0176C4.95989 13.2549 4.94314 13.4063 4.94014 13.6525C4.93907 13.7299 4.93799 13.8073 4.93688 13.887C4.93626 13.9704 4.93564 14.0539 4.935 14.1399C4.93432 14.226 4.93364 14.312 4.93294 14.4007C4.93178 14.5829 4.93088 14.7651 4.93022 14.9473C4.92877 15.2255 4.92509 15.5036 4.92138 15.7817C4.92053 15.9588 4.91982 16.1359 4.91925 16.313C4.91778 16.3959 4.91631 16.4789 4.91479 16.5644C4.91631 17.0461 4.95289 17.3478 5.29095 17.7207C5.56312 17.8939 5.77826 17.9095 6.09771 17.9089C6.19357 17.9091 6.28943 17.9093 6.3882 17.9096C6.49301 17.909 6.59782 17.9084 6.70581 17.9078C6.81644 17.9078 6.92707 17.9078 7.04106 17.9078C7.34418 17.9079 7.64728 17.9069 7.9504 17.9057C8.26727 17.9047 8.58414 17.9046 8.90101 17.9044C9.50093 17.9038 10.1009 17.9025 10.7008 17.9008C11.5115 17.8986 12.3223 17.8976 13.1331 17.8967C14.4103 17.8951 15.6875 17.8917 16.9648 17.8887C16.9648 16.1427 16.9648 14.3966 16.9648 12.5977C14.947 12.5854 14.947 12.5854 12.9293 12.5772C12.1065 12.5747 11.2837 12.5717 10.4609 12.566C9.86163 12.5618 9.26242 12.5591 8.66317 12.5582C8.34592 12.5576 8.02871 12.5563 7.71146 12.5533C7.41269 12.5504 7.11398 12.5495 6.8152 12.5502C6.65361 12.55 6.49202 12.5477 6.33044 12.5454C5.75327 12.5489 5.42153 12.5646 5.03899 13.0176ZM18.8124 12.5977C18.8124 14.3437 18.8124 16.0897 18.8124 17.8887C20.5862 17.8887 22.3599 17.8887 24.1874 17.8887C24.1874 16.1427 24.1874 14.3966 24.1874 12.5977C22.4137 12.5977 20.6399 12.5977 18.8124 12.5977ZM26.0351 12.5977C26.0351 14.3437 26.0351 16.0897 26.0351 17.8887C28.0379 17.8985 28.0379 17.8985 30.0407 17.9051C30.8575 17.9071 31.6742 17.9094 32.4909 17.914C33.0857 17.9174 33.6805 17.9195 34.2753 17.9203C34.5902 17.9207 34.9051 17.9218 35.22 17.9242C35.5717 17.9269 35.9233 17.927 36.275 17.9268C36.3792 17.928 36.4834 17.9292 36.5908 17.9305C37.3032 17.9296 37.3032 17.9296 37.8769 17.5527C38.045 17.3105 38.0663 17.1143 38.0679 16.823C38.0687 16.7453 38.0695 16.6677 38.0703 16.5877C38.0703 16.5044 38.0702 16.4211 38.0701 16.3353C38.0707 16.2061 38.0707 16.2061 38.0712 16.0743C38.0717 15.8922 38.0717 15.7101 38.0714 15.5281C38.0711 15.2498 38.0731 14.9715 38.0752 14.6932C38.0754 14.5162 38.0754 14.3392 38.0754 14.1622C38.0765 14.0375 38.0765 14.0375 38.0777 13.9103C38.0759 13.337 38.0759 13.337 37.7929 12.8496C37.5227 12.6027 37.3457 12.5664 36.9829 12.5674C36.8864 12.567 36.7898 12.5667 36.6903 12.5663C36.5319 12.5677 36.5319 12.5677 36.3703 12.5691C36.2578 12.5691 36.1452 12.5691 36.0326 12.569C35.7272 12.5689 35.4219 12.5704 35.1165 12.5721C34.7973 12.5737 34.478 12.5738 34.1588 12.5741C33.5544 12.5749 32.95 12.577 32.3457 12.5795C31.5289 12.5829 30.7121 12.5842 29.8953 12.5857C28.6086 12.5881 27.3218 12.5931 26.0351 12.5977ZM6.71868 19.7363C6.71134 22.7372 6.71134 22.7372 6.70638 25.7381C6.70488 26.9616 6.70312 28.1852 6.69967 29.4087C6.69716 30.2997 6.69554 31.1907 6.69498 32.0818C6.69465 32.5536 6.69388 33.0254 6.69204 33.4972C6.69033 33.9413 6.6898 34.3855 6.69018 34.8296C6.69011 34.9926 6.68961 35.1555 6.68865 35.3184C6.68739 35.5411 6.6877 35.7638 6.68838 35.9864C6.68728 36.0829 6.68728 36.0829 6.68616 36.1813C6.68973 36.6099 6.77277 36.9072 6.97063 37.2891C7.28747 37.5957 7.6089 37.6356 8.03682 37.6351C8.15492 37.6353 8.15492 37.6353 8.27542 37.6355C8.4046 37.635 8.4046 37.635 8.5364 37.6345C8.67507 37.6346 8.67507 37.6346 8.81654 37.6346C9.11588 37.6345 9.41522 37.6339 9.71456 37.6332C9.89933 37.6331 10.0841 37.633 10.2689 37.633C10.9541 37.6325 11.6394 37.6313 12.3246 37.6303C13.8559 37.6285 15.3871 37.6268 16.9648 37.625C16.9648 31.7218 16.9648 25.8185 16.9648 19.7363C13.5836 19.7363 10.2024 19.7363 6.71868 19.7363ZM18.8124 19.7363C18.8124 25.6396 18.8124 31.5429 18.8124 37.625C20.5862 37.625 22.3599 37.625 24.1874 37.625C24.1874 31.7218 24.1874 25.8185 24.1874 19.7363C22.4137 19.7363 20.6399 19.7363 18.8124 19.7363ZM26.0351 19.7363C26.0351 25.6396 26.0351 31.5429 26.0351 37.625C28.3242 37.6328 28.3242 37.6328 30.6595 37.6408C31.3815 37.6442 31.3815 37.6442 32.1181 37.6477C32.5506 37.6486 32.5506 37.6486 32.9832 37.6491C33.1754 37.6494 33.3677 37.6503 33.5599 37.6516C33.8515 37.6535 34.1432 37.6537 34.4349 37.6536C34.5201 37.6545 34.6053 37.6554 34.6931 37.6564C35.1763 37.6542 35.5188 37.6059 35.9452 37.3731C36.3255 36.9801 36.2932 36.5369 36.2913 36.0167C36.2914 35.9472 36.2914 35.8776 36.2915 35.8059C36.2916 35.5725 36.2912 35.3391 36.2907 35.1057C36.2907 34.9385 36.2907 34.7714 36.2908 34.6042C36.2908 34.1499 36.2903 33.6957 36.2897 33.2414C36.2892 32.7669 36.2891 32.2923 36.289 31.8177C36.2888 30.9188 36.2881 30.02 36.2872 29.1211C36.2861 27.9066 36.2857 26.6922 36.2852 25.4777C36.2844 23.5639 36.2827 21.6501 36.2812 19.7363C32.9 19.7363 29.5188 19.7363 26.0351 19.7363Z" fill="white"/>
</svg>
