<svg width="24" height="24" viewBox="0 0 24 24" fill="none" xmlns="http://www.w3.org/2000/svg">
<g clip-path="url(#clip0_115_201)">
<path d="M14.6948 -0.00781032C14.7458 -0.00800245 14.7969 -0.00819458 14.8495 -0.00839254C15.0139 -0.00883855 15.1783 -0.0088395 15.3428 -0.00872585C15.4264 -0.00875346 15.4264 -0.00875346 15.5117 -0.00878164C17.3419 -0.00805471 17.3419 -0.00805471 18.2344 0.140688C18.2344 1.40913 18.2344 2.67756 18.2344 3.98444C17.1504 4.00495 17.1504 4.00495 16.8125 4.01107C15.4483 3.97843 15.4483 3.97843 14.291 4.59381C13.9766 4.97677 13.9187 5.51503 13.9123 5.99319C13.9118 6.02389 13.9113 6.0546 13.9108 6.08623C13.9094 6.1844 13.9082 6.28257 13.907 6.38074C13.9057 6.47147 13.9057 6.47147 13.9044 6.56403C13.9012 6.78913 13.8984 7.01422 13.8955 7.23932C13.8887 7.74302 13.882 8.24672 13.875 8.76569C15.2672 8.76569 16.6594 8.76569 18.0938 8.76569C18.0399 9.51958 18.0399 9.51958 17.9985 9.83207C17.9939 9.86839 17.9892 9.90471 17.9844 9.94213C17.9697 10.0567 17.9547 10.1713 17.9398 10.2858C17.9305 10.3578 17.9212 10.4297 17.912 10.5016C17.878 10.7648 17.8438 11.0279 17.8096 11.2911C17.7332 11.8808 17.6568 12.4706 17.5781 13.0782C16.3561 13.0782 15.1341 13.0782 13.875 13.0782C13.875 16.6824 13.875 20.2866 13.875 24.0001C12.4055 24.0001 10.9359 24.0001 9.42188 24.0001C9.42188 20.3958 9.42188 16.7916 9.42188 13.0782C8.21531 13.0782 7.00875 13.0782 5.76562 13.0782C5.76562 11.6551 5.76562 10.2319 5.76562 8.76569C6.97219 8.76569 8.17875 8.76569 9.42188 8.76569C9.41818 7.65092 9.41818 7.65092 9.41343 6.53615C9.40839 4.78358 9.50543 3.0133 10.7344 1.64069C10.7718 1.59881 10.8093 1.55694 10.8479 1.5138C11.8483 0.455672 13.2626 -0.00613438 14.6948 -0.00781032Z" fill="white"/>
</g>
<defs>
<clipPath id="clip0_115_201">
<rect width="24" height="24" fill="white"/>
</clipPath>
</defs>
</svg>
