<svg width="24" height="24" viewBox="0 0 24 24" fill="none" xmlns="http://www.w3.org/2000/svg">
<g clip-path="url(#clip0_115_197)">
<path d="M9.54127 -0.0125777C9.7756 -0.0123349 10.0099 -0.0125619 10.2443 -0.0127076C10.6373 -0.0128767 11.0303 -0.0126575 11.4233 -0.012207C11.8732 -0.0116971 12.323 -0.0118624 12.7729 -0.0123782C13.164 -0.012808 13.5551 -0.0128615 13.9462 -0.0126183C14.1777 -0.0124746 14.4091 -0.0124459 14.6406 -0.0127624C18.8422 -0.0177092 18.8422 -0.0177092 20.5781 0.89064C20.6062 0.905263 20.6344 0.919886 20.6634 0.934952C21.0606 1.14366 21.4191 1.38239 21.75 1.68752C21.7786 1.71387 21.8073 1.74022 21.8368 1.76737C23.1043 2.94847 23.7331 4.43171 23.9531 6.14064C23.9596 6.19086 23.9596 6.19086 23.9663 6.2421C24.0176 6.71429 24.0073 7.18933 24.0075 7.66363C24.0077 7.76564 24.008 7.86765 24.0082 7.96965C24.0088 8.24581 24.0092 8.52197 24.0094 8.79813C24.0095 8.97124 24.0097 9.14435 24.0099 9.31746C24.0105 9.86073 24.011 10.404 24.0112 10.9473C24.0112 11.0399 24.0112 11.0399 24.0112 11.1343C24.0112 11.1653 24.0113 11.1962 24.0113 11.2281C24.0115 11.7584 24.0124 12.2888 24.0136 12.8192C24.0146 13.3035 24.0151 13.7877 24.0151 14.272C24.0152 14.5603 24.0154 14.8485 24.0163 15.1368C24.0234 17.7028 23.8877 20.1461 22.0019 22.084C20.728 23.3446 18.9965 23.8474 17.2469 23.9575C17.2152 23.9595 17.1835 23.9615 17.1508 23.9635C16.2821 24.0166 15.4129 24.0138 14.543 24.0126C14.3073 24.0124 14.0717 24.0126 13.836 24.0127C13.4408 24.0129 13.0456 24.0127 12.6504 24.0122C12.198 24.0117 11.7455 24.0119 11.2931 24.0124C10.8998 24.0128 10.5065 24.0129 10.1132 24.0126C9.88046 24.0125 9.64768 24.0125 9.4149 24.0128C8.5578 24.0138 7.70252 24.0113 6.84684 23.9575C6.75795 23.9519 6.75795 23.9519 6.66727 23.9462C5.08754 23.835 3.47537 23.3747 2.30289 22.266C2.21671 22.1847 2.12863 22.1109 2.03611 22.0371C0.742896 20.9282 0.22954 19.0668 0.0937259 17.4375C0.0840494 17.293 0.076517 17.1484 0.0695559 17.0037C0.0675792 16.963 0.0656024 16.9222 0.0635657 16.8803C0.0426745 16.4333 0.029675 15.9864 0.0204837 15.5391C0.0195065 15.4921 0.0185293 15.4452 0.0175225 15.3968C-0.0339195 12.8002 -0.053965 10.1893 0.0468509 7.59377C0.0489058 7.54077 0.0489058 7.54077 0.0510022 7.48671C0.144996 5.14603 0.702189 3.23997 2.43748 1.60255C2.71329 1.35399 3.00405 1.16421 3.3281 0.98439C3.35568 0.968808 3.38327 0.953226 3.41169 0.937172C5.27084 -0.101267 7.47731 -0.0153999 9.54127 -0.0125777ZM3.53263 3.63429C2.01934 5.21015 2.24244 7.71815 2.24214 9.73439C2.2421 9.85902 2.242 9.98364 2.24188 10.1083C2.24145 10.5464 2.24125 10.9844 2.24129 11.4225C2.24132 11.8255 2.24083 12.2284 2.24008 12.6313C2.23946 12.9817 2.23922 13.332 2.23925 13.6823C2.23926 13.8896 2.23914 14.0968 2.23863 14.3041C2.23672 15.1423 2.24643 15.9778 2.29258 16.8148C2.29541 16.8673 2.29541 16.8673 2.2983 16.9209C2.37245 18.2628 2.65967 19.4447 3.60935 20.4375C3.65331 20.4867 3.65331 20.4867 3.69816 20.5369C4.67171 21.5884 6.27376 21.7396 7.61776 21.7917C8.23473 21.8112 8.85225 21.8149 9.46946 21.8218C9.63163 21.8237 9.79379 21.8258 9.95595 21.8279C11.342 21.8455 12.7274 21.8465 14.1135 21.8303C14.3127 21.828 14.512 21.8258 14.7112 21.824C15.5081 21.8168 16.3034 21.8057 17.0987 21.7533C17.1544 21.7496 17.2102 21.746 17.2676 21.7422C18.5023 21.652 19.5791 21.3154 20.4844 20.4375C20.5131 20.4123 20.5418 20.387 20.5713 20.361C21.5855 19.4373 21.7654 17.9195 21.8283 16.6296C21.859 15.9024 21.8515 15.1738 21.8516 14.4461C21.8516 14.3123 21.8517 14.1784 21.8518 14.0446C21.8523 13.5748 21.8524 13.105 21.8524 12.6352C21.8524 12.202 21.8529 11.7688 21.8536 11.3355C21.8542 10.9598 21.8545 10.584 21.8545 10.2082C21.8544 9.98552 21.8546 9.7628 21.8551 9.54007C21.8568 8.70428 21.8535 7.87067 21.8011 7.03627C21.7955 6.94641 21.7955 6.94641 21.7897 6.85473C21.6975 5.53801 21.3267 4.41854 20.3906 3.46877C20.3444 3.42163 20.3444 3.42163 20.2972 3.37355C18.7353 1.89873 16.0521 2.1952 14.0792 2.19684C13.887 2.19697 13.6948 2.19685 13.5026 2.19678C13.1803 2.19669 12.858 2.1968 12.5357 2.19703C12.1669 2.19728 11.7982 2.1972 11.4294 2.19694C11.1086 2.19673 10.7877 2.1967 10.4669 2.19682C10.2771 2.1969 10.0874 2.19691 9.89757 2.19675C6.46844 2.09855 6.46843 2.09855 3.53263 3.63429Z" fill="white"/>
<path d="M16.0183 7.23179C16.1347 7.33423 16.2473 7.43968 16.3594 7.54691C16.3967 7.58075 16.4341 7.61459 16.4725 7.64945C17.5745 8.68494 18.1895 10.2294 18.2445 11.7256C18.2843 13.3947 17.7567 14.9729 16.606 16.2019C16.571 16.2384 16.536 16.2749 16.5 16.3125C16.4645 16.351 16.4291 16.3894 16.3925 16.429C15.7612 17.0923 14.965 17.5493 14.1094 17.8594C14.0603 17.8773 14.0111 17.8952 13.9605 17.9136C12.4034 18.4359 10.6729 18.257 9.21094 17.5371C8.5783 17.2115 8.04248 16.7747 7.54688 16.2657C7.52313 16.244 7.49939 16.2224 7.47492 16.2001C6.49183 15.282 5.91573 13.7644 5.85354 12.4381C5.80472 10.696 6.28095 9.08706 7.48774 7.79814C7.52272 7.76164 7.55771 7.72514 7.59375 7.68754C7.62922 7.64911 7.66469 7.61068 7.70124 7.57108C9.86718 5.2956 13.6618 5.26077 16.0183 7.23179ZM9.375 9.04691C9.33929 9.07815 9.30358 9.10939 9.26679 9.14158C8.53113 9.82879 8.10344 10.8291 8.055 11.8265C8.02834 12.9439 8.41075 13.9467 9.17652 14.7547C9.21108 14.7892 9.24564 14.8238 9.28125 14.8594C9.31388 14.892 9.34651 14.9247 9.38013 14.9583C10.1571 15.6899 11.1736 16.0234 12.2304 15.9961C13.1583 15.9521 14.0272 15.5615 14.7188 14.9532C14.7545 14.9219 14.7902 14.8907 14.827 14.8585C15.5656 14.1685 15.9773 13.1605 16.0386 12.1619C16.0726 11.1115 15.6913 10.1141 15 9.32816C14.9688 9.29245 14.9375 9.25674 14.9053 9.21995C14.2154 8.48132 13.2073 8.0696 12.2087 8.00834C11.1583 7.97427 10.1609 8.35559 9.375 9.04691Z" fill="white"/>
<path d="M19.3368 4.39207C19.6407 4.64099 19.8456 4.955 19.9219 5.34386C19.9659 5.82612 19.8635 6.2325 19.5518 6.60728C19.2083 6.94119 18.8528 7.04453 18.3876 7.04642C18.0083 7.04009 17.661 6.93422 17.3906 6.65636C17.1013 6.27707 16.9423 5.89925 16.977 5.41655C17.0404 5.00874 17.227 4.67545 17.543 4.40929C18.093 4.01861 18.7777 4.01583 19.3368 4.39207Z" fill="white"/>
</g>
<defs>
<clipPath id="clip0_115_197">
<rect width="24" height="24" fill="white"/>
</clipPath>
</defs>
</svg>
