<svg width="24" height="24" viewBox="0 0 24 24" fill="none" xmlns="http://www.w3.org/2000/svg">
<g clip-path="url(#clip0_115_195)">
<path d="M23.7656 -7.5236e-05C22.8517 -0.0176248 21.9378 -0.0308349 21.0237 -0.0389344C20.5993 -0.0427958 20.1749 -0.0480558 19.7505 -0.0566548C19.3804 -0.0641497 19.0104 -0.0689732 18.6403 -0.0706416C18.4444 -0.0716165 18.2487 -0.0738923 18.0529 -0.0793728C16.8622 -0.111434 16.8622 -0.111434 16.5725 0.0732235C16.3975 0.243937 16.2944 0.434488 16.2078 0.661249C16.1579 0.784276 16.0852 0.885467 16.0063 0.991624C15.96 1.05949 15.9136 1.12736 15.8672 1.19524C15.6153 1.56358 15.3628 1.93146 15.1098 2.29907C15.0029 2.45453 14.896 2.61004 14.7891 2.76555C14.7461 2.82805 14.7031 2.89055 14.6602 2.95305C11.8242 7.07805 11.8242 7.07805 11.7597 7.1719C11.717 7.23406 11.6742 7.29622 11.6315 7.35837C11.5205 7.51981 11.4095 7.68131 11.2987 7.84288C11.2758 7.87621 11.253 7.90953 11.2294 7.94386C11.1861 8.00696 11.1428 8.07007 11.0996 8.13319C10.9645 8.33001 10.8268 8.52476 10.6875 8.71867C10.5043 8.54022 10.3355 8.35308 10.1689 8.1591C10.1424 8.12835 10.1159 8.0976 10.0886 8.06592C10.0069 7.9711 9.92528 7.87615 9.84375 7.78117C9.81934 7.75276 9.79493 7.72435 9.76978 7.69507C9.60671 7.50521 9.44394 7.3151 9.28125 7.12492C8.9677 6.75839 8.65324 6.39271 8.33709 6.02842C8.07234 5.7232 7.80952 5.41633 7.54688 5.1093C7.23333 4.74277 6.91887 4.37708 6.60271 4.0128C6.33797 3.70757 6.07515 3.40071 5.8125 3.09367C5.49895 2.72714 5.18449 2.36146 4.86834 1.99717C4.55415 1.63495 4.24253 1.27052 3.93109 0.905931C3.90665 0.877353 3.88222 0.848776 3.85704 0.819333C3.81131 0.765859 3.76561 0.712357 3.71996 0.658818C3.67616 0.607608 3.63144 0.55717 3.58594 0.507459C3.51093 0.421488 3.51093 0.421488 3.4541 0.309316C3.36053 0.162088 3.29203 0.0896413 3.14062 -7.5236e-05C2.78079 -0.0723021 2.40345 -0.039527 2.03906 -0.0264424C1.93689 -0.0243247 1.83472 -0.0224 1.73254 -0.0206746C1.48306 -0.0160421 1.23374 -0.00899809 0.984375 -7.5236e-05C1.02856 0.0595345 1.07284 0.119072 1.11716 0.178578C1.15413 0.228322 1.15413 0.228322 1.19185 0.279071C1.29246 0.409785 1.40137 0.527397 1.51465 0.647386C1.71899 0.866191 1.91006 1.09248 2.09784 1.32579C2.20726 1.45805 2.32125 1.58458 2.4375 1.71086C2.63033 1.92039 2.81113 2.13698 2.98993 2.35851C3.12491 2.52206 3.26751 2.67789 3.41034 2.83458C3.51853 2.95631 3.62136 3.08121 3.72363 3.20793C3.90455 3.43164 4.09556 3.64357 4.29034 3.85521C4.44127 4.0233 4.58245 4.19838 4.7243 4.37413C4.85929 4.53768 5.00189 4.69352 5.14471 4.85021C5.2529 4.97194 5.35573 5.09683 5.45801 5.22356C5.63893 5.44727 5.82994 5.65919 6.02472 5.87084C6.17565 6.03893 6.31683 6.214 6.45868 6.38976C6.56045 6.51307 6.66574 6.63177 6.77344 6.74992C6.91943 6.91011 7.05899 7.07361 7.19531 7.24211C7.3646 7.45137 7.54156 7.65133 7.72284 7.85021C7.83103 7.97194 7.93385 8.09683 8.03613 8.22356C8.21705 8.44727 8.40806 8.65919 8.60284 8.87084C8.75341 9.03852 8.89434 9.21306 9.03552 9.38866C9.17562 9.5578 9.32481 9.71766 9.47589 9.877C9.56936 9.9928 9.62486 10.0727 9.65625 10.2187C9.60331 10.3449 9.60331 10.3449 9.50684 10.4677C9.45409 10.5417 9.45409 10.5417 9.40027 10.6173C9.38095 10.6438 9.36163 10.6702 9.34172 10.6975C9.25777 10.8137 9.1772 10.932 9.09644 11.0504C9.03107 11.1461 8.96533 11.2416 8.89948 11.3371C8.76872 11.5266 8.63824 11.7164 8.50781 11.9062C8.46484 11.9687 8.42188 12.0312 8.37891 12.0937C7.43359 13.4687 6.48828 14.8437 5.54297 16.2187C5.52171 16.2496 5.50044 16.2805 5.47854 16.3124C5.43549 16.375 5.39245 16.4376 5.3494 16.5002C5.24318 16.6548 5.13693 16.8093 5.03064 16.9637C4.77257 17.3388 4.51517 17.7144 4.25816 18.0902C4.03217 18.4206 3.80548 18.7505 3.57857 19.0803C3.47161 19.2358 3.36471 19.3913 3.25781 19.5468C3.21484 19.6093 3.17188 19.6718 3.12891 19.7343C2.52734 20.6093 1.92578 21.4843 1.32422 22.3593C1.30292 22.3903 1.28163 22.4212 1.25969 22.4532C1.21697 22.5153 1.17426 22.5775 1.13158 22.6396C1.02047 22.8014 0.909025 22.9629 0.797058 23.1241C0.773975 23.1575 0.750893 23.1908 0.727112 23.2251C0.683336 23.2883 0.63946 23.3514 0.595459 23.4144C0.575459 23.4434 0.555458 23.4723 0.534851 23.5021C0.517513 23.527 0.500175 23.5519 0.482311 23.5776C0.394028 23.7152 0.315207 23.8578 0.234375 23.9999C1.14668 24.0208 2.05893 24.0365 2.97142 24.0461C3.39517 24.0507 3.81877 24.0569 4.24243 24.0671C4.61193 24.076 4.98131 24.0817 5.35092 24.0837C5.54649 24.0849 5.74176 24.0876 5.93723 24.0941C7.12223 24.1321 7.12223 24.1321 7.43556 23.9144C7.63411 23.7105 7.75759 23.482 7.86939 23.2223C7.95325 23.0417 8.0688 22.886 8.18555 22.7255C8.22782 22.6644 8.26995 22.6032 8.31189 22.5419C8.33257 22.5118 8.35325 22.4817 8.37456 22.4508C8.48152 22.2953 8.58841 22.1398 8.69531 21.9843C8.73828 21.9218 8.78125 21.8593 8.82422 21.7968C9.76953 20.4218 10.7148 19.0468 11.6602 17.6718C11.6814 17.6409 11.7027 17.6099 11.7246 17.5781C11.7676 17.5155 11.8107 17.4529 11.8537 17.3902C11.9599 17.2357 12.0662 17.0812 12.1725 16.9267C12.3026 16.7377 12.4326 16.5485 12.5625 16.3593C12.5871 16.3236 12.6116 16.2878 12.6369 16.251C12.9753 15.7583 13.3106 15.2639 13.6406 14.7655C13.9467 15.0913 14.2444 15.4193 14.5245 15.7681C14.6249 15.8905 14.7292 16.0079 14.8359 16.1249C14.981 16.2841 15.1196 16.4466 15.2549 16.6142C15.4358 16.8379 15.6268 17.0498 15.8216 17.2615C15.9725 17.4296 16.1137 17.6046 16.2556 17.7804C16.3905 17.9439 16.5331 18.0998 16.676 18.2565C16.7842 18.3782 16.887 18.5031 16.9893 18.6298C17.1702 18.8535 17.3612 19.0654 17.556 19.2771C17.7069 19.4452 17.8481 19.6203 17.9899 19.796C18.1249 19.9596 18.2675 20.1154 18.4103 20.2721C18.5185 20.3938 18.6214 20.5187 18.7236 20.6454C18.9046 20.8691 19.0956 21.0811 19.2903 21.2927C19.4413 21.4608 19.5825 21.6359 19.7243 21.8116C19.8593 21.9752 20.0019 22.131 20.1447 22.2877C20.2529 22.4094 20.3557 22.5343 20.458 22.6611C20.6385 22.8842 20.8289 23.0956 21.0233 23.3067C21.1826 23.4841 21.3325 23.6681 21.4821 23.8538C21.5625 23.953 21.5625 23.953 21.6094 23.9999C21.677 24.0043 21.7449 24.0054 21.8126 24.0052C21.8774 24.0052 21.8774 24.0052 21.9434 24.0052C21.9904 24.005 22.0373 24.0048 22.0856 24.0045C22.1334 24.0044 22.1812 24.0044 22.2305 24.0043C22.3838 24.004 22.5371 24.0035 22.6904 24.0029C22.7941 24.0026 22.8978 24.0024 23.0014 24.0022C23.2562 24.0017 23.5109 24.0009 23.7656 23.9999C23.721 23.9399 23.6763 23.8799 23.6316 23.82C23.6067 23.7866 23.5818 23.7532 23.5561 23.7188C23.4704 23.6066 23.3783 23.5027 23.2822 23.3993C23.1331 23.2363 22.9904 23.0702 22.8516 22.8984C22.6823 22.6891 22.5053 22.4891 22.324 22.2903C22.2158 22.1685 22.113 22.0436 22.0107 21.9169C21.8298 21.6932 21.6388 21.4813 21.444 21.2696C21.2931 21.1015 21.1519 20.9265 21.0101 20.7507C20.8751 20.5872 20.7325 20.4313 20.5897 20.2746C20.4815 20.1529 20.3786 20.028 20.2764 19.9013C20.0954 19.6776 19.9044 19.4657 19.7097 19.254C19.5587 19.0859 19.4175 18.9108 19.2757 18.7351C19.1407 18.5715 18.9981 18.4157 18.8553 18.259C18.7471 18.1373 18.6443 18.0124 18.542 17.8857C18.3611 17.662 18.1701 17.45 17.9753 17.2384C17.8244 17.0703 17.6832 16.8952 17.5413 16.7195C17.4063 16.5559 17.2637 16.4001 17.1209 16.2434C17.0127 16.1217 16.9099 15.9968 16.8076 15.87C16.6267 15.6463 16.4357 15.4344 16.2409 15.2228C16.09 15.0547 15.9488 14.8796 15.8069 14.7038C15.6723 14.5407 15.5301 14.3853 15.3876 14.2291C15.2376 14.0602 15.0963 13.8847 14.9551 13.7083C14.8594 13.5937 14.8594 13.5937 14.7504 13.4966C14.7245 13.4668 14.6986 13.4369 14.6719 13.4062C14.7005 13.1981 14.8287 13.046 14.9473 12.8788C14.9945 12.8112 15.0418 12.7436 15.089 12.676C15.1132 12.6415 15.1374 12.607 15.1624 12.5715C15.2734 12.413 15.3828 12.2533 15.4922 12.0937C15.5351 12.0312 15.5781 11.9687 15.6211 11.9062C16.0508 11.2812 16.4805 10.6562 16.9102 10.0312C16.9314 10.0002 16.9527 9.96932 16.9746 9.93746C17.0176 9.87485 17.0607 9.81223 17.1037 9.74962C17.2099 9.5951 17.3162 9.44059 17.4225 9.28612C17.6806 8.91102 17.938 8.53546 18.195 8.15963C18.421 7.82923 18.6476 7.4993 18.8746 7.16953C18.9815 7.01407 19.0884 6.85856 19.1953 6.70305C19.2383 6.64055 19.2812 6.57805 19.3242 6.51555C20.2695 5.14055 21.2148 3.76555 22.1602 2.39055C22.192 2.34416 22.192 2.34416 22.2246 2.29683C22.2676 2.23422 22.3107 2.17161 22.3537 2.10899C22.4599 1.95447 22.5662 1.79997 22.6725 1.64549C22.757 1.52273 22.8414 1.39992 22.9257 1.27709C23.026 1.13108 23.1265 0.98525 23.2271 0.839463C23.2826 0.758839 23.3381 0.678212 23.3936 0.597581C23.4198 0.559585 23.4461 0.521589 23.4732 0.482442C23.51 0.428858 23.51 0.428858 23.5475 0.374192C23.5693 0.342635 23.5911 0.311079 23.6135 0.278565C23.6714 0.188201 23.7184 0.0961787 23.7656 -7.5236e-05ZM20.8594 1.59367C20.8075 1.67565 20.7555 1.75758 20.7036 1.83951C20.6746 1.88514 20.6457 1.93077 20.6159 1.97779C20.5055 2.14922 20.3892 2.31567 20.2705 2.48137C20.2215 2.55033 20.1725 2.6193 20.1235 2.68828C20.0982 2.72382 20.0729 2.75937 20.0469 2.79599C19.9126 2.98544 19.7795 3.1758 19.6465 3.36614C19.6054 3.42491 19.6054 3.42491 19.5634 3.48487C19.5076 3.56465 19.4518 3.64443 19.396 3.72422C19.2589 3.92034 19.1216 4.11638 18.9844 4.31242C18.9297 4.39055 18.875 4.46867 18.8203 4.5468C18.7797 4.60481 18.7797 4.60481 18.7383 4.66399C18.6562 4.78117 18.5742 4.89836 18.4922 5.01555C18.4651 5.05421 18.4381 5.09287 18.4102 5.1327C18.3554 5.21094 18.3006 5.28918 18.2459 5.36742C18.1104 5.56102 17.9748 5.75459 17.8392 5.94811C17.5164 6.40891 17.1945 6.87041 16.8734 7.33241C16.5892 7.74118 16.3038 8.14914 16.018 8.55688C15.8817 8.75139 15.7456 8.94597 15.6094 9.14055C15.5547 9.21867 15.5 9.2968 15.4453 9.37492C15.3359 9.53117 15.2266 9.68742 15.1172 9.84367C15.0901 9.88234 15.0631 9.921 15.0352 9.96083C14.9804 10.0391 14.9256 10.1173 14.8709 10.1955C14.7354 10.3891 14.5998 10.5827 14.4642 10.7762C14.1414 11.237 13.8195 11.6985 13.4984 12.1605C13.2142 12.5693 12.9288 12.9773 12.643 13.385C12.5067 13.5795 12.3706 13.7741 12.2344 13.9687C12.1797 14.0468 12.125 14.1249 12.0703 14.203C11.9609 14.3593 11.8516 14.5155 11.7422 14.6718C11.7151 14.7105 11.6881 14.7491 11.6602 14.789C11.6054 14.8672 11.5506 14.9454 11.4959 15.0237C11.3604 15.2173 11.2248 15.4108 11.0892 15.6044C10.7664 16.0652 10.4445 16.5267 10.1234 16.9887C9.83916 17.3974 9.55375 17.8054 9.26802 18.2131C9.13174 18.4076 8.99556 18.6022 8.85938 18.7968C8.80469 18.8749 8.75 18.9531 8.69531 19.0312C8.36719 19.4999 8.03906 19.9687 7.71094 20.4374C7.68384 20.4761 7.65674 20.5149 7.62881 20.5547C7.57443 20.6324 7.52004 20.7101 7.46567 20.7879C7.32442 20.9897 7.18306 21.1914 7.0415 21.3931C6.99773 21.4555 6.99773 21.4555 6.95306 21.5191C6.89781 21.5979 6.84251 21.6766 6.78717 21.7553C6.76185 21.7914 6.73653 21.8275 6.71045 21.8647C6.67768 21.9114 6.67768 21.9114 6.64426 21.959C6.5625 22.078 6.5625 22.0781 6.51578 22.1838C6.44936 22.3154 6.39237 22.4022 6.28125 22.4999C6.04343 22.5598 5.80973 22.5491 5.56677 22.5411C5.49676 22.5403 5.42675 22.5397 5.35674 22.5393C5.17311 22.5377 4.98963 22.5336 4.80606 22.5289C4.61849 22.5246 4.43089 22.5226 4.24329 22.5205C3.87567 22.516 3.50816 22.5088 3.14062 22.4999C3.19302 22.4172 3.24546 22.3345 3.29792 22.2519C3.32712 22.2058 3.35632 22.1598 3.3864 22.1123C3.47906 21.9683 3.5759 21.8298 3.67676 21.6913C3.8882 21.3988 4.09495 21.1031 4.30078 20.8066C4.54045 20.4614 4.78041 20.1165 5.02148 19.7724C5.06152 19.7152 5.06152 19.7152 5.10237 19.6569C5.15599 19.5804 5.20961 19.5039 5.26323 19.4273C5.39951 19.2328 5.53569 19.0383 5.67188 18.8437C5.72656 18.7655 5.78125 18.6874 5.83594 18.6093C5.94531 18.4531 6.05469 18.2968 6.16406 18.1405C6.19113 18.1019 6.21819 18.0632 6.24607 18.0234C6.30084 17.9452 6.3556 17.8669 6.41036 17.7887C6.54587 17.5951 6.6814 17.4015 6.81702 17.208C7.13987 16.7472 7.4617 16.2857 7.78285 15.8237C8.06709 15.4149 8.3525 15.007 8.63823 14.5992C8.77451 14.4047 8.91069 14.2101 9.04688 14.0155C9.10156 13.9374 9.15625 13.8593 9.21094 13.7812C9.32031 13.6249 9.42969 13.4687 9.53906 13.3124C9.56612 13.2738 9.59319 13.2351 9.62107 13.1953C9.67584 13.117 9.7306 13.0388 9.78536 12.9606C9.92087 12.767 10.0564 12.5734 10.192 12.3799C10.5149 11.9191 10.8367 11.4576 11.1579 10.9956C11.4421 10.5868 11.7275 10.1788 12.0132 9.7711C12.1495 9.57659 12.2857 9.382 12.4219 9.18742C12.4766 9.1093 12.5312 9.03117 12.5859 8.95305C12.9141 8.4843 13.2422 8.01555 13.5703 7.5468C13.6109 7.48881 13.6109 7.48881 13.6523 7.42965C13.7071 7.35141 13.7619 7.27317 13.8166 7.19493C13.9521 7.00133 14.0877 6.80776 14.2233 6.61424C14.5461 6.15344 14.868 5.69194 15.1891 5.22994C15.4733 4.82117 15.7587 4.41321 16.0445 4.00547C16.2079 3.77228 16.3711 3.539 16.5344 3.30571C16.6756 3.10389 16.8169 2.90215 16.9585 2.70055C17.0023 2.63814 17.0023 2.63814 17.0469 2.57448C17.1022 2.49572 17.1575 2.41698 17.2128 2.33827C17.2508 2.28412 17.2508 2.28412 17.2896 2.22887C17.3114 2.19777 17.3332 2.16667 17.3557 2.13463C17.4375 2.01555 17.4375 2.01555 17.4842 1.90977C17.5506 1.77815 17.6076 1.6914 17.7188 1.59367C17.9566 1.5338 18.1903 1.54445 18.4332 1.55248C18.5032 1.55326 18.5732 1.55386 18.6433 1.55429C18.8269 1.55589 19.0104 1.56003 19.1939 1.56471C19.3815 1.56904 19.5691 1.57095 19.7567 1.57308C20.1243 1.57759 20.4918 1.58478 20.8594 1.59367Z" fill="white"/>
</g>
<defs>
<clipPath id="clip0_115_195">
<rect width="24" height="24" fill="white" transform="matrix(-1 0 0 1 24 0)"/>
</clipPath>
</defs>
</svg>
