<svg width="40" height="40" viewBox="0 0 40 40" fill="none" xmlns="http://www.w3.org/2000/svg">
<path d="M16.7966 1.25C17.2349 1.25 17.6732 1.25 18.1248 1.25C18.1773 2.24889 17.8846 3.0685 17.3435 3.90625C17.2773 3.97016 17.2111 4.03406 17.1428 4.0999C16.8607 4.43766 16.901 4.80594 16.9092 5.22736C16.9094 5.309 16.9096 5.39065 16.9098 5.47477C16.9106 5.64688 16.9123 5.81898 16.9148 5.99108C16.9187 6.25426 16.9196 6.51734 16.9201 6.78055C16.9212 6.94804 16.9224 7.11553 16.9239 7.28302C16.9243 7.36156 16.9247 7.4401 16.9252 7.52102C16.9264 7.59456 16.9277 7.66809 16.9289 7.74385C16.9298 7.80819 16.9306 7.87253 16.9315 7.93882C16.9571 8.16166 16.9995 8.31902 17.1091 8.51562C17.3997 8.68474 17.6656 8.69162 17.9969 8.69209C18.1451 8.69283 18.1451 8.69283 18.2963 8.69359C18.4035 8.69331 18.5107 8.69299 18.6179 8.69263C18.7285 8.69273 18.8391 8.69288 18.9497 8.69308C19.1812 8.69331 19.4126 8.69298 19.644 8.69225C19.9401 8.69136 20.2361 8.69187 20.5322 8.6928C20.7604 8.69337 20.9887 8.69319 21.217 8.69278C21.3261 8.69268 21.4353 8.69281 21.5444 8.69317C21.6972 8.69357 21.8499 8.69285 22.0026 8.69209C22.0894 8.69197 22.1762 8.69184 22.2656 8.69172C22.506 8.67134 22.6758 8.62442 22.8904 8.51562C23.1215 8.16206 23.0778 7.70513 23.0839 7.29675C23.0858 7.17579 23.0858 7.17579 23.0877 7.05238C23.0898 6.88178 23.0915 6.71117 23.0928 6.54057C23.0946 6.36721 23.0977 6.19385 23.1024 6.02055C23.1713 4.74213 23.1713 4.74213 22.5743 3.66766C22.5239 3.61749 22.4735 3.56732 22.4216 3.51562C21.9762 2.802 21.8428 2.08188 21.8748 1.25C22.313 1.25 22.7513 1.25 23.2029 1.25C23.2206 1.38857 23.2383 1.52715 23.2566 1.66992C23.3983 2.50662 23.7912 3.22747 24.4861 3.73108C25.286 4.23356 26.073 4.29865 26.9953 4.31156C28.2814 4.33422 29.2851 4.47767 30.3123 5.3125C30.3773 5.36144 30.4424 5.41039 30.5094 5.46082C31.2004 6.04722 31.7036 7.00271 31.8748 7.89062C31.8955 8.19912 31.893 8.50654 31.89 8.81561C31.8897 8.94711 31.8897 8.94711 31.8893 9.08126C31.8885 9.35985 31.8865 9.63841 31.8845 9.91699C31.8837 10.1065 31.883 10.2959 31.8824 10.4854C31.8807 10.9486 31.878 11.4118 31.8748 11.875C31.4623 11.875 31.0498 11.875 30.6248 11.875C30.6232 11.7852 30.6217 11.6955 30.6201 11.603C30.6141 11.2658 30.6071 10.9286 30.6 10.5914C30.597 10.4462 30.5943 10.301 30.5918 10.1559C30.5691 8.20244 30.5691 8.20244 29.6107 6.54846C28.9856 5.98508 28.2835 5.78466 27.4656 5.69336C27.4084 5.68661 27.3513 5.67986 27.2924 5.67291C27.1532 5.65654 27.014 5.64071 26.8748 5.625C26.786 6.74356 26.9431 7.42197 27.6775 8.28697C27.7288 8.34662 27.7802 8.40626 27.833 8.46771C28.6867 9.47385 28.8393 10.627 28.7689 11.9022C28.6756 12.9104 28.1453 13.7531 27.4808 14.4916C27.3332 14.6576 27.2081 14.801 27.1091 15C27.1237 15.1973 27.1722 15.3353 27.2578 15.513C27.5208 16.0962 27.5298 16.6747 27.5291 17.3047C27.5291 17.3943 27.5291 17.484 27.5292 17.5764C27.519 18.365 27.3906 19.0586 27.1171 19.7995C27.1044 20.1185 27.2835 20.3432 27.446 20.6055C28.6419 22.6463 29.3724 25.0936 29.3934 27.4658C29.394 27.5367 29.3946 27.6077 29.3953 27.6807C29.3964 27.8312 29.3972 27.9817 29.3978 28.1322C29.3987 28.2803 29.4003 28.4284 29.4026 28.5765C29.4242 29.9438 29.2721 31.2787 29.0871 32.6305C29.0616 32.8173 29.0364 33.0041 29.0112 33.191C28.9039 33.9854 28.7931 34.7792 28.6801 35.5729C28.6313 35.9159 28.5834 36.2591 28.5357 36.6023C28.4983 36.8696 28.4604 37.1368 28.4223 37.4041C28.4043 37.5309 28.3865 37.6577 28.369 37.7846C28.3449 37.9591 28.3198 38.1336 28.2946 38.308C28.2806 38.4069 28.2666 38.5058 28.2522 38.6077C28.2359 38.6804 28.2197 38.7532 28.2029 38.8281C27.9613 38.9489 27.7583 38.877 27.4949 38.8379C27.3461 38.8164 27.3461 38.8164 27.1943 38.7946C26.9529 38.75 26.9529 38.75 26.8748 38.6719C26.8842 37.7926 27.0371 36.9145 27.1628 36.0461C27.1836 35.9007 27.2043 35.7552 27.225 35.6098C27.2791 35.2299 27.3336 34.85 27.3883 34.4702C27.4758 33.8614 27.5628 33.2526 27.6496 32.6437C27.6798 32.4326 27.7102 32.2215 27.7406 32.0104C27.8658 31.1382 27.9799 30.2799 27.9844 29.3973C27.9848 29.3273 27.9853 29.2574 27.9857 29.1853C27.9865 29.0381 27.987 28.8908 27.9873 28.7436C27.988 28.5235 27.9905 28.3034 27.9929 28.0833C28.0001 26.8607 27.8781 25.6719 27.5242 24.4971C27.5043 24.4297 27.4843 24.3624 27.4638 24.293C27.3179 23.8139 27.1536 23.3429 26.9724 22.876C26.951 22.8196 26.9296 22.7632 26.9075 22.7051C26.6212 21.9982 26.235 21.3797 25.8591 20.7031C21.9919 20.7031 18.1248 20.7031 14.1404 20.7031C13.5275 21.7688 13.5275 21.7688 13.0271 22.876C13.0023 22.9399 12.9775 23.0038 12.952 23.0696C12.7741 23.5396 12.6178 24.0152 12.4753 24.4971C12.4483 24.5867 12.4483 24.5867 12.4208 24.6781C12.0807 25.8922 11.9852 27.1236 11.9919 28.3789C11.9921 28.4515 11.9923 28.524 11.9925 28.5988C11.9995 29.9954 12.1405 31.3485 12.35 32.7275C12.455 33.4195 12.5532 34.1125 12.6522 34.8054C12.6642 34.889 12.6642 34.889 12.6764 34.9744C12.6925 35.0873 12.7087 35.2003 12.7248 35.3133C12.7728 35.6487 12.8214 35.984 12.8707 36.3192C12.8941 36.4789 12.9173 36.6386 12.9405 36.7984C12.9692 36.9958 12.9982 37.1931 13.0275 37.3904C13.1516 38.2493 13.1516 38.2493 13.1248 38.6719C12.9674 38.8293 12.6767 38.8097 12.4607 38.8379C12.4058 38.8456 12.3509 38.8534 12.2944 38.8614C12.1549 38.8799 12.0148 38.8935 11.8748 38.9062C11.7022 38.7337 11.7219 38.3623 11.6886 38.1229C11.678 38.0488 11.6675 37.9748 11.6566 37.8984C11.6216 37.6519 11.587 37.4054 11.5525 37.1588C11.5283 36.9876 11.5041 36.8163 11.4798 36.6451C11.4289 36.2851 11.3782 35.925 11.3277 35.565C11.2632 35.1051 11.1982 34.6453 11.1331 34.1856C11.0829 33.8313 11.033 33.477 10.9831 33.1227C10.9592 32.9533 10.9353 32.784 10.9113 32.6146C10.8776 32.3764 10.8442 32.1383 10.8109 31.9001C10.8011 31.831 10.7913 31.7618 10.7811 31.6906C10.6765 30.9381 10.6127 30.1901 10.6061 29.4302C10.6054 29.3567 10.6046 29.2832 10.6038 29.2075C10.5788 26.1837 10.5788 26.1837 10.9373 24.7656C10.9532 24.6984 10.9691 24.6311 10.9855 24.5618C11.3019 23.243 11.7662 21.8787 12.5087 20.738C12.8355 20.2397 12.8355 20.2397 12.8672 19.6597C12.7992 19.345 12.6911 19.051 12.5779 18.75C12.3174 17.6649 12.3817 16.3397 12.8123 15.3125C12.8748 15.1639 12.8748 15.1639 12.8904 15C12.8145 14.8479 12.8145 14.8479 12.6896 14.7064C12.6455 14.6515 12.6013 14.5966 12.5559 14.54C12.4846 14.4535 12.4846 14.4535 12.4119 14.3652C11.4287 13.1258 11.1036 11.9688 11.2498 10.3906C11.397 9.46305 11.9113 8.66778 12.5425 7.9892C13.1801 7.27137 13.152 6.55174 13.1248 5.625C11.9745 5.75944 10.9707 5.89301 10.156 6.79688C9.5509 7.63193 9.44826 8.49239 9.42817 9.49463C9.42654 9.56311 9.42492 9.63159 9.42325 9.70214C9.41818 9.91861 9.41355 10.1351 9.40894 10.3516C9.40556 10.4993 9.40215 10.647 9.39872 10.7947C9.3904 11.1548 9.38247 11.5149 9.37476 11.875C8.96226 11.875 8.54976 11.875 8.12476 11.875C8.11698 11.3247 8.11134 10.7745 8.10759 10.2242C8.10603 10.0373 8.10391 9.85049 8.10119 9.66366C8.09736 9.39368 8.09561 9.12376 8.09424 8.85376C8.09263 8.77145 8.09102 8.68913 8.08936 8.60432C8.08904 7.54883 8.5128 6.46067 9.23316 5.67841C10.2466 4.73704 11.3161 4.3612 12.6707 4.33594C13.9061 4.31251 15.0072 4.23814 15.9513 3.3609C16.519 2.73109 16.693 2.07936 16.7966 1.25ZM14.9558 5.42969C14.8725 5.45763 14.8725 5.45763 14.7875 5.48615C14.6499 5.53233 14.5123 5.57865 14.3748 5.625C14.3781 5.68349 14.3815 5.74198 14.3849 5.80225C14.4487 7.22338 14.3031 8.07122 13.3422 9.13033C12.6416 9.96772 12.4851 10.8144 12.5779 11.875C12.7032 12.577 13.1353 13.1397 13.5701 13.6873C13.6716 13.8281 13.6716 13.8281 13.7372 13.9704C13.8272 14.1474 13.906 14.2506 14.0623 14.375C14.4312 14.4642 14.8018 14.4596 15.1793 14.4606C15.2946 14.4629 15.4099 14.4654 15.5252 14.4681C15.838 14.4746 16.1508 14.4775 16.4638 14.4793C16.6596 14.4806 16.8555 14.4825 17.0514 14.4847C17.736 14.4921 18.4206 14.4962 19.1052 14.4978C19.7413 14.4994 20.3771 14.5085 21.0131 14.5212C21.5606 14.5317 22.1079 14.5365 22.6555 14.5369C22.9819 14.5373 23.308 14.54 23.6344 14.5487C24.9466 14.6285 24.9466 14.6285 26.1526 14.2327C26.5566 13.8475 26.809 13.3976 27.031 12.8906C27.0609 12.8265 27.0908 12.7624 27.1216 12.6963C27.48 11.9176 27.5779 11.0162 27.3142 10.1855C27.1245 9.73738 26.8399 9.35187 26.5488 8.96484C26.4986 8.89661 26.4986 8.89661 26.4474 8.827C26.3575 8.71034 26.2627 8.59746 26.1657 8.48669C25.675 7.89302 25.613 7.42214 25.6248 6.66504C25.6239 6.56458 25.6229 6.46413 25.622 6.36063C25.6202 6.11542 25.6221 5.8702 25.6248 5.625C25.2123 5.49609 24.7998 5.36719 24.3748 5.23438C24.3737 5.38566 24.3737 5.38566 24.3725 5.54001C24.3694 5.91627 24.3643 6.29247 24.3585 6.6687C24.3563 6.83115 24.3547 6.99361 24.3536 7.15607C24.3519 7.39038 24.3483 7.6246 24.3442 7.85889C24.3441 7.93085 24.3441 8.00282 24.344 8.07696C24.3318 8.62024 24.2066 9.03907 23.8477 9.45496C23.8041 9.4898 23.7605 9.52465 23.7156 9.56055C23.6722 9.5966 23.6288 9.63265 23.5841 9.6698C23.2184 9.90852 22.8811 9.94513 22.4528 9.94457C22.3651 9.94536 22.3651 9.94536 22.2756 9.94616C22.0829 9.94764 21.8902 9.94795 21.6975 9.94812C21.5629 9.94862 21.4283 9.94915 21.2937 9.9497C21.0118 9.95063 20.7299 9.95092 20.448 9.95083C20.0878 9.95081 19.7277 9.95294 19.3676 9.95564C19.0896 9.95738 18.8117 9.95769 18.5337 9.95761C18.401 9.95779 18.2683 9.95848 18.1356 9.95969C16.7472 9.97119 16.7472 9.97119 16.1698 9.47296C16.135 9.42935 16.1001 9.38575 16.0642 9.34082C16.0282 9.29741 15.9921 9.25401 15.955 9.20929C15.6752 8.78073 15.6767 8.37876 15.6705 7.88177C15.669 7.80603 15.6675 7.73028 15.666 7.65224C15.6613 7.41107 15.6577 7.1699 15.6541 6.92871C15.6511 6.76488 15.648 6.60105 15.6449 6.43723C15.6374 6.03628 15.6308 5.63534 15.6248 5.23438C15.4062 5.23438 15.1644 5.35935 14.9558 5.42969ZM14.1404 15.625C13.6367 17.01 13.674 18.0136 14.2185 19.375C18.0341 19.375 21.8498 19.375 25.781 19.375C26.0779 18.6328 26.1883 18.1369 26.196 17.373C26.1983 17.3 26.2006 17.227 26.2029 17.1518C26.2084 16.5366 26.0868 16.2511 25.8591 15.625C21.9919 15.625 18.1248 15.625 14.1404 15.625Z" fill="#D91374"/>
<path d="M20.4686 26.8752C20.8185 27.0439 21.0296 27.2603 21.2498 27.5783C21.3269 27.8096 21.3463 27.987 21.3605 28.2293C21.3658 28.3158 21.371 28.4024 21.3764 28.4916C21.3846 28.6344 21.3846 28.6344 21.3929 28.7801C21.3989 28.8806 21.4049 28.981 21.4111 29.0846C21.4275 29.3612 21.4436 29.6379 21.4595 29.9146C21.4729 30.146 21.4865 30.3774 21.5001 30.6088C21.6597 33.3221 21.8068 36.0361 21.9529 38.7502C21.7332 38.7653 21.5135 38.7799 21.2938 38.7941C21.2311 38.7985 21.1684 38.8029 21.1038 38.8074C20.9443 38.8175 20.7845 38.8232 20.6248 38.8283C20.4969 38.7004 20.5263 38.5498 20.5165 38.373C20.5118 38.2915 20.5071 38.2101 20.5023 38.1262C20.4974 38.0357 20.4926 37.9452 20.4876 37.852C20.4822 37.756 20.4768 37.6599 20.4712 37.561C20.4565 37.3004 20.4421 37.0398 20.428 36.7792C20.4146 36.535 20.4008 36.2907 20.3871 36.0465C20.3471 35.3315 20.3078 34.6165 20.2684 33.9015C20.1797 32.3047 20.0911 30.7079 19.9998 29.0627C19.8193 32.2853 19.6389 35.508 19.4529 38.8283C18.9746 38.8283 18.5847 38.817 18.1248 38.7502C18.1076 37.6586 18.162 36.5746 18.2246 35.4851C18.235 35.3004 18.2453 35.1158 18.2556 34.9311C18.2771 34.5464 18.2988 34.1617 18.3208 33.777C18.3488 33.2867 18.3764 32.7963 18.4038 32.3059C18.4302 31.834 18.4568 31.3622 18.4834 30.8903C18.4884 30.8018 18.4934 30.7133 18.4985 30.6222C18.5293 30.0762 18.5608 29.5303 18.5936 28.9845C18.5989 28.8942 18.5989 28.8942 18.6044 28.8021C18.6137 28.6475 18.6237 28.4929 18.6337 28.3384C18.6415 28.2174 18.6415 28.2174 18.6494 28.094C18.6951 27.6775 18.825 27.3967 19.1453 27.1193C19.5712 26.8112 19.9521 26.8265 20.4686 26.8752Z" fill="#D91374"/>
<path d="M36.6406 15.1562C36.8664 15.2585 37.0278 15.3677 37.2025 15.5429C37.2492 15.5893 37.2958 15.6357 37.3439 15.6835C37.418 15.7585 37.418 15.7585 37.4936 15.835C37.545 15.8864 37.5964 15.9378 37.6493 15.9908C37.7577 16.0994 37.8658 16.2081 37.9738 16.3171C38.1394 16.4842 38.3057 16.6506 38.4721 16.817C38.5773 16.9226 38.6824 17.0282 38.7875 17.1338C38.8374 17.1838 38.8873 17.2337 38.9387 17.2852C38.9846 17.3316 39.0305 17.378 39.0778 17.4258C39.1183 17.4667 39.1589 17.5075 39.2006 17.5495C39.3947 17.7647 39.4167 17.9818 39.4101 18.2676C39.272 18.9361 38.2561 19.6428 37.7783 20.1172C37.6829 20.2122 37.5876 20.3072 37.4922 20.4022C37.2606 20.6329 37.0288 20.8634 36.7969 21.0938C36.513 20.9613 36.3324 20.8017 36.1133 20.5762C36.0508 20.5123 35.9884 20.4485 35.9241 20.3827C35.8769 20.3337 35.8298 20.2848 35.7812 20.2344C36.0617 19.6734 36.5878 19.2716 37.0312 18.8281C34.4789 18.7895 34.4789 18.7895 31.875 18.75C31.875 18.3375 31.875 17.925 31.875 17.5C33.5766 17.4742 35.2781 17.4484 37.0312 17.4219C36.6188 17.0094 36.2063 16.5969 35.7812 16.1719C35.9314 15.8717 36.0619 15.7184 36.2988 15.4883C36.3627 15.4258 36.4265 15.3634 36.4923 15.2991C36.5413 15.2519 36.5902 15.2048 36.6406 15.1562Z" fill="#D91374"/>
<path d="M3.20308 15.1562C3.48691 15.2887 3.66757 15.4483 3.88668 15.6738C3.94911 15.7377 4.01155 15.8015 4.07588 15.8673C4.12302 15.9163 4.17015 15.9652 4.21871 16.0156C3.93823 16.5766 3.41218 16.9784 2.96871 17.4219C5.52105 17.4605 5.52105 17.4605 8.12496 17.5C8.12496 17.9125 8.12496 18.325 8.12496 18.75C6.42339 18.7758 4.72183 18.8016 2.96871 18.8281C3.38121 19.2406 3.79371 19.6531 4.21871 20.0781C4.0686 20.3783 3.93803 20.5316 3.70113 20.7617C3.63728 20.8242 3.57343 20.8866 3.50765 20.9509C3.4587 20.9981 3.40976 21.0452 3.35933 21.0938C3.13358 20.9915 2.97217 20.8823 2.79745 20.7071C2.7508 20.6607 2.70415 20.6143 2.65609 20.5665C2.60668 20.5165 2.55727 20.4665 2.50637 20.415C2.45497 20.3636 2.40358 20.3122 2.35062 20.2592C2.24229 20.1506 2.13415 20.0419 2.02619 19.9329C1.86051 19.7658 1.69422 19.5994 1.52782 19.433C1.42265 19.3274 1.31752 19.2218 1.21242 19.1162C1.16254 19.0662 1.11265 19.0163 1.06126 18.9648C1.01535 18.9184 0.969441 18.872 0.922141 18.8242C0.88162 18.7833 0.8411 18.7425 0.799352 18.7005C0.605267 18.4853 0.583277 18.2682 0.589843 17.9824C0.727988 17.3139 1.74385 16.6072 2.22164 16.1328C2.31702 16.0378 2.41239 15.9428 2.50774 15.8478C2.73931 15.6171 2.97113 15.3866 3.20308 15.1562Z" fill="#D91374"/>
<path d="M30.9375 21.25C31.016 21.4289 31.094 21.6079 31.1719 21.7871C31.1942 21.838 31.2166 21.8888 31.2396 21.9412C31.4062 22.326 31.4062 22.326 31.4062 22.5C31.2274 22.5785 31.0483 22.6565 30.8691 22.7344C30.8183 22.7567 30.7674 22.7791 30.715 22.8021C30.3302 22.9688 30.3302 22.9688 30.1562 22.9688C30.0778 22.8029 29.9997 22.6368 29.9219 22.4707C29.8784 22.3783 29.8349 22.2858 29.79 22.1906C29.6875 21.9531 29.6875 21.9531 29.6875 21.7969C29.8664 21.7053 30.0454 21.6143 30.2246 21.5234C30.2755 21.4974 30.3263 21.4713 30.3787 21.4444C30.7635 21.25 30.7635 21.25 30.9375 21.25Z" fill="#D91374"/>
<path d="M31.8749 23.5938C31.9781 24.0063 32.0812 24.4187 32.1874 24.8438C31.8713 24.9702 31.6335 25.0371 31.3036 25.0879C31.2202 25.101 31.1367 25.1141 31.0507 25.1276C30.9875 25.137 30.9244 25.1465 30.8593 25.1562C30.8048 24.9921 30.7512 24.8277 30.6982 24.6631C30.6683 24.5715 30.6384 24.48 30.6075 24.3857C30.5468 24.1406 30.5468 24.1406 30.6249 23.9062C30.8465 23.815 30.8465 23.815 31.123 23.7354C31.2138 23.7085 31.3047 23.6816 31.3983 23.6539C31.6406 23.5938 31.6406 23.5938 31.8749 23.5938Z" fill="#D91374"/>
<path d="M8.125 23.5938C8.60324 23.6789 9.01519 23.7749 9.45312 23.9844C9.41593 24.1504 9.37844 24.3164 9.34082 24.4824C9.31997 24.5749 9.29913 24.6673 9.27765 24.7626C9.21875 25 9.21875 25 9.14062 25.1562C8.99243 25.134 8.84433 25.1111 8.69629 25.0879C8.61381 25.0752 8.53133 25.0625 8.44635 25.0494C8.20312 25 8.20312 25 7.8125 24.8438C7.91563 24.4312 8.01875 24.0188 8.125 23.5938Z" fill="#D91374"/>
<path d="M9.0625 21.25C9.50664 21.3786 9.90366 21.5852 10.3125 21.7969C10.1876 22.2028 10.0202 22.5833 9.84375 22.9688C9.41661 22.8322 9.00326 22.683 8.59375 22.5C8.73032 22.0729 8.87953 21.6595 9.0625 21.25Z" fill="#D91374"/>
<path d="M9.29711 33.2811C9.3344 33.4931 9.36273 33.6975 9.38501 33.911C9.40756 34.1157 9.43012 34.3203 9.45336 34.5311C9.01508 34.5827 8.5768 34.6343 8.12524 34.6874C8.01946 34.2576 7.94134 33.8798 7.96899 33.4374C8.12081 33.2856 8.38588 33.3007 8.58911 33.2714C8.6881 33.2567 8.7871 33.242 8.88909 33.2268C9.14086 33.203 9.14086 33.203 9.29711 33.2811Z" fill="#D91374"/>
<path d="M7.57794 26.0156C8.01622 26.0672 8.4545 26.1187 8.90607 26.1719C8.88029 26.5844 8.8545 26.9969 8.82794 27.4219C7.78162 27.4323 7.78162 27.4323 7.49982 27.3438C7.49765 27.2396 7.49617 27.1354 7.49493 27.0312C7.49357 26.9442 7.49357 26.9442 7.49219 26.8555C7.50217 26.5742 7.54304 26.2949 7.57794 26.0156Z" fill="#D91374"/>
<path d="M9.60929 35.625C9.66086 36.0375 9.71242 36.45 9.76554 36.875C9.30605 36.9899 8.91047 37.0485 8.43742 37.0312C8.41094 36.8962 8.385 36.7611 8.35929 36.626C8.34479 36.5507 8.33029 36.4755 8.31535 36.398C8.28361 36.188 8.27497 35.9931 8.28117 35.7812C8.42921 35.7548 8.57734 35.7289 8.72551 35.7031C8.84923 35.6814 8.84923 35.6814 8.97544 35.6592C9.21867 35.625 9.21867 35.625 9.60929 35.625Z" fill="#D91374"/>
<path d="M30.7031 33.2031C30.9078 33.2273 31.1124 33.2515 31.3232 33.2764C31.3878 33.2838 31.4523 33.2913 31.5188 33.2989C31.9444 33.3507 31.9444 33.3507 32.0312 33.4375C32.0262 33.6037 32.0155 33.7698 32.002 33.9355C31.9949 34.0264 31.9879 34.1172 31.9806 34.2108C31.9531 34.4531 31.9531 34.4531 31.875 34.6875C31.4367 34.6359 30.9984 34.5844 30.5469 34.5312C30.5984 34.093 30.65 33.6547 30.7031 33.2031Z" fill="#D91374"/>
<path d="M7.5 28.5156C7.93828 28.5156 8.37656 28.5156 8.82812 28.5156C8.82812 28.9281 8.82812 29.3406 8.82812 29.7656C8.48061 29.8153 8.19753 29.8533 7.85645 29.8486C7.73882 29.847 7.62119 29.8454 7.5 29.8438C7.5 29.4055 7.5 28.9672 7.5 28.5156Z" fill="#D91374"/>
<path d="M32.4219 26.0156C32.4869 26.4625 32.5094 26.8924 32.5 27.3438C32.2002 27.4144 31.9238 27.4301 31.6162 27.4268C31.4696 27.4251 31.3229 27.4235 31.1719 27.4219C31.1461 27.0094 31.1203 26.5969 31.0938 26.1719C32.1582 26.0156 32.1582 26.0156 32.4219 26.0156Z" fill="#D91374"/>
<path d="M31.0938 30.8594C31.2729 30.8624 31.4521 30.8715 31.6309 30.8838C31.778 30.893 31.778 30.893 31.9281 30.9024C32.1875 30.9375 32.1875 30.9375 32.4219 31.0938C32.3703 31.4805 32.3188 31.8672 32.2656 32.2656C31.2012 32.1973 31.2012 32.1973 30.9375 32.1094C30.9485 31.9157 30.9599 31.722 30.9717 31.5283C30.9748 31.4731 30.9778 31.4178 30.981 31.3609C31.0068 30.9464 31.0068 30.9464 31.0938 30.8594Z" fill="#D91374"/>
<path d="M31.5312 28.5078C31.6475 28.5083 31.7637 28.5093 31.88 28.5106C32.0846 28.5122 32.2893 28.5138 32.5001 28.5154C32.5001 28.9537 32.5001 29.392 32.5001 29.8436C32.3237 29.846 32.3237 29.846 32.1437 29.8484C32.0775 29.8494 32.0113 29.8503 31.9432 29.8512C31.6821 29.8423 31.4299 29.8059 31.172 29.7654C31.1699 29.5718 31.1683 29.3781 31.1671 29.1844C31.1661 29.1015 31.1661 29.1015 31.1651 29.017C31.1644 28.8758 31.1679 28.7347 31.172 28.5936C31.2501 28.5154 31.2501 28.5154 31.5312 28.5078Z" fill="#D91374"/>
<path d="M30.3906 35.625C30.5388 35.6361 30.6869 35.6476 30.835 35.6592C30.9174 35.6655 30.9999 35.6719 31.0849 35.6784C31.3281 35.7031 31.3281 35.7031 31.7188 35.7812C31.6672 36.1938 31.6156 36.6062 31.5625 37.0312C30.498 36.9629 30.498 36.9629 30.2344 36.875C30.2454 36.7252 30.2569 36.5755 30.2686 36.4258C30.2749 36.3424 30.2812 36.259 30.2878 36.1731C30.3079 35.9815 30.3374 35.8094 30.3906 35.625Z" fill="#D91374"/>
<path d="M8.98414 30.9376C9.00992 31.3244 9.0357 31.7111 9.06227 32.1095C8.60743 32.2092 8.19919 32.286 7.73414 32.2658C7.66253 31.8451 7.64731 31.4422 7.65602 31.0158C7.80396 30.9872 7.95212 30.9598 8.10035 30.9328C8.18283 30.9174 8.26531 30.9019 8.35029 30.8861C8.59352 30.8595 8.59352 30.8595 8.98414 30.9376Z" fill="#D91374"/>
</svg>
