<svg width="40" height="40" viewBox="0 0 40 40" fill="none" xmlns="http://www.w3.org/2000/svg">
<path d="M15.7658 0.0656316C15.8437 0.0650497 15.8437 0.0650497 15.9231 0.0644562C16.094 0.0633196 16.2649 0.0627832 16.4358 0.0623509C16.4946 0.06213 16.5534 0.0619092 16.614 0.0616816C16.9256 0.0605122 17.2372 0.0597901 17.5488 0.0594518C17.8683 0.0590251 18.1877 0.0571513 18.5072 0.0549227C18.7549 0.0534561 19.0026 0.0530602 19.2502 0.0529411C19.3679 0.052707 19.4855 0.0520876 19.6031 0.0510517C21.2229 0.037812 22.5136 0.509897 23.6831 1.64743C24.6546 2.67653 25.0936 3.90837 25.0927 5.30283C25.0928 5.38296 25.0928 5.46308 25.0929 5.54564C25.0891 6.10191 25.042 6.63068 24.9575 7.18058C24.8194 8.11423 25.0469 8.75774 25.5615 9.53135C25.8314 9.94165 26.0445 10.2669 25.9845 10.7774C25.8726 11.1589 25.6561 11.4444 25.3125 11.6407C25.1317 11.698 24.9495 11.751 24.7656 11.797C24.768 11.876 24.7704 11.9551 24.7729 12.0365C24.7406 13.3907 23.992 14.7653 23.0468 15.7032C22.5189 16.1385 21.944 16.3996 21.25 16.4063C20.3588 16.3123 20.3588 16.3123 20.0781 16.172C20.9117 17.4531 22.0336 18.3629 23.2812 19.2188C25.1682 20.5429 26.3532 22.1312 26.8994 24.38C26.9461 24.6475 26.967 24.8858 26.9531 25.1563C27.0272 25.1676 27.1013 25.1789 27.1777 25.1905C27.7097 25.3433 28.1974 25.8247 28.4765 26.294C28.597 26.5601 28.6046 26.8092 28.6181 27.0986C28.645 27.6427 28.645 27.6427 28.9496 28.0802C29.1709 28.2084 29.3949 28.3252 29.6241 28.4386C31.0298 29.2046 31.9663 30.7673 32.4511 32.2413C33.0113 34.2637 32.814 36.4341 31.7868 38.2732C31.4554 38.8395 30.9923 39.6211 30.3906 39.922C29.8396 39.9664 29.8396 39.9664 29.5703 39.8048C29.4382 39.5847 29.3946 39.4086 29.4079 39.1511C29.4811 38.8813 29.6526 38.723 29.8434 38.5252C30.7083 37.6098 31.275 36.26 31.3281 35.0001C31.3321 34.9153 31.3361 34.8305 31.3403 34.7431C31.3816 33.079 30.8637 31.5649 29.7207 30.3431C29.2389 29.8682 28.7436 29.4938 28.125 29.2188C28.0993 29.2585 28.0736 29.2982 28.0471 29.3391C27.6484 29.9161 27.1654 30.2822 26.4843 30.4688C25.698 30.5498 24.9981 30.4725 24.3356 30.0239C23.7415 29.5404 23.4451 29.0028 23.3593 28.2423C23.3187 27.1927 23.8348 26.4561 24.519 25.7047C24.8303 25.4132 25.1895 25.1563 25.625 25.1563C25.2521 23.3338 24.4303 21.8957 22.9953 20.684C22.6369 20.4958 22.3324 20.5043 21.9336 20.503C21.3755 20.4888 20.8296 20.4614 20.2783 20.3712C20.1769 20.3547 20.0755 20.3382 19.971 20.3211C19.6392 20.2517 19.3213 20.1423 19.0008 20.0337C18.9465 20.0155 18.8923 19.9973 18.8364 19.9785C18.7034 19.9337 18.5704 19.8888 18.4375 19.8438C18.4441 20.9108 18.4515 21.9778 18.4599 23.0448C18.4638 23.5404 18.4674 24.0359 18.4704 24.5315C18.4733 25.0107 18.477 25.4899 18.4811 25.9691C18.4825 26.151 18.4837 26.3328 18.4846 26.5147C18.4968 28.8505 18.7395 30.7647 20.3125 32.5782C20.4848 32.7871 20.6549 32.9976 20.8252 33.2081C20.9131 33.3164 21.0011 33.4248 21.0891 33.5331C21.3224 33.8208 21.5538 34.1099 21.7846 34.3995C22.0088 34.6789 22.2349 34.9566 22.4609 35.2345C22.7844 35.6321 23.1065 36.0307 23.4259 36.4317C23.5598 36.5985 23.6946 36.7646 23.8299 36.9303C25.5207 39.0007 25.5207 39.0007 25.4687 39.5313C25.3497 39.7693 25.2595 39.8871 25.0036 39.9735C24.7927 39.9997 24.6559 39.9878 24.4531 39.922C24.1727 39.6983 23.9672 39.4245 23.75 39.1407C23.6799 39.0522 23.6097 38.9638 23.5394 38.8755C23.3918 38.6896 23.2455 38.5028 23.0999 38.3152C22.8647 38.0127 22.6223 37.7164 22.3788 37.4204C21.8194 36.7397 21.2646 36.0552 20.7153 35.3663C20.4912 35.0869 20.2651 34.8092 20.039 34.5313C19.9506 34.4225 19.8622 34.3137 19.7738 34.2048C19.6344 34.0332 19.4947 33.8619 19.3545 33.6909C19.2026 33.5041 19.0535 33.3156 18.9062 33.1251C18.8755 33.0855 18.8448 33.0459 18.8132 33.0051C17.7639 31.6377 17.1782 30.1631 17.1739 28.423C17.1734 28.3357 17.1729 28.2483 17.1723 28.1584C17.1712 27.9691 17.1703 27.7798 17.1695 27.5906C17.1682 27.2907 17.1664 26.9909 17.1644 26.691C17.1589 25.8386 17.1542 24.9861 17.1502 24.1337C17.1478 23.6119 17.1445 23.0901 17.1408 22.5683C17.1396 22.3698 17.1386 22.1713 17.1379 21.9728C17.137 21.6948 17.1351 21.4168 17.133 21.1388C17.133 21.0573 17.1329 20.9758 17.1329 20.8919C17.1256 20.1597 17.0756 19.494 16.5298 18.9527C16.0551 18.533 15.6348 18.4757 15.018 18.4861C14.5359 18.5427 14.2324 18.7877 13.916 19.1407C13.5447 19.6649 13.5036 20.1967 13.5055 20.826C13.5053 20.8834 13.5052 20.9407 13.5051 20.9998C13.5047 21.1888 13.505 21.3777 13.5052 21.5666C13.5052 21.6993 13.5051 21.8321 13.505 21.9649C13.5049 22.2434 13.505 22.5219 13.5054 22.8004C13.5058 23.1536 13.5056 23.5067 13.5051 23.8598C13.5048 24.1345 13.5049 24.4091 13.5051 24.6837C13.5052 24.8137 13.5051 24.9436 13.5049 25.0736C13.5012 28.4445 14.1929 31.6162 16.5631 34.1523C16.651 34.2394 16.7397 34.3256 16.8295 34.4108C16.9595 34.5376 17.0752 34.671 17.1923 34.8097C17.462 35.1233 17.753 35.4125 18.0468 35.7032C18.3758 36.0287 18.6931 36.3558 18.992 36.7094C19.2437 36.99 19.5151 37.2512 19.7832 37.5161C20.0657 37.7967 20.3353 38.0833 20.5914 38.3885C20.7151 38.5346 20.7151 38.5346 20.9277 38.7159C21.1446 38.9647 21.1718 39.1256 21.1718 39.4532C21.0667 39.6835 21.0089 39.8081 20.7812 39.922C20.5206 39.9765 20.4063 39.9935 20.1562 39.922C19.8338 39.6819 19.5659 39.3938 19.292 39.1017C19.2168 39.024 19.1414 38.9465 19.066 38.8691C18.7043 38.4961 18.3558 38.1134 18.0165 37.72C17.803 37.4796 17.5733 37.2561 17.3437 37.0313C17.0103 36.7018 16.688 36.3702 16.3852 36.0121C16.0959 35.6856 15.7798 35.3837 15.4687 35.0782C15.4539 35.1272 15.439 35.1763 15.4237 35.2268C14.9386 36.8073 14.3459 38.1793 13.2812 39.4532C13.2254 39.5251 13.1696 39.597 13.1121 39.6711C12.9687 39.8438 12.9687 39.8438 12.8125 39.922C12.2615 39.9664 12.2615 39.9664 11.9922 39.8048C11.8306 39.5356 11.8268 39.2877 11.875 38.9845C12.0239 38.737 12.0239 38.737 12.2265 38.5011C12.2989 38.4131 12.3709 38.3248 12.4426 38.2362C12.4787 38.1918 12.5148 38.1475 12.552 38.1017C13.5402 36.8415 14.1899 35.1136 14.1723 33.5011C14.1264 33.183 13.9858 32.9737 13.8101 32.7091C13.3573 32.0244 13.0638 31.2805 12.7978 30.5079C12.7728 30.4372 12.7477 30.3665 12.7219 30.2936C12.2412 28.8447 12.1396 27.3794 12.146 25.8634C12.1458 25.6823 12.1454 25.5011 12.1451 25.32C12.1446 24.944 12.1453 24.568 12.1467 24.192C12.1485 23.712 12.1475 23.2321 12.1456 22.7521C12.1445 22.3795 12.1448 22.0069 12.1456 21.6343C12.1459 21.4573 12.1456 21.2803 12.1449 21.1033C12.1441 20.8561 12.1453 20.609 12.147 20.3618C12.1464 20.2902 12.1458 20.2185 12.1451 20.1447C12.1512 19.6754 12.2483 19.3029 12.4278 18.8691C12.5466 18.5445 12.5594 18.2216 12.5735 17.8788C12.5776 17.8061 12.5818 17.7334 12.586 17.6584C12.5947 17.5042 12.6028 17.35 12.6104 17.1957C12.6301 16.7948 12.654 16.3941 12.6776 15.9934C12.6821 15.9146 12.6867 15.8358 12.6914 15.7546C12.7483 14.796 12.8508 13.8436 12.9687 12.8907C12.9159 12.9124 12.8632 12.934 12.8088 12.9563C12.7391 12.9846 12.6694 13.0129 12.5976 13.0421C12.5287 13.0702 12.4599 13.0983 12.3889 13.1272C11.5366 13.4488 10.339 13.4119 9.50253 13.0723C8.44053 12.5381 7.62865 11.8193 7.19923 10.684C7.04163 10.2072 6.99115 9.76832 6.99704 9.26767C6.99768 9.19593 6.99833 9.12419 6.999 9.05027C7.02577 7.97158 7.44732 7.09935 8.17868 6.30869C8.80979 5.7142 9.67109 5.22692 10.5566 5.21982C10.6307 5.22466 10.7048 5.22949 10.7812 5.23447C10.7814 5.18875 10.7816 5.14303 10.7818 5.09592C10.8297 4.03365 11.2222 2.9472 11.875 2.10947C11.9311 2.03746 11.9872 1.96546 12.0449 1.89127C12.969 0.794777 14.3158 0.0739079 15.7658 0.0656316ZM13.5156 2.34385C13.4461 2.40246 13.4461 2.40246 13.3752 2.46225C12.46 3.29643 12.0866 4.53145 12.0153 5.7374C11.9891 7.7341 12.8857 9.2256 13.9062 10.8595C14.2234 10.7002 14.2234 10.7002 14.375 10.3907C14.3524 10.323 14.3298 10.2554 14.3066 10.1856C14.068 9.46976 14.1271 8.7978 14.4238 8.10556C14.6124 7.75534 14.9003 7.54873 15.2343 7.34385C15.2815 7.31434 15.3286 7.28483 15.3772 7.25443C15.8642 7.06259 16.538 7.12197 17.0215 7.30478C17.102 7.34345 17.1826 7.38213 17.2656 7.42197C17.891 6.64764 18.3634 5.86438 18.6816 4.9122C18.7975 4.57771 18.8972 4.39491 19.2187 4.21884C19.5596 4.08628 19.8503 4.04402 20.2148 4.0333C20.9177 3.99034 21.5943 3.78513 22.1093 3.28134C22.2808 3.05549 22.4332 2.82186 22.5781 2.57822C22.3028 2.21045 22.073 2.0181 21.6504 1.8165C21.5129 1.74943 21.5129 1.74943 21.3726 1.681C20.5918 1.34952 19.8273 1.31606 18.9904 1.3151C18.8707 1.31471 18.8707 1.31471 18.7485 1.31431C18.5805 1.31392 18.4124 1.31373 18.2443 1.31374C17.9901 1.31357 17.7359 1.31215 17.4817 1.31067C16.0333 1.30663 14.6621 1.3369 13.5156 2.34385ZM23.3593 3.75009C23.3298 3.78887 23.3003 3.82764 23.2699 3.86759C22.5969 4.69819 21.7037 5.1394 20.6472 5.27048C20.4053 5.28992 20.1644 5.30465 19.9218 5.3126C19.9 5.36849 19.8781 5.42438 19.8556 5.48197C19.4082 6.59391 18.7944 8.10286 17.6562 8.67197C17.1441 8.71548 16.7821 8.69098 16.3281 8.4376C16.0903 8.37899 16.0903 8.37899 15.8593 8.4376C15.6085 8.64483 15.4983 8.77305 15.4281 9.08945C15.3975 9.55049 15.504 9.83404 15.8056 10.1811C16.2044 10.5789 16.5921 10.6869 17.1322 10.7963C17.354 10.8626 17.4465 10.9055 17.5781 11.0938C17.6092 11.2452 17.6092 11.2452 17.6074 11.4063C17.6083 11.4861 17.6083 11.4861 17.6092 11.5675C17.568 11.7678 17.5097 11.8347 17.3437 11.9532C16.6162 12.0896 15.9482 11.8119 15.3125 11.4845C15.271 11.5165 15.2295 11.5485 15.1867 11.5815C15.1315 11.6236 15.0764 11.6657 15.0195 11.7091C14.9651 11.7508 14.9107 11.7925 14.8547 11.8354C14.6875 11.9532 14.6875 11.9532 14.5254 12.0133C14.3573 12.0977 14.3573 12.0977 14.3217 12.2881C14.315 12.3633 14.3083 12.4385 14.3014 12.516C14.293 12.6026 14.2847 12.6891 14.276 12.7784C14.2646 12.921 14.2646 12.921 14.2529 13.0665C14.2439 13.1646 14.2349 13.2626 14.2256 13.3636C14.2006 13.6393 14.1777 13.9151 14.1554 14.191C14.1398 14.385 14.1238 14.5791 14.1079 14.7731C14.0376 15.6298 13.9707 16.4867 13.9062 17.3438C13.9489 17.3329 13.9916 17.322 14.0356 17.3107C14.9622 17.0871 16.0173 17.029 16.875 17.5001C17.0651 17.6292 17.2494 17.7649 17.4344 17.9014C18.0836 18.3274 18.8445 18.587 19.58 18.8233C19.6309 18.8399 19.6817 18.8564 19.734 18.8734C20.0391 18.9665 20.3067 19.0006 20.625 18.9845C20.3171 18.6206 20.3171 18.6206 19.996 18.2685C19.6394 17.8898 19.3307 17.4976 19.0429 17.0655C18.9925 16.9899 18.9925 16.9899 18.941 16.9128C18.7641 16.6421 18.6182 16.3752 18.4863 16.0792C18.3232 15.7625 18.1258 15.699 17.7929 15.5909C17.7104 15.5701 17.6278 15.5492 17.5427 15.5277C17.477 15.5083 17.4114 15.4889 17.3437 15.4688C17.222 15.2254 17.2215 14.9529 17.2656 14.6876C17.3831 14.5399 17.4571 14.4635 17.6426 14.419C18.4224 14.4164 19.1795 14.6408 19.9326 14.823C20.1234 14.8688 20.3146 14.9129 20.5059 14.9568C20.5923 14.9785 20.5923 14.9785 20.6803 15.0006C21.1529 15.1076 21.5429 15.0692 21.9726 14.82C22.9128 13.9764 23.3376 12.9449 23.4989 11.7199C23.5547 11.3395 23.6557 11.0855 23.9062 10.7813C24.0735 10.6672 24.0735 10.6672 24.2382 10.5958C24.2934 10.571 24.3486 10.5462 24.4055 10.5207C24.447 10.5036 24.4885 10.4865 24.5312 10.4688C24.4888 10.3971 24.4464 10.3254 24.4027 10.2516C23.7143 9.07575 23.4774 8.1276 23.6718 6.75303C23.7971 5.84616 23.9586 4.66954 23.5156 3.82822C23.4382 3.78955 23.4382 3.78955 23.3593 3.75009ZM9.14395 7.26114C8.60407 7.80515 8.33799 8.47879 8.33004 9.23838C8.34404 10.0801 8.61742 10.7315 9.21872 11.3282C9.91173 11.8411 10.6559 12.1102 11.5185 11.9825C11.9474 11.8963 12.291 11.7207 12.6562 11.4845C12.6048 11.2103 12.4933 11.0119 12.3477 10.7752C12.2776 10.6595 12.2776 10.6595 12.206 10.5413C12.1564 10.4594 12.1068 10.3775 12.0556 10.2931C11.4161 9.21322 11.008 8.22605 10.8236 6.98069C10.7963 6.72965 10.7963 6.72965 10.7031 6.5626C10.1222 6.5626 9.58096 6.90148 9.14395 7.26114ZM25.2343 26.9532C25.1881 27.0039 25.1419 27.0545 25.0943 27.1067C24.8508 27.3987 24.6895 27.6601 24.6698 28.0457C24.7099 28.4025 24.8536 28.6935 25.1181 28.9369C25.4719 29.1711 25.8358 29.2128 26.25 29.1407C26.7632 28.9093 27.0536 28.425 27.2772 27.924C27.3837 27.6205 27.4034 27.3443 27.2873 27.0393C27.1241 26.7263 26.9719 26.5288 26.6406 26.4063C25.9925 26.2866 25.6596 26.4733 25.2343 26.9532Z" fill="#D91374"/>
</svg>
