<svg width="40" height="40" viewBox="0 0 40 40" fill="none" xmlns="http://www.w3.org/2000/svg">
<g clip-path="url(#clip0_130_864)">
<path d="M30.3565 3.42261C30.4722 3.53159 30.5877 3.64064 30.7032 3.74976C30.8087 3.83965 30.9145 3.92919 31.0206 4.01832C32.7454 5.53229 34.0898 7.89051 34.2869 10.1969C34.3936 12.2474 33.9056 14.3734 32.5001 15.9373C32.4412 16.0034 32.3823 16.0696 32.3216 16.1378C31.7378 16.7568 31.0522 17.3091 30.3126 17.7341C30.261 17.7341 30.2095 17.7341 30.1563 17.7341C30.4173 18.0215 30.709 18.2141 31.0352 18.4177C31.086 18.4499 31.1368 18.482 31.1891 18.5151C31.3133 18.5937 31.4379 18.6718 31.5626 18.7498C31.6194 18.7148 31.6762 18.6799 31.7347 18.6439C33.1413 17.7981 34.5642 17.3867 36.1915 17.7781C37.5311 18.1352 38.6486 18.9787 39.3751 20.156C40.0353 21.4092 40.2614 22.8951 39.8879 24.2798C39.4502 25.6537 38.5938 26.7064 37.3332 27.4003C36.6802 27.7201 35.9712 28.0029 35.2326 27.9529C34.8916 27.9341 34.6269 27.9449 34.297 28.0466C33.9904 28.3775 33.8168 28.748 33.625 29.1532C33.4111 29.5869 33.1625 30.0015 32.92 30.4197C32.8724 30.5041 32.8247 30.5885 32.7756 30.6754C32.0396 31.9674 31.2856 32.8826 29.8291 33.3094C29.4519 33.3948 29.0817 33.3961 28.6964 33.3933C28.6203 33.3949 28.5442 33.3964 28.4658 33.398C27.366 33.3973 26.409 33.0117 25.4347 32.5388C25.3337 32.4907 25.2327 32.4427 25.1317 32.3947C24.1958 31.9486 23.2678 31.4858 22.3438 31.0154C22.3418 31.1044 22.3398 31.1934 22.3377 31.2852C22.2679 33.4708 21.6867 35.4352 20.2345 37.1091C20.1817 37.1732 20.1289 37.2372 20.0746 37.3032C18.9942 38.5729 17.5369 39.3552 15.9376 39.7654C15.8687 39.7836 15.7998 39.8018 15.7288 39.8206C12.5647 40.521 9.20483 39.425 6.53085 37.761C5.7149 37.2381 4.99752 36.6033 4.29696 35.9373C4.24268 35.888 4.1884 35.8388 4.13247 35.788C2.55137 34.3047 1.27023 31.9894 1.16206 29.7993C1.13583 28.8239 1.14229 27.8982 1.40634 26.9529C1.42719 26.8752 1.44803 26.7976 1.46951 26.7176C2.16721 24.395 3.75644 22.7212 5.78134 21.4841C5.067 20.9521 4.32936 20.4604 3.58541 19.9711C2.0218 18.9418 0.532328 17.8302 0.0330481 15.9208C-0.0974599 15.058 -0.0948044 14.1421 0.312589 13.3591C0.33696 13.3123 0.361332 13.2654 0.386442 13.2172C0.813353 12.4064 1.28557 11.6195 1.74918 10.8294C2.00809 10.3878 2.26412 9.94477 2.51626 9.49927C2.54386 9.4506 2.57145 9.40193 2.59989 9.35178C2.73393 9.11532 2.8676 8.87866 3.00062 8.64161C3.67854 7.44468 4.39127 6.37683 5.7833 5.96904C7.51065 5.54332 9.08175 6.05293 10.6251 6.79664C10.677 6.8216 10.7288 6.84657 10.7823 6.87229C11.6429 7.28658 12.5017 7.70466 13.3595 8.12476C13.3626 8.07687 13.3657 8.02899 13.3688 7.97965C13.4586 6.65306 13.5858 5.41235 14.2188 4.21851C14.259 4.14147 14.2992 4.06443 14.3406 3.98505C14.6513 3.42032 15.0196 2.96012 15.4688 2.49976C15.5333 2.43209 15.5977 2.36441 15.6642 2.29468C15.7286 2.23345 15.7931 2.17222 15.8595 2.10914C15.9052 2.06382 15.9509 2.0185 15.998 1.97181C19.931 -1.75644 26.7637 0.210855 30.3565 3.42261ZM16.797 3.04664C16.7093 3.12322 16.7093 3.12322 16.62 3.20136C15.2917 4.43903 14.7508 6.06042 14.6766 7.84255C14.6695 8.09137 14.6631 8.34019 14.6573 8.58905C14.5676 12.2889 14.2665 16.3106 11.7188 19.2185C11.6628 19.2825 11.6069 19.3464 11.5492 19.4123C10.4238 20.6075 8.89933 21.3475 7.47112 22.1102C5.19282 23.3292 3.45044 24.8342 2.65359 27.3661C2.17371 29.2365 2.58203 31.1227 3.51175 32.7762C3.83551 33.3195 4.19795 33.8171 4.60946 34.2966C4.66405 34.3608 4.71863 34.4249 4.77487 34.491C6.84821 36.8632 9.93001 38.443 13.083 38.6616C13.1484 38.6649 13.2139 38.6682 13.2813 38.6716C13.3436 38.6758 13.4058 38.6799 13.4699 38.6841C15.4613 38.755 17.3147 38.0363 18.7797 36.706C20.0817 35.4568 20.9139 33.6209 20.9555 31.8138C20.9583 31.5903 20.9592 31.3669 20.959 31.1434C20.959 30.9591 20.96 30.7748 20.9613 30.5905C20.9649 30.0672 20.9668 29.5439 20.9673 29.0205C20.9723 25.5634 21.6772 22.9941 24.1407 20.4685C24.3421 20.2771 24.5517 20.0988 24.7657 19.9216C24.8636 19.8369 24.8636 19.8369 24.9635 19.7504C26.2022 18.6904 27.5624 17.8001 28.9616 16.9678C30.8805 15.8236 32.2206 14.5684 32.8126 12.3435C33.2371 10.5152 32.7444 8.64345 31.7779 7.06689C29.9807 4.25117 26.9963 2.28382 23.7501 1.56226C21.2778 1.07671 18.7422 1.31355 16.797 3.04664ZM5.62509 7.49976C5.57121 7.52927 5.51733 7.55878 5.46182 7.58918C4.98893 7.88961 4.7472 8.32591 4.47671 8.80473C4.35805 9.01423 4.23723 9.22241 4.1163 9.43061C3.88972 9.82127 3.66431 10.2126 3.43945 10.6042C3.20511 11.0123 2.96988 11.4199 2.73452 11.8274C2.54174 12.1612 2.34922 12.4952 2.15673 12.8292C2.04523 13.0226 1.93349 13.2157 1.82168 13.4089C1.7646 13.5079 1.70753 13.6068 1.65048 13.7058C1.60395 13.7863 1.55743 13.8667 1.50949 13.9497C1.21734 14.4899 1.25723 15.194 1.37613 15.7847C1.81145 17.1117 2.90915 17.9344 4.02353 18.6716C4.13074 18.7433 4.23792 18.815 4.34505 18.8868C4.61503 19.0675 4.88554 19.2474 5.15621 19.4271C5.40062 19.5895 5.64454 19.7527 5.88846 19.9158C6.32099 20.205 6.75407 20.4933 7.18759 20.781C8.30992 20.2041 9.3613 19.5872 10.3126 18.7498C10.3611 18.7078 10.4097 18.6658 10.4597 18.6225C12.688 16.5548 13.2296 13.0602 13.3437 10.1832C13.3495 10.0179 13.3546 9.8526 13.3595 9.68726C12.4501 9.19213 11.526 8.72577 10.5972 8.2683C10.4707 8.20582 10.3442 8.14303 10.218 8.0799C9.23324 7.58825 8.25643 7.12032 7.12899 7.1482C7.06577 7.14914 7.00254 7.15009 6.9374 7.15106C6.4497 7.16725 6.0481 7.24531 5.62509 7.49976ZM27.8126 19.2185C27.768 19.249 27.7235 19.2795 27.6775 19.3109C26.9842 19.7886 26.335 20.303 25.7032 20.8591C25.6631 20.8939 25.6231 20.9286 25.5818 20.9644C23.6513 22.6407 22.4131 24.7356 22.2253 27.3145C22.2164 27.4606 22.2083 27.6068 22.2007 27.7531C22.1921 27.8948 22.1804 28.0364 22.1653 28.1775C22.0957 28.83 22.0957 28.83 22.2657 29.4529C22.6037 29.8035 23.0791 29.9636 23.523 30.1397C23.8424 30.2725 24.1466 30.4309 24.4538 30.5896C26.9486 31.9444 26.9486 31.9444 29.6958 31.9504C30.7339 31.603 31.2163 30.6924 31.7188 29.7849C31.7719 29.6903 31.825 29.5957 31.8781 29.5011C31.9568 29.3612 32.0354 29.2212 32.1136 29.081C32.3329 28.688 32.5614 28.3012 32.7931 27.9153C32.9031 27.7455 32.9031 27.7455 32.8907 27.5779C32.8377 27.5513 32.7848 27.5247 32.7302 27.4973C31.4073 26.8084 30.499 25.8469 29.9894 24.4425C29.5859 23.0293 29.7194 21.5938 30.4075 20.2885C30.4791 20.1656 30.5519 20.0435 30.6251 19.9216C30.6251 19.8701 30.6251 19.8185 30.6251 19.7654C30.4546 19.6314 30.4546 19.6314 30.2348 19.4938C30.1541 19.4414 30.0733 19.389 29.9902 19.3351C29.8621 19.2532 29.8621 19.2532 29.7315 19.1697C29.6465 19.1145 29.5614 19.0593 29.4738 19.0024C28.6723 18.4851 28.5846 18.6899 27.8126 19.2185ZM31.9532 20.3123C31.7735 20.536 31.6243 20.7651 31.4845 21.0154C31.4541 21.067 31.4236 21.1187 31.3923 21.1719C30.9759 21.9728 30.903 23.0525 31.172 23.906C31.5981 24.9846 32.2401 25.7892 33.2813 26.3279C34.3347 26.7698 35.3927 26.7403 36.4497 26.3282C37.2483 25.9687 37.8571 25.3696 38.2813 24.6091C38.3118 24.5566 38.3422 24.504 38.3735 24.4498C38.7902 23.6377 38.8391 22.6655 38.5938 21.7966C38.239 20.7075 37.5844 19.8846 36.5675 19.3503C34.9328 18.5841 33.1757 19.0179 31.9532 20.3123Z" fill="#D91374"/>
<path d="M29.2137 5.70815C30.3606 6.7823 31.5346 8.38362 31.7186 10.0001C31.7297 10.0904 31.7409 10.1806 31.7524 10.2736C31.8986 11.6828 31.5948 13.0395 30.7188 14.1734C29.9702 15.0508 28.9794 15.6132 28.0015 16.1998C26.3503 17.1907 24.8387 18.2853 23.4373 19.6095C23.3985 19.6456 23.3597 19.6818 23.3198 19.719C22.2894 20.6833 21.5023 21.7937 20.8592 23.047C20.8208 23.1214 20.7824 23.1959 20.7429 23.2725C19.7601 25.3082 19.8088 27.4654 19.8041 29.6696C19.8032 30.0469 19.8013 30.4241 19.7982 30.8013C19.7972 30.975 19.7975 31.1486 19.7979 31.3223C19.7914 33.0303 19.2506 34.5022 18.076 35.7542C16.7743 37.0409 15.203 37.4455 13.4199 37.4466C10.4837 37.4137 7.85111 35.9737 5.81097 33.9366C4.44868 32.5043 3.6013 30.7301 3.64941 28.7263C3.77038 27.1587 4.48244 25.7283 5.62267 24.6538C6.51129 23.9004 7.54362 23.3872 8.56731 22.8432C11.6649 21.1935 13.9101 19.0427 14.9705 15.6135C15.5087 13.7718 15.7442 11.8577 15.8146 9.9449C15.8189 9.83062 15.8189 9.83062 15.8233 9.71403C15.8351 9.39603 15.8469 9.07802 15.8572 8.75996C15.9204 6.83927 16.1596 5.24966 17.6268 3.85756C21.1126 0.972011 26.2852 3.05242 29.2137 5.70815ZM17.9823 5.4695C17.1384 6.51963 17.1723 7.9009 17.1531 9.18471C17.0839 12.3096 16.7068 15.4484 15.3123 18.2814C15.2682 18.3718 15.2241 18.4623 15.1786 18.5554C14.6415 19.602 13.9367 20.4847 13.1248 21.3283C13.0804 21.3776 13.036 21.427 12.9902 21.4778C11.9748 22.5738 10.5405 23.2712 9.24822 23.9795C6.71571 25.335 6.71571 25.335 5.19512 27.6906C5.10023 28.0167 5.02544 28.3324 4.99981 28.672C4.99578 28.7218 4.99175 28.7715 4.9876 28.8228C4.91527 30.4683 5.80155 31.9127 6.85772 33.0925C8.4918 34.8593 10.9538 36.0369 13.3592 36.172C14.8053 36.196 15.9996 35.7816 17.1092 34.8439C18.1727 33.7128 18.4726 32.4156 18.4694 30.9025C18.469 30.7209 18.4702 30.5393 18.4716 30.3577C18.4745 29.9716 18.4756 29.5855 18.4764 29.1994C18.4773 28.752 18.4791 28.3047 18.4826 27.8573C18.4837 27.6812 18.4834 27.5052 18.483 27.3291C18.4872 26.2275 18.6433 25.1471 18.9842 24.0968C19.0035 24.0345 19.0229 23.9722 19.0428 23.9081C19.1737 23.489 19.3129 23.0725 19.4529 22.6564C19.413 22.6892 19.3731 22.722 19.332 22.7558C18.6487 23.3085 18.0396 23.4942 17.1577 23.4675C16.5055 23.3986 15.9387 23.1134 15.4686 22.6564C14.8966 21.9484 14.7673 21.2916 14.8436 20.3908C15.0113 19.5743 15.4875 18.9225 16.1766 18.4621C17.0875 17.9273 18.3764 17.1825 19.4529 17.2658C19.6873 17.422 19.6873 17.422 19.756 17.6353C20.0209 18.9752 20.1796 20.2766 19.9998 21.6408C20.2028 21.3972 20.3867 21.1448 20.5662 20.8839C21.7195 19.2298 23.1504 17.9083 24.7654 16.7189C24.8113 16.6846 24.8572 16.6503 24.9044 16.6149C25.8441 15.9124 26.8503 15.3119 27.8553 14.7084C29.0727 13.972 30.0057 13.1958 30.3584 11.7665C30.5754 10.3857 30.1535 9.10991 29.376 7.97743C29.2254 7.78588 29.0686 7.60347 28.9061 7.42201C28.8524 7.35817 28.7987 7.29432 28.7434 7.22853C27.2802 5.52548 24.9096 4.1649 22.6561 3.90639C20.7827 3.80239 19.2926 4.02728 17.9823 5.4695ZM16.6404 19.7658C16.3212 20.0965 16.0726 20.4122 16.0643 20.8839C16.0753 21.2564 16.1589 21.5157 16.4061 21.797C16.7206 22.0833 17.0099 22.2121 17.4363 22.2267C17.9706 22.1949 18.2224 21.9538 18.5676 21.5712C19.0352 20.8307 18.8795 19.7141 18.7059 18.8942C18.6946 18.8466 18.6833 18.7991 18.6717 18.7501C18.0257 18.7501 17.0944 19.3324 16.6404 19.7658ZM19.4529 22.5001C19.5311 22.6564 19.5311 22.6564 19.5311 22.6564L19.4529 22.5001Z" fill="#D91374"/>
<path d="M36.3281 21.7968C36.5624 21.961 36.6987 22.0877 36.7562 22.3742C36.7714 22.5997 36.772 22.8209 36.7676 23.0468C36.7698 23.1623 36.7698 23.1623 36.7721 23.28C36.7697 23.6476 36.7611 23.8463 36.5448 24.1522C36.2525 24.3473 36.0748 24.3526 35.7327 24.3353C35.4452 24.2758 35.322 24.1415 35.1562 23.9062C34.9812 23.4013 34.9831 22.674 35.166 22.1728C35.4658 21.7231 35.8213 21.6494 36.3281 21.7968Z" fill="#D91374"/>
<path d="M34.219 21.7968C34.4529 21.961 34.589 22.0884 34.6483 22.3741C34.6651 22.5996 34.6667 22.8207 34.6633 23.0468C34.6655 23.1237 34.6676 23.2006 34.6699 23.2799C34.668 23.8212 34.668 23.8212 34.514 24.0451C34.2919 24.2434 34.0815 24.3509 33.7844 24.3456C33.5051 24.3296 33.4388 24.2976 33.2033 24.121C32.8603 23.6493 32.9344 23.061 32.969 22.4999C33.0328 22.1718 33.1423 21.9974 33.4182 21.7968C33.7301 21.7008 33.9056 21.7056 34.219 21.7968Z" fill="#D91374"/>
</g>
<defs>
<clipPath id="clip0_130_864">
<rect width="40" height="40" fill="white"/>
</clipPath>
</defs>
</svg>
