<svg width="40" height="40" viewBox="0 0 40 40" fill="none" xmlns="http://www.w3.org/2000/svg">
<g clip-path="url(#clip0_130_869)">
<path d="M9.68793 1.02337C10.7847 1.88671 11.5417 2.99894 12.1144 4.2625C12.475 5.00851 13.1427 5.49254 13.9064 5.78106C14.7735 6.06175 15.395 6.06941 16.2719 5.83664C16.727 5.71661 17.1844 5.62027 17.6466 5.53203C17.7134 5.51902 17.7802 5.506 17.849 5.49259C18.5696 5.35693 19.277 5.29914 20.0099 5.30254C20.1085 5.30209 20.1085 5.30209 20.2092 5.30162C21.2669 5.30326 21.2669 5.30326 21.6017 5.5125C21.7439 5.74364 21.7592 5.90504 21.768 6.17168C21.6838 6.43934 21.5749 6.50586 21.3283 6.64043C21.0149 6.67366 20.7052 6.65791 20.3908 6.64531C19.0346 6.61937 17.7941 6.80883 16.4924 7.18059C15.4924 7.45862 14.5836 7.33357 13.5939 7.10918C14.7854 8.74258 16.3947 9.77364 18.3595 10.2342C18.472 10.2606 18.472 10.2606 18.5869 10.2876C20.5597 10.6811 22.6894 10.2119 24.3751 9.14043C25.077 8.66658 26.1312 7.93484 26.4064 7.10918C26.3374 7.1261 26.2684 7.14302 26.1973 7.16045C25.2616 7.37754 24.2363 7.51481 23.3449 7.06035C23.1697 6.83085 23.1596 6.68813 23.159 6.40606C23.2289 6.15942 23.2991 6.07968 23.5158 5.93731C23.7917 5.91566 24.0611 5.94529 24.3361 5.97149C25.4122 6.04566 26.3511 5.89806 27.1983 5.16857C27.3301 5.0379 27.4548 4.90394 27.5783 4.76543C27.6158 4.73341 27.6534 4.70138 27.6921 4.66839C27.8781 4.45646 27.9815 4.20303 28.1007 3.95C28.9854 2.13857 30.2172 0.889928 32.0927 0.148121C33.2651 -0.221392 34.7193 -0.107032 35.8595 0.312306C35.9828 0.356114 35.9828 0.356114 36.1085 0.400807C37.6442 0.992348 38.807 2.1067 39.5094 3.59142C40.1289 5.05519 40.1289 5.05519 40.0001 5.78106C39.8097 6.04992 39.6987 6.1531 39.3751 6.22051C39.0573 6.1543 38.9563 6.02938 38.7501 5.78106C38.6863 5.58147 38.641 5.40381 38.6036 5.2C38.33 3.94863 37.6901 2.89476 36.6234 2.16747C35.3941 1.39463 34.0797 1.09597 32.6564 1.40606C31.2731 1.80036 30.3334 2.70941 29.6119 3.9262C29.3248 4.44243 29.0842 4.98279 28.8363 5.51853C28.2573 6.75796 27.6401 7.88681 26.7189 8.90606C26.6418 8.99292 26.6418 8.99292 26.5632 9.08153C25.0016 10.747 22.6336 11.6361 20.3898 11.7405C17.7624 11.8137 15.4183 10.8567 13.5158 9.06231C13.462 9.01356 13.4082 8.96482 13.3528 8.9146C12.2861 7.91114 11.637 6.52571 11.0703 5.19987C10.4135 3.66979 9.503 2.2072 7.89075 1.56231C6.58915 1.07005 5.30663 1.24768 4.05805 1.80111C2.9189 2.35464 2.05838 3.30191 1.61817 4.49047C1.1579 5.95573 1.19968 7.40659 1.87513 8.79863C2.04083 9.10817 2.22398 9.39789 2.422 9.68731C2.422 9.73887 2.422 9.79043 2.422 9.84356C2.47004 9.81536 2.51808 9.78716 2.56757 9.75811C2.66229 9.70372 2.66229 9.70372 2.75892 9.64824C2.85273 9.59386 2.85273 9.59386 2.94843 9.53838C3.12513 9.45293 3.12513 9.45293 3.3595 9.45293C3.31922 9.37236 3.27894 9.2918 3.23743 9.20879C3.20934 9.15229 3.18124 9.0958 3.15229 9.03759C3.07246 8.87862 2.99149 8.72023 2.90998 8.56212C2.86125 8.46681 2.81252 8.37149 2.7638 8.27617C2.71768 8.18664 2.67155 8.09711 2.62403 8.00487C2.3723 7.45492 2.31733 6.97719 2.31946 6.38164C2.31821 6.31241 2.31695 6.24317 2.31565 6.17183C2.31487 5.09671 2.74582 4.15324 3.48127 3.37902C4.25892 2.66109 5.38424 2.23263 6.44117 2.24865C7.46285 2.33457 8.29634 2.77726 8.98084 3.52611C9.26758 3.86938 9.48023 4.14156 9.45325 4.60918C9.30424 4.88336 9.20705 4.97724 8.91126 5.07793C8.60666 5.07793 8.51696 5.03892 8.28138 4.84356C8.19343 4.73092 8.10735 4.61682 8.02259 4.50176C7.64605 3.99944 7.1882 3.69959 6.56263 3.59356C5.82907 3.57376 5.097 3.79673 4.50208 4.2332C3.83992 4.94266 3.62207 5.68224 3.64881 6.63891C3.69653 7.47805 4.1586 8.12085 4.60584 8.80382C4.76575 9.06231 4.76575 9.06231 4.76575 9.21856C4.85317 9.22943 4.94058 9.24031 5.03065 9.25151C5.0879 9.25872 5.14515 9.26592 5.20414 9.27333C5.3273 9.28874 5.45049 9.3039 5.57371 9.31881C6.96989 9.49091 8.08259 9.80613 9.01899 10.9242C9.23209 11.2206 9.38053 11.5436 9.53138 11.8748C9.67465 12.1741 9.81394 12.4572 10.005 12.7293C10.1945 13.0288 10.2915 13.3334 10.3908 13.6717C11.2521 13.7009 12.0298 13.694 12.8126 13.2811C12.898 12.6148 12.898 12.6148 12.6973 11.9957C12.5809 11.8745 12.4616 11.7562 12.3405 11.6398C11.4162 10.744 10.7109 9.54987 10.0783 8.43731C10.0437 8.37707 10.0092 8.31683 9.97369 8.25477C9.87191 8.07554 9.77203 7.8954 9.67298 7.71465C9.64273 7.66065 9.61248 7.60665 9.58131 7.55102C9.41241 7.23408 9.33454 6.99942 9.37513 6.64043C9.45325 6.45977 9.45325 6.45977 9.6095 6.32793C9.82347 6.25198 10.0104 6.2067 10.2345 6.24981C10.6404 6.56345 10.8331 6.99763 11.0646 7.44609C11.6264 8.50438 12.2745 9.47382 13.047 10.3904C13.0801 10.43 13.1131 10.4696 13.1472 10.5104C13.5532 10.9957 13.9673 11.4697 14.4047 11.927C15.718 13.3022 16.4252 14.6913 16.5577 16.6014C16.6794 18.307 17.326 19.6339 18.5695 20.825C19.2829 21.5248 19.6126 22.3233 19.6437 23.3152C19.6343 23.86 19.5148 24.2685 19.297 24.7654C19.7868 24.7912 20.2767 24.817 20.7814 24.8436C20.7314 24.7308 20.6815 24.618 20.63 24.5018C20.3052 23.6776 20.3371 22.8542 20.6346 22.0198C20.8704 21.4994 21.1721 21.1452 21.5846 20.7557C22.8127 19.547 23.3809 18.1676 23.5109 16.4598C23.6612 14.5123 24.4467 13.2396 25.7645 11.8441C26.097 11.4908 26.4116 11.128 26.714 10.7484C26.8209 10.6146 26.9299 10.4825 27.0411 10.3523C28.2226 8.96198 29.0854 7.35845 29.8464 5.7098C30.4784 4.34627 31.1648 2.98847 32.6564 2.42168C33.8106 2.08251 34.8559 2.32615 35.9062 2.87975C36.8214 3.42547 37.3238 4.26469 37.6466 5.25371C38.0158 6.77677 37.4848 8.07856 36.7189 9.37481C36.8326 9.44031 36.9466 9.50532 37.0607 9.57012C37.1241 9.60637 37.1876 9.64263 37.2529 9.67998C37.4137 9.77718 37.4137 9.77718 37.5783 9.76543C37.7232 9.56821 37.7232 9.56821 37.8712 9.31621C37.9126 9.24811 37.9126 9.24811 37.9549 9.17863C38.1839 8.79621 38.3815 8.40161 38.5686 7.99694C38.672 7.81231 38.672 7.81231 38.9064 7.65606C39.1598 7.6291 39.3232 7.6322 39.5558 7.73906C39.7028 7.90787 39.7641 8.04157 39.7828 8.2658C39.7084 9.0128 39.1165 10.07 38.6043 10.6272C38.4898 10.7856 38.4898 10.7856 38.5689 11.0054C38.6029 11.086 38.6369 11.1667 38.672 11.2498C39.0106 12.1902 39.178 13.1194 38.7501 14.0623C38.6201 14.2794 38.4819 14.4889 38.3403 14.6986C38.2006 14.9259 38.107 15.1461 38.0128 15.3953C37.6148 16.3929 36.8634 17.0106 35.8954 17.4308C35.5745 17.546 35.2496 17.5867 34.9122 17.6268C34.3768 17.6944 34.3768 17.6944 33.8521 17.8172C33.1016 18.0301 32.3307 17.9269 31.6408 17.5779C31.6012 17.5459 31.5615 17.514 31.5207 17.481C31.0365 17.1095 30.522 17.1305 29.9358 17.1407C29.7682 17.1433 29.601 17.1423 29.4334 17.1408C28.6454 17.1417 27.9424 17.2814 27.1876 17.4998C27.0836 17.5264 26.9795 17.5528 26.8751 17.5779C26.8664 17.6674 26.8576 17.7568 26.8486 17.8489C26.8038 18.2036 26.7113 18.5291 26.5968 18.867C26.5762 18.9278 26.5557 18.9886 26.5345 19.0512C26.1331 20.1975 25.5113 21.1892 24.8396 22.1928C24.153 23.2384 24.2448 24.134 24.4874 25.327C24.5039 25.4222 24.5204 25.5174 24.5373 25.6155C24.6786 26.3099 24.9104 26.6122 25.4689 27.0311C26.8941 28.5654 27.7185 30.546 27.6707 32.65C27.5409 34.8267 26.675 36.7544 25.0491 38.2206C24.6242 38.5861 24.1611 38.8685 23.672 39.1404C23.5774 39.1956 23.5774 39.1956 23.481 39.2518C21.9039 40.1152 19.7484 40.2952 18.0282 39.8363C15.9864 39.2245 14.2988 37.8942 13.2814 36.0154C12.3476 34.2408 12.112 32.1573 12.7059 30.2296C13.1317 28.9352 13.884 27.388 15.0831 26.6493C15.4448 26.3532 15.4743 25.8628 15.5526 25.4267C15.5809 25.2702 15.6124 25.1146 15.6445 24.9588C15.7969 24.1608 15.8947 23.3677 15.4835 22.6316C15.4418 22.5544 15.4001 22.4772 15.3572 22.3976C15.2838 22.2717 15.209 22.1467 15.1314 22.0234C14.9863 21.7926 14.9216 21.6634 14.9269 21.3865C15.0419 21.0491 15.0419 21.0491 15.2345 20.9373C15.5969 20.8906 15.7658 20.8703 16.0646 21.0838C16.7865 22.0337 17.2402 23.1027 17.0875 24.3155C17.0582 24.4921 17.0261 24.6678 16.9923 24.8436C16.9811 24.9041 16.97 24.9646 16.9584 25.027C16.9312 25.1743 16.9032 25.3214 16.8751 25.4686C17.395 25.34 17.395 25.34 17.7669 24.9833C17.8176 24.8491 17.864 24.7131 17.906 24.5759C17.966 24.3841 18.0421 24.2387 18.1447 24.0672C18.3659 23.6318 18.3566 23.1665 18.2298 22.7012C18.0144 22.1604 17.6326 21.7812 17.2349 21.3679C15.9164 19.9684 15.354 18.3916 15.2118 16.5066C15.1291 15.4436 14.8701 14.6073 14.2189 13.7498C14.1908 15.5266 14.2786 17.1322 14.8439 18.8279C14.8971 19.3868 14.8971 19.3868 14.6827 19.6531C14.3791 19.8017 14.2275 19.7866 13.9064 19.6873C13.4995 19.3091 13.4472 18.7711 13.3452 18.2476C13.2479 17.8353 13.2479 17.8353 12.9619 17.541C12.7576 17.4547 12.5594 17.3957 12.3439 17.3436C12.2847 17.3267 12.2255 17.3099 12.1646 17.2926C11.6002 17.1533 11.019 17.1529 10.4408 17.1498C10.2686 17.1482 10.0967 17.1434 9.9246 17.1385C9.34204 17.1299 8.89265 17.149 8.4258 17.5406C7.87438 17.9815 7.07092 17.9445 6.40638 17.8904C6.12664 17.8429 5.85306 17.7838 5.57722 17.7174C5.32489 17.6589 5.07582 17.6189 4.81946 17.5828C3.80432 17.4172 2.94977 16.8397 2.34388 16.0154C2.19571 15.7623 2.07374 15.5014 1.95325 15.2342C1.88717 15.0988 1.82044 14.9637 1.75306 14.8289C1.72103 14.7646 1.68901 14.7002 1.65601 14.6339C1.57268 14.4724 1.48444 14.3162 1.39173 14.16C1.14456 13.7168 1.06149 13.3169 1.0597 12.8123C1.05945 12.7547 1.05921 12.6972 1.05896 12.6379C1.07276 11.9924 1.27489 11.4347 1.56263 10.8592C1.49206 10.7093 1.49206 10.7093 1.38166 10.5461C1.32137 10.4507 1.32137 10.4507 1.25986 10.3533C1.19462 10.2508 1.19462 10.2508 1.12806 10.1463C0.142197 8.55025 -0.275536 6.83015 0.0929021 4.96074C0.532036 3.2328 1.45225 1.81512 2.96888 0.859181C5.08272 -0.343674 7.6555 -0.398544 9.68793 1.02337ZM31.8614 4.5985C31.4655 5.16557 31.1806 5.77148 30.9051 6.40373C30.3527 7.66511 29.7151 8.88349 28.9064 9.99981C28.847 10.0821 28.7875 10.1644 28.7263 10.2491C28.4381 10.6397 28.1389 11.0201 27.8322 11.3963C27.7747 11.4672 27.7172 11.5381 27.6579 11.6111C27.5001 11.7967 27.5001 11.7967 27.3692 11.9188C27.1698 12.1074 27.111 12.2487 27.0863 12.5193C27.0852 12.7746 27.0925 13.0264 27.1095 13.2811C27.1997 13.3294 27.29 13.3777 27.3829 13.4275C27.4337 13.4547 27.4845 13.4819 27.5368 13.5099C28.0479 13.7261 28.5156 13.7719 29.0626 13.7596C29.1232 13.7589 29.1837 13.7582 29.246 13.7574C29.3932 13.7556 29.5404 13.7528 29.6876 13.7498C29.7104 13.6912 29.7331 13.6326 29.7566 13.5722C29.9453 13.1011 30.1516 12.6705 30.4228 12.2419C30.5415 12.0404 30.641 11.8348 30.7389 11.6226C31.2079 10.6187 31.8826 10.0991 32.8908 9.68731C33.1245 9.61026 33.3503 9.5644 33.5939 9.53106C33.7632 9.5069 33.9325 9.48247 34.1017 9.45781C34.1815 9.44744 34.2612 9.43707 34.3434 9.42638C35.0472 9.30466 35.0472 9.30466 35.5583 8.84014C35.6302 8.72029 35.6996 8.59894 35.7667 8.47637C35.8031 8.41285 35.8395 8.34934 35.877 8.2839C36.4176 7.32078 36.6785 6.47682 36.3722 5.37578C36.1249 4.7152 35.6277 4.17125 35.0136 3.82488C33.7897 3.28339 32.6783 3.52349 31.8614 4.5985ZM2.78883 11.371C2.43517 11.8819 2.30997 12.3641 2.30237 12.9814C2.36133 13.2961 2.50685 13.5472 2.65638 13.8279C2.70712 13.9319 2.75738 14.036 2.80714 14.1404C3.25229 15.0611 3.64729 15.8378 4.64185 16.2498C5.05745 16.387 5.46118 16.4353 5.89643 16.4646C6.09388 16.4842 6.09388 16.4842 6.37708 16.5672C7.0319 16.7491 7.47134 16.6334 8.06745 16.3099C8.63219 15.945 8.93178 15.3924 9.14075 14.7654C9.20298 14.2312 9.15196 13.8316 8.88624 13.3647C8.7745 13.1678 8.67369 12.9712 8.57496 12.7677C8.15472 11.9122 7.78843 11.215 6.87025 10.8299C6.39809 10.6779 5.91398 10.6269 5.42249 10.5775C5.15638 10.5467 5.15638 10.5467 4.922 10.4686C4.01012 10.3623 3.36549 10.6647 2.78883 11.371ZM34.5314 10.6248C34.3413 10.6488 34.1508 10.67 33.9601 10.6883C33.2013 10.7863 32.6289 11.0347 32.0997 11.5959C31.8534 11.9335 31.6966 12.3087 31.5315 12.6908C31.4298 12.9165 31.3259 13.1075 31.1867 13.3104C30.9051 13.7429 30.8212 14.1725 30.8986 14.6824C31.0755 15.4036 31.4977 15.9897 32.1095 16.4061C32.5311 16.6398 32.961 16.7009 33.4376 16.6404C33.5224 16.6155 33.6072 16.5905 33.6946 16.5647C33.9981 16.4804 34.2815 16.4487 34.5949 16.4207C35.3904 16.3322 35.957 16.0689 36.5098 15.4762C36.7062 15.2304 36.8288 14.9744 36.9533 14.6873C37.0176 14.5551 37.0827 14.4233 37.1486 14.2918C37.1812 14.2263 37.2138 14.1609 37.2474 14.0934C37.3339 13.9254 37.4246 13.7617 37.5197 13.5984C37.7766 13.1487 37.816 12.7235 37.6811 12.2239C37.3945 11.4533 36.9722 10.9442 36.2501 10.5467C36.0045 10.4648 35.8243 10.4555 35.5665 10.4539C35.488 10.4528 35.4094 10.4517 35.3285 10.4506C35.0456 10.4709 34.8033 10.5456 34.5314 10.6248ZM25.7814 13.7498C25.0372 14.6502 24.831 15.6168 24.7355 16.7567C24.5653 18.7349 23.8448 20.1641 22.4906 21.6139C21.9499 22.2006 21.6707 22.7169 21.6771 23.5231C21.7279 23.8936 21.8389 24.1968 21.9923 24.5359C22.0168 24.5926 22.0413 24.6494 22.0666 24.7078C22.2498 25.0831 22.4414 25.2512 22.8216 25.422C22.9804 25.4803 22.9804 25.4803 23.2033 25.4686C23.192 25.3751 23.1807 25.2816 23.1691 25.1854C23.1627 25.1328 23.1564 25.0802 23.1498 25.0261C23.1315 24.8903 23.109 24.755 23.0845 24.6202C22.9093 23.4749 23.1253 22.4524 23.7501 21.4842C23.8405 21.3618 23.9309 21.2395 24.0224 21.118C25.3775 19.3096 25.8943 17.2419 25.8693 15.0145C25.8685 14.8911 25.8678 14.7678 25.8671 14.6444C25.8654 14.3462 25.8628 14.048 25.8595 13.7498C25.8337 13.7498 25.8079 13.7498 25.7814 13.7498ZM27.1095 14.6873C27.1095 15.1771 27.1095 15.667 27.1095 16.1717C27.2819 16.1346 27.4543 16.0976 27.632 16.0594C28.4148 15.9025 29.204 15.8802 30.0001 15.8592C29.963 15.7305 29.9255 15.602 29.8878 15.4734C29.867 15.4018 29.8461 15.3302 29.8247 15.2565C29.7821 15.0826 29.7821 15.0826 29.6876 14.9998C29.4758 14.9871 29.2648 14.9779 29.0529 14.9705C28.3825 14.9415 27.7639 14.8349 27.1095 14.6873ZM12.635 14.7358C11.8627 14.9391 11.1079 14.9755 10.3126 14.9998C10.1966 15.4252 10.1966 15.4252 10.0783 15.8592C10.1822 15.8621 10.2861 15.865 10.3932 15.868C11.2772 15.8984 12.1038 15.9857 12.9689 16.1717C12.9431 15.6818 12.9173 15.192 12.8908 14.6873C12.7945 14.6839 12.7945 14.6839 12.635 14.7358ZM18.5743 26.2352C18.5156 26.2481 18.4569 26.261 18.3964 26.2744C18.0431 26.3561 17.7418 26.4627 17.422 26.6404C17.4623 26.7194 17.5026 26.7983 17.5441 26.8797C17.6756 27.1864 17.6676 27.4088 17.5783 27.7342C17.2866 27.9286 17.142 27.9328 16.797 27.8904C16.6228 27.7163 16.5158 27.5624 16.4064 27.3436C15.8624 27.4202 15.4151 27.9965 15.0636 28.3885C15.0169 28.4562 14.9701 28.5238 14.922 28.5936C15.0201 28.888 15.1298 28.9123 15.3908 29.0623C15.5159 29.3126 15.5175 29.5727 15.4689 29.8436C15.3029 30.0047 15.3029 30.0047 15.0783 30.0779C14.7627 30.0582 14.5089 29.9626 14.2189 29.8436C14.1558 29.9928 14.0943 30.1427 14.0333 30.2928C13.9989 30.3762 13.9644 30.4595 13.929 30.5455C13.7829 30.9482 13.7335 31.3744 13.672 31.7967C13.7583 31.7978 13.7583 31.7978 13.8463 31.7989C14.1073 31.8031 14.3681 31.8096 14.629 31.8162C14.7196 31.8173 14.8101 31.8184 14.9034 31.8196C14.9905 31.8221 15.0776 31.8246 15.1674 31.8272C15.2476 31.8288 15.3277 31.8305 15.4104 31.8322C15.6781 31.8853 15.7722 31.9738 15.9376 32.1873C15.9767 32.4217 15.9767 32.4217 15.9376 32.6561C15.7722 32.8696 15.6781 32.958 15.4104 33.0112C15.2901 33.0137 15.2901 33.0137 15.1674 33.0162C15.0367 33.0199 15.0367 33.0199 14.9034 33.0238C14.8129 33.0249 14.7223 33.026 14.629 33.0271C14.5373 33.0295 14.4455 33.0318 14.351 33.0342C14.1247 33.0397 13.8984 33.0438 13.672 33.0467C13.7922 33.7295 13.9251 34.3661 14.2189 34.9998C14.318 34.9611 14.318 34.9611 14.4191 34.9217C14.7512 34.8251 15.0666 34.7569 15.3859 34.9217C15.5226 35.179 15.5474 35.4265 15.4689 35.7029C15.3066 35.8717 15.128 35.9842 14.922 36.0936C15.2027 36.7081 15.7397 37.1536 16.2501 37.5779C16.2952 37.5328 16.3404 37.4877 16.3868 37.4412C16.4449 37.3832 16.5029 37.3252 16.5626 37.2654C16.611 37.2074 16.6593 37.1494 16.7091 37.0896C16.8751 36.9529 16.8751 36.9529 17.1095 36.9139C17.3439 36.9529 17.3439 36.9529 17.5294 37.0799C17.6954 37.3224 17.6969 37.4446 17.6564 37.7342C17.5392 37.9979 17.5392 37.9979 17.422 38.2029C18.0331 38.5069 18.6862 38.7498 19.3751 38.7498C19.3763 38.6974 19.3774 38.645 19.3786 38.5911C19.3844 38.3526 19.392 38.1142 19.3995 37.8758C19.4013 37.7934 19.4031 37.7109 19.4049 37.626C19.409 37.5063 19.409 37.5063 19.4133 37.3841C19.4153 37.3109 19.4174 37.2377 19.4195 37.1622C19.4594 36.9148 19.5404 36.7639 19.6876 36.5623C19.9279 36.4675 20.0452 36.4744 20.2931 36.5477C20.4689 36.6404 20.4689 36.6404 20.547 36.7967C20.559 36.9439 20.5665 37.0915 20.5717 37.2392C20.575 37.3268 20.5783 37.4144 20.5816 37.5047C20.5847 37.5965 20.5878 37.6884 20.591 37.783C20.596 37.9217 20.596 37.9217 20.6012 38.0632C20.6095 38.292 20.6175 38.5209 20.6251 38.7498C21.1251 38.716 21.5703 38.643 22.0411 38.4715C22.0935 38.4532 22.1459 38.4349 22.1998 38.4161C22.3262 38.3719 22.4523 38.3266 22.5783 38.2811C22.5486 38.024 22.5486 38.024 22.422 37.8123C22.3762 37.2437 22.3762 37.2437 22.549 37.0311C22.7895 36.9298 22.9446 36.9152 23.2033 36.9529C23.427 37.1319 23.5797 37.3494 23.7501 37.5779C24.2993 37.1578 24.7615 36.7417 25.1564 36.1717C25.0968 36.1266 25.0371 36.0814 24.9757 36.035C24.6364 35.7509 24.6364 35.7509 24.5314 35.5467C24.5569 35.0524 24.5569 35.0524 24.7658 34.8436C25.182 34.8158 25.4641 34.8575 25.8595 34.9998C25.9241 34.8211 25.9873 34.6421 26.0499 34.4627C26.0679 34.4133 26.0859 34.364 26.1044 34.3132C26.2487 33.8948 26.2985 33.4872 26.3283 33.0467C26.2703 33.0455 26.2124 33.0444 26.1527 33.0432C25.8905 33.0374 25.6285 33.0299 25.3663 33.0223C25.2751 33.0205 25.184 33.0187 25.09 33.0169C25.0026 33.0142 24.9153 33.0114 24.8253 33.0085C24.7447 33.0065 24.6641 33.0044 24.581 33.0023C24.35 32.9644 24.2776 32.9205 24.1408 32.7342C24.1069 32.5828 24.1069 32.5828 24.1066 32.4217C24.1051 32.3685 24.1036 32.3153 24.102 32.2605C24.1583 32.0408 24.2618 31.9911 24.4533 31.8748C24.6609 31.841 24.6609 31.841 24.8939 31.8348C24.9775 31.8321 25.0611 31.8293 25.1472 31.8264C25.234 31.8247 25.3208 31.8229 25.4103 31.8211C25.4983 31.8184 25.5863 31.8158 25.677 31.813C25.8941 31.8066 26.1111 31.8012 26.3283 31.7967C26.2944 31.2967 26.2214 30.8515 26.0499 30.3807C26.0317 30.3283 26.0134 30.2759 25.9945 30.222C25.9503 30.0956 25.905 29.9695 25.8595 29.8436C25.7999 29.868 25.7403 29.8925 25.6788 29.9177C25.3528 30.0452 25.1179 30.1198 24.7804 29.9998C24.6095 29.8436 24.6095 29.8436 24.5216 29.5799C24.5314 29.2967 24.5314 29.2967 24.7072 29.0818C24.7781 29.0238 24.849 28.9658 24.922 28.9061C25.0009 28.8287 25.0792 28.7507 25.1564 28.6717C24.5533 27.9413 24.5533 27.9413 23.8283 27.3436C23.5338 27.4417 23.5095 27.5514 23.3595 27.8123C23.1212 27.9314 22.9187 27.9088 22.6564 27.8904C22.505 27.8074 22.505 27.8074 22.422 27.6561C22.3865 27.2796 22.4414 26.991 22.5783 26.6404C21.98 26.3359 21.3029 26.0936 20.6251 26.0936C20.6244 26.1539 20.6237 26.2142 20.6229 26.2763C20.6187 26.5491 20.6122 26.8218 20.6056 27.0945C20.6045 27.1894 20.6034 27.2844 20.6022 27.3822C20.5997 27.473 20.5972 27.5639 20.5946 27.6576C20.593 27.7415 20.5913 27.8253 20.5897 27.9117C20.547 28.1248 20.547 28.1248 20.3993 28.2708C20.1954 28.3801 20.0896 28.3714 19.8634 28.3348C19.801 28.3254 19.7385 28.316 19.6742 28.3064C19.6271 28.298 19.5799 28.2897 19.5314 28.2811C19.4576 28.0279 19.4383 27.791 19.4285 27.5279C19.4253 27.4443 19.422 27.3607 19.4186 27.2746C19.4155 27.1878 19.4125 27.101 19.4093 27.0115C19.4059 26.9235 19.4026 26.8355 19.3991 26.7448C19.3908 26.5277 19.3828 26.3106 19.3751 26.0936C19.1023 26.0936 18.8391 26.174 18.5743 26.2352Z" fill="#D91374"/>
<path d="M17.2376 28.8504C17.6685 28.9812 17.959 29.4053 18.252 29.7315C18.393 29.8879 18.5357 30.0421 18.6798 30.1957C18.7733 30.2994 18.7733 30.2994 18.8686 30.4052C19.0554 30.5735 19.0554 30.5735 19.3058 30.5312C19.3802 30.5106 19.4546 30.49 19.5312 30.4688C20.2186 30.4078 20.7566 30.4505 21.3281 30.8595C21.817 31.2769 21.9947 31.7862 22.0654 32.4122C22.0337 33.0244 21.8241 33.5351 21.3721 33.9503C20.9384 34.3131 20.4837 34.4568 19.9219 34.4532C19.7911 34.4163 19.6608 34.3771 19.5312 34.336C19.3375 34.2793 19.3375 34.2793 19.1406 34.297C18.8614 34.4955 18.6589 34.7411 18.4375 35.0001C18.1511 35.191 17.911 35.2213 17.5781 35.1563C17.3476 34.9604 17.2755 34.8427 17.2369 34.5429C17.2741 34.2245 17.3861 34.1145 17.6074 33.8868C17.6709 33.8204 17.7343 33.7539 17.7997 33.6854C17.908 33.5767 18.0165 33.468 18.125 33.3595C18.1003 33.203 18.0738 33.0468 18.0469 32.8907C18.0154 32.0705 18.0154 32.0705 18.1073 31.7281C18.1509 31.4789 18.1509 31.4789 17.9917 31.2903C17.9263 31.2283 17.8609 31.1663 17.7936 31.1024C17.7232 31.0341 17.6528 30.9658 17.5803 30.8955C17.5054 30.8256 17.4306 30.7557 17.3535 30.6837C17.2071 30.5434 17.0608 30.4031 16.9147 30.2626C16.8491 30.2009 16.7836 30.1392 16.716 30.0757C16.5096 29.869 16.4874 29.7982 16.46 29.5021C16.4844 29.2188 16.4844 29.2188 16.6016 29.0284C16.8167 28.894 16.9832 28.8454 17.2376 28.8504ZM19.375 32.0313C19.2616 32.2581 19.2678 32.4042 19.2969 32.6563C19.467 32.9139 19.5922 33.0836 19.8779 33.2081C20.1567 33.2013 20.3142 33.1206 20.5469 32.9688C20.7329 32.7468 20.7812 32.6342 20.7812 32.3438C20.6803 32.0409 20.5692 31.9086 20.3125 31.7188C19.8854 31.6502 19.6786 31.7278 19.375 32.0313Z" fill="#D91374"/>
</g>
<defs>
<clipPath id="clip0_130_869">
<rect width="40" height="40" fill="white"/>
</clipPath>
</defs>
</svg>
