<svg width="40" height="40" viewBox="0 0 40 40" fill="none" xmlns="http://www.w3.org/2000/svg">
<g clip-path="url(#clip0_130_818)">
<path d="M26.1476 6.28072C27.5911 7.49984 28.7366 9.18147 29.16 11.0402C29.2778 11.4652 29.5616 11.6934 29.8771 11.9869C30.6606 12.7703 31.1061 13.8744 31.1192 14.9757C31.1188 15.0386 31.1184 15.1015 31.118 15.1662C31.1178 15.2677 31.1178 15.2677 31.1177 15.3712C31.1032 16.4226 30.9737 17.4716 30.8592 18.5158C30.9318 18.5243 31.0045 18.5327 31.0793 18.5414C31.4614 18.6221 31.5838 18.827 31.7967 19.1408C31.9692 19.4252 32.1305 19.7147 32.2882 20.0076C32.4161 20.2451 32.5462 20.4814 32.6759 20.718C32.7141 20.7878 32.7141 20.7878 32.7531 20.8591C32.9533 21.2247 33.1606 21.5854 33.3739 21.9436C33.4184 22.0191 33.4184 22.0191 33.4639 22.0962C33.5994 22.3258 33.7356 22.5549 33.8737 22.7829C34.0062 23.0021 34.1368 23.2223 34.2674 23.4426C34.3091 23.5105 34.3508 23.5784 34.3938 23.6484C34.6431 24.0729 34.7442 24.3509 34.6873 24.844C34.5847 25.0923 34.5088 25.1995 34.2821 25.342C33.9903 25.4068 33.7139 25.43 33.4373 25.3127C33.0463 24.921 32.8067 24.4379 32.5438 23.9553C32.4475 23.7808 32.351 23.6065 32.2545 23.4322C32.2051 23.3431 32.1557 23.2539 32.1048 23.1621C31.8593 22.7235 31.6063 22.2894 31.3524 21.8557C31.3065 21.7772 31.2605 21.6987 31.2132 21.6178C30.9746 21.2098 30.9746 21.2098 30.728 20.8066C30.6248 20.6252 30.6248 20.6252 30.6248 20.469C30.5723 20.4933 30.5198 20.5176 30.4656 20.5426C29.9352 20.788 29.4045 21.0329 28.8737 21.2774C28.6928 21.3607 28.512 21.4441 28.3312 21.5275C28.0933 21.6372 27.8552 21.7465 27.617 21.8557C27.5443 21.8892 27.4717 21.9228 27.3968 21.9574C27.3301 21.9879 27.2634 22.0184 27.1947 22.0498C27.1364 22.0765 27.0781 22.1033 27.0181 22.1309C26.8748 22.1877 26.8748 22.1877 26.7186 22.1877C27.1491 23.4336 27.5988 24.6722 28.0518 25.91C28.1312 26.127 28.2105 26.3439 28.2898 26.5609C28.9296 28.3115 29.5708 30.0617 30.215 31.8107C30.3921 32.2916 30.5683 32.7727 30.7441 33.2541C30.8654 33.5859 30.9871 33.9176 31.1088 34.2493C31.1661 34.4057 31.2233 34.5622 31.2803 34.7187C31.9392 36.6416 31.9392 36.6416 33.4129 37.969C34.3124 38.379 35.1959 38.4708 36.1302 38.1337C37.1099 37.7223 37.7874 37.074 38.1981 36.0891C38.3001 35.735 38.308 35.3761 38.3153 35.01C38.317 34.9529 38.3188 34.8958 38.3206 34.8369C38.3167 33.9443 37.8557 33.1943 37.4217 32.4416C37.3736 32.3569 37.3254 32.2722 37.2758 32.185C37.0272 31.7472 37.0272 31.7472 36.7723 31.3131C36.5766 30.9843 36.5123 30.777 36.5623 30.3908C36.6603 30.1703 36.7408 30.0422 36.9334 29.8977C37.2567 29.7989 37.5411 29.791 37.8503 29.9334C38.0916 30.1115 38.1954 30.2855 38.3418 30.5468C38.3679 30.5928 38.394 30.6388 38.4208 30.6862C38.5038 30.833 38.5853 30.9805 38.6668 31.1281C38.7212 31.2246 38.7757 31.3209 38.8302 31.4173C38.9888 31.6985 39.1435 31.9817 39.2967 32.2658C39.3638 32.3896 39.3638 32.3896 39.4322 32.5158C39.851 33.3161 40.0437 34.043 40.034 34.9465C40.0331 35.064 40.0331 35.064 40.0322 35.1838C40.0013 36.5814 39.4273 37.7922 38.4184 38.7624C37.2712 39.7404 36.034 40.0365 34.5591 40.0305C34.4283 40.0308 34.2975 40.0312 34.1667 40.0318C33.8091 40.0329 33.4515 40.0326 33.0939 40.032C32.7075 40.0316 32.3211 40.0326 31.9348 40.0334C31.1785 40.0347 30.4223 40.0348 29.666 40.0344C29.0511 40.0341 28.4362 40.0342 27.8214 40.0346C27.69 40.0347 27.69 40.0347 27.5559 40.0348C27.3779 40.0349 27.2 40.035 27.022 40.0351C25.3539 40.0362 23.6858 40.0358 22.0176 40.0349C20.4927 40.0341 18.9678 40.0351 17.4429 40.037C15.8759 40.0389 14.3088 40.0397 12.7418 40.0391C11.8625 40.0389 10.9833 40.039 10.104 40.0404C9.35546 40.0416 8.60693 40.0416 7.85838 40.0402C7.47675 40.0396 7.09515 40.0394 6.71352 40.0406C6.36359 40.0417 6.0137 40.0413 5.66377 40.0398C5.53776 40.0395 5.41174 40.0397 5.28573 40.0406C3.78636 40.0496 2.51993 39.6321 1.40608 38.594C0.363802 37.5146 -0.0524755 36.2214 -0.0366773 34.747C0.00467855 33.2489 0.740661 32.1246 1.4842 30.8596C1.57725 30.6999 1.67023 30.5402 1.76313 30.3805C1.8995 30.1463 2.03604 29.9122 2.17312 29.6784C2.48256 29.1505 2.78593 28.6195 3.08577 28.0861C3.42992 27.4739 3.78018 26.8657 4.13557 26.26C4.50929 25.6227 4.87492 24.9816 5.2342 24.3361C5.63189 23.6219 6.03816 22.9133 6.45231 22.2085C6.70661 21.775 6.95773 21.34 7.20503 20.9026C7.23289 20.8534 7.26074 20.8043 7.28945 20.7536C7.42507 20.5142 7.56029 20.2745 7.6948 20.0344C8.45344 18.6941 8.45344 18.6941 8.90608 18.5158C8.98342 18.5158 9.06077 18.5158 9.14045 18.5158C9.1298 18.4187 9.1298 18.4187 9.11894 18.3195C8.65742 14.0414 8.65742 14.0414 9.68733 12.5002C9.89625 12.2432 10.1229 12.0063 10.3551 11.7702C10.6783 11.4202 10.8159 11.0934 10.952 10.6399C11.7278 8.19376 13.45 6.25327 15.6985 5.05552C19.1046 3.31324 23.2194 3.87327 26.1476 6.28072ZM14.9217 7.57833C14.8757 7.61398 14.8297 7.64963 14.7822 7.68636C13.9931 8.31549 13.2615 9.26515 12.9686 10.2346C13.0272 10.2413 13.0858 10.2481 13.1462 10.255C13.9332 10.3631 14.5823 10.6123 15.1561 11.1721C15.3026 11.3918 15.3026 11.3918 15.3905 11.5627C15.7223 11.5116 15.9981 11.3975 16.3035 11.26C17.6081 10.6904 17.6081 10.6904 18.1679 10.7802C18.4788 10.9092 18.7094 11.1337 18.9566 11.3562C20.4597 12.7015 22.4244 13.5489 24.3748 13.9846C24.3624 13.9325 24.3501 13.8804 24.3373 13.8268C24.1708 12.8714 24.2759 12.0443 24.8143 11.2307C25.298 10.6257 26.0052 10.3621 26.7528 10.2639C26.8446 10.2542 26.9364 10.2445 27.0311 10.2346C26.5363 8.6083 25.028 7.34705 23.5936 6.5627C20.7037 5.12935 17.3917 5.50097 14.9217 7.57833ZM11.0829 13.3986C10.6668 13.9855 10.5307 14.5607 10.5391 15.2746C10.5396 15.3319 10.5401 15.3892 10.5406 15.4483C10.5419 15.5724 10.5433 15.6965 10.5449 15.8206C10.5467 16.0192 10.5459 16.2177 10.5449 16.4163C10.4623 18.0813 10.4623 18.0813 11.0619 19.5387C11.6231 19.9512 12.343 20.2346 13.0467 20.2346C13.3895 19.092 13.2547 17.9546 13.1404 16.7867C13.1033 16.253 13.1483 15.8789 13.347 15.389C13.3933 15.2694 13.4396 15.1497 13.4859 15.0301C13.5591 14.8442 13.6327 14.6584 13.7065 14.4727C13.7781 14.2919 13.8482 14.1105 13.9183 13.929C13.9405 13.8746 13.9627 13.8201 13.9856 13.764C14.1371 13.3696 14.1949 13.0004 14.1405 12.5783C13.9555 12.1942 13.7607 12.0169 13.3592 11.8752C12.4621 11.7631 11.6286 12.7601 11.0829 13.3986ZM25.9422 12.3586C25.7402 12.8934 25.8633 13.3903 26.0841 13.8961C26.1311 14.0107 26.1778 14.1254 26.2245 14.2402C26.2487 14.299 26.2729 14.3578 26.2979 14.4183C26.7024 15.4103 27.0328 16.26 26.8251 17.3408C26.7754 17.6199 26.7598 17.9011 26.743 18.1838C26.7376 18.2647 26.7376 18.2647 26.732 18.3471C26.6974 18.9761 26.7532 19.6354 26.953 20.2346C27.0366 20.2177 27.0366 20.2177 27.122 20.2005C27.2637 20.1723 27.4056 20.1456 27.5479 20.1208C28.1668 19.993 28.7371 19.8047 29.1405 19.2971C29.5139 18.3631 29.4511 17.2052 29.4526 16.2148C29.4529 16.0199 29.455 15.8251 29.4576 15.6303C29.4587 15.5114 29.4597 15.3925 29.4606 15.2736C29.4611 15.2202 29.4616 15.1669 29.4621 15.1118C29.4622 14.1981 29.0917 13.5637 28.464 12.9126C28.322 12.7712 28.1779 12.6327 28.0321 12.4953C27.9856 12.4515 27.9392 12.4077 27.8914 12.3626C27.5763 12.0757 27.3165 11.9022 26.8846 11.8459C26.4858 11.8938 26.2074 12.0591 25.9422 12.3586ZM17.4092 12.5033C17.3073 12.5439 17.2057 12.5853 17.1043 12.6272C17.055 12.6466 17.0057 12.666 16.9549 12.6861C16.7961 12.7505 16.6403 12.82 16.4842 12.8908C16.3923 12.929 16.3923 12.929 16.2986 12.9679C15.9491 13.1313 15.7527 13.262 15.612 13.629C15.5713 13.7647 15.5334 13.9012 15.4979 14.0383C15.4551 14.188 15.4119 14.3375 15.3682 14.4869C15.3467 14.5611 15.3252 14.6353 15.3031 14.7117C15.24 14.9044 15.166 15.0748 15.0734 15.2547C14.6012 16.1899 14.6939 17.0584 14.785 18.0706C14.7921 18.1499 14.7921 18.1499 14.7993 18.2308C14.804 18.283 14.8087 18.3352 14.8135 18.3889C14.8656 19.0195 14.8006 19.6151 14.6873 20.2346C14.6722 20.3196 14.6571 20.4046 14.6416 20.4921C14.6081 20.6674 14.5704 20.8418 14.5311 21.0158C14.6068 21.0642 14.6825 21.1125 14.7606 21.1623C14.9998 21.3283 14.9998 21.3283 15.078 21.4846C15.1195 22.0077 15.0348 22.3652 14.8262 22.8457C14.754 23.0849 14.7647 23.2018 14.8436 23.4377C15.6231 24.7406 17.162 25.5043 18.5792 25.8837C20.3046 26.2584 22.0219 25.912 23.5222 24.9956C24.1763 24.5598 24.838 24.0527 25.2342 23.3596C25.2487 23.0786 25.2001 22.9214 25.0963 22.665C24.9377 22.27 24.8321 21.9121 24.9217 21.4846C25.0921 21.2693 25.2242 21.138 25.4686 21.0158C25.4526 20.941 25.4366 20.8662 25.4201 20.7891C25.1582 19.5193 25.1359 18.3472 25.2733 17.059C25.3581 16.373 25.3581 16.373 25.078 15.7815C24.7457 15.6427 24.4045 15.5745 24.0526 15.5031C23.8522 15.4577 23.6519 15.4118 23.4517 15.3655C23.3547 15.3434 23.2577 15.3213 23.1577 15.2985C21.2652 14.8456 19.5169 13.8564 18.0058 12.6513C17.7383 12.4235 17.7383 12.4235 17.4092 12.5033ZM9.37483 20.469C9.34351 20.5238 9.31219 20.5786 9.27992 20.635C9.23551 20.7128 9.1911 20.7905 9.14534 20.8706C9.09538 20.958 9.04542 21.0454 8.99395 21.1355C8.88172 21.3319 8.76947 21.5283 8.65723 21.7247C8.37292 22.2222 8.08869 22.7197 7.8047 23.2174C7.25343 24.1832 6.70008 25.1479 6.14374 26.1108C5.78851 26.726 5.43512 27.3423 5.08284 27.9592C5.05694 28.0045 5.03105 28.0499 5.00437 28.0966C4.8205 28.4186 4.63672 28.7406 4.45295 29.0627C4.26911 29.3849 4.08523 29.7071 3.90128 30.0292C3.82358 30.1653 3.74594 30.3015 3.66829 30.4376C3.40561 30.8976 3.14152 31.3567 2.87489 31.8145C2.82123 31.9068 2.76758 31.9991 2.71393 32.0914C2.61347 32.264 2.51272 32.4365 2.41161 32.6087C1.77876 33.6969 1.38307 34.6673 1.71858 35.9377C1.98636 36.8736 2.59051 37.5761 3.43733 38.0471C4.3005 38.447 5.09172 38.5243 6.01545 38.2815C7.0507 37.8819 7.68773 37.3045 8.20295 36.3283C8.3476 35.9939 8.47068 35.6533 8.59236 35.31C8.62804 35.2112 8.66379 35.1125 8.69961 35.0138C8.77548 34.8044 8.85084 34.5947 8.92579 34.3849C9.04446 34.0528 9.16426 33.7211 9.28425 33.3894C9.42669 32.9956 9.56891 32.6016 9.71079 32.2075C10.0178 31.3551 10.3294 30.5043 10.6426 29.6542C10.7554 29.3481 10.8679 29.0419 10.9805 28.7357C11.0364 28.5837 11.0923 28.4317 11.1482 28.2797C11.3621 27.6982 11.5756 27.1166 11.7891 26.5349C11.8846 26.2748 11.98 26.0147 12.0755 25.7546C12.1359 25.5901 12.1962 25.4256 12.2566 25.2611C12.3133 25.1065 12.37 24.952 12.4267 24.7974C12.4804 24.6513 12.534 24.5051 12.5875 24.359C12.7083 24.0299 12.8304 23.7016 12.9565 23.3746C12.9787 23.3169 13.0008 23.2591 13.0236 23.1997C13.0644 23.0939 13.1056 22.9882 13.1473 22.8828C13.245 22.6288 13.2811 22.466 13.2811 22.1877C12.8963 22.0056 12.5115 21.8236 12.1267 21.6417C11.9961 21.58 11.8656 21.5183 11.735 21.4565C11.3668 21.2823 10.9985 21.1084 10.6297 20.9353C10.4843 20.867 10.339 20.7982 10.1938 20.7294C10.1174 20.6937 10.041 20.658 9.96229 20.6212C9.89843 20.5912 9.83456 20.5611 9.76875 20.5302C9.60122 20.455 9.60122 20.455 9.37483 20.469ZM13.9842 25.1565C13.8168 25.6082 13.6499 26.06 13.4835 26.5121C13.4268 26.6659 13.37 26.8197 13.313 26.9734C13.2312 27.1941 13.1499 27.415 13.0687 27.636C13.043 27.7049 13.0174 27.7737 12.991 27.8447C12.9675 27.9088 12.9441 27.9729 12.9199 28.0389C12.8991 28.0953 12.8783 28.1517 12.8568 28.2098C12.8012 28.371 12.8012 28.371 12.8123 28.594C13.047 28.5627 13.2812 28.53 13.5155 28.4963C13.581 28.4877 13.6466 28.4792 13.7141 28.4704C14.4641 28.3599 14.9323 28.1021 15.4191 27.5188C15.6739 27.1695 15.7546 26.8335 15.703 26.4065C15.52 26.2153 15.52 26.2153 15.2733 26.0598C14.9134 25.8102 14.5803 25.5499 14.2595 25.2514C14.1455 25.1402 14.1455 25.1402 13.9842 25.1565ZM25.5076 25.4738C25.2314 25.7311 24.9583 25.9428 24.6385 26.1428C24.3419 26.3395 24.3419 26.3395 24.2283 26.675C24.311 27.0114 24.4305 27.2829 24.6092 27.5783C24.6511 27.6476 24.693 27.7169 24.7362 27.7883C25.4013 28.436 26.3097 28.4831 27.1873 28.594C27.1361 28.1802 27.0081 27.8175 26.8623 27.43C26.8382 27.3648 26.814 27.2995 26.7891 27.2323C26.7123 27.0253 26.6349 26.8184 26.5574 26.6115C26.5051 26.4707 26.4527 26.3298 26.4004 26.1889C26.2725 25.8446 26.1441 25.5005 26.0155 25.1565C25.7725 25.1565 25.6808 25.3097 25.5076 25.4738ZM17.2655 27.1877C17.2474 27.2481 17.2294 27.3086 17.2108 27.3708C17.0658 27.834 16.9172 28.2307 16.6292 28.6236C16.5961 28.6862 16.5961 28.6862 16.5623 28.7502C16.667 29.0643 16.8632 29.1401 17.1385 29.2922C17.1879 29.3198 17.2372 29.3474 17.2881 29.3759C17.7088 29.6057 18.1323 29.7883 18.5936 29.9221C18.6841 29.9484 18.6841 29.9484 18.7764 29.9752C20.2053 30.3223 21.6339 30.0087 22.8847 29.2894C23.0781 29.1698 23.2593 29.0476 23.4373 28.9065C23.309 28.5724 23.1524 28.2613 22.9857 27.9451C22.874 27.6983 22.8036 27.4492 22.7342 27.1877C22.639 27.2094 22.5439 27.231 22.4458 27.2533C22.319 27.2819 22.1921 27.3105 22.0653 27.3391C22.0028 27.3533 21.9403 27.3676 21.8759 27.3823C20.2971 27.7367 18.8178 27.5844 17.2655 27.1877ZM14.4728 29.9068C14.3649 29.9269 14.3649 29.9269 14.2547 29.9474C14.18 29.9616 14.1052 29.9758 14.0281 29.9904C13.3902 30.1108 12.7514 30.2171 12.1092 30.3127C12.0751 30.4052 12.041 30.4977 12.0059 30.593C11.6908 31.4475 11.3751 32.3019 11.0588 33.1559C10.8815 33.6346 10.7048 34.1135 10.5287 34.5925C10.4247 34.8751 10.3202 35.1574 10.2155 35.4397C10.1666 35.5717 10.118 35.7038 10.0697 35.8359C9.72225 36.785 9.34178 37.609 8.74983 38.4377C16.1748 38.4377 23.5998 38.4377 31.2498 38.4377C31.0951 38.2057 30.9405 37.9736 30.7811 37.7346C30.2476 36.816 29.9134 35.8104 29.5555 34.8147C29.4628 34.5591 29.3699 34.3035 29.2769 34.048C29.2152 33.8783 29.1536 33.7085 29.0921 33.5387C28.8236 32.7984 28.549 32.0604 28.2713 31.3234C28.2317 31.2181 28.192 31.1127 28.1524 31.0073C28.0652 30.7757 27.9779 30.5442 27.8905 30.3127C27.557 30.2584 27.2235 30.2042 26.89 30.1501C26.7768 30.1317 26.6637 30.1133 26.5505 30.0949C26.3868 30.0682 26.2231 30.0417 26.0594 30.0152C25.9121 29.9912 25.9121 29.9912 25.7619 29.9668C25.6651 29.952 25.5683 29.9373 25.4686 29.9221C25.4131 29.913 25.3577 29.9039 25.3006 29.8946C24.9475 29.8374 24.9475 29.8374 24.6214 29.9682C24.5187 30.0589 24.5187 30.0589 24.4139 30.1516C22.9013 31.3777 20.9697 31.8229 19.0513 31.6234C17.7609 31.4434 16.5453 30.9416 15.5369 30.1186C15.1663 29.819 14.9254 29.8211 14.4728 29.9068Z" fill="#D91374"/>
<path d="M33.952 -0.0345902C34.1406 0.000199828 34.1406 0.000199836 34.3799 0.161333C34.5622 0.437724 34.6094 0.606742 34.6094 0.9377C34.4836 1.31499 34.256 1.54111 33.9755 1.80928C33.7801 2.00026 33.6037 2.20492 33.4253 2.4117C33.2634 2.59898 33.0992 2.78406 32.9346 2.96895C32.8815 3.02857 32.8284 3.08819 32.7737 3.14961C32.735 3.19312 32.6962 3.23663 32.6562 3.28145C32.742 3.29565 32.8277 3.30985 32.916 3.32448C33.0296 3.34427 33.1432 3.36411 33.2568 3.38399C33.3132 3.3932 33.3695 3.40242 33.4276 3.41191C33.7614 3.47136 34.02 3.54213 34.2969 3.7502C34.4627 3.99894 34.5191 4.17169 34.5123 4.47103C34.3872 4.92902 34.0185 5.28495 33.7143 5.63912C33.5271 5.86014 33.3511 6.08951 33.1738 6.31856C32.8538 6.72701 32.5291 7.13149 32.2021 7.53438C32.161 7.58518 32.1198 7.63597 32.0774 7.6883C31.8747 7.93727 31.6705 8.18494 31.4639 8.43068C31.4266 8.4752 31.3893 8.51972 31.3508 8.56559C31.1708 8.75577 31.0091 8.76847 30.7568 8.7795C30.4733 8.77539 30.4004 8.75695 30.1562 8.58907C29.9681 8.31274 29.9219 8.14664 29.9219 7.8127C30.089 7.40355 30.3442 7.09281 30.625 6.75801C30.7157 6.64821 30.8064 6.53835 30.8969 6.42842C30.9426 6.37313 30.9882 6.31785 31.0353 6.26088C31.2489 5.99981 31.4573 5.73469 31.665 5.46895C31.702 5.42167 31.7391 5.37439 31.7772 5.32567C31.862 5.21725 31.9466 5.10874 32.0312 5.0002C31.9592 4.98907 31.9592 4.98907 31.8856 4.97771C31.6669 4.94296 31.4487 4.90569 31.2305 4.86836C31.1548 4.85673 31.0792 4.8451 31.0013 4.83312C30.4403 4.73446 30.4403 4.73446 30.1865 4.49544C30.0573 4.25888 30.0055 4.09876 30 3.82833C30.1552 3.45072 30.3792 3.17642 30.6592 2.88594C30.7437 2.79634 30.8283 2.70672 30.9128 2.61708C30.9559 2.57175 30.999 2.52642 31.0434 2.47972C31.2446 2.26715 31.4425 2.05158 31.6406 1.83614C31.7179 1.7524 31.7952 1.66868 31.8726 1.58498C32.0371 1.40672 32.2015 1.22826 32.3657 1.0497C32.4078 1.00398 32.4499 0.958256 32.4933 0.91115C32.5735 0.824021 32.6537 0.736845 32.7338 0.649614C32.8376 0.536848 32.9422 0.42475 33.0469 0.3127C33.1256 0.222365 33.1256 0.222365 33.2059 0.130205C33.4465 -0.0736118 33.6482 -0.048033 33.952 -0.0345902Z" fill="#D91374"/>
<path d="M6.4201 -0.0736693C6.90994 0.0898385 7.24888 0.555684 7.57793 0.937378C7.94453 1.36046 8.31998 1.77207 8.70586 2.17761C9.95385 3.50242 9.95385 3.50242 9.99981 3.98425C9.91112 4.27001 9.84464 4.46864 9.60644 4.65656C9.2935 4.80375 8.98761 4.84818 8.64727 4.89734C8.58196 4.90746 8.51665 4.91758 8.44936 4.92801C8.28921 4.95272 8.1289 4.9764 7.96856 4.99988C8.01212 5.05225 8.01212 5.05225 8.05656 5.10568C8.54622 5.69515 9.03592 6.28474 9.50664 6.88953C9.59653 7.00479 9.59653 7.00479 9.68822 7.12238C9.91457 7.44477 10.0779 7.69153 10.0779 8.0907C9.98095 8.42407 9.89597 8.55272 9.60918 8.74988C9.36047 8.81136 9.15544 8.80746 8.90606 8.74988C8.36071 8.40651 7.99848 7.84059 7.61158 7.33348C7.43623 7.10427 7.25817 6.8772 7.07989 6.65027C7.04543 6.60628 7.01098 6.5623 6.97548 6.51698C6.63901 6.08879 6.29492 5.66685 5.9491 5.24619C5.88737 5.17079 5.88737 5.17079 5.82439 5.09387C5.78772 5.04928 5.75105 5.00469 5.71327 4.95876C5.51628 4.70238 5.51538 4.47529 5.52044 4.16064C5.54668 3.98425 5.54668 3.98425 5.70293 3.75476C5.98127 3.5634 6.23601 3.49522 6.56231 3.43738C6.70555 3.40816 6.84878 3.37886 6.992 3.34949C7.10915 3.32655 7.22633 3.30371 7.34356 3.28113C7.25756 3.18717 7.17156 3.09323 7.08551 2.99932C7.00932 2.9161 6.93319 2.83283 6.85713 2.74949C6.64799 2.52074 6.43743 2.29361 6.22387 2.06897C6.1817 2.02427 6.13953 1.97958 6.09608 1.93353C6.01459 1.84726 5.93266 1.7614 5.85026 1.676C5.54355 1.34986 5.38725 1.11543 5.39532 0.663941C5.54173 0.117322 5.86717 -0.0992525 6.4201 -0.0736693Z" fill="#D91374"/>
<path d="M39.6095 7.49982C39.8536 7.64631 39.8536 7.64631 40.0001 7.89045C40.0535 8.16192 40.0714 8.40335 40.0001 8.6717C39.7351 8.97423 39.4811 9.14812 39.1181 9.31715C39.0253 9.36101 38.9324 9.40486 38.8368 9.45005C38.7395 9.495 38.6423 9.53991 38.545 9.58479C38.3534 9.67431 38.1621 9.76429 37.9707 9.85426C37.886 9.8935 37.8014 9.93275 37.7141 9.97318C37.491 10.0766 37.491 10.0766 37.2657 10.2342C37.3354 10.2748 37.4051 10.3154 37.4769 10.3572C37.5693 10.4122 37.6617 10.4672 37.754 10.5223C37.8227 10.5621 37.8227 10.5621 37.8929 10.6027C38.2283 10.8043 38.5336 11.0158 38.6354 11.411C38.6346 11.4609 38.6337 11.5109 38.6329 11.5623C38.6341 11.6373 38.6341 11.6373 38.6354 11.7137C38.5553 12.0247 38.3423 12.2243 38.082 12.4C38.0072 12.4401 37.9324 12.4802 37.8553 12.5215C37.7707 12.5676 37.686 12.6136 37.5988 12.6611C37.5082 12.7094 37.4176 12.7577 37.3243 12.8074C37.1342 12.9105 36.9444 13.0142 36.7546 13.1178C36.7063 13.144 36.6581 13.1703 36.6084 13.1973C35.8803 13.5946 35.1676 14.0188 34.4534 14.4404C34.0936 14.649 33.7714 14.6758 33.3595 14.6092C33.1376 14.4764 33.0979 14.3813 32.9689 14.1405C32.9156 13.9166 32.9 13.7359 32.9689 13.5155C33.2777 13.0422 33.6907 12.8372 34.1847 12.5828C34.3388 12.5012 34.493 12.4196 34.647 12.3378C34.7581 12.2793 34.7581 12.2793 34.8714 12.2196C35.2598 12.0123 35.6382 11.7885 36.0157 11.5623C35.9116 11.4922 35.8075 11.4223 35.7032 11.3524C35.6395 11.3096 35.5757 11.2668 35.5101 11.2227C35.283 11.0742 35.0506 10.9367 34.8149 10.8024C34.6582 10.6799 34.6022 10.5753 34.5314 10.3905C34.5076 10.058 34.4928 9.80715 34.6876 9.53108C34.8681 9.42349 35.0404 9.33317 35.2302 9.24543C35.3443 9.19066 35.4584 9.13583 35.5724 9.08094C35.6323 9.05245 35.6921 9.02397 35.7538 8.99461C35.998 8.87697 36.2394 8.75407 36.4808 8.6309C36.7278 8.50521 36.9759 8.38161 37.224 8.25811C37.3506 8.19473 37.4769 8.13079 37.6029 8.06631C37.7891 7.97121 37.9762 7.87817 38.1636 7.78547C38.2188 7.75667 38.2741 7.72787 38.3311 7.6982C38.7517 7.49377 39.1435 7.43362 39.6095 7.49982Z" fill="#D91374"/>
<path d="M1.17199 7.50021C1.63683 7.6629 2.07254 7.90115 2.50989 8.12521C2.62741 8.18405 2.745 8.24275 2.86267 8.3013C3.09577 8.41757 3.32828 8.53492 3.56038 8.65317C3.79395 8.77199 4.02844 8.8886 4.26396 9.00351C4.32115 9.03156 4.37834 9.0596 4.43726 9.0885C4.54545 9.14147 4.65381 9.19408 4.76237 9.24628C5.07749 9.40124 5.30989 9.526 5.46887 9.84396C5.49891 10.242 5.47747 10.4635 5.23449 10.7815C5.04561 10.9229 4.84463 11.0376 4.63879 11.1526C4.2914 11.3314 4.2914 11.3314 3.98449 11.5627C4.04471 11.5958 4.10493 11.6288 4.16697 11.6629C4.39382 11.7875 4.6205 11.9125 4.84709 12.0376C4.94454 12.0914 5.04204 12.145 5.1396 12.1985C6.76788 13.092 6.76788 13.092 7.03137 13.5158C7.07293 13.8899 7.08802 14.0521 6.88489 14.3703C6.62685 14.6208 6.42663 14.6467 6.06644 14.6417C5.65161 14.5773 5.31147 14.344 4.95617 14.1311C4.8721 14.0823 4.78803 14.0335 4.70141 13.9833C4.52505 13.8807 4.34907 13.7775 4.17347 13.6736C3.90939 13.5176 3.64414 13.3638 3.37842 13.2107C1.6189 12.194 1.6189 12.194 1.40637 11.8752C1.38262 11.5011 1.36897 11.2636 1.56262 10.9377C1.68793 10.8377 1.68793 10.8377 1.83423 10.7534C1.88659 10.7227 1.93896 10.692 1.99292 10.6603C2.0475 10.6294 2.10209 10.5985 2.15832 10.5666C2.21351 10.5345 2.2687 10.5024 2.32556 10.4693C2.46145 10.3903 2.59792 10.3123 2.73449 10.2346C2.53979 10.0399 2.3502 9.96659 2.0982 9.85465C2.00079 9.81068 1.90339 9.76668 1.806 9.72266C1.6529 9.6539 1.4997 9.58542 1.34623 9.51752C1.19776 9.45165 1.04982 9.38467 0.901914 9.31754C0.769008 9.25827 0.769008 9.25827 0.633417 9.19781C0.371811 9.05217 0.196107 8.89747 0.000119828 8.67209C-0.0711609 8.40374 -0.0532847 8.16231 0.000119828 7.89084C0.285021 7.416 0.66744 7.41116 1.17199 7.50021Z" fill="#D91374"/>
<path d="M21.5183 21.5578C21.773 21.7572 21.9977 21.9543 22.0677 22.2802C22.0722 22.6057 22.0598 22.7695 21.8748 23.0471C21.5878 23.2384 21.357 23.3349 21.0154 23.2815C20.8051 23.1742 20.6125 23.0503 20.4148 22.9214C20.1725 22.7757 20.0417 22.7467 19.7654 22.8127C19.605 22.906 19.4518 23.0072 19.2976 23.1103C19.0605 23.2506 18.8671 23.2815 18.5935 23.2815C18.2798 23.1631 18.1557 23.0935 17.9685 22.8127C17.9082 22.5133 17.9069 22.2318 18.0461 21.9558C18.8581 20.9098 20.4833 20.8104 21.5183 21.5578Z" fill="#D91374"/>
<path d="M22.5001 17.7341C22.6981 17.8149 22.8857 17.8977 23.0763 17.9929C23.1247 18.017 23.173 18.0411 23.2229 18.0659C23.4703 18.1956 23.5922 18.2784 23.7501 18.5154C23.7927 18.7549 23.7926 18.979 23.7501 19.2185C23.5797 19.4338 23.4476 19.5651 23.2033 19.6873C22.5879 19.6773 22.0757 19.4822 21.5626 19.1404C21.3677 18.8529 21.3501 18.5406 21.4064 18.2029C21.6904 17.7579 21.9813 17.6379 22.5001 17.7341Z" fill="#D91374"/>
<path d="M18.1252 17.7342C18.3447 17.8744 18.4775 17.9701 18.594 18.203C18.6261 18.8667 18.6261 18.8667 18.4377 19.1405C17.9667 19.4542 17.3791 19.7598 16.7971 19.6873C16.3754 19.469 16.3754 19.469 16.2502 19.2186C16.2018 18.8669 16.1932 18.602 16.3918 18.3006C16.9202 17.9276 17.4681 17.6323 18.1252 17.7342Z" fill="#D91374"/>
<path d="M36.118 26.8456C36.3232 27.0128 36.3952 27.1736 36.4842 27.4217C36.4842 27.7605 36.4419 27.9201 36.24 28.1932C35.9669 28.3951 35.8073 28.4374 35.4685 28.4374C35.2204 28.3484 35.0596 28.2764 34.8924 28.0711C34.819 27.7997 34.7975 27.5419 34.8435 27.2655C35.1624 26.7659 35.5604 26.6949 36.118 26.8456Z" fill="#D91374"/>
</g>
<defs>
<clipPath id="clip0_130_818">
<rect width="40" height="40" fill="white"/>
</clipPath>
</defs>
</svg>
