<svg width="40" height="40" viewBox="0 0 40 40" fill="none" xmlns="http://www.w3.org/2000/svg">
<g clip-path="url(#clip0_130_847)">
<path d="M19.0526 6.82606C19.383 7.04839 19.6619 7.27606 19.9217 7.57801C19.9217 7.62957 19.9217 7.68113 19.9217 7.73426C19.9733 7.73426 20.0248 7.73426 20.078 7.73426C20.0983 7.68813 20.1186 7.64201 20.1396 7.59449C20.5111 6.91628 21.3553 6.56143 22.05 6.31702C23.1705 6.06077 24.3306 6.19171 25.3163 6.78364C25.9539 7.22106 26.4555 7.74122 26.7967 8.43738C26.7967 8.51473 26.7967 8.59207 26.7967 8.67176C26.8734 8.66723 26.95 8.66269 27.0289 8.65803C28.3203 8.60511 29.3687 8.99126 30.3483 9.85737C31.2011 10.7232 31.6627 11.8597 31.6542 13.0667C31.6529 13.1391 31.6516 13.2115 31.6502 13.286C31.6495 13.3611 31.6488 13.4362 31.6481 13.5135C31.6463 13.6965 31.6437 13.8794 31.6405 14.0624C31.6964 14.0824 31.7522 14.1025 31.8098 14.1231C32.8583 14.5259 34.0303 15.2705 34.633 16.2612C34.725 16.5066 34.7186 16.6939 34.6873 16.953C34.5479 17.1852 34.3864 17.3769 34.1405 17.4999C33.8659 17.5438 33.6755 17.554 33.4379 17.397C33.228 17.2144 33.0322 17.0236 32.8459 16.8169C32.0348 15.9325 30.9321 15.5485 29.7675 15.4546C29.4229 15.423 29.1845 15.3646 28.9061 15.1561C28.7056 14.8888 28.7214 14.6213 28.7498 14.2968C28.8467 14.0789 28.9283 13.9496 29.116 13.8036C29.388 13.7228 29.6386 13.7404 29.9217 13.7499C29.9701 12.7539 29.8865 11.9683 29.2232 11.1724C28.609 10.5734 27.8934 10.3559 27.0512 10.3564C26.338 10.3755 25.719 10.6375 25.1955 11.1232C25.07 11.2585 24.9607 11.4014 24.8485 11.5477C24.6767 11.7549 24.5589 11.8391 24.2918 11.8846C23.8936 11.872 23.7317 11.7738 23.452 11.5038C23.3111 11.2369 23.315 11.0808 23.3592 10.7811C23.6943 10.0754 24.3344 9.53005 24.9998 9.14051C25.0514 9.14051 25.103 9.14051 25.1561 9.14051C24.8951 8.57325 24.509 8.28659 23.9409 8.0373C23.3212 7.81456 22.7333 7.87663 22.1367 8.13709C21.522 8.46937 21.1574 8.94823 20.9373 9.60926C20.8588 10.108 20.8476 10.5955 20.8479 11.0998C20.8476 11.1843 20.8473 11.2689 20.8471 11.356C20.8463 11.634 20.8462 11.9121 20.8461 12.1901C20.8458 12.3841 20.8456 12.5781 20.8453 12.7721C20.8448 13.178 20.8447 13.5839 20.8447 13.9898C20.8447 14.5096 20.8437 15.0294 20.8423 15.5492C20.8415 15.9495 20.8413 16.3498 20.8413 16.7501C20.8413 16.9418 20.8409 17.1334 20.8403 17.3251C20.8395 17.593 20.8398 17.8609 20.8402 18.1289C20.8398 18.2077 20.8394 18.2866 20.8389 18.3679C20.8412 18.8905 20.8447 19.3384 21.2059 19.746C21.486 19.9583 21.802 20.0191 22.1416 20.0881C22.3841 20.1698 22.4942 20.2727 22.6561 20.4686C22.756 20.7685 22.7393 20.9199 22.6512 21.2255C22.4671 21.5402 22.3814 21.6186 22.0311 21.7186C21.5782 21.722 21.1987 21.6575 20.7811 21.4843C20.7877 22.5607 20.7951 23.6371 20.8035 24.7136C20.8074 25.2134 20.8111 25.7133 20.814 26.2132C20.8169 26.6959 20.8206 27.1787 20.8247 27.6614C20.8261 27.8453 20.8273 28.0291 20.8282 28.2129C20.8295 28.4711 20.8318 28.7294 20.8343 28.9876C20.8345 29.0629 20.8346 29.1383 20.8348 29.2159C20.8448 30.032 20.9567 30.7579 21.4842 31.4061C22.0331 31.8739 22.6633 32.1484 23.3922 32.0955C24.0198 31.999 24.4538 31.7074 24.9071 31.2743C25.2601 30.7397 25.464 30.1723 25.3905 29.5311C25.3017 29.2005 25.1665 28.9169 24.9852 28.6278C24.8216 28.3175 24.787 28.1579 24.8436 27.8124C24.992 27.5619 25.1041 27.3906 25.3856 27.289C25.6426 27.2437 25.8174 27.2506 26.0643 27.3387C26.675 27.8691 26.9841 28.583 27.1092 29.3749C27.1163 29.5326 27.1194 29.6906 27.119 29.8485C27.1192 29.9284 27.1194 30.0082 27.1196 30.0905C27.1106 30.2824 27.0864 30.4419 27.0311 30.6249C28.2574 30.7574 29.2758 30.6185 30.2727 29.8497C30.9863 29.1765 31.373 28.2507 31.4207 27.2802C31.4161 26.8794 31.3521 26.4544 31.1717 26.0936C31.0963 26.1106 31.0963 26.1106 31.0194 26.1278C29.6237 26.4145 29.6237 26.4145 29.0779 26.1397C28.8841 25.9996 28.8194 25.9307 28.7498 25.703C28.7074 25.1086 28.7074 25.1086 28.9061 24.8436C29.2298 24.6019 29.5305 24.5689 29.9217 24.5409C31.2664 24.4108 32.2931 23.7905 33.203 22.8124C33.4193 22.5857 33.5257 22.5077 33.8475 22.4706C34.2336 22.5092 34.3388 22.6201 34.6092 22.8905C34.7307 23.1334 34.7097 23.3251 34.6873 23.5936C34.2466 24.3451 33.5593 24.9534 32.8123 25.3905C32.8283 25.4453 32.8444 25.5001 32.8609 25.5565C33.2594 26.9599 33.203 28.274 32.578 29.6093C31.8426 30.9253 30.7825 31.8147 29.3358 32.2557C28.5064 32.451 27.7219 32.4354 26.8889 32.3024C26.6308 32.2578 26.6308 32.2578 26.328 32.2655C26.1617 32.4177 26.1617 32.4177 25.9959 32.6171C25.3985 33.2439 24.5079 33.7458 23.6278 33.7685C22.366 33.7945 21.368 33.6165 20.3889 32.751C20.2817 32.6448 20.1791 32.5338 20.078 32.4218C19.84 32.5282 19.6782 32.6507 19.492 32.8319C18.5361 33.6877 17.4315 33.8185 16.2049 33.7651C15.8157 33.7338 15.4976 33.6202 15.1561 33.4374C15.091 33.4052 15.026 33.3729 14.9589 33.3397C14.5589 33.1231 14.2802 32.8759 13.9744 32.5389C13.7866 32.3362 13.7866 32.3362 13.5936 32.1874C13.3226 32.1954 13.3226 32.1954 13.1538 32.2756C12.1473 32.6454 10.8875 32.3869 9.93026 31.9912C8.57601 31.343 7.63574 30.3064 7.10921 28.9061C6.75596 27.731 6.81706 26.5542 7.18734 25.3905C7.13436 25.3545 7.08139 25.3184 7.02681 25.2813C5.51797 24.2238 4.56662 22.8363 4.21859 21.0155C4.18647 20.681 4.1812 20.3504 4.18441 20.0145C4.18511 19.9255 4.18582 19.8364 4.18654 19.7446C4.21712 18.2522 4.76893 16.8842 5.78109 15.7811C5.83295 15.7221 5.88482 15.6631 5.93825 15.6023C6.60308 14.8871 7.43818 14.3788 8.35921 14.0624C8.35798 14.0176 8.35676 13.9728 8.35549 13.9267C8.32002 12.4342 8.46457 11.2534 9.45784 10.0585C10.2021 9.28268 11.2031 8.69289 12.2945 8.65375C12.5979 8.64954 12.8998 8.65775 13.203 8.67176C13.2137 8.58807 13.2137 8.58807 13.2246 8.50269C13.3897 7.85506 13.99 7.24743 14.5311 6.87488C15.9743 6.04249 17.6056 5.95362 19.0526 6.82606ZM15.0984 8.56403C14.9199 8.76564 14.8436 8.86607 14.8436 9.14051C14.9993 9.25924 15.1521 9.36369 15.3172 9.46766C15.8404 9.81245 16.3097 10.1897 16.5623 10.7811C16.5964 11.0939 16.5915 11.2722 16.4451 11.5526C16.1819 11.7764 15.9664 11.818 15.6248 11.7968C15.3286 11.6884 15.1804 11.5015 14.9852 11.2645C14.5197 10.7127 13.8711 10.3563 13.1511 10.2834C12.2244 10.2679 11.457 10.4271 10.7616 11.0921C10.1067 11.8478 9.94077 12.6115 9.99984 13.5936C10.0256 13.6452 10.0514 13.6968 10.078 13.7499C10.2735 13.7972 10.4693 13.8247 10.6682 13.8546C10.8802 13.9118 10.9584 13.9708 11.0936 14.1405C11.2147 14.3827 11.1944 14.5764 11.1717 14.8436C11.0314 15.0587 10.9332 15.1972 10.703 15.3124C10.5662 15.3289 10.4294 15.345 10.2924 15.3588C8.87783 15.5042 7.76893 16.0371 6.8135 17.1096C5.95316 18.1987 5.73513 19.4258 5.85921 20.7811C5.9272 21.1394 6.03072 21.4611 6.17171 21.7968C6.19729 21.8635 6.22287 21.9303 6.24923 21.9991C6.70044 23.0415 7.65646 23.8353 8.67659 24.2821C9.21815 24.4928 9.71397 24.603 10.2928 24.6386C10.6484 24.6659 10.8455 24.727 11.0936 24.9999C11.2334 25.2796 11.2081 25.5907 11.1131 25.8837C10.9894 26.0506 10.8964 26.0951 10.703 26.1718C10.0421 26.2342 9.39696 26.1461 8.74984 26.0155C8.45556 27.0665 8.41185 27.9892 8.95705 28.9843C9.54372 29.8549 10.3112 30.4382 11.328 30.703C11.9121 30.8055 12.3992 30.7862 12.9686 30.6249C12.9659 30.5455 12.9631 30.4662 12.9603 30.3844C12.9343 29.3067 13.0666 28.3773 13.7846 27.5215C13.9992 27.3452 14.2631 27.3342 14.5311 27.3436C14.814 27.4666 14.9055 27.5537 15.078 27.8124C15.1598 28.3037 14.9695 28.6014 14.7194 29.0194C14.4905 29.4334 14.4672 29.8783 14.5726 30.3365C14.81 31.1015 15.2695 31.6385 15.9715 32.0214C16.6386 32.232 17.2167 32.2342 17.8575 31.9381C18.5142 31.5773 18.8953 31.1 19.1405 30.3905C19.2261 29.9299 19.2292 29.4807 19.2275 29.0142C19.2275 28.8918 19.2275 28.8918 19.2275 28.7669C19.2274 28.4984 19.2268 28.23 19.2262 27.9616C19.2261 27.775 19.226 27.5883 19.2259 27.4017C19.2256 26.9115 19.2248 26.4212 19.2239 25.931C19.2231 25.4303 19.2228 24.9297 19.2224 24.4291C19.2216 23.4475 19.2202 22.4659 19.2186 21.4843C19.1606 21.4958 19.1027 21.5074 19.043 21.5193C18.9664 21.534 18.8898 21.5487 18.8109 21.5639C18.7352 21.5787 18.6595 21.5935 18.5815 21.6087C18.1976 21.6636 17.868 21.607 17.4998 21.4843C17.3937 21.1658 17.372 20.8794 17.4217 20.5468C17.6263 20.2365 17.812 20.1417 18.1639 20.0682C18.2548 20.0518 18.2548 20.0518 18.3476 20.035C18.6676 19.9681 18.851 19.8403 19.0428 19.58C19.1943 19.2618 19.2283 18.9604 19.229 18.6109C19.2294 18.538 19.2297 18.465 19.23 18.3899C19.23 18.3109 19.23 18.2318 19.2299 18.1503C19.2302 18.0663 19.2305 17.9823 19.2307 17.8957C19.2315 17.6179 19.2316 17.3401 19.2317 17.0623C19.232 16.8687 19.2322 16.6751 19.2325 16.4816C19.233 16.0756 19.2331 15.6696 19.2331 15.2636C19.2331 14.7448 19.2341 14.226 19.2355 13.7072C19.2363 13.3072 19.2365 12.9072 19.2365 12.5072C19.2365 12.316 19.2369 12.1248 19.2375 11.9336C19.2383 11.6654 19.238 11.3971 19.2376 11.1288C19.238 11.0507 19.2384 10.9726 19.2389 10.8921C19.2351 10.0372 19.1376 9.27818 18.5936 8.59363C17.5607 7.60058 16.1451 7.58794 15.0984 8.56403Z" fill="#D91374"/>
<path d="M39.5313 6.95327C39.8733 7.13648 39.8733 7.13648 40.0001 7.34389C40.0621 7.61614 40.0755 7.85556 40.0001 8.12514C39.6836 8.54554 39.2345 8.71786 38.7647 8.93081C38.65 8.98406 38.65 8.98406 38.5329 9.03838C38.3452 9.12537 38.1572 9.21155 37.9688 9.29702C38.0234 9.33196 38.078 9.36691 38.1342 9.40292C38.2409 9.47376 38.2409 9.47376 38.3497 9.54604C38.4204 9.59227 38.4911 9.63849 38.5639 9.68612C38.771 9.86166 38.8356 9.975 38.9063 10.2345C38.9008 10.542 38.8784 10.7181 38.6857 10.9611C38.3501 11.2787 37.9226 11.4765 37.5196 11.6945C36.7944 12.0888 36.7944 12.0888 36.0853 12.5108C35.9972 12.5655 35.9972 12.5655 35.9073 12.6212C35.8011 12.6878 35.6957 12.7556 35.5913 12.8248C35.2213 13.0548 34.8869 13.1182 34.4532 13.047C34.229 12.9069 34.1023 12.814 33.9844 12.5783C33.9305 12.0386 33.9305 12.0386 34.1245 11.7317C34.4413 11.3758 34.8751 11.1724 35.2882 10.9474C35.3708 10.9011 35.4534 10.8548 35.5386 10.807C36.1482 10.4689 36.1482 10.4689 36.3282 10.4689C36.3282 10.4173 36.3282 10.3658 36.3282 10.3126C36.2734 10.2933 36.2186 10.274 36.1622 10.2541C35.7457 10.073 35.418 9.88159 35.2344 9.45327C35.2026 9.19872 35.2138 9.03631 35.3088 8.79813C35.5455 8.4961 35.8412 8.37739 36.1842 8.2167C36.2544 8.18275 36.3246 8.14881 36.3969 8.11384C36.6209 8.00587 36.8456 7.8995 37.0704 7.79311C37.2217 7.72038 37.373 7.64754 37.5242 7.57461C37.8009 7.44165 38.0776 7.30892 38.355 7.1775C38.4107 7.15109 38.4664 7.12469 38.5237 7.09748C38.8577 6.94857 39.1698 6.89608 39.5313 6.95327Z" fill="#D91374"/>
<path d="M1.09388 6.9532C1.45687 7.08535 1.80195 7.25231 2.14857 7.42195C2.24638 7.46893 2.34424 7.51583 2.44213 7.56265C2.63461 7.65497 2.82672 7.74801 3.01858 7.8416C3.24271 7.9501 3.4678 8.05548 3.69428 8.15895C3.8057 8.21107 3.91709 8.26324 4.02845 8.3155C4.07759 8.33741 4.12674 8.35931 4.17737 8.38188C4.5122 8.54398 4.63965 8.71557 4.76575 9.06257C4.79551 9.28798 4.76727 9.47462 4.68763 9.68757C4.43277 9.94822 4.15046 10.1425 3.82825 10.3126C3.77669 10.3126 3.72513 10.3126 3.672 10.3126C3.672 10.3641 3.672 10.4157 3.672 10.4688C3.7289 10.4908 3.7858 10.5127 3.84443 10.5353C4.19055 10.6777 4.5149 10.8574 4.84388 11.0352C4.91337 11.0716 4.98286 11.1079 5.05445 11.1454C5.46384 11.3672 5.7574 11.5617 6.01575 11.9532C6.08538 12.1923 6.05249 12.3211 6.01575 12.5782C5.87563 12.7977 5.77991 12.9305 5.547 13.0469C4.84229 13.1445 4.36993 12.8237 3.78919 12.4708C3.69197 12.413 3.59468 12.3554 3.49731 12.2979C3.30499 12.1842 3.11316 12.0696 2.92161 11.9546C2.69175 11.818 2.46039 11.6858 2.22639 11.5565C2.16505 11.5222 2.10372 11.4879 2.04053 11.4525C1.93082 11.3913 1.82068 11.3308 1.71003 11.2713C1.37711 11.0813 1.2243 10.9076 1.09388 10.5469C1.09388 10.2088 1.12851 10.0535 1.3429 9.79011C1.56361 9.60864 1.79275 9.45372 2.03138 9.29695C1.97817 9.27255 1.92497 9.24815 1.87015 9.22302C1.62889 9.1118 1.38824 8.99931 1.14759 8.88679C1.06385 8.84842 0.980112 8.81005 0.893836 8.77052C0.813521 8.73275 0.733206 8.69499 0.650458 8.65608C0.576406 8.62171 0.502354 8.58734 0.426058 8.55194C0.222274 8.43027 0.122491 8.32671 0.000128292 8.12507C-0.0652628 7.81332 -0.0858896 7.48592 0.0834413 7.20619C0.384678 6.91972 0.703536 6.88491 1.09388 6.9532Z" fill="#D91374"/>
<path d="M31.6194 -0.0463206C31.9036 0.0274166 32.0257 0.150023 32.1876 0.390386C32.3067 0.732654 32.2565 0.938989 32.1101 1.26529C31.98 1.49794 31.7995 1.66381 31.6066 1.84546C31.335 2.10338 31.087 2.35809 30.8595 2.65601C30.9458 2.67459 30.9458 2.67459 31.0338 2.69355C31.8644 2.89214 31.8644 2.89214 32.1095 3.28101C32.1979 3.53869 32.1882 3.72367 32.1095 3.98414C31.9121 4.30053 31.6825 4.5808 31.4415 4.86476C31.2943 5.04026 31.1539 5.22057 31.0134 5.40154C30.9076 5.53779 30.8009 5.67321 30.6938 5.80848C30.5338 6.01071 30.3752 6.21394 30.2171 6.41761C30.1334 6.52444 30.0497 6.63125 29.966 6.73804C29.9272 6.78838 29.8884 6.83873 29.8485 6.89059C29.5852 7.22435 29.4158 7.39595 28.9943 7.45093C28.6797 7.41319 28.5227 7.31203 28.2814 7.10914C28.1378 6.87818 28.1245 6.74268 28.1312 6.47071C28.2267 6.0745 28.4224 5.85367 28.6867 5.55152C28.7758 5.44674 28.8648 5.34186 28.9537 5.23688C29.0193 5.16001 29.0193 5.16001 29.0863 5.08159C29.2969 4.82756 29.4928 4.56291 29.6876 4.29664C29.6254 4.28989 29.5632 4.28314 29.499 4.27619C28.61 4.1583 28.61 4.1583 28.2814 3.74976C28.2062 3.53638 28.1722 3.34944 28.2033 3.12476C28.3603 2.80971 28.5744 2.57033 28.8136 2.31421C28.8506 2.27451 28.8875 2.23481 28.9256 2.1939C29.006 2.1075 29.0866 2.02124 29.1674 1.93511C29.3037 1.78952 29.4392 1.6433 29.5747 1.49695C29.7617 1.295 29.9499 1.09423 30.139 0.894231C30.2882 0.736187 30.431 0.577329 30.5717 0.411443C30.8926 0.0452576 31.1224 -0.0899065 31.6194 -0.0463206Z" fill="#D91374"/>
<path d="M8.77613 -0.0441861C9.17431 0.0404235 9.3999 0.33188 9.66309 0.625064C9.71832 0.683173 9.77356 0.741281 9.83047 0.801151C10.14 1.12924 10.436 1.46877 10.7315 1.80945C10.8502 1.94286 10.9722 2.07071 11.098 2.19733C11.1347 2.23479 11.1713 2.27226 11.2091 2.31086C11.2828 2.38583 11.3575 2.45988 11.4331 2.53302C11.7422 2.85423 11.7849 3.08543 11.7969 3.51569C11.6721 3.81114 11.5186 3.97114 11.25 4.14069C11.0144 4.19776 11.0144 4.19776 10.7617 4.23346C10.6775 4.24585 10.5933 4.25824 10.5066 4.271C10.4425 4.27956 10.3785 4.28812 10.3125 4.29694C10.3408 4.33153 10.3691 4.36613 10.3983 4.40177C10.5293 4.56203 10.6602 4.72245 10.791 4.88288C10.8355 4.93726 10.88 4.99164 10.9259 5.04767C11.1508 5.32367 11.3734 5.60134 11.5909 5.88324C11.6286 5.93197 11.6663 5.9807 11.7051 6.03091C11.8546 6.26063 11.88 6.44812 11.875 6.71881C11.7776 7.00015 11.6911 7.14661 11.46 7.33405C11.2055 7.44056 11.0549 7.46104 10.7812 7.42194C10.4075 7.20958 10.1607 6.95193 9.90723 6.61139C9.83228 6.51331 9.75731 6.41525 9.68231 6.3172C9.64443 6.2672 9.60655 6.2172 9.56753 6.16568C9.42124 5.97389 9.27176 5.78476 9.12186 5.59579C9.01436 5.45992 8.9079 5.3233 8.80157 5.18653C8.66523 5.01148 8.52586 4.83973 8.38348 4.66956C7.84722 4.00741 7.84722 4.00741 7.82227 3.5987C7.85169 3.36288 7.9013 3.26438 8.03223 3.0567C8.37856 2.82581 8.73692 2.74328 9.14062 2.65631C9.04591 2.5545 9.04591 2.5545 8.94928 2.45063C8.86494 2.35969 8.78061 2.26875 8.69629 2.1778C8.65485 2.13329 8.61341 2.08877 8.57071 2.04291C7.73438 1.13988 7.73438 1.13988 7.73438 0.703189C7.93311 0.106975 8.16456 -0.0575078 8.77613 -0.0441861Z" fill="#D91374"/>
<path d="M36.1184 26.366C36.206 26.415 36.2936 26.464 36.3838 26.5144C36.4316 26.5409 36.4795 26.5675 36.5288 26.5948C36.6294 26.6508 36.7299 26.7072 36.8301 26.764C36.9811 26.8496 37.1328 26.934 37.2847 27.0181C38.7963 27.8603 38.7963 27.8603 39.0626 28.2811C39.1061 28.6167 39.0848 28.7859 38.9259 29.0867C38.759 29.2861 38.6664 29.3506 38.4376 29.453C38.4766 29.4726 38.5156 29.4923 38.5558 29.5125C38.7333 29.6026 38.9102 29.6938 39.087 29.785C39.1484 29.8159 39.2098 29.8468 39.273 29.8787C39.857 30.1819 39.857 30.1819 40.0001 30.4686C40.0517 30.709 40.0474 30.9305 40.0001 31.1717C39.8297 31.387 39.6976 31.5183 39.4532 31.6405C38.948 31.6427 38.5375 31.4977 38.0916 31.2752C38.0324 31.2465 37.9733 31.2179 37.9123 31.1884C37.7885 31.1282 37.665 31.0674 37.5417 31.0062C37.3531 30.9127 37.1637 30.8212 36.974 30.73C36.8533 30.6709 36.7326 30.6118 36.6121 30.5525C36.5557 30.5253 36.4993 30.4981 36.4412 30.4701C36.1539 30.326 35.9404 30.2067 35.7814 29.9217C35.7124 29.5745 35.7369 29.2961 35.9132 28.9891C36.0989 28.8234 36.2478 28.744 36.4845 28.6717C36.3189 28.4932 36.1572 28.3729 35.9449 28.2545C35.8868 28.2214 35.8287 28.1884 35.7689 28.1543C35.6471 28.0859 35.5253 28.0177 35.4033 27.9498C34.8335 27.6244 34.8335 27.6244 34.6876 27.3436C34.6221 26.8354 34.6221 26.8354 34.7673 26.5767C35.1627 26.0809 35.5679 26.119 36.1184 26.366Z" fill="#D91374"/>
<path d="M4.92194 26.2501C5.15322 26.4518 5.28091 26.5767 5.34735 26.8751C5.36196 27.1323 5.33137 27.3127 5.19843 27.533C4.92771 27.8079 4.62253 27.9631 4.28229 28.1397C4.15401 28.2072 4.02593 28.275 3.89807 28.3433C3.8133 28.3874 3.8133 28.3874 3.72681 28.4325C3.58083 28.5078 3.58083 28.5078 3.51569 28.672C3.57369 28.6897 3.6317 28.7074 3.69147 28.7257C3.96339 28.8554 4.0682 28.9567 4.21881 29.2188C4.26679 29.4636 4.28534 29.6806 4.21881 29.922C3.93149 30.2533 3.63832 30.4351 3.25079 30.6214C3.19579 30.6484 3.14079 30.6754 3.08412 30.7033C2.96822 30.7599 2.85213 30.816 2.73585 30.8718C2.5596 30.9567 2.38442 31.0435 2.20923 31.1305C2.09586 31.1855 1.98244 31.2404 1.86896 31.2952C1.81742 31.321 1.76588 31.3467 1.71278 31.3732C1.33932 31.5496 0.963817 31.6568 0.546936 31.6407C0.125249 31.4223 0.125249 31.4223 6.10352e-05 31.172C-0.0185547 31.0166 -0.0185547 31.0166 -0.024353 30.835C-0.0272736 30.7757 -0.0301941 30.7164 -0.0332031 30.6553C0.0151291 30.3844 0.117136 30.2721 0.312561 30.0782C0.519738 29.9486 0.735724 29.8444 0.957092 29.7413C1.0153 29.7132 1.07351 29.6852 1.13348 29.6563C1.2761 29.5877 1.41927 29.5204 1.56256 29.4532C1.48743 29.4046 1.4123 29.3559 1.3349 29.3058C1.01056 29.0837 1.01056 29.0837 0.937561 28.8282C0.892845 28.4833 0.899358 28.335 1.10337 28.0484C1.31662 27.8063 1.54982 27.6607 1.83447 27.5071C1.88235 27.4809 1.93024 27.4548 1.97957 27.4278C2.13143 27.3452 2.28398 27.2639 2.43658 27.1827C2.53739 27.128 2.63815 27.0732 2.73886 27.0184C3.02272 26.8642 3.30799 26.713 3.59381 26.5626C3.67169 26.5213 3.74957 26.48 3.82981 26.4374C3.89856 26.4018 3.96731 26.3661 4.03815 26.3294C4.09676 26.2989 4.15537 26.2685 4.21576 26.237C4.48397 26.1275 4.65465 26.1505 4.92194 26.2501Z" fill="#D91374"/>
<path d="M28.4373 33.9842C28.7991 34.1917 29.0222 34.4159 29.2674 34.7508C29.3342 34.8408 29.4011 34.9308 29.4682 35.0206C29.5032 35.0678 29.5383 35.115 29.5744 35.1636C29.8139 35.4793 30.0664 35.785 30.3174 36.0916C30.8175 36.7093 30.8175 36.7093 30.7761 37.1483C30.7389 37.4219 30.718 37.4844 30.5174 37.6903C30.4158 37.7507 30.4158 37.7507 30.3123 37.8123C30.2349 37.8639 30.1576 37.9155 30.0779 37.9686C30.1147 38.0092 30.1514 38.0498 30.1893 38.0916C30.8337 38.8134 30.8337 38.8134 30.8933 39.2137C30.8501 39.5164 30.7348 39.6838 30.5467 39.9217C30.2673 40.0614 29.9911 40.0555 29.6873 39.9998C29.4359 39.8613 29.2577 39.661 29.0623 39.453C28.9746 39.3621 28.8869 39.2713 28.7992 39.1804C28.517 38.8854 28.2414 38.5848 27.9685 38.2811C27.8735 38.1757 27.8735 38.1757 27.7766 38.0681C27.5511 37.8008 27.4328 37.6379 27.3679 37.2899C27.4337 36.9732 27.5163 36.8025 27.7342 36.5623C28.0271 36.4549 28.0271 36.4549 28.281 36.4061C28.096 36.1174 27.8999 35.8544 27.6804 35.5907C27.4463 35.2906 27.3287 35.08 27.3435 34.6873C27.4409 34.406 27.5274 34.2595 27.7586 34.0721C28.013 33.9656 28.1636 33.9451 28.4373 33.9842Z" fill="#D91374"/>
<path d="M12.2657 34.0623C12.5064 34.2669 12.567 34.415 12.6563 34.7166C12.6563 35.3125 12.2073 35.7304 11.8446 36.1686C11.7108 36.3043 11.7108 36.3043 11.7188 36.406C11.8026 36.4222 11.8864 36.4383 11.9727 36.4549C12.33 36.5859 12.4174 36.6901 12.5782 37.031C12.6368 37.2849 12.6368 37.2849 12.5782 37.5779C12.2781 38.0506 11.8803 38.4446 11.4799 38.8325C11.3263 38.986 11.1856 39.1459 11.045 39.3113C10.4724 39.9652 10.4724 39.9652 10.1408 40.037C9.79573 40.0587 9.65267 40.034 9.37508 39.8142C9.148 39.5162 9.10455 39.3602 9.1407 38.9842C9.34949 38.6067 9.63666 38.29 9.92195 37.9685C9.77768 37.8724 9.63149 37.7789 9.4825 37.6902C9.25361 37.4553 9.21048 37.307 9.19533 36.984C9.24174 36.614 9.45754 36.3765 9.68758 36.0935C9.76703 35.9944 9.84648 35.8952 9.92592 35.796C10.1021 35.5773 10.2798 35.3599 10.4585 35.1432C10.6935 34.8574 10.9179 34.5647 11.1356 34.2655C11.4564 33.9148 11.8348 33.9411 12.2657 34.0623Z" fill="#D91374"/>
<path d="M27.8124 18.203C28.132 18.3719 28.2419 18.4696 28.351 18.8146C28.389 18.9796 28.4254 19.145 28.4603 19.3108C28.5276 19.5793 28.6233 19.7356 28.828 19.9217C29.0609 20.0587 29.2599 20.1021 29.5262 20.1366C29.7973 20.1886 29.9743 20.2362 30.1659 20.4393C30.3582 20.7854 30.3683 20.9366 30.3124 21.328C30.1722 21.5475 30.0765 21.6803 29.8436 21.7967C29.0991 21.8696 28.4461 21.7746 27.8331 21.3289C27.2316 20.8137 26.776 20.2432 26.6924 19.4331C26.6914 19.3478 26.6904 19.2625 26.6893 19.1747C26.6871 19.0892 26.6849 19.0037 26.6826 18.9156C26.7263 18.6196 26.8247 18.4933 27.0311 18.2811C27.285 18.1542 27.538 18.1611 27.8124 18.203Z" fill="#D91374"/>
<path d="M12.8123 18.203C13.0319 18.3431 13.1646 18.4388 13.2811 18.6717C13.349 19.438 13.2789 20.0528 12.8132 20.6767C12.2734 21.3089 11.7145 21.7429 10.8647 21.8165C10.2307 21.8406 10.2307 21.8406 9.90706 21.6502C9.6885 21.394 9.65368 21.2065 9.66231 20.8668C9.69561 20.6488 9.77947 20.4917 9.93025 20.3309C10.1923 20.1593 10.4921 20.1187 10.7951 20.0551C11.0636 19.9878 11.22 19.892 11.4061 19.6873C11.543 19.4544 11.5865 19.2554 11.6209 18.9891C11.673 18.718 11.7205 18.5411 11.9237 18.3494C12.2698 18.1571 12.421 18.147 12.8123 18.203Z" fill="#D91374"/>
<path d="M14.6875 13.7498C14.9414 13.8474 14.9414 13.8474 15.1562 14.0623C15.2331 14.2984 15.2848 14.5338 15.3357 14.7767C15.4028 15.0491 15.4926 15.2046 15.7031 15.3904C15.8818 15.4847 16.0461 15.5372 16.2439 15.5766C16.636 15.6576 16.87 15.7494 17.1094 16.0935C17.1757 16.4086 17.1394 16.6495 17.0117 16.9431C16.8379 17.1543 16.6788 17.2456 16.4084 17.2917C15.7272 17.3044 15.0599 17.0729 14.5312 16.6404C13.9474 16.0759 13.6321 15.4592 13.5742 14.6482C13.6003 14.2825 13.7143 14.102 13.9648 13.8426C14.2224 13.7066 14.4 13.7151 14.6875 13.7498Z" fill="#D91374"/>
<path d="M25.8592 13.7499C26.1302 13.9092 26.3046 14.0705 26.4061 14.3749C26.4694 15.1501 26.1865 15.8134 25.703 16.4062C25.2522 16.8915 24.6345 17.2196 23.9699 17.2814C23.5983 17.2892 23.3429 17.2825 23.0467 17.0312C22.8652 16.7978 22.8511 16.5385 22.863 16.2466C22.8986 16.0485 22.9756 15.9194 23.1279 15.7873C23.4168 15.6285 23.7389 15.56 24.0578 15.4833C24.3485 15.3705 24.4475 15.2645 24.6092 14.9999C24.6787 14.768 24.6787 14.768 24.7166 14.5263C24.7908 14.2023 24.818 14.088 25.0584 13.8476C25.359 13.732 25.5401 13.6987 25.8592 13.7499Z" fill="#D91374"/>
<path d="M25.9471 23.8183C26.1923 24.0962 26.2049 24.3065 26.1968 24.6677C26.1718 24.8437 26.1718 24.8437 26.035 25.0683C25.7207 25.2739 25.4272 25.3314 25.0634 25.4108C24.7968 25.4811 24.6442 25.584 24.453 25.7812C24.0688 26.1655 24.0688 26.1655 23.7255 26.1914C23.4186 26.1706 23.2845 26.1277 23.0468 25.9375C22.8446 25.668 22.8469 25.4049 22.8905 25.0781C23.2551 24.385 23.8916 23.9669 24.6187 23.7262C25.0891 23.6126 25.5232 23.564 25.9471 23.8183Z" fill="#D91374"/>
<path d="M15.8226 23.8965C16.3568 24.14 16.8419 24.5436 17.1092 25.0782C17.1546 25.632 17.1546 25.632 16.9627 25.9327C16.7183 26.1698 16.5319 26.2119 16.1888 26.2101C15.9038 26.1473 15.7415 25.9597 15.536 25.7618C15.2448 25.4882 14.9491 25.3931 14.5652 25.3272C14.3096 25.2745 14.1585 25.2169 13.9793 25.0245C13.8012 24.7199 13.7774 24.566 13.8279 24.2188C14.1996 23.3826 15.1256 23.6146 15.8226 23.8965Z" fill="#D91374"/>
<path d="M35.3906 19.2188C35.6348 19.3652 35.6348 19.3652 35.7813 19.6094C35.8585 20.0021 35.842 20.2895 35.6348 20.6348C35.2895 20.842 35.0021 20.8585 34.6094 20.7813C34.3652 20.6348 34.3652 20.6348 34.2188 20.3906C34.1415 19.998 34.1581 19.7105 34.3652 19.3652C34.7105 19.1581 34.998 19.1415 35.3906 19.2188Z" fill="#D91374"/>
</g>
<defs>
<clipPath id="clip0_130_847">
<rect width="40" height="40" fill="white"/>
</clipPath>
</defs>
</svg>
